ISO-10303-21;
HEADER;
FILE_DESCRIPTION(('FreeCAD Model'),'2;1');
FILE_NAME('Open CASCADE Shape Model','2026-03-02T04:01:54',('Author'),(
    ''),'Open CASCADE STEP processor 7.8','FreeCAD','Unknown');
FILE_SCHEMA(('AUTOMOTIVE_DESIGN { 1 0 10303 214 1 1 1 1 }'));
ENDSEC;
DATA;
#1 = APPLICATION_PROTOCOL_DEFINITION('international standard',
  'automotive_design',2000,#2);
#2 = APPLICATION_CONTEXT(
  'core data for automotive mechanical design processes');
#3 = SHAPE_DEFINITION_REPRESENTATION(#4,#10);
#4 = PRODUCT_DEFINITION_SHAPE('','',#5);
#5 = PRODUCT_DEFINITION('design','',#6,#9);
#6 = PRODUCT_DEFINITION_FORMATION('','',#7);
#7 = PRODUCT('Spacers','Spacers','',(#8));
#8 = PRODUCT_CONTEXT('',#2,'mechanical');
#9 = PRODUCT_DEFINITION_CONTEXT('part definition',#2,'design');
#10 = ADVANCED_BREP_SHAPE_REPRESENTATION('',(#11,#15),#1654);
#11 = AXIS2_PLACEMENT_3D('',#12,#13,#14);
#12 = CARTESIAN_POINT('',(0.,0.,0.));
#13 = DIRECTION('',(0.,0.,1.));
#14 = DIRECTION('',(1.,0.,-0.));
#15 = MANIFOLD_SOLID_BREP('',#16);
#16 = CLOSED_SHELL('',(#17,#74,#107,#133,#158,#174,#280,#294,#345,#393,
    #434,#482,#523,#571,#612,#632,#650,#668,#686,#704,#722,#733,#751,
    #769,#780,#798,#816,#827,#852,#872,#969,#1038,#1070,#1102,#1134,
    #1166,#1207,#1241,#1282,#1316,#1357,#1391,#1432,#1466,#1484,#1502,
    #1520,#1538,#1556,#1567,#1585,#1596,#1614,#1625,#1643));
#17 = ADVANCED_FACE('',(#18),#69,.T.);
#18 = FACE_BOUND('',#19,.T.);
#19 = EDGE_LOOP('',(#20,#30,#39,#47,#55,#63));
#20 = ORIENTED_EDGE('',*,*,#21,.T.);
#21 = EDGE_CURVE('',#22,#24,#26,.T.);
#22 = VERTEX_POINT('',#23);
#23 = CARTESIAN_POINT('',(-34.56794919243,20.65,8.1));
#24 = VERTEX_POINT('',#25);
#25 = CARTESIAN_POINT('',(-34.56794919243,20.65,7.9));
#26 = LINE('',#27,#28);
#27 = CARTESIAN_POINT('',(-34.56794919243,20.65,8.1));
#28 = VECTOR('',#29,1.);
#29 = DIRECTION('',(0.,0.,-1.));
#30 = ORIENTED_EDGE('',*,*,#31,.T.);
#31 = EDGE_CURVE('',#24,#32,#34,.T.);
#32 = VERTEX_POINT('',#33);
#33 = CARTESIAN_POINT('',(-35.383484861,20.65,7.1));
#34 = HYPERBOLA('',#35,0.25,0.25);
#35 = AXIS2_PLACEMENT_3D('',#36,#37,#38);
#36 = CARTESIAN_POINT('',(-36.3,20.65,6.15));
#37 = DIRECTION('',(0.,-1.,0.));
#38 = DIRECTION('',(0.,0.,1.));
#39 = ORIENTED_EDGE('',*,*,#40,.T.);
#40 = EDGE_CURVE('',#32,#41,#43,.T.);
#41 = VERTEX_POINT('',#42);
#42 = CARTESIAN_POINT('',(-36.05,20.65,7.1));
#43 = LINE('',#44,#45);
#44 = CARTESIAN_POINT('',(-34.56794919243,20.65,7.1));
#45 = VECTOR('',#46,1.);
#46 = DIRECTION('',(-1.,0.,0.));
#47 = ORIENTED_EDGE('',*,*,#48,.F.);
#48 = EDGE_CURVE('',#49,#41,#51,.T.);
#49 = VERTEX_POINT('',#50);
#50 = CARTESIAN_POINT('',(-36.05,20.65,8.1));
#51 = LINE('',#52,#53);
#52 = CARTESIAN_POINT('',(-36.05,20.65,8.1));
#53 = VECTOR('',#54,1.);
#54 = DIRECTION('',(0.,0.,-1.));
#55 = ORIENTED_EDGE('',*,*,#56,.F.);
#56 = EDGE_CURVE('',#57,#49,#59,.T.);
#57 = VERTEX_POINT('',#58);
#58 = CARTESIAN_POINT('',(-34.9225022686,20.65,8.1));
#59 = LINE('',#60,#61);
#60 = CARTESIAN_POINT('',(-34.56794919243,20.65,8.1));
#61 = VECTOR('',#62,1.);
#62 = DIRECTION('',(-1.,0.,0.));
#63 = ORIENTED_EDGE('',*,*,#64,.F.);
#64 = EDGE_CURVE('',#22,#57,#65,.T.);
#65 = LINE('',#66,#67);
#66 = CARTESIAN_POINT('',(-34.56794919243,20.65,8.1));
#67 = VECTOR('',#68,1.);
#68 = DIRECTION('',(-1.,0.,0.));
#69 = PLANE('',#70);
#70 = AXIS2_PLACEMENT_3D('',#71,#72,#73);
#71 = CARTESIAN_POINT('',(-34.56794919243,20.65,8.1));
#72 = DIRECTION('',(0.,1.,0.));
#73 = DIRECTION('',(-1.,0.,0.));
#74 = ADVANCED_FACE('',(#75),#102,.T.);
#75 = FACE_BOUND('',#76,.F.);
#76 = EDGE_LOOP('',(#77,#78,#87,#95));
#77 = ORIENTED_EDGE('',*,*,#21,.T.);
#78 = ORIENTED_EDGE('',*,*,#79,.T.);
#79 = EDGE_CURVE('',#24,#80,#82,.T.);
#80 = VERTEX_POINT('',#81);
#81 = CARTESIAN_POINT('',(-36.05,19.167949192431,7.9));
#82 = CIRCLE('',#83,1.75);
#83 = AXIS2_PLACEMENT_3D('',#84,#85,#86);
#84 = CARTESIAN_POINT('',(-36.3,20.9,7.9));
#85 = DIRECTION('',(0.,-0.,-1.));
#86 = DIRECTION('',(0.989743318611,-0.142857142857,0.));
#87 = ORIENTED_EDGE('',*,*,#88,.F.);
#88 = EDGE_CURVE('',#89,#80,#91,.T.);
#89 = VERTEX_POINT('',#90);
#90 = CARTESIAN_POINT('',(-36.05,19.167949192431,8.1));
#91 = LINE('',#92,#93);
#92 = CARTESIAN_POINT('',(-36.05,19.167949192431,8.1));
#93 = VECTOR('',#94,1.);
#94 = DIRECTION('',(0.,0.,-1.));
#95 = ORIENTED_EDGE('',*,*,#96,.F.);
#96 = EDGE_CURVE('',#22,#89,#97,.T.);
#97 = CIRCLE('',#98,1.75);
#98 = AXIS2_PLACEMENT_3D('',#99,#100,#101);
#99 = CARTESIAN_POINT('',(-36.3,20.9,8.1));
#100 = DIRECTION('',(0.,0.,-1.));
#101 = DIRECTION('',(1.,0.,0.));
#102 = CYLINDRICAL_SURFACE('',#103,1.75);
#103 = AXIS2_PLACEMENT_3D('',#104,#105,#106);
#104 = CARTESIAN_POINT('',(-36.3,20.9,8.1));
#105 = DIRECTION('',(0.,0.,1.));
#106 = DIRECTION('',(1.,0.,0.));
#107 = ADVANCED_FACE('',(#108),#128,.T.);
#108 = FACE_BOUND('',#109,.T.);
#109 = EDGE_LOOP('',(#110,#111,#112,#121));
#110 = ORIENTED_EDGE('',*,*,#31,.F.);
#111 = ORIENTED_EDGE('',*,*,#79,.T.);
#112 = ORIENTED_EDGE('',*,*,#113,.T.);
#113 = EDGE_CURVE('',#80,#114,#116,.T.);
#114 = VERTEX_POINT('',#115);
#115 = CARTESIAN_POINT('',(-36.05,19.983484861009,7.1));
#116 = HYPERBOLA('',#117,0.25,0.25);
#117 = AXIS2_PLACEMENT_3D('',#118,#119,#120);
#118 = CARTESIAN_POINT('',(-36.05,20.9,6.15));
#119 = DIRECTION('',(-1.,-7.E-17,0.));
#120 = DIRECTION('',(0.,0.,1.));
#121 = ORIENTED_EDGE('',*,*,#122,.F.);
#122 = EDGE_CURVE('',#32,#114,#123,.T.);
#123 = CIRCLE('',#124,0.95);
#124 = AXIS2_PLACEMENT_3D('',#125,#126,#127);
#125 = CARTESIAN_POINT('',(-36.3,20.9,7.1));
#126 = DIRECTION('',(0.,-0.,-1.));
#127 = DIRECTION('',(0.989743318611,-0.142857142857,0.));
#128 = CONICAL_SURFACE('',#129,1.75,0.785398163397);
#129 = AXIS2_PLACEMENT_3D('',#130,#131,#132);
#130 = CARTESIAN_POINT('',(-36.3,20.9,7.9));
#131 = DIRECTION('',(0.,0.,1.));
#132 = DIRECTION('',(0.989743318611,-0.142857142857,0.));
#133 = ADVANCED_FACE('',(#134),#153,.T.);
#134 = FACE_BOUND('',#135,.T.);
#135 = EDGE_LOOP('',(#136,#137,#138,#147));
#136 = ORIENTED_EDGE('',*,*,#96,.F.);
#137 = ORIENTED_EDGE('',*,*,#64,.T.);
#138 = ORIENTED_EDGE('',*,*,#139,.T.);
#139 = EDGE_CURVE('',#57,#140,#142,.T.);
#140 = VERTEX_POINT('',#141);
#141 = CARTESIAN_POINT('',(-36.05,19.522502268604,8.1));
#142 = CIRCLE('',#143,1.4);
#143 = AXIS2_PLACEMENT_3D('',#144,#145,#146);
#144 = CARTESIAN_POINT('',(-36.3,20.9,8.1));
#145 = DIRECTION('',(0.,0.,-1.));
#146 = DIRECTION('',(1.,0.,0.));
#147 = ORIENTED_EDGE('',*,*,#148,.F.);
#148 = EDGE_CURVE('',#89,#140,#149,.T.);
#149 = LINE('',#150,#151);
#150 = CARTESIAN_POINT('',(-36.05,19.167949192431,8.1));
#151 = VECTOR('',#152,1.);
#152 = DIRECTION('',(-7.E-17,1.,-0.));
#153 = PLANE('',#154);
#154 = AXIS2_PLACEMENT_3D('',#155,#156,#157);
#155 = CARTESIAN_POINT('',(-36.3,20.9,8.1));
#156 = DIRECTION('',(0.,0.,1.));
#157 = DIRECTION('',(1.,0.,0.));
#158 = ADVANCED_FACE('',(#159),#169,.F.);
#159 = FACE_BOUND('',#160,.F.);
#160 = EDGE_LOOP('',(#161,#167,#168));
#161 = ORIENTED_EDGE('',*,*,#162,.F.);
#162 = EDGE_CURVE('',#114,#41,#163,.T.);
#163 = LINE('',#164,#165);
#164 = CARTESIAN_POINT('',(-36.05,19.167949192431,7.1));
#165 = VECTOR('',#166,1.);
#166 = DIRECTION('',(-7.E-17,1.,-0.));
#167 = ORIENTED_EDGE('',*,*,#122,.F.);
#168 = ORIENTED_EDGE('',*,*,#40,.T.);
#169 = PLANE('',#170);
#170 = AXIS2_PLACEMENT_3D('',#171,#172,#173);
#171 = CARTESIAN_POINT('',(-36.3,20.9,7.1));
#172 = DIRECTION('',(0.,0.,1.));
#173 = DIRECTION('',(1.,0.,0.));
#174 = ADVANCED_FACE('',(#175),#275,.F.);
#175 = FACE_BOUND('',#176,.F.);
#176 = EDGE_LOOP('',(#177,#186,#195,#203,#211,#220,#228,#236,#245,#253,
    #261,#268,#274));
#177 = ORIENTED_EDGE('',*,*,#178,.F.);
#178 = EDGE_CURVE('',#179,#57,#181,.T.);
#179 = VERTEX_POINT('',#180);
#180 = CARTESIAN_POINT('',(-34.9,20.9,8.1));
#181 = CIRCLE('',#182,1.4);
#182 = AXIS2_PLACEMENT_3D('',#183,#184,#185);
#183 = CARTESIAN_POINT('',(-36.3,20.9,8.1));
#184 = DIRECTION('',(0.,0.,-1.));
#185 = DIRECTION('',(1.,0.,0.));
#186 = ORIENTED_EDGE('',*,*,#187,.F.);
#187 = EDGE_CURVE('',#188,#179,#190,.T.);
#188 = VERTEX_POINT('',#189);
#189 = CARTESIAN_POINT('',(-34.9225022686,21.15,8.1));
#190 = CIRCLE('',#191,1.4);
#191 = AXIS2_PLACEMENT_3D('',#192,#193,#194);
#192 = CARTESIAN_POINT('',(-36.3,20.9,8.1));
#193 = DIRECTION('',(0.,0.,-1.));
#194 = DIRECTION('',(1.,0.,0.));
#195 = ORIENTED_EDGE('',*,*,#196,.F.);
#196 = EDGE_CURVE('',#197,#188,#199,.T.);
#197 = VERTEX_POINT('',#198);
#198 = CARTESIAN_POINT('',(-36.05,21.15,8.1));
#199 = LINE('',#200,#201);
#200 = CARTESIAN_POINT('',(-36.05,21.15,8.1));
#201 = VECTOR('',#202,1.);
#202 = DIRECTION('',(1.,0.,0.));
#203 = ORIENTED_EDGE('',*,*,#204,.F.);
#204 = EDGE_CURVE('',#205,#197,#207,.T.);
#205 = VERTEX_POINT('',#206);
#206 = CARTESIAN_POINT('',(-36.05,22.277497731396,8.1));
#207 = LINE('',#208,#209);
#208 = CARTESIAN_POINT('',(-36.05,22.632050807569,8.1));
#209 = VECTOR('',#210,1.);
#210 = DIRECTION('',(1.096E-14,-1.,0.));
#211 = ORIENTED_EDGE('',*,*,#212,.F.);
#212 = EDGE_CURVE('',#213,#205,#215,.T.);
#213 = VERTEX_POINT('',#214);
#214 = CARTESIAN_POINT('',(-36.55,22.277497731396,8.1));
#215 = CIRCLE('',#216,1.4);
#216 = AXIS2_PLACEMENT_3D('',#217,#218,#219);
#217 = CARTESIAN_POINT('',(-36.3,20.9,8.1));
#218 = DIRECTION('',(0.,0.,-1.));
#219 = DIRECTION('',(1.,0.,0.));
#220 = ORIENTED_EDGE('',*,*,#221,.F.);
#221 = EDGE_CURVE('',#222,#213,#224,.T.);
#222 = VERTEX_POINT('',#223);
#223 = CARTESIAN_POINT('',(-36.55,21.15,8.1));
#224 = LINE('',#225,#226);
#225 = CARTESIAN_POINT('',(-36.55,21.15,8.1));
#226 = VECTOR('',#227,1.);
#227 = DIRECTION('',(3.4E-16,1.,0.));
#228 = ORIENTED_EDGE('',*,*,#229,.F.);
#229 = EDGE_CURVE('',#230,#222,#232,.T.);
#230 = VERTEX_POINT('',#231);
#231 = CARTESIAN_POINT('',(-37.67749773139,21.15,8.1));
#232 = LINE('',#233,#234);
#233 = CARTESIAN_POINT('',(-38.03205080756,21.15,8.1));
#234 = VECTOR('',#235,1.);
#235 = DIRECTION('',(1.,0.,0.));
#236 = ORIENTED_EDGE('',*,*,#237,.F.);
#237 = EDGE_CURVE('',#238,#230,#240,.T.);
#238 = VERTEX_POINT('',#239);
#239 = CARTESIAN_POINT('',(-37.67749773139,20.65,8.1));
#240 = CIRCLE('',#241,1.4);
#241 = AXIS2_PLACEMENT_3D('',#242,#243,#244);
#242 = CARTESIAN_POINT('',(-36.3,20.9,8.1));
#243 = DIRECTION('',(0.,0.,-1.));
#244 = DIRECTION('',(1.,0.,0.));
#245 = ORIENTED_EDGE('',*,*,#246,.T.);
#246 = EDGE_CURVE('',#238,#247,#249,.T.);
#247 = VERTEX_POINT('',#248);
#248 = CARTESIAN_POINT('',(-36.55,20.65,8.1));
#249 = LINE('',#250,#251);
#250 = CARTESIAN_POINT('',(-38.03205080756,20.65,8.1));
#251 = VECTOR('',#252,1.);
#252 = DIRECTION('',(1.,1.1E-16,0.));
#253 = ORIENTED_EDGE('',*,*,#254,.F.);
#254 = EDGE_CURVE('',#255,#247,#257,.T.);
#255 = VERTEX_POINT('',#256);
#256 = CARTESIAN_POINT('',(-36.55,19.522502268604,8.1));
#257 = LINE('',#258,#259);
#258 = CARTESIAN_POINT('',(-36.55,19.167949192431,8.1));
#259 = VECTOR('',#260,1.);
#260 = DIRECTION('',(0.,1.,0.));
#261 = ORIENTED_EDGE('',*,*,#262,.F.);
#262 = EDGE_CURVE('',#140,#255,#263,.T.);
#263 = CIRCLE('',#264,1.4);
#264 = AXIS2_PLACEMENT_3D('',#265,#266,#267);
#265 = CARTESIAN_POINT('',(-36.3,20.9,8.1));
#266 = DIRECTION('',(0.,0.,-1.));
#267 = DIRECTION('',(1.,0.,0.));
#268 = ORIENTED_EDGE('',*,*,#269,.T.);
#269 = EDGE_CURVE('',#140,#49,#270,.T.);
#270 = LINE('',#271,#272);
#271 = CARTESIAN_POINT('',(-36.05,19.167949192431,8.1));
#272 = VECTOR('',#273,1.);
#273 = DIRECTION('',(-7.E-17,1.,-0.));
#274 = ORIENTED_EDGE('',*,*,#56,.F.);
#275 = PLANE('',#276);
#276 = AXIS2_PLACEMENT_3D('',#277,#278,#279);
#277 = CARTESIAN_POINT('',(-36.3,20.9,8.1));
#278 = DIRECTION('',(0.,0.,1.));
#279 = DIRECTION('',(1.,0.,0.));
#280 = ADVANCED_FACE('',(#281),#289,.F.);
#281 = FACE_BOUND('',#282,.F.);
#282 = EDGE_LOOP('',(#283,#284,#285,#286,#287,#288));
#283 = ORIENTED_EDGE('',*,*,#88,.T.);
#284 = ORIENTED_EDGE('',*,*,#113,.T.);
#285 = ORIENTED_EDGE('',*,*,#162,.T.);
#286 = ORIENTED_EDGE('',*,*,#48,.F.);
#287 = ORIENTED_EDGE('',*,*,#269,.F.);
#288 = ORIENTED_EDGE('',*,*,#148,.F.);
#289 = PLANE('',#290);
#290 = AXIS2_PLACEMENT_3D('',#291,#292,#293);
#291 = CARTESIAN_POINT('',(-36.05,19.167949192431,8.1));
#292 = DIRECTION('',(1.,7.E-17,0.));
#293 = DIRECTION('',(-7.E-17,1.,0.));
#294 = ADVANCED_FACE('',(#295),#340,.T.);
#295 = FACE_BOUND('',#296,.F.);
#296 = EDGE_LOOP('',(#297,#306,#312,#313,#314,#315,#322,#323,#330,#331,
    #338,#339));
#297 = ORIENTED_EDGE('',*,*,#298,.F.);
#298 = EDGE_CURVE('',#299,#299,#301,.T.);
#299 = VERTEX_POINT('',#300);
#300 = CARTESIAN_POINT('',(-34.9,20.9,10.1));
#301 = CIRCLE('',#302,1.4);
#302 = AXIS2_PLACEMENT_3D('',#303,#304,#305);
#303 = CARTESIAN_POINT('',(-36.3,20.9,10.1));
#304 = DIRECTION('',(0.,0.,-1.));
#305 = DIRECTION('',(1.,0.,0.));
#306 = ORIENTED_EDGE('',*,*,#307,.T.);
#307 = EDGE_CURVE('',#299,#179,#308,.T.);
#308 = LINE('',#309,#310);
#309 = CARTESIAN_POINT('',(-34.9,20.9,10.1));
#310 = VECTOR('',#311,1.);
#311 = DIRECTION('',(0.,0.,-1.));
#312 = ORIENTED_EDGE('',*,*,#178,.T.);
#313 = ORIENTED_EDGE('',*,*,#139,.T.);
#314 = ORIENTED_EDGE('',*,*,#262,.T.);
#315 = ORIENTED_EDGE('',*,*,#316,.T.);
#316 = EDGE_CURVE('',#255,#238,#317,.T.);
#317 = CIRCLE('',#318,1.4);
#318 = AXIS2_PLACEMENT_3D('',#319,#320,#321);
#319 = CARTESIAN_POINT('',(-36.3,20.9,8.1));
#320 = DIRECTION('',(0.,0.,-1.));
#321 = DIRECTION('',(1.,0.,0.));
#322 = ORIENTED_EDGE('',*,*,#237,.T.);
#323 = ORIENTED_EDGE('',*,*,#324,.T.);
#324 = EDGE_CURVE('',#230,#213,#325,.T.);
#325 = CIRCLE('',#326,1.4);
#326 = AXIS2_PLACEMENT_3D('',#327,#328,#329);
#327 = CARTESIAN_POINT('',(-36.3,20.9,8.1));
#328 = DIRECTION('',(0.,0.,-1.));
#329 = DIRECTION('',(1.,0.,0.));
#330 = ORIENTED_EDGE('',*,*,#212,.T.);
#331 = ORIENTED_EDGE('',*,*,#332,.T.);
#332 = EDGE_CURVE('',#205,#188,#333,.T.);
#333 = CIRCLE('',#334,1.4);
#334 = AXIS2_PLACEMENT_3D('',#335,#336,#337);
#335 = CARTESIAN_POINT('',(-36.3,20.9,8.1));
#336 = DIRECTION('',(0.,0.,-1.));
#337 = DIRECTION('',(1.,0.,0.));
#338 = ORIENTED_EDGE('',*,*,#187,.T.);
#339 = ORIENTED_EDGE('',*,*,#307,.F.);
#340 = CYLINDRICAL_SURFACE('',#341,1.4);
#341 = AXIS2_PLACEMENT_3D('',#342,#343,#344);
#342 = CARTESIAN_POINT('',(-36.3,20.9,10.1));
#343 = DIRECTION('',(0.,0.,1.));
#344 = DIRECTION('',(1.,0.,0.));
#345 = ADVANCED_FACE('',(#346),#388,.T.);
#346 = FACE_BOUND('',#347,.T.);
#347 = EDGE_LOOP('',(#348,#358,#367,#375,#381,#382));
#348 = ORIENTED_EDGE('',*,*,#349,.T.);
#349 = EDGE_CURVE('',#350,#352,#354,.T.);
#350 = VERTEX_POINT('',#351);
#351 = CARTESIAN_POINT('',(-36.55,19.167949192431,8.1));
#352 = VERTEX_POINT('',#353);
#353 = CARTESIAN_POINT('',(-36.55,19.167949192431,7.9));
#354 = LINE('',#355,#356);
#355 = CARTESIAN_POINT('',(-36.55,19.167949192431,8.1));
#356 = VECTOR('',#357,1.);
#357 = DIRECTION('',(0.,0.,-1.));
#358 = ORIENTED_EDGE('',*,*,#359,.T.);
#359 = EDGE_CURVE('',#352,#360,#362,.T.);
#360 = VERTEX_POINT('',#361);
#361 = CARTESIAN_POINT('',(-36.55,19.983484861009,7.1));
#362 = HYPERBOLA('',#363,0.25,0.25);
#363 = AXIS2_PLACEMENT_3D('',#364,#365,#366);
#364 = CARTESIAN_POINT('',(-36.55,20.9,6.15));
#365 = DIRECTION('',(-1.,0.,0.));
#366 = DIRECTION('',(0.,0.,1.));
#367 = ORIENTED_EDGE('',*,*,#368,.T.);
#368 = EDGE_CURVE('',#360,#369,#371,.T.);
#369 = VERTEX_POINT('',#370);
#370 = CARTESIAN_POINT('',(-36.55,20.65,7.1));
#371 = LINE('',#372,#373);
#372 = CARTESIAN_POINT('',(-36.55,19.167949192431,7.1));
#373 = VECTOR('',#374,1.);
#374 = DIRECTION('',(0.,1.,0.));
#375 = ORIENTED_EDGE('',*,*,#376,.F.);
#376 = EDGE_CURVE('',#247,#369,#377,.T.);
#377 = LINE('',#378,#379);
#378 = CARTESIAN_POINT('',(-36.55,20.65,8.1));
#379 = VECTOR('',#380,1.);
#380 = DIRECTION('',(0.,0.,-1.));
#381 = ORIENTED_EDGE('',*,*,#254,.F.);
#382 = ORIENTED_EDGE('',*,*,#383,.F.);
#383 = EDGE_CURVE('',#350,#255,#384,.T.);
#384 = LINE('',#385,#386);
#385 = CARTESIAN_POINT('',(-36.55,19.167949192431,8.1));
#386 = VECTOR('',#387,1.);
#387 = DIRECTION('',(0.,1.,0.));
#388 = PLANE('',#389);
#389 = AXIS2_PLACEMENT_3D('',#390,#391,#392);
#390 = CARTESIAN_POINT('',(-36.55,19.167949192431,8.1));
#391 = DIRECTION('',(1.,0.,0.));
#392 = DIRECTION('',(0.,1.,0.));
#393 = ADVANCED_FACE('',(#394),#429,.F.);
#394 = FACE_BOUND('',#395,.F.);
#395 = EDGE_LOOP('',(#396,#406,#415,#421,#422,#423));
#396 = ORIENTED_EDGE('',*,*,#397,.T.);
#397 = EDGE_CURVE('',#398,#400,#402,.T.);
#398 = VERTEX_POINT('',#399);
#399 = CARTESIAN_POINT('',(-38.03205080756,20.65,8.1));
#400 = VERTEX_POINT('',#401);
#401 = CARTESIAN_POINT('',(-38.03205080756,20.65,7.9));
#402 = LINE('',#403,#404);
#403 = CARTESIAN_POINT('',(-38.03205080756,20.65,8.1));
#404 = VECTOR('',#405,1.);
#405 = DIRECTION('',(0.,0.,-1.));
#406 = ORIENTED_EDGE('',*,*,#407,.T.);
#407 = EDGE_CURVE('',#400,#408,#410,.T.);
#408 = VERTEX_POINT('',#409);
#409 = CARTESIAN_POINT('',(-37.21651513899,20.65,7.1));
#410 = HYPERBOLA('',#411,0.25,0.25);
#411 = AXIS2_PLACEMENT_3D('',#412,#413,#414);
#412 = CARTESIAN_POINT('',(-36.3,20.65,6.15));
#413 = DIRECTION('',(-1.1E-16,1.,0.));
#414 = DIRECTION('',(0.,0.,1.));
#415 = ORIENTED_EDGE('',*,*,#416,.T.);
#416 = EDGE_CURVE('',#408,#369,#417,.T.);
#417 = LINE('',#418,#419);
#418 = CARTESIAN_POINT('',(-38.03205080756,20.65,7.1));
#419 = VECTOR('',#420,1.);
#420 = DIRECTION('',(1.,1.1E-16,0.));
#421 = ORIENTED_EDGE('',*,*,#376,.F.);
#422 = ORIENTED_EDGE('',*,*,#246,.F.);
#423 = ORIENTED_EDGE('',*,*,#424,.F.);
#424 = EDGE_CURVE('',#398,#238,#425,.T.);
#425 = LINE('',#426,#427);
#426 = CARTESIAN_POINT('',(-38.03205080756,20.65,8.1));
#427 = VECTOR('',#428,1.);
#428 = DIRECTION('',(1.,1.1E-16,0.));
#429 = PLANE('',#430);
#430 = AXIS2_PLACEMENT_3D('',#431,#432,#433);
#431 = CARTESIAN_POINT('',(-38.03205080756,20.65,8.1));
#432 = DIRECTION('',(1.1E-16,-1.,0.));
#433 = DIRECTION('',(1.,1.1E-16,0.));
#434 = ADVANCED_FACE('',(#435),#477,.T.);
#435 = FACE_BOUND('',#436,.T.);
#436 = EDGE_LOOP('',(#437,#447,#456,#464,#470,#471));
#437 = ORIENTED_EDGE('',*,*,#438,.T.);
#438 = EDGE_CURVE('',#439,#441,#443,.T.);
#439 = VERTEX_POINT('',#440);
#440 = CARTESIAN_POINT('',(-38.03205080756,21.15,8.1));
#441 = VERTEX_POINT('',#442);
#442 = CARTESIAN_POINT('',(-38.03205080756,21.15,7.9));
#443 = LINE('',#444,#445);
#444 = CARTESIAN_POINT('',(-38.03205080756,21.15,8.1));
#445 = VECTOR('',#446,1.);
#446 = DIRECTION('',(0.,0.,-1.));
#447 = ORIENTED_EDGE('',*,*,#448,.T.);
#448 = EDGE_CURVE('',#441,#449,#451,.T.);
#449 = VERTEX_POINT('',#450);
#450 = CARTESIAN_POINT('',(-37.21651513899,21.15,7.1));
#451 = HYPERBOLA('',#452,0.25,0.25);
#452 = AXIS2_PLACEMENT_3D('',#453,#454,#455);
#453 = CARTESIAN_POINT('',(-36.3,21.15,6.15));
#454 = DIRECTION('',(0.,1.,0.));
#455 = DIRECTION('',(0.,0.,1.));
#456 = ORIENTED_EDGE('',*,*,#457,.T.);
#457 = EDGE_CURVE('',#449,#458,#460,.T.);
#458 = VERTEX_POINT('',#459);
#459 = CARTESIAN_POINT('',(-36.55,21.15,7.1));
#460 = LINE('',#461,#462);
#461 = CARTESIAN_POINT('',(-38.03205080756,21.15,7.1));
#462 = VECTOR('',#463,1.);
#463 = DIRECTION('',(1.,0.,0.));
#464 = ORIENTED_EDGE('',*,*,#465,.F.);
#465 = EDGE_CURVE('',#222,#458,#466,.T.);
#466 = LINE('',#467,#468);
#467 = CARTESIAN_POINT('',(-36.55,21.15,8.1));
#468 = VECTOR('',#469,1.);
#469 = DIRECTION('',(0.,0.,-1.));
#470 = ORIENTED_EDGE('',*,*,#229,.F.);
#471 = ORIENTED_EDGE('',*,*,#472,.F.);
#472 = EDGE_CURVE('',#439,#230,#473,.T.);
#473 = LINE('',#474,#475);
#474 = CARTESIAN_POINT('',(-38.03205080756,21.15,8.1));
#475 = VECTOR('',#476,1.);
#476 = DIRECTION('',(1.,0.,0.));
#477 = PLANE('',#478);
#478 = AXIS2_PLACEMENT_3D('',#479,#480,#481);
#479 = CARTESIAN_POINT('',(-38.03205080756,21.15,8.1));
#480 = DIRECTION('',(0.,-1.,0.));
#481 = DIRECTION('',(1.,0.,0.));
#482 = ADVANCED_FACE('',(#483),#518,.T.);
#483 = FACE_BOUND('',#484,.T.);
#484 = EDGE_LOOP('',(#485,#495,#501,#502,#503,#511));
#485 = ORIENTED_EDGE('',*,*,#486,.F.);
#486 = EDGE_CURVE('',#487,#489,#491,.T.);
#487 = VERTEX_POINT('',#488);
#488 = CARTESIAN_POINT('',(-36.55,22.632050807569,8.1));
#489 = VERTEX_POINT('',#490);
#490 = CARTESIAN_POINT('',(-36.55,22.632050807569,7.9));
#491 = LINE('',#492,#493);
#492 = CARTESIAN_POINT('',(-36.55,22.632050807569,8.1));
#493 = VECTOR('',#494,1.);
#494 = DIRECTION('',(0.,0.,-1.));
#495 = ORIENTED_EDGE('',*,*,#496,.F.);
#496 = EDGE_CURVE('',#213,#487,#497,.T.);
#497 = LINE('',#498,#499);
#498 = CARTESIAN_POINT('',(-36.55,21.15,8.1));
#499 = VECTOR('',#500,1.);
#500 = DIRECTION('',(3.4E-16,1.,0.));
#501 = ORIENTED_EDGE('',*,*,#221,.F.);
#502 = ORIENTED_EDGE('',*,*,#465,.T.);
#503 = ORIENTED_EDGE('',*,*,#504,.T.);
#504 = EDGE_CURVE('',#458,#505,#507,.T.);
#505 = VERTEX_POINT('',#506);
#506 = CARTESIAN_POINT('',(-36.55,21.816515138991,7.1));
#507 = LINE('',#508,#509);
#508 = CARTESIAN_POINT('',(-36.55,21.15,7.1));
#509 = VECTOR('',#510,1.);
#510 = DIRECTION('',(3.4E-16,1.,0.));
#511 = ORIENTED_EDGE('',*,*,#512,.F.);
#512 = EDGE_CURVE('',#489,#505,#513,.T.);
#513 = HYPERBOLA('',#514,0.25,0.25);
#514 = AXIS2_PLACEMENT_3D('',#515,#516,#517);
#515 = CARTESIAN_POINT('',(-36.55,20.9,6.15));
#516 = DIRECTION('',(1.,-3.4E-16,0.));
#517 = DIRECTION('',(0.,0.,1.));
#518 = PLANE('',#519);
#519 = AXIS2_PLACEMENT_3D('',#520,#521,#522);
#520 = CARTESIAN_POINT('',(-36.55,21.15,8.1));
#521 = DIRECTION('',(1.,-3.4E-16,0.));
#522 = DIRECTION('',(3.4E-16,1.,0.));
#523 = ADVANCED_FACE('',(#524),#566,.T.);
#524 = FACE_BOUND('',#525,.T.);
#525 = EDGE_LOOP('',(#526,#536,#545,#553,#559,#560));
#526 = ORIENTED_EDGE('',*,*,#527,.T.);
#527 = EDGE_CURVE('',#528,#530,#532,.T.);
#528 = VERTEX_POINT('',#529);
#529 = CARTESIAN_POINT('',(-36.05,22.632050807569,8.1));
#530 = VERTEX_POINT('',#531);
#531 = CARTESIAN_POINT('',(-36.05,22.632050807569,7.9));
#532 = LINE('',#533,#534);
#533 = CARTESIAN_POINT('',(-36.05,22.632050807569,8.1));
#534 = VECTOR('',#535,1.);
#535 = DIRECTION('',(0.,0.,-1.));
#536 = ORIENTED_EDGE('',*,*,#537,.T.);
#537 = EDGE_CURVE('',#530,#538,#540,.T.);
#538 = VERTEX_POINT('',#539);
#539 = CARTESIAN_POINT('',(-36.05,21.816515138991,7.1));
#540 = HYPERBOLA('',#541,0.25,0.25);
#541 = AXIS2_PLACEMENT_3D('',#542,#543,#544);
#542 = CARTESIAN_POINT('',(-36.05,20.9,6.15));
#543 = DIRECTION('',(1.,1.096E-14,-0.));
#544 = DIRECTION('',(0.,0.,1.));
#545 = ORIENTED_EDGE('',*,*,#546,.T.);
#546 = EDGE_CURVE('',#538,#547,#549,.T.);
#547 = VERTEX_POINT('',#548);
#548 = CARTESIAN_POINT('',(-36.05,21.15,7.1));
#549 = LINE('',#550,#551);
#550 = CARTESIAN_POINT('',(-36.05,22.632050807569,7.1));
#551 = VECTOR('',#552,1.);
#552 = DIRECTION('',(1.096E-14,-1.,0.));
#553 = ORIENTED_EDGE('',*,*,#554,.F.);
#554 = EDGE_CURVE('',#197,#547,#555,.T.);
#555 = LINE('',#556,#557);
#556 = CARTESIAN_POINT('',(-36.05,21.15,8.1));
#557 = VECTOR('',#558,1.);
#558 = DIRECTION('',(0.,0.,-1.));
#559 = ORIENTED_EDGE('',*,*,#204,.F.);
#560 = ORIENTED_EDGE('',*,*,#561,.F.);
#561 = EDGE_CURVE('',#528,#205,#562,.T.);
#562 = LINE('',#563,#564);
#563 = CARTESIAN_POINT('',(-36.05,22.632050807569,8.1));
#564 = VECTOR('',#565,1.);
#565 = DIRECTION('',(1.096E-14,-1.,0.));
#566 = PLANE('',#567);
#567 = AXIS2_PLACEMENT_3D('',#568,#569,#570);
#568 = CARTESIAN_POINT('',(-36.05,22.632050807569,8.1));
#569 = DIRECTION('',(-1.,-1.096E-14,-0.));
#570 = DIRECTION('',(1.096E-14,-1.,0.));
#571 = ADVANCED_FACE('',(#572),#607,.T.);
#572 = FACE_BOUND('',#573,.T.);
#573 = EDGE_LOOP('',(#574,#584,#590,#591,#592,#600));
#574 = ORIENTED_EDGE('',*,*,#575,.F.);
#575 = EDGE_CURVE('',#576,#578,#580,.T.);
#576 = VERTEX_POINT('',#577);
#577 = CARTESIAN_POINT('',(-34.56794919243,21.15,8.1));
#578 = VERTEX_POINT('',#579);
#579 = CARTESIAN_POINT('',(-34.56794919243,21.15,7.9));
#580 = LINE('',#581,#582);
#581 = CARTESIAN_POINT('',(-34.56794919243,21.15,8.1));
#582 = VECTOR('',#583,1.);
#583 = DIRECTION('',(0.,0.,-1.));
#584 = ORIENTED_EDGE('',*,*,#585,.F.);
#585 = EDGE_CURVE('',#188,#576,#586,.T.);
#586 = LINE('',#587,#588);
#587 = CARTESIAN_POINT('',(-36.05,21.15,8.1));
#588 = VECTOR('',#589,1.);
#589 = DIRECTION('',(1.,0.,0.));
#590 = ORIENTED_EDGE('',*,*,#196,.F.);
#591 = ORIENTED_EDGE('',*,*,#554,.T.);
#592 = ORIENTED_EDGE('',*,*,#593,.T.);
#593 = EDGE_CURVE('',#547,#594,#596,.T.);
#594 = VERTEX_POINT('',#595);
#595 = CARTESIAN_POINT('',(-35.383484861,21.15,7.1));
#596 = LINE('',#597,#598);
#597 = CARTESIAN_POINT('',(-36.05,21.15,7.1));
#598 = VECTOR('',#599,1.);
#599 = DIRECTION('',(1.,0.,0.));
#600 = ORIENTED_EDGE('',*,*,#601,.F.);
#601 = EDGE_CURVE('',#578,#594,#602,.T.);
#602 = HYPERBOLA('',#603,0.25,0.25);
#603 = AXIS2_PLACEMENT_3D('',#604,#605,#606);
#604 = CARTESIAN_POINT('',(-36.3,21.15,6.15));
#605 = DIRECTION('',(0.,-1.,0.));
#606 = DIRECTION('',(0.,0.,1.));
#607 = PLANE('',#608);
#608 = AXIS2_PLACEMENT_3D('',#609,#610,#611);
#609 = CARTESIAN_POINT('',(-36.05,21.15,8.1));
#610 = DIRECTION('',(0.,-1.,0.));
#611 = DIRECTION('',(1.,0.,0.));
#612 = ADVANCED_FACE('',(#613,#624),#627,.F.);
#613 = FACE_BOUND('',#614,.F.);
#614 = EDGE_LOOP('',(#615));
#615 = ORIENTED_EDGE('',*,*,#616,.T.);
#616 = EDGE_CURVE('',#617,#617,#619,.T.);
#617 = VERTEX_POINT('',#618);
#618 = CARTESIAN_POINT('',(-33.8,20.9,10.1));
#619 = CIRCLE('',#620,2.5);
#620 = AXIS2_PLACEMENT_3D('',#621,#622,#623);
#621 = CARTESIAN_POINT('',(-36.3,20.9,10.1));
#622 = DIRECTION('',(0.,0.,1.));
#623 = DIRECTION('',(1.,0.,0.));
#624 = FACE_BOUND('',#625,.F.);
#625 = EDGE_LOOP('',(#626));
#626 = ORIENTED_EDGE('',*,*,#298,.T.);
#627 = PLANE('',#628);
#628 = AXIS2_PLACEMENT_3D('',#629,#630,#631);
#629 = CARTESIAN_POINT('',(-36.3,20.9,10.1));
#630 = DIRECTION('',(0.,0.,1.));
#631 = DIRECTION('',(1.,0.,0.));
#632 = ADVANCED_FACE('',(#633),#645,.T.);
#633 = FACE_BOUND('',#634,.T.);
#634 = EDGE_LOOP('',(#635,#642,#643,#644));
#635 = ORIENTED_EDGE('',*,*,#636,.F.);
#636 = EDGE_CURVE('',#528,#576,#637,.T.);
#637 = CIRCLE('',#638,1.75);
#638 = AXIS2_PLACEMENT_3D('',#639,#640,#641);
#639 = CARTESIAN_POINT('',(-36.3,20.9,8.1));
#640 = DIRECTION('',(0.,0.,-1.));
#641 = DIRECTION('',(1.,0.,0.));
#642 = ORIENTED_EDGE('',*,*,#561,.T.);
#643 = ORIENTED_EDGE('',*,*,#332,.T.);
#644 = ORIENTED_EDGE('',*,*,#585,.T.);
#645 = PLANE('',#646);
#646 = AXIS2_PLACEMENT_3D('',#647,#648,#649);
#647 = CARTESIAN_POINT('',(-36.3,20.9,8.1));
#648 = DIRECTION('',(0.,0.,1.));
#649 = DIRECTION('',(1.,0.,0.));
#650 = ADVANCED_FACE('',(#651),#663,.T.);
#651 = FACE_BOUND('',#652,.T.);
#652 = EDGE_LOOP('',(#653,#660,#661,#662));
#653 = ORIENTED_EDGE('',*,*,#654,.F.);
#654 = EDGE_CURVE('',#439,#487,#655,.T.);
#655 = CIRCLE('',#656,1.75);
#656 = AXIS2_PLACEMENT_3D('',#657,#658,#659);
#657 = CARTESIAN_POINT('',(-36.3,20.9,8.1));
#658 = DIRECTION('',(0.,0.,-1.));
#659 = DIRECTION('',(1.,0.,0.));
#660 = ORIENTED_EDGE('',*,*,#472,.T.);
#661 = ORIENTED_EDGE('',*,*,#324,.T.);
#662 = ORIENTED_EDGE('',*,*,#496,.T.);
#663 = PLANE('',#664);
#664 = AXIS2_PLACEMENT_3D('',#665,#666,#667);
#665 = CARTESIAN_POINT('',(-36.3,20.9,8.1));
#666 = DIRECTION('',(0.,0.,1.));
#667 = DIRECTION('',(1.,0.,0.));
#668 = ADVANCED_FACE('',(#669),#681,.T.);
#669 = FACE_BOUND('',#670,.T.);
#670 = EDGE_LOOP('',(#671,#678,#679,#680));
#671 = ORIENTED_EDGE('',*,*,#672,.F.);
#672 = EDGE_CURVE('',#350,#398,#673,.T.);
#673 = CIRCLE('',#674,1.75);
#674 = AXIS2_PLACEMENT_3D('',#675,#676,#677);
#675 = CARTESIAN_POINT('',(-36.3,20.9,8.1));
#676 = DIRECTION('',(0.,0.,-1.));
#677 = DIRECTION('',(1.,0.,0.));
#678 = ORIENTED_EDGE('',*,*,#383,.T.);
#679 = ORIENTED_EDGE('',*,*,#316,.T.);
#680 = ORIENTED_EDGE('',*,*,#424,.F.);
#681 = PLANE('',#682);
#682 = AXIS2_PLACEMENT_3D('',#683,#684,#685);
#683 = CARTESIAN_POINT('',(-36.3,20.9,8.1));
#684 = DIRECTION('',(0.,0.,1.));
#685 = DIRECTION('',(1.,0.,0.));
#686 = ADVANCED_FACE('',(#687),#699,.T.);
#687 = FACE_BOUND('',#688,.F.);
#688 = EDGE_LOOP('',(#689,#690,#697,#698));
#689 = ORIENTED_EDGE('',*,*,#349,.T.);
#690 = ORIENTED_EDGE('',*,*,#691,.T.);
#691 = EDGE_CURVE('',#352,#400,#692,.T.);
#692 = CIRCLE('',#693,1.75);
#693 = AXIS2_PLACEMENT_3D('',#694,#695,#696);
#694 = CARTESIAN_POINT('',(-36.3,20.9,7.9));
#695 = DIRECTION('',(-0.,0.,-1.));
#696 = DIRECTION('',(-0.142857142857,-0.989743318611,0.));
#697 = ORIENTED_EDGE('',*,*,#397,.F.);
#698 = ORIENTED_EDGE('',*,*,#672,.F.);
#699 = CYLINDRICAL_SURFACE('',#700,1.75);
#700 = AXIS2_PLACEMENT_3D('',#701,#702,#703);
#701 = CARTESIAN_POINT('',(-36.3,20.9,8.1));
#702 = DIRECTION('',(0.,0.,1.));
#703 = DIRECTION('',(1.,0.,0.));
#704 = ADVANCED_FACE('',(#705),#717,.T.);
#705 = FACE_BOUND('',#706,.T.);
#706 = EDGE_LOOP('',(#707,#708,#709,#710));
#707 = ORIENTED_EDGE('',*,*,#359,.F.);
#708 = ORIENTED_EDGE('',*,*,#691,.T.);
#709 = ORIENTED_EDGE('',*,*,#407,.T.);
#710 = ORIENTED_EDGE('',*,*,#711,.F.);
#711 = EDGE_CURVE('',#360,#408,#712,.T.);
#712 = CIRCLE('',#713,0.95);
#713 = AXIS2_PLACEMENT_3D('',#714,#715,#716);
#714 = CARTESIAN_POINT('',(-36.3,20.9,7.1));
#715 = DIRECTION('',(-0.,0.,-1.));
#716 = DIRECTION('',(-0.142857142857,-0.989743318611,0.));
#717 = CONICAL_SURFACE('',#718,1.75,0.785398163397);
#718 = AXIS2_PLACEMENT_3D('',#719,#720,#721);
#719 = CARTESIAN_POINT('',(-36.3,20.9,7.9));
#720 = DIRECTION('',(0.,0.,1.));
#721 = DIRECTION('',(-0.142857142857,-0.989743318611,0.));
#722 = ADVANCED_FACE('',(#723),#728,.F.);
#723 = FACE_BOUND('',#724,.F.);
#724 = EDGE_LOOP('',(#725,#726,#727));
#725 = ORIENTED_EDGE('',*,*,#416,.F.);
#726 = ORIENTED_EDGE('',*,*,#711,.F.);
#727 = ORIENTED_EDGE('',*,*,#368,.T.);
#728 = PLANE('',#729);
#729 = AXIS2_PLACEMENT_3D('',#730,#731,#732);
#730 = CARTESIAN_POINT('',(-36.3,20.9,7.1));
#731 = DIRECTION('',(0.,0.,1.));
#732 = DIRECTION('',(1.,0.,0.));
#733 = ADVANCED_FACE('',(#734),#746,.T.);
#734 = FACE_BOUND('',#735,.F.);
#735 = EDGE_LOOP('',(#736,#737,#744,#745));
#736 = ORIENTED_EDGE('',*,*,#438,.T.);
#737 = ORIENTED_EDGE('',*,*,#738,.T.);
#738 = EDGE_CURVE('',#441,#489,#739,.T.);
#739 = CIRCLE('',#740,1.75);
#740 = AXIS2_PLACEMENT_3D('',#741,#742,#743);
#741 = CARTESIAN_POINT('',(-36.3,20.9,7.9));
#742 = DIRECTION('',(0.,0.,-1.));
#743 = DIRECTION('',(-0.989743318611,0.142857142857,0.));
#744 = ORIENTED_EDGE('',*,*,#486,.F.);
#745 = ORIENTED_EDGE('',*,*,#654,.F.);
#746 = CYLINDRICAL_SURFACE('',#747,1.75);
#747 = AXIS2_PLACEMENT_3D('',#748,#749,#750);
#748 = CARTESIAN_POINT('',(-36.3,20.9,8.1));
#749 = DIRECTION('',(0.,0.,1.));
#750 = DIRECTION('',(1.,0.,0.));
#751 = ADVANCED_FACE('',(#752),#764,.T.);
#752 = FACE_BOUND('',#753,.T.);
#753 = EDGE_LOOP('',(#754,#755,#756,#757));
#754 = ORIENTED_EDGE('',*,*,#448,.F.);
#755 = ORIENTED_EDGE('',*,*,#738,.T.);
#756 = ORIENTED_EDGE('',*,*,#512,.T.);
#757 = ORIENTED_EDGE('',*,*,#758,.F.);
#758 = EDGE_CURVE('',#449,#505,#759,.T.);
#759 = CIRCLE('',#760,0.95);
#760 = AXIS2_PLACEMENT_3D('',#761,#762,#763);
#761 = CARTESIAN_POINT('',(-36.3,20.9,7.1));
#762 = DIRECTION('',(0.,0.,-1.));
#763 = DIRECTION('',(-0.989743318611,0.142857142857,0.));
#764 = CONICAL_SURFACE('',#765,1.75,0.785398163397);
#765 = AXIS2_PLACEMENT_3D('',#766,#767,#768);
#766 = CARTESIAN_POINT('',(-36.3,20.9,7.9));
#767 = DIRECTION('',(0.,0.,1.));
#768 = DIRECTION('',(-0.989743318611,0.142857142857,0.));
#769 = ADVANCED_FACE('',(#770),#775,.F.);
#770 = FACE_BOUND('',#771,.F.);
#771 = EDGE_LOOP('',(#772,#773,#774));
#772 = ORIENTED_EDGE('',*,*,#457,.T.);
#773 = ORIENTED_EDGE('',*,*,#504,.T.);
#774 = ORIENTED_EDGE('',*,*,#758,.F.);
#775 = PLANE('',#776);
#776 = AXIS2_PLACEMENT_3D('',#777,#778,#779);
#777 = CARTESIAN_POINT('',(-36.3,20.9,7.1));
#778 = DIRECTION('',(0.,0.,1.));
#779 = DIRECTION('',(1.,0.,0.));
#780 = ADVANCED_FACE('',(#781),#793,.T.);
#781 = FACE_BOUND('',#782,.F.);
#782 = EDGE_LOOP('',(#783,#784,#791,#792));
#783 = ORIENTED_EDGE('',*,*,#527,.T.);
#784 = ORIENTED_EDGE('',*,*,#785,.T.);
#785 = EDGE_CURVE('',#530,#578,#786,.T.);
#786 = CIRCLE('',#787,1.75);
#787 = AXIS2_PLACEMENT_3D('',#788,#789,#790);
#788 = CARTESIAN_POINT('',(-36.3,20.9,7.9));
#789 = DIRECTION('',(0.,0.,-1.));
#790 = DIRECTION('',(0.142857142857,0.989743318611,0.));
#791 = ORIENTED_EDGE('',*,*,#575,.F.);
#792 = ORIENTED_EDGE('',*,*,#636,.F.);
#793 = CYLINDRICAL_SURFACE('',#794,1.75);
#794 = AXIS2_PLACEMENT_3D('',#795,#796,#797);
#795 = CARTESIAN_POINT('',(-36.3,20.9,8.1));
#796 = DIRECTION('',(0.,0.,1.));
#797 = DIRECTION('',(1.,0.,0.));
#798 = ADVANCED_FACE('',(#799),#811,.T.);
#799 = FACE_BOUND('',#800,.T.);
#800 = EDGE_LOOP('',(#801,#802,#803,#804));
#801 = ORIENTED_EDGE('',*,*,#537,.F.);
#802 = ORIENTED_EDGE('',*,*,#785,.T.);
#803 = ORIENTED_EDGE('',*,*,#601,.T.);
#804 = ORIENTED_EDGE('',*,*,#805,.F.);
#805 = EDGE_CURVE('',#538,#594,#806,.T.);
#806 = CIRCLE('',#807,0.95);
#807 = AXIS2_PLACEMENT_3D('',#808,#809,#810);
#808 = CARTESIAN_POINT('',(-36.3,20.9,7.1));
#809 = DIRECTION('',(0.,0.,-1.));
#810 = DIRECTION('',(0.142857142857,0.989743318611,0.));
#811 = CONICAL_SURFACE('',#812,1.75,0.785398163397);
#812 = AXIS2_PLACEMENT_3D('',#813,#814,#815);
#813 = CARTESIAN_POINT('',(-36.3,20.9,7.9));
#814 = DIRECTION('',(0.,0.,1.));
#815 = DIRECTION('',(0.142857142857,0.989743318611,0.));
#816 = ADVANCED_FACE('',(#817),#822,.F.);
#817 = FACE_BOUND('',#818,.F.);
#818 = EDGE_LOOP('',(#819,#820,#821));
#819 = ORIENTED_EDGE('',*,*,#546,.T.);
#820 = ORIENTED_EDGE('',*,*,#593,.T.);
#821 = ORIENTED_EDGE('',*,*,#805,.F.);
#822 = PLANE('',#823);
#823 = AXIS2_PLACEMENT_3D('',#824,#825,#826);
#824 = CARTESIAN_POINT('',(-36.3,20.9,7.1));
#825 = DIRECTION('',(0.,0.,1.));
#826 = DIRECTION('',(1.,0.,0.));
#827 = ADVANCED_FACE('',(#828),#847,.T.);
#828 = FACE_BOUND('',#829,.F.);
#829 = EDGE_LOOP('',(#830,#838,#845,#846));
#830 = ORIENTED_EDGE('',*,*,#831,.T.);
#831 = EDGE_CURVE('',#617,#832,#834,.T.);
#832 = VERTEX_POINT('',#833);
#833 = CARTESIAN_POINT('',(-33.8,20.9,20.7));
#834 = LINE('',#835,#836);
#835 = CARTESIAN_POINT('',(-33.8,20.9,10.1));
#836 = VECTOR('',#837,1.);
#837 = DIRECTION('',(0.,0.,1.));
#838 = ORIENTED_EDGE('',*,*,#839,.T.);
#839 = EDGE_CURVE('',#832,#832,#840,.T.);
#840 = CIRCLE('',#841,2.5);
#841 = AXIS2_PLACEMENT_3D('',#842,#843,#844);
#842 = CARTESIAN_POINT('',(-36.3,20.9,20.7));
#843 = DIRECTION('',(0.,0.,1.));
#844 = DIRECTION('',(1.,0.,0.));
#845 = ORIENTED_EDGE('',*,*,#831,.F.);
#846 = ORIENTED_EDGE('',*,*,#616,.F.);
#847 = CYLINDRICAL_SURFACE('',#848,2.5);
#848 = AXIS2_PLACEMENT_3D('',#849,#850,#851);
#849 = CARTESIAN_POINT('',(-36.3,20.9,10.1));
#850 = DIRECTION('',(-0.,-0.,-1.));
#851 = DIRECTION('',(1.,0.,0.));
#852 = ADVANCED_FACE('',(#853,#856),#867,.T.);
#853 = FACE_BOUND('',#854,.T.);
#854 = EDGE_LOOP('',(#855));
#855 = ORIENTED_EDGE('',*,*,#839,.T.);
#856 = FACE_BOUND('',#857,.T.);
#857 = EDGE_LOOP('',(#858));
#858 = ORIENTED_EDGE('',*,*,#859,.F.);
#859 = EDGE_CURVE('',#860,#860,#862,.T.);
#860 = VERTEX_POINT('',#861);
#861 = CARTESIAN_POINT('',(-34.9,20.9,20.7));
#862 = CIRCLE('',#863,1.4);
#863 = AXIS2_PLACEMENT_3D('',#864,#865,#866);
#864 = CARTESIAN_POINT('',(-36.3,20.9,20.7));
#865 = DIRECTION('',(0.,0.,1.));
#866 = DIRECTION('',(1.,0.,0.));
#867 = PLANE('',#868);
#868 = AXIS2_PLACEMENT_3D('',#869,#870,#871);
#869 = CARTESIAN_POINT('',(-36.3,20.9,20.7));
#870 = DIRECTION('',(0.,0.,1.));
#871 = DIRECTION('',(1.,0.,0.));
#872 = ADVANCED_FACE('',(#873),#964,.T.);
#873 = FACE_BOUND('',#874,.F.);
#874 = EDGE_LOOP('',(#875,#876,#884,#893,#902,#911,#920,#929,#938,#947,
    #956,#963));
#875 = ORIENTED_EDGE('',*,*,#859,.F.);
#876 = ORIENTED_EDGE('',*,*,#877,.T.);
#877 = EDGE_CURVE('',#860,#878,#880,.T.);
#878 = VERTEX_POINT('',#879);
#879 = CARTESIAN_POINT('',(-34.9,20.9,22.7));
#880 = LINE('',#881,#882);
#881 = CARTESIAN_POINT('',(-34.9,20.9,20.7));
#882 = VECTOR('',#883,1.);
#883 = DIRECTION('',(0.,0.,1.));
#884 = ORIENTED_EDGE('',*,*,#885,.T.);
#885 = EDGE_CURVE('',#878,#886,#888,.T.);
#886 = VERTEX_POINT('',#887);
#887 = CARTESIAN_POINT('',(-34.9225022686,21.15,22.7));
#888 = CIRCLE('',#889,1.4);
#889 = AXIS2_PLACEMENT_3D('',#890,#891,#892);
#890 = CARTESIAN_POINT('',(-36.3,20.9,22.7));
#891 = DIRECTION('',(0.,0.,1.));
#892 = DIRECTION('',(1.,0.,0.));
#893 = ORIENTED_EDGE('',*,*,#894,.T.);
#894 = EDGE_CURVE('',#886,#895,#897,.T.);
#895 = VERTEX_POINT('',#896);
#896 = CARTESIAN_POINT('',(-36.05,22.277497731396,22.7));
#897 = CIRCLE('',#898,1.4);
#898 = AXIS2_PLACEMENT_3D('',#899,#900,#901);
#899 = CARTESIAN_POINT('',(-36.3,20.9,22.7));
#900 = DIRECTION('',(0.,0.,1.));
#901 = DIRECTION('',(1.,0.,0.));
#902 = ORIENTED_EDGE('',*,*,#903,.T.);
#903 = EDGE_CURVE('',#895,#904,#906,.T.);
#904 = VERTEX_POINT('',#905);
#905 = CARTESIAN_POINT('',(-36.55,22.277497731396,22.7));
#906 = CIRCLE('',#907,1.4);
#907 = AXIS2_PLACEMENT_3D('',#908,#909,#910);
#908 = CARTESIAN_POINT('',(-36.3,20.9,22.7));
#909 = DIRECTION('',(0.,0.,1.));
#910 = DIRECTION('',(1.,0.,0.));
#911 = ORIENTED_EDGE('',*,*,#912,.T.);
#912 = EDGE_CURVE('',#904,#913,#915,.T.);
#913 = VERTEX_POINT('',#914);
#914 = CARTESIAN_POINT('',(-37.67749773139,21.15,22.7));
#915 = CIRCLE('',#916,1.4);
#916 = AXIS2_PLACEMENT_3D('',#917,#918,#919);
#917 = CARTESIAN_POINT('',(-36.3,20.9,22.7));
#918 = DIRECTION('',(0.,0.,1.));
#919 = DIRECTION('',(1.,0.,0.));
#920 = ORIENTED_EDGE('',*,*,#921,.T.);
#921 = EDGE_CURVE('',#913,#922,#924,.T.);
#922 = VERTEX_POINT('',#923);
#923 = CARTESIAN_POINT('',(-37.67749773139,20.65,22.7));
#924 = CIRCLE('',#925,1.4);
#925 = AXIS2_PLACEMENT_3D('',#926,#927,#928);
#926 = CARTESIAN_POINT('',(-36.3,20.9,22.7));
#927 = DIRECTION('',(0.,0.,1.));
#928 = DIRECTION('',(1.,0.,0.));
#929 = ORIENTED_EDGE('',*,*,#930,.T.);
#930 = EDGE_CURVE('',#922,#931,#933,.T.);
#931 = VERTEX_POINT('',#932);
#932 = CARTESIAN_POINT('',(-36.55,19.522502268604,22.7));
#933 = CIRCLE('',#934,1.4);
#934 = AXIS2_PLACEMENT_3D('',#935,#936,#937);
#935 = CARTESIAN_POINT('',(-36.3,20.9,22.7));
#936 = DIRECTION('',(0.,0.,1.));
#937 = DIRECTION('',(1.,0.,0.));
#938 = ORIENTED_EDGE('',*,*,#939,.T.);
#939 = EDGE_CURVE('',#931,#940,#942,.T.);
#940 = VERTEX_POINT('',#941);
#941 = CARTESIAN_POINT('',(-36.05,19.522502268604,22.7));
#942 = CIRCLE('',#943,1.4);
#943 = AXIS2_PLACEMENT_3D('',#944,#945,#946);
#944 = CARTESIAN_POINT('',(-36.3,20.9,22.7));
#945 = DIRECTION('',(0.,0.,1.));
#946 = DIRECTION('',(1.,0.,0.));
#947 = ORIENTED_EDGE('',*,*,#948,.T.);
#948 = EDGE_CURVE('',#940,#949,#951,.T.);
#949 = VERTEX_POINT('',#950);
#950 = CARTESIAN_POINT('',(-34.9225022686,20.65,22.7));
#951 = CIRCLE('',#952,1.4);
#952 = AXIS2_PLACEMENT_3D('',#953,#954,#955);
#953 = CARTESIAN_POINT('',(-36.3,20.9,22.7));
#954 = DIRECTION('',(0.,0.,1.));
#955 = DIRECTION('',(1.,0.,0.));
#956 = ORIENTED_EDGE('',*,*,#957,.T.);
#957 = EDGE_CURVE('',#949,#878,#958,.T.);
#958 = CIRCLE('',#959,1.4);
#959 = AXIS2_PLACEMENT_3D('',#960,#961,#962);
#960 = CARTESIAN_POINT('',(-36.3,20.9,22.7));
#961 = DIRECTION('',(0.,0.,1.));
#962 = DIRECTION('',(1.,0.,0.));
#963 = ORIENTED_EDGE('',*,*,#877,.F.);
#964 = CYLINDRICAL_SURFACE('',#965,1.4);
#965 = AXIS2_PLACEMENT_3D('',#966,#967,#968);
#966 = CARTESIAN_POINT('',(-36.3,20.9,20.7));
#967 = DIRECTION('',(-0.,-0.,-1.));
#968 = DIRECTION('',(1.,0.,0.));
#969 = ADVANCED_FACE('',(#970),#1033,.T.);
#970 = FACE_BOUND('',#971,.T.);
#971 = EDGE_LOOP('',(#972,#973,#974,#982,#988,#989,#997,#1003,#1004,
    #1012,#1018,#1019,#1027));
#972 = ORIENTED_EDGE('',*,*,#957,.T.);
#973 = ORIENTED_EDGE('',*,*,#885,.T.);
#974 = ORIENTED_EDGE('',*,*,#975,.F.);
#975 = EDGE_CURVE('',#976,#886,#978,.T.);
#976 = VERTEX_POINT('',#977);
#977 = CARTESIAN_POINT('',(-36.05,21.15,22.7));
#978 = LINE('',#979,#980);
#979 = CARTESIAN_POINT('',(-36.05,21.15,22.7));
#980 = VECTOR('',#981,1.);
#981 = DIRECTION('',(1.,0.,0.));
#982 = ORIENTED_EDGE('',*,*,#983,.F.);
#983 = EDGE_CURVE('',#895,#976,#984,.T.);
#984 = LINE('',#985,#986);
#985 = CARTESIAN_POINT('',(-36.05,22.632050807569,22.7));
#986 = VECTOR('',#987,1.);
#987 = DIRECTION('',(-7.E-17,-1.,0.));
#988 = ORIENTED_EDGE('',*,*,#903,.T.);
#989 = ORIENTED_EDGE('',*,*,#990,.F.);
#990 = EDGE_CURVE('',#991,#904,#993,.T.);
#991 = VERTEX_POINT('',#992);
#992 = CARTESIAN_POINT('',(-36.55,21.15,22.7));
#993 = LINE('',#994,#995);
#994 = CARTESIAN_POINT('',(-36.55,21.15,22.7));
#995 = VECTOR('',#996,1.);
#996 = DIRECTION('',(0.,1.,0.));
#997 = ORIENTED_EDGE('',*,*,#998,.F.);
#998 = EDGE_CURVE('',#913,#991,#999,.T.);
#999 = LINE('',#1000,#1001);
#1000 = CARTESIAN_POINT('',(-38.03205080756,21.15,22.7));
#1001 = VECTOR('',#1002,1.);
#1002 = DIRECTION('',(1.,0.,0.));
#1003 = ORIENTED_EDGE('',*,*,#921,.T.);
#1004 = ORIENTED_EDGE('',*,*,#1005,.T.);
#1005 = EDGE_CURVE('',#922,#1006,#1008,.T.);
#1006 = VERTEX_POINT('',#1007);
#1007 = CARTESIAN_POINT('',(-36.55,20.65,22.7));
#1008 = LINE('',#1009,#1010);
#1009 = CARTESIAN_POINT('',(-38.03205080756,20.65,22.7));
#1010 = VECTOR('',#1011,1.);
#1011 = DIRECTION('',(1.,0.,0.));
#1012 = ORIENTED_EDGE('',*,*,#1013,.F.);
#1013 = EDGE_CURVE('',#931,#1006,#1014,.T.);
#1014 = LINE('',#1015,#1016);
#1015 = CARTESIAN_POINT('',(-36.55,19.167949192431,22.7));
#1016 = VECTOR('',#1017,1.);
#1017 = DIRECTION('',(-2.4E-16,1.,0.));
#1018 = ORIENTED_EDGE('',*,*,#939,.T.);
#1019 = ORIENTED_EDGE('',*,*,#1020,.F.);
#1020 = EDGE_CURVE('',#1021,#940,#1023,.T.);
#1021 = VERTEX_POINT('',#1022);
#1022 = CARTESIAN_POINT('',(-36.05,20.65,22.7));
#1023 = LINE('',#1024,#1025);
#1024 = CARTESIAN_POINT('',(-36.05,20.65,22.7));
#1025 = VECTOR('',#1026,1.);
#1026 = DIRECTION('',(0.,-1.,0.));
#1027 = ORIENTED_EDGE('',*,*,#1028,.F.);
#1028 = EDGE_CURVE('',#949,#1021,#1029,.T.);
#1029 = LINE('',#1030,#1031);
#1030 = CARTESIAN_POINT('',(-34.56794919243,20.65,22.7));
#1031 = VECTOR('',#1032,1.);
#1032 = DIRECTION('',(-1.,-1.9E-16,0.));
#1033 = PLANE('',#1034);
#1034 = AXIS2_PLACEMENT_3D('',#1035,#1036,#1037);
#1035 = CARTESIAN_POINT('',(-36.3,20.9,22.7));
#1036 = DIRECTION('',(0.,0.,1.));
#1037 = DIRECTION('',(1.,0.,0.));
#1038 = ADVANCED_FACE('',(#1039),#1065,.F.);
#1039 = FACE_BOUND('',#1040,.F.);
#1040 = EDGE_LOOP('',(#1041,#1049,#1058,#1064));
#1041 = ORIENTED_EDGE('',*,*,#1042,.T.);
#1042 = EDGE_CURVE('',#940,#1043,#1045,.T.);
#1043 = VERTEX_POINT('',#1044);
#1044 = CARTESIAN_POINT('',(-36.05,19.167949192431,22.7));
#1045 = LINE('',#1046,#1047);
#1046 = CARTESIAN_POINT('',(-36.05,20.65,22.7));
#1047 = VECTOR('',#1048,1.);
#1048 = DIRECTION('',(0.,-1.,0.));
#1049 = ORIENTED_EDGE('',*,*,#1050,.T.);
#1050 = EDGE_CURVE('',#1043,#1051,#1053,.T.);
#1051 = VERTEX_POINT('',#1052);
#1052 = CARTESIAN_POINT('',(-34.56794919243,20.65,22.7));
#1053 = CIRCLE('',#1054,1.75);
#1054 = AXIS2_PLACEMENT_3D('',#1055,#1056,#1057);
#1055 = CARTESIAN_POINT('',(-36.3,20.9,22.7));
#1056 = DIRECTION('',(0.,0.,1.));
#1057 = DIRECTION('',(1.,0.,0.));
#1058 = ORIENTED_EDGE('',*,*,#1059,.T.);
#1059 = EDGE_CURVE('',#1051,#949,#1060,.T.);
#1060 = LINE('',#1061,#1062);
#1061 = CARTESIAN_POINT('',(-34.56794919243,20.65,22.7));
#1062 = VECTOR('',#1063,1.);
#1063 = DIRECTION('',(-1.,-1.9E-16,0.));
#1064 = ORIENTED_EDGE('',*,*,#948,.F.);
#1065 = PLANE('',#1066);
#1066 = AXIS2_PLACEMENT_3D('',#1067,#1068,#1069);
#1067 = CARTESIAN_POINT('',(-36.3,20.9,22.7));
#1068 = DIRECTION('',(0.,0.,1.));
#1069 = DIRECTION('',(1.,0.,0.));
#1070 = ADVANCED_FACE('',(#1071),#1097,.F.);
#1071 = FACE_BOUND('',#1072,.F.);
#1072 = EDGE_LOOP('',(#1073,#1081,#1090,#1096));
#1073 = ORIENTED_EDGE('',*,*,#1074,.F.);
#1074 = EDGE_CURVE('',#1075,#922,#1077,.T.);
#1075 = VERTEX_POINT('',#1076);
#1076 = CARTESIAN_POINT('',(-38.03205080756,20.65,22.7));
#1077 = LINE('',#1078,#1079);
#1078 = CARTESIAN_POINT('',(-38.03205080756,20.65,22.7));
#1079 = VECTOR('',#1080,1.);
#1080 = DIRECTION('',(1.,0.,0.));
#1081 = ORIENTED_EDGE('',*,*,#1082,.T.);
#1082 = EDGE_CURVE('',#1075,#1083,#1085,.T.);
#1083 = VERTEX_POINT('',#1084);
#1084 = CARTESIAN_POINT('',(-36.55,19.167949192431,22.7));
#1085 = CIRCLE('',#1086,1.75);
#1086 = AXIS2_PLACEMENT_3D('',#1087,#1088,#1089);
#1087 = CARTESIAN_POINT('',(-36.3,20.9,22.7));
#1088 = DIRECTION('',(0.,0.,1.));
#1089 = DIRECTION('',(1.,0.,0.));
#1090 = ORIENTED_EDGE('',*,*,#1091,.T.);
#1091 = EDGE_CURVE('',#1083,#931,#1092,.T.);
#1092 = LINE('',#1093,#1094);
#1093 = CARTESIAN_POINT('',(-36.55,19.167949192431,22.7));
#1094 = VECTOR('',#1095,1.);
#1095 = DIRECTION('',(-2.4E-16,1.,0.));
#1096 = ORIENTED_EDGE('',*,*,#930,.F.);
#1097 = PLANE('',#1098);
#1098 = AXIS2_PLACEMENT_3D('',#1099,#1100,#1101);
#1099 = CARTESIAN_POINT('',(-36.3,20.9,22.7));
#1100 = DIRECTION('',(0.,0.,1.));
#1101 = DIRECTION('',(1.,0.,0.));
#1102 = ADVANCED_FACE('',(#1103),#1129,.F.);
#1103 = FACE_BOUND('',#1104,.F.);
#1104 = EDGE_LOOP('',(#1105,#1113,#1122,#1128));
#1105 = ORIENTED_EDGE('',*,*,#1106,.T.);
#1106 = EDGE_CURVE('',#904,#1107,#1109,.T.);
#1107 = VERTEX_POINT('',#1108);
#1108 = CARTESIAN_POINT('',(-36.55,22.632050807569,22.7));
#1109 = LINE('',#1110,#1111);
#1110 = CARTESIAN_POINT('',(-36.55,21.15,22.7));
#1111 = VECTOR('',#1112,1.);
#1112 = DIRECTION('',(0.,1.,0.));
#1113 = ORIENTED_EDGE('',*,*,#1114,.T.);
#1114 = EDGE_CURVE('',#1107,#1115,#1117,.T.);
#1115 = VERTEX_POINT('',#1116);
#1116 = CARTESIAN_POINT('',(-38.03205080756,21.15,22.7));
#1117 = CIRCLE('',#1118,1.75);
#1118 = AXIS2_PLACEMENT_3D('',#1119,#1120,#1121);
#1119 = CARTESIAN_POINT('',(-36.3,20.9,22.7));
#1120 = DIRECTION('',(0.,0.,1.));
#1121 = DIRECTION('',(1.,0.,0.));
#1122 = ORIENTED_EDGE('',*,*,#1123,.T.);
#1123 = EDGE_CURVE('',#1115,#913,#1124,.T.);
#1124 = LINE('',#1125,#1126);
#1125 = CARTESIAN_POINT('',(-38.03205080756,21.15,22.7));
#1126 = VECTOR('',#1127,1.);
#1127 = DIRECTION('',(1.,0.,0.));
#1128 = ORIENTED_EDGE('',*,*,#912,.F.);
#1129 = PLANE('',#1130);
#1130 = AXIS2_PLACEMENT_3D('',#1131,#1132,#1133);
#1131 = CARTESIAN_POINT('',(-36.3,20.9,22.7));
#1132 = DIRECTION('',(0.,0.,1.));
#1133 = DIRECTION('',(1.,0.,0.));
#1134 = ADVANCED_FACE('',(#1135),#1161,.F.);
#1135 = FACE_BOUND('',#1136,.F.);
#1136 = EDGE_LOOP('',(#1137,#1145,#1154,#1160));
#1137 = ORIENTED_EDGE('',*,*,#1138,.T.);
#1138 = EDGE_CURVE('',#886,#1139,#1141,.T.);
#1139 = VERTEX_POINT('',#1140);
#1140 = CARTESIAN_POINT('',(-34.56794919243,21.15,22.7));
#1141 = LINE('',#1142,#1143);
#1142 = CARTESIAN_POINT('',(-36.05,21.15,22.7));
#1143 = VECTOR('',#1144,1.);
#1144 = DIRECTION('',(1.,0.,0.));
#1145 = ORIENTED_EDGE('',*,*,#1146,.T.);
#1146 = EDGE_CURVE('',#1139,#1147,#1149,.T.);
#1147 = VERTEX_POINT('',#1148);
#1148 = CARTESIAN_POINT('',(-36.05,22.632050807569,22.7));
#1149 = CIRCLE('',#1150,1.75);
#1150 = AXIS2_PLACEMENT_3D('',#1151,#1152,#1153);
#1151 = CARTESIAN_POINT('',(-36.3,20.9,22.7));
#1152 = DIRECTION('',(0.,0.,1.));
#1153 = DIRECTION('',(1.,0.,0.));
#1154 = ORIENTED_EDGE('',*,*,#1155,.T.);
#1155 = EDGE_CURVE('',#1147,#895,#1156,.T.);
#1156 = LINE('',#1157,#1158);
#1157 = CARTESIAN_POINT('',(-36.05,22.632050807569,22.7));
#1158 = VECTOR('',#1159,1.);
#1159 = DIRECTION('',(-7.E-17,-1.,0.));
#1160 = ORIENTED_EDGE('',*,*,#894,.F.);
#1161 = PLANE('',#1162);
#1162 = AXIS2_PLACEMENT_3D('',#1163,#1164,#1165);
#1163 = CARTESIAN_POINT('',(-36.3,20.9,22.7));
#1164 = DIRECTION('',(0.,0.,1.));
#1165 = DIRECTION('',(1.,0.,0.));
#1166 = ADVANCED_FACE('',(#1167),#1202,.F.);
#1167 = FACE_BOUND('',#1168,.F.);
#1168 = EDGE_LOOP('',(#1169,#1177,#1186,#1194,#1200,#1201));
#1169 = ORIENTED_EDGE('',*,*,#1170,.T.);
#1170 = EDGE_CURVE('',#1051,#1171,#1173,.T.);
#1171 = VERTEX_POINT('',#1172);
#1172 = CARTESIAN_POINT('',(-34.56794919243,20.65,22.9));
#1173 = LINE('',#1174,#1175);
#1174 = CARTESIAN_POINT('',(-34.56794919243,20.65,22.7));
#1175 = VECTOR('',#1176,1.);
#1176 = DIRECTION('',(0.,0.,1.));
#1177 = ORIENTED_EDGE('',*,*,#1178,.T.);
#1178 = EDGE_CURVE('',#1171,#1179,#1181,.T.);
#1179 = VERTEX_POINT('',#1180);
#1180 = CARTESIAN_POINT('',(-35.383484861,20.65,23.7));
#1181 = HYPERBOLA('',#1182,0.25,0.25);
#1182 = AXIS2_PLACEMENT_3D('',#1183,#1184,#1185);
#1183 = CARTESIAN_POINT('',(-36.3,20.65,24.65));
#1184 = DIRECTION('',(-1.9E-16,1.,0.));
#1185 = DIRECTION('',(0.,0.,-1.));
#1186 = ORIENTED_EDGE('',*,*,#1187,.T.);
#1187 = EDGE_CURVE('',#1179,#1188,#1190,.T.);
#1188 = VERTEX_POINT('',#1189);
#1189 = CARTESIAN_POINT('',(-36.05,20.65,23.7));
#1190 = LINE('',#1191,#1192);
#1191 = CARTESIAN_POINT('',(-34.56794919243,20.65,23.7));
#1192 = VECTOR('',#1193,1.);
#1193 = DIRECTION('',(-1.,-1.9E-16,0.));
#1194 = ORIENTED_EDGE('',*,*,#1195,.F.);
#1195 = EDGE_CURVE('',#1021,#1188,#1196,.T.);
#1196 = LINE('',#1197,#1198);
#1197 = CARTESIAN_POINT('',(-36.05,20.65,22.7));
#1198 = VECTOR('',#1199,1.);
#1199 = DIRECTION('',(0.,0.,1.));
#1200 = ORIENTED_EDGE('',*,*,#1028,.F.);
#1201 = ORIENTED_EDGE('',*,*,#1059,.F.);
#1202 = PLANE('',#1203);
#1203 = AXIS2_PLACEMENT_3D('',#1204,#1205,#1206);
#1204 = CARTESIAN_POINT('',(-34.56794919243,20.65,22.7));
#1205 = DIRECTION('',(1.9E-16,-1.,0.));
#1206 = DIRECTION('',(-1.,-1.9E-16,0.));
#1207 = ADVANCED_FACE('',(#1208),#1236,.F.);
#1208 = FACE_BOUND('',#1209,.F.);
#1209 = EDGE_LOOP('',(#1210,#1218,#1219,#1220,#1221,#1229));
#1210 = ORIENTED_EDGE('',*,*,#1211,.F.);
#1211 = EDGE_CURVE('',#1043,#1212,#1214,.T.);
#1212 = VERTEX_POINT('',#1213);
#1213 = CARTESIAN_POINT('',(-36.05,19.167949192431,22.9));
#1214 = LINE('',#1215,#1216);
#1215 = CARTESIAN_POINT('',(-36.05,19.167949192431,22.7));
#1216 = VECTOR('',#1217,1.);
#1217 = DIRECTION('',(0.,0.,1.));
#1218 = ORIENTED_EDGE('',*,*,#1042,.F.);
#1219 = ORIENTED_EDGE('',*,*,#1020,.F.);
#1220 = ORIENTED_EDGE('',*,*,#1195,.T.);
#1221 = ORIENTED_EDGE('',*,*,#1222,.T.);
#1222 = EDGE_CURVE('',#1188,#1223,#1225,.T.);
#1223 = VERTEX_POINT('',#1224);
#1224 = CARTESIAN_POINT('',(-36.05,19.983484861009,23.7));
#1225 = LINE('',#1226,#1227);
#1226 = CARTESIAN_POINT('',(-36.05,20.65,23.7));
#1227 = VECTOR('',#1228,1.);
#1228 = DIRECTION('',(0.,-1.,0.));
#1229 = ORIENTED_EDGE('',*,*,#1230,.F.);
#1230 = EDGE_CURVE('',#1212,#1223,#1231,.T.);
#1231 = HYPERBOLA('',#1232,0.25,0.25);
#1232 = AXIS2_PLACEMENT_3D('',#1233,#1234,#1235);
#1233 = CARTESIAN_POINT('',(-36.05,20.9,24.65));
#1234 = DIRECTION('',(1.,-0.,0.));
#1235 = DIRECTION('',(0.,0.,-1.));
#1236 = PLANE('',#1237);
#1237 = AXIS2_PLACEMENT_3D('',#1238,#1239,#1240);
#1238 = CARTESIAN_POINT('',(-36.05,20.65,22.7));
#1239 = DIRECTION('',(1.,0.,0.));
#1240 = DIRECTION('',(0.,-1.,0.));
#1241 = ADVANCED_FACE('',(#1242),#1277,.F.);
#1242 = FACE_BOUND('',#1243,.F.);
#1243 = EDGE_LOOP('',(#1244,#1252,#1261,#1269,#1275,#1276));
#1244 = ORIENTED_EDGE('',*,*,#1245,.T.);
#1245 = EDGE_CURVE('',#1083,#1246,#1248,.T.);
#1246 = VERTEX_POINT('',#1247);
#1247 = CARTESIAN_POINT('',(-36.55,19.167949192431,22.9));
#1248 = LINE('',#1249,#1250);
#1249 = CARTESIAN_POINT('',(-36.55,19.167949192431,22.7));
#1250 = VECTOR('',#1251,1.);
#1251 = DIRECTION('',(0.,0.,1.));
#1252 = ORIENTED_EDGE('',*,*,#1253,.T.);
#1253 = EDGE_CURVE('',#1246,#1254,#1256,.T.);
#1254 = VERTEX_POINT('',#1255);
#1255 = CARTESIAN_POINT('',(-36.55,19.983484861009,23.7));
#1256 = HYPERBOLA('',#1257,0.25,0.25);
#1257 = AXIS2_PLACEMENT_3D('',#1258,#1259,#1260);
#1258 = CARTESIAN_POINT('',(-36.55,20.9,24.65));
#1259 = DIRECTION('',(1.,2.4E-16,0.));
#1260 = DIRECTION('',(0.,0.,-1.));
#1261 = ORIENTED_EDGE('',*,*,#1262,.T.);
#1262 = EDGE_CURVE('',#1254,#1263,#1265,.T.);
#1263 = VERTEX_POINT('',#1264);
#1264 = CARTESIAN_POINT('',(-36.55,20.65,23.7));
#1265 = LINE('',#1266,#1267);
#1266 = CARTESIAN_POINT('',(-36.55,19.167949192431,23.7));
#1267 = VECTOR('',#1268,1.);
#1268 = DIRECTION('',(-2.4E-16,1.,0.));
#1269 = ORIENTED_EDGE('',*,*,#1270,.F.);
#1270 = EDGE_CURVE('',#1006,#1263,#1271,.T.);
#1271 = LINE('',#1272,#1273);
#1272 = CARTESIAN_POINT('',(-36.55,20.65,22.7));
#1273 = VECTOR('',#1274,1.);
#1274 = DIRECTION('',(0.,0.,1.));
#1275 = ORIENTED_EDGE('',*,*,#1013,.F.);
#1276 = ORIENTED_EDGE('',*,*,#1091,.F.);
#1277 = PLANE('',#1278);
#1278 = AXIS2_PLACEMENT_3D('',#1279,#1280,#1281);
#1279 = CARTESIAN_POINT('',(-36.55,19.167949192431,22.7));
#1280 = DIRECTION('',(-1.,-2.4E-16,0.));
#1281 = DIRECTION('',(-2.4E-16,1.,0.));
#1282 = ADVANCED_FACE('',(#1283),#1311,.T.);
#1283 = FACE_BOUND('',#1284,.T.);
#1284 = EDGE_LOOP('',(#1285,#1293,#1302,#1308,#1309,#1310));
#1285 = ORIENTED_EDGE('',*,*,#1286,.T.);
#1286 = EDGE_CURVE('',#1075,#1287,#1289,.T.);
#1287 = VERTEX_POINT('',#1288);
#1288 = CARTESIAN_POINT('',(-38.03205080756,20.65,22.9));
#1289 = LINE('',#1290,#1291);
#1290 = CARTESIAN_POINT('',(-38.03205080756,20.65,22.7));
#1291 = VECTOR('',#1292,1.);
#1292 = DIRECTION('',(0.,0.,1.));
#1293 = ORIENTED_EDGE('',*,*,#1294,.T.);
#1294 = EDGE_CURVE('',#1287,#1295,#1297,.T.);
#1295 = VERTEX_POINT('',#1296);
#1296 = CARTESIAN_POINT('',(-37.21651513899,20.65,23.7));
#1297 = HYPERBOLA('',#1298,0.25,0.25);
#1298 = AXIS2_PLACEMENT_3D('',#1299,#1300,#1301);
#1299 = CARTESIAN_POINT('',(-36.3,20.65,24.65));
#1300 = DIRECTION('',(0.,-1.,0.));
#1301 = DIRECTION('',(0.,0.,-1.));
#1302 = ORIENTED_EDGE('',*,*,#1303,.T.);
#1303 = EDGE_CURVE('',#1295,#1263,#1304,.T.);
#1304 = LINE('',#1305,#1306);
#1305 = CARTESIAN_POINT('',(-38.03205080756,20.65,23.7));
#1306 = VECTOR('',#1307,1.);
#1307 = DIRECTION('',(1.,0.,0.));
#1308 = ORIENTED_EDGE('',*,*,#1270,.F.);
#1309 = ORIENTED_EDGE('',*,*,#1005,.F.);
#1310 = ORIENTED_EDGE('',*,*,#1074,.F.);
#1311 = PLANE('',#1312);
#1312 = AXIS2_PLACEMENT_3D('',#1313,#1314,#1315);
#1313 = CARTESIAN_POINT('',(-38.03205080756,20.65,22.7));
#1314 = DIRECTION('',(0.,1.,0.));
#1315 = DIRECTION('',(1.,0.,0.));
#1316 = ADVANCED_FACE('',(#1317),#1352,.F.);
#1317 = FACE_BOUND('',#1318,.F.);
#1318 = EDGE_LOOP('',(#1319,#1327,#1336,#1344,#1350,#1351));
#1319 = ORIENTED_EDGE('',*,*,#1320,.T.);
#1320 = EDGE_CURVE('',#1115,#1321,#1323,.T.);
#1321 = VERTEX_POINT('',#1322);
#1322 = CARTESIAN_POINT('',(-38.03205080756,21.15,22.9));
#1323 = LINE('',#1324,#1325);
#1324 = CARTESIAN_POINT('',(-38.03205080756,21.15,22.7));
#1325 = VECTOR('',#1326,1.);
#1326 = DIRECTION('',(0.,0.,1.));
#1327 = ORIENTED_EDGE('',*,*,#1328,.T.);
#1328 = EDGE_CURVE('',#1321,#1329,#1331,.T.);
#1329 = VERTEX_POINT('',#1330);
#1330 = CARTESIAN_POINT('',(-37.21651513899,21.15,23.7));
#1331 = HYPERBOLA('',#1332,0.25,0.25);
#1332 = AXIS2_PLACEMENT_3D('',#1333,#1334,#1335);
#1333 = CARTESIAN_POINT('',(-36.3,21.15,24.65));
#1334 = DIRECTION('',(0.,-1.,0.));
#1335 = DIRECTION('',(0.,0.,-1.));
#1336 = ORIENTED_EDGE('',*,*,#1337,.T.);
#1337 = EDGE_CURVE('',#1329,#1338,#1340,.T.);
#1338 = VERTEX_POINT('',#1339);
#1339 = CARTESIAN_POINT('',(-36.55,21.15,23.7));
#1340 = LINE('',#1341,#1342);
#1341 = CARTESIAN_POINT('',(-38.03205080756,21.15,23.7));
#1342 = VECTOR('',#1343,1.);
#1343 = DIRECTION('',(1.,0.,0.));
#1344 = ORIENTED_EDGE('',*,*,#1345,.F.);
#1345 = EDGE_CURVE('',#991,#1338,#1346,.T.);
#1346 = LINE('',#1347,#1348);
#1347 = CARTESIAN_POINT('',(-36.55,21.15,22.7));
#1348 = VECTOR('',#1349,1.);
#1349 = DIRECTION('',(0.,0.,1.));
#1350 = ORIENTED_EDGE('',*,*,#998,.F.);
#1351 = ORIENTED_EDGE('',*,*,#1123,.F.);
#1352 = PLANE('',#1353);
#1353 = AXIS2_PLACEMENT_3D('',#1354,#1355,#1356);
#1354 = CARTESIAN_POINT('',(-38.03205080756,21.15,22.7));
#1355 = DIRECTION('',(0.,1.,0.));
#1356 = DIRECTION('',(1.,0.,0.));
#1357 = ADVANCED_FACE('',(#1358),#1386,.F.);
#1358 = FACE_BOUND('',#1359,.F.);
#1359 = EDGE_LOOP('',(#1360,#1368,#1369,#1370,#1371,#1379));
#1360 = ORIENTED_EDGE('',*,*,#1361,.F.);
#1361 = EDGE_CURVE('',#1107,#1362,#1364,.T.);
#1362 = VERTEX_POINT('',#1363);
#1363 = CARTESIAN_POINT('',(-36.55,22.632050807569,22.9));
#1364 = LINE('',#1365,#1366);
#1365 = CARTESIAN_POINT('',(-36.55,22.632050807569,22.7));
#1366 = VECTOR('',#1367,1.);
#1367 = DIRECTION('',(0.,0.,1.));
#1368 = ORIENTED_EDGE('',*,*,#1106,.F.);
#1369 = ORIENTED_EDGE('',*,*,#990,.F.);
#1370 = ORIENTED_EDGE('',*,*,#1345,.T.);
#1371 = ORIENTED_EDGE('',*,*,#1372,.T.);
#1372 = EDGE_CURVE('',#1338,#1373,#1375,.T.);
#1373 = VERTEX_POINT('',#1374);
#1374 = CARTESIAN_POINT('',(-36.55,21.816515138991,23.7));
#1375 = LINE('',#1376,#1377);
#1376 = CARTESIAN_POINT('',(-36.55,21.15,23.7));
#1377 = VECTOR('',#1378,1.);
#1378 = DIRECTION('',(0.,1.,0.));
#1379 = ORIENTED_EDGE('',*,*,#1380,.F.);
#1380 = EDGE_CURVE('',#1362,#1373,#1381,.T.);
#1381 = HYPERBOLA('',#1382,0.25,0.25);
#1382 = AXIS2_PLACEMENT_3D('',#1383,#1384,#1385);
#1383 = CARTESIAN_POINT('',(-36.55,20.9,24.65));
#1384 = DIRECTION('',(-1.,0.,0.));
#1385 = DIRECTION('',(0.,0.,-1.));
#1386 = PLANE('',#1387);
#1387 = AXIS2_PLACEMENT_3D('',#1388,#1389,#1390);
#1388 = CARTESIAN_POINT('',(-36.55,21.15,22.7));
#1389 = DIRECTION('',(-1.,0.,0.));
#1390 = DIRECTION('',(0.,1.,0.));
#1391 = ADVANCED_FACE('',(#1392),#1427,.F.);
#1392 = FACE_BOUND('',#1393,.F.);
#1393 = EDGE_LOOP('',(#1394,#1402,#1411,#1419,#1425,#1426));
#1394 = ORIENTED_EDGE('',*,*,#1395,.T.);
#1395 = EDGE_CURVE('',#1147,#1396,#1398,.T.);
#1396 = VERTEX_POINT('',#1397);
#1397 = CARTESIAN_POINT('',(-36.05,22.632050807569,22.9));
#1398 = LINE('',#1399,#1400);
#1399 = CARTESIAN_POINT('',(-36.05,22.632050807569,22.7));
#1400 = VECTOR('',#1401,1.);
#1401 = DIRECTION('',(0.,0.,1.));
#1402 = ORIENTED_EDGE('',*,*,#1403,.T.);
#1403 = EDGE_CURVE('',#1396,#1404,#1406,.T.);
#1404 = VERTEX_POINT('',#1405);
#1405 = CARTESIAN_POINT('',(-36.05,21.816515138991,23.7));
#1406 = HYPERBOLA('',#1407,0.25,0.25);
#1407 = AXIS2_PLACEMENT_3D('',#1408,#1409,#1410);
#1408 = CARTESIAN_POINT('',(-36.05,20.9,24.65));
#1409 = DIRECTION('',(-1.,7.E-17,0.));
#1410 = DIRECTION('',(0.,0.,-1.));
#1411 = ORIENTED_EDGE('',*,*,#1412,.T.);
#1412 = EDGE_CURVE('',#1404,#1413,#1415,.T.);
#1413 = VERTEX_POINT('',#1414);
#1414 = CARTESIAN_POINT('',(-36.05,21.15,23.7));
#1415 = LINE('',#1416,#1417);
#1416 = CARTESIAN_POINT('',(-36.05,22.632050807569,23.7));
#1417 = VECTOR('',#1418,1.);
#1418 = DIRECTION('',(-7.E-17,-1.,0.));
#1419 = ORIENTED_EDGE('',*,*,#1420,.F.);
#1420 = EDGE_CURVE('',#976,#1413,#1421,.T.);
#1421 = LINE('',#1422,#1423);
#1422 = CARTESIAN_POINT('',(-36.05,21.15,22.7));
#1423 = VECTOR('',#1424,1.);
#1424 = DIRECTION('',(0.,0.,1.));
#1425 = ORIENTED_EDGE('',*,*,#983,.F.);
#1426 = ORIENTED_EDGE('',*,*,#1155,.F.);
#1427 = PLANE('',#1428);
#1428 = AXIS2_PLACEMENT_3D('',#1429,#1430,#1431);
#1429 = CARTESIAN_POINT('',(-36.05,22.632050807569,22.7));
#1430 = DIRECTION('',(1.,-7.E-17,0.));
#1431 = DIRECTION('',(-7.E-17,-1.,0.));
#1432 = ADVANCED_FACE('',(#1433),#1461,.F.);
#1433 = FACE_BOUND('',#1434,.F.);
#1434 = EDGE_LOOP('',(#1435,#1443,#1444,#1445,#1446,#1454));
#1435 = ORIENTED_EDGE('',*,*,#1436,.F.);
#1436 = EDGE_CURVE('',#1139,#1437,#1439,.T.);
#1437 = VERTEX_POINT('',#1438);
#1438 = CARTESIAN_POINT('',(-34.56794919243,21.15,22.9));
#1439 = LINE('',#1440,#1441);
#1440 = CARTESIAN_POINT('',(-34.56794919243,21.15,22.7));
#1441 = VECTOR('',#1442,1.);
#1442 = DIRECTION('',(0.,0.,1.));
#1443 = ORIENTED_EDGE('',*,*,#1138,.F.);
#1444 = ORIENTED_EDGE('',*,*,#975,.F.);
#1445 = ORIENTED_EDGE('',*,*,#1420,.T.);
#1446 = ORIENTED_EDGE('',*,*,#1447,.T.);
#1447 = EDGE_CURVE('',#1413,#1448,#1450,.T.);
#1448 = VERTEX_POINT('',#1449);
#1449 = CARTESIAN_POINT('',(-35.383484861,21.15,23.7));
#1450 = LINE('',#1451,#1452);
#1451 = CARTESIAN_POINT('',(-36.05,21.15,23.7));
#1452 = VECTOR('',#1453,1.);
#1453 = DIRECTION('',(1.,0.,0.));
#1454 = ORIENTED_EDGE('',*,*,#1455,.F.);
#1455 = EDGE_CURVE('',#1437,#1448,#1456,.T.);
#1456 = HYPERBOLA('',#1457,0.25,0.25);
#1457 = AXIS2_PLACEMENT_3D('',#1458,#1459,#1460);
#1458 = CARTESIAN_POINT('',(-36.3,21.15,24.65));
#1459 = DIRECTION('',(0.,1.,0.));
#1460 = DIRECTION('',(0.,0.,-1.));
#1461 = PLANE('',#1462);
#1462 = AXIS2_PLACEMENT_3D('',#1463,#1464,#1465);
#1463 = CARTESIAN_POINT('',(-36.05,21.15,22.7));
#1464 = DIRECTION('',(0.,1.,0.));
#1465 = DIRECTION('',(1.,0.,0.));
#1466 = ADVANCED_FACE('',(#1467),#1479,.T.);
#1467 = FACE_BOUND('',#1468,.F.);
#1468 = EDGE_LOOP('',(#1469,#1470,#1477,#1478));
#1469 = ORIENTED_EDGE('',*,*,#1211,.T.);
#1470 = ORIENTED_EDGE('',*,*,#1471,.T.);
#1471 = EDGE_CURVE('',#1212,#1171,#1472,.T.);
#1472 = CIRCLE('',#1473,1.75);
#1473 = AXIS2_PLACEMENT_3D('',#1474,#1475,#1476);
#1474 = CARTESIAN_POINT('',(-36.3,20.9,22.9));
#1475 = DIRECTION('',(-0.,0.,1.));
#1476 = DIRECTION('',(0.142857142857,-0.989743318611,0.));
#1477 = ORIENTED_EDGE('',*,*,#1170,.F.);
#1478 = ORIENTED_EDGE('',*,*,#1050,.F.);
#1479 = CYLINDRICAL_SURFACE('',#1480,1.75);
#1480 = AXIS2_PLACEMENT_3D('',#1481,#1482,#1483);
#1481 = CARTESIAN_POINT('',(-36.3,20.9,22.7));
#1482 = DIRECTION('',(-0.,-0.,-1.));
#1483 = DIRECTION('',(1.,0.,0.));
#1484 = ADVANCED_FACE('',(#1485),#1497,.T.);
#1485 = FACE_BOUND('',#1486,.F.);
#1486 = EDGE_LOOP('',(#1487,#1488,#1495,#1496));
#1487 = ORIENTED_EDGE('',*,*,#1286,.T.);
#1488 = ORIENTED_EDGE('',*,*,#1489,.T.);
#1489 = EDGE_CURVE('',#1287,#1246,#1490,.T.);
#1490 = CIRCLE('',#1491,1.75);
#1491 = AXIS2_PLACEMENT_3D('',#1492,#1493,#1494);
#1492 = CARTESIAN_POINT('',(-36.3,20.9,22.9));
#1493 = DIRECTION('',(0.,0.,1.));
#1494 = DIRECTION('',(-0.989743318611,-0.142857142857,0.));
#1495 = ORIENTED_EDGE('',*,*,#1245,.F.);
#1496 = ORIENTED_EDGE('',*,*,#1082,.F.);
#1497 = CYLINDRICAL_SURFACE('',#1498,1.75);
#1498 = AXIS2_PLACEMENT_3D('',#1499,#1500,#1501);
#1499 = CARTESIAN_POINT('',(-36.3,20.9,22.7));
#1500 = DIRECTION('',(-0.,-0.,-1.));
#1501 = DIRECTION('',(1.,0.,0.));
#1502 = ADVANCED_FACE('',(#1503),#1515,.T.);
#1503 = FACE_BOUND('',#1504,.F.);
#1504 = EDGE_LOOP('',(#1505,#1506,#1513,#1514));
#1505 = ORIENTED_EDGE('',*,*,#1361,.T.);
#1506 = ORIENTED_EDGE('',*,*,#1507,.T.);
#1507 = EDGE_CURVE('',#1362,#1321,#1508,.T.);
#1508 = CIRCLE('',#1509,1.75);
#1509 = AXIS2_PLACEMENT_3D('',#1510,#1511,#1512);
#1510 = CARTESIAN_POINT('',(-36.3,20.9,22.9));
#1511 = DIRECTION('',(0.,0.,1.));
#1512 = DIRECTION('',(-0.142857142857,0.989743318611,0.));
#1513 = ORIENTED_EDGE('',*,*,#1320,.F.);
#1514 = ORIENTED_EDGE('',*,*,#1114,.F.);
#1515 = CYLINDRICAL_SURFACE('',#1516,1.75);
#1516 = AXIS2_PLACEMENT_3D('',#1517,#1518,#1519);
#1517 = CARTESIAN_POINT('',(-36.3,20.9,22.7));
#1518 = DIRECTION('',(-0.,-0.,-1.));
#1519 = DIRECTION('',(1.,0.,0.));
#1520 = ADVANCED_FACE('',(#1521),#1533,.T.);
#1521 = FACE_BOUND('',#1522,.F.);
#1522 = EDGE_LOOP('',(#1523,#1524,#1531,#1532));
#1523 = ORIENTED_EDGE('',*,*,#1436,.T.);
#1524 = ORIENTED_EDGE('',*,*,#1525,.T.);
#1525 = EDGE_CURVE('',#1437,#1396,#1526,.T.);
#1526 = CIRCLE('',#1527,1.75);
#1527 = AXIS2_PLACEMENT_3D('',#1528,#1529,#1530);
#1528 = CARTESIAN_POINT('',(-36.3,20.9,22.9));
#1529 = DIRECTION('',(0.,-0.,1.));
#1530 = DIRECTION('',(0.989743318611,0.142857142857,0.));
#1531 = ORIENTED_EDGE('',*,*,#1395,.F.);
#1532 = ORIENTED_EDGE('',*,*,#1146,.F.);
#1533 = CYLINDRICAL_SURFACE('',#1534,1.75);
#1534 = AXIS2_PLACEMENT_3D('',#1535,#1536,#1537);
#1535 = CARTESIAN_POINT('',(-36.3,20.9,22.7));
#1536 = DIRECTION('',(-0.,-0.,-1.));
#1537 = DIRECTION('',(1.,0.,0.));
#1538 = ADVANCED_FACE('',(#1539),#1551,.T.);
#1539 = FACE_BOUND('',#1540,.T.);
#1540 = EDGE_LOOP('',(#1541,#1542,#1543,#1544));
#1541 = ORIENTED_EDGE('',*,*,#1230,.F.);
#1542 = ORIENTED_EDGE('',*,*,#1471,.T.);
#1543 = ORIENTED_EDGE('',*,*,#1178,.T.);
#1544 = ORIENTED_EDGE('',*,*,#1545,.F.);
#1545 = EDGE_CURVE('',#1223,#1179,#1546,.T.);
#1546 = CIRCLE('',#1547,0.95);
#1547 = AXIS2_PLACEMENT_3D('',#1548,#1549,#1550);
#1548 = CARTESIAN_POINT('',(-36.3,20.9,23.7));
#1549 = DIRECTION('',(-0.,0.,1.));
#1550 = DIRECTION('',(0.142857142857,-0.989743318611,0.));
#1551 = CONICAL_SURFACE('',#1552,1.75,0.785398163397);
#1552 = AXIS2_PLACEMENT_3D('',#1553,#1554,#1555);
#1553 = CARTESIAN_POINT('',(-36.3,20.9,22.9));
#1554 = DIRECTION('',(-0.,-0.,-1.));
#1555 = DIRECTION('',(0.142857142857,-0.989743318611,0.));
#1556 = ADVANCED_FACE('',(#1557),#1562,.T.);
#1557 = FACE_BOUND('',#1558,.T.);
#1558 = EDGE_LOOP('',(#1559,#1560,#1561));
#1559 = ORIENTED_EDGE('',*,*,#1187,.T.);
#1560 = ORIENTED_EDGE('',*,*,#1222,.T.);
#1561 = ORIENTED_EDGE('',*,*,#1545,.T.);
#1562 = PLANE('',#1563);
#1563 = AXIS2_PLACEMENT_3D('',#1564,#1565,#1566);
#1564 = CARTESIAN_POINT('',(-36.3,20.9,23.7));
#1565 = DIRECTION('',(0.,0.,1.));
#1566 = DIRECTION('',(1.,0.,0.));
#1567 = ADVANCED_FACE('',(#1568),#1580,.T.);
#1568 = FACE_BOUND('',#1569,.T.);
#1569 = EDGE_LOOP('',(#1570,#1571,#1572,#1573));
#1570 = ORIENTED_EDGE('',*,*,#1294,.F.);
#1571 = ORIENTED_EDGE('',*,*,#1489,.T.);
#1572 = ORIENTED_EDGE('',*,*,#1253,.T.);
#1573 = ORIENTED_EDGE('',*,*,#1574,.F.);
#1574 = EDGE_CURVE('',#1295,#1254,#1575,.T.);
#1575 = CIRCLE('',#1576,0.95);
#1576 = AXIS2_PLACEMENT_3D('',#1577,#1578,#1579);
#1577 = CARTESIAN_POINT('',(-36.3,20.9,23.7));
#1578 = DIRECTION('',(0.,0.,1.));
#1579 = DIRECTION('',(-0.989743318611,-0.142857142857,0.));
#1580 = CONICAL_SURFACE('',#1581,1.75,0.785398163397);
#1581 = AXIS2_PLACEMENT_3D('',#1582,#1583,#1584);
#1582 = CARTESIAN_POINT('',(-36.3,20.9,22.9));
#1583 = DIRECTION('',(-0.,-0.,-1.));
#1584 = DIRECTION('',(-0.989743318611,-0.142857142857,0.));
#1585 = ADVANCED_FACE('',(#1586),#1591,.T.);
#1586 = FACE_BOUND('',#1587,.T.);
#1587 = EDGE_LOOP('',(#1588,#1589,#1590));
#1588 = ORIENTED_EDGE('',*,*,#1262,.T.);
#1589 = ORIENTED_EDGE('',*,*,#1303,.F.);
#1590 = ORIENTED_EDGE('',*,*,#1574,.T.);
#1591 = PLANE('',#1592);
#1592 = AXIS2_PLACEMENT_3D('',#1593,#1594,#1595);
#1593 = CARTESIAN_POINT('',(-36.3,20.9,23.7));
#1594 = DIRECTION('',(0.,0.,1.));
#1595 = DIRECTION('',(1.,0.,0.));
#1596 = ADVANCED_FACE('',(#1597),#1609,.T.);
#1597 = FACE_BOUND('',#1598,.T.);
#1598 = EDGE_LOOP('',(#1599,#1600,#1601,#1602));
#1599 = ORIENTED_EDGE('',*,*,#1380,.F.);
#1600 = ORIENTED_EDGE('',*,*,#1507,.T.);
#1601 = ORIENTED_EDGE('',*,*,#1328,.T.);
#1602 = ORIENTED_EDGE('',*,*,#1603,.F.);
#1603 = EDGE_CURVE('',#1373,#1329,#1604,.T.);
#1604 = CIRCLE('',#1605,0.95);
#1605 = AXIS2_PLACEMENT_3D('',#1606,#1607,#1608);
#1606 = CARTESIAN_POINT('',(-36.3,20.9,23.7));
#1607 = DIRECTION('',(0.,0.,1.));
#1608 = DIRECTION('',(-0.142857142857,0.989743318611,0.));
#1609 = CONICAL_SURFACE('',#1610,1.75,0.785398163397);
#1610 = AXIS2_PLACEMENT_3D('',#1611,#1612,#1613);
#1611 = CARTESIAN_POINT('',(-36.3,20.9,22.9));
#1612 = DIRECTION('',(-0.,-0.,-1.));
#1613 = DIRECTION('',(-0.142857142857,0.989743318611,0.));
#1614 = ADVANCED_FACE('',(#1615),#1620,.T.);
#1615 = FACE_BOUND('',#1616,.T.);
#1616 = EDGE_LOOP('',(#1617,#1618,#1619));
#1617 = ORIENTED_EDGE('',*,*,#1337,.T.);
#1618 = ORIENTED_EDGE('',*,*,#1372,.T.);
#1619 = ORIENTED_EDGE('',*,*,#1603,.T.);
#1620 = PLANE('',#1621);
#1621 = AXIS2_PLACEMENT_3D('',#1622,#1623,#1624);
#1622 = CARTESIAN_POINT('',(-36.3,20.9,23.7));
#1623 = DIRECTION('',(0.,0.,1.));
#1624 = DIRECTION('',(1.,0.,0.));
#1625 = ADVANCED_FACE('',(#1626),#1638,.T.);
#1626 = FACE_BOUND('',#1627,.T.);
#1627 = EDGE_LOOP('',(#1628,#1629,#1630,#1631));
#1628 = ORIENTED_EDGE('',*,*,#1455,.F.);
#1629 = ORIENTED_EDGE('',*,*,#1525,.T.);
#1630 = ORIENTED_EDGE('',*,*,#1403,.T.);
#1631 = ORIENTED_EDGE('',*,*,#1632,.F.);
#1632 = EDGE_CURVE('',#1448,#1404,#1633,.T.);
#1633 = CIRCLE('',#1634,0.95);
#1634 = AXIS2_PLACEMENT_3D('',#1635,#1636,#1637);
#1635 = CARTESIAN_POINT('',(-36.3,20.9,23.7));
#1636 = DIRECTION('',(0.,-0.,1.));
#1637 = DIRECTION('',(0.989743318611,0.142857142857,0.));
#1638 = CONICAL_SURFACE('',#1639,1.75,0.785398163397);
#1639 = AXIS2_PLACEMENT_3D('',#1640,#1641,#1642);
#1640 = CARTESIAN_POINT('',(-36.3,20.9,22.9));
#1641 = DIRECTION('',(-0.,-0.,-1.));
#1642 = DIRECTION('',(0.989743318611,0.142857142857,0.));
#1643 = ADVANCED_FACE('',(#1644),#1649,.T.);
#1644 = FACE_BOUND('',#1645,.T.);
#1645 = EDGE_LOOP('',(#1646,#1647,#1648));
#1646 = ORIENTED_EDGE('',*,*,#1412,.T.);
#1647 = ORIENTED_EDGE('',*,*,#1447,.T.);
#1648 = ORIENTED_EDGE('',*,*,#1632,.T.);
#1649 = PLANE('',#1650);
#1650 = AXIS2_PLACEMENT_3D('',#1651,#1652,#1653);
#1651 = CARTESIAN_POINT('',(-36.3,20.9,23.7));
#1652 = DIRECTION('',(0.,0.,1.));
#1653 = DIRECTION('',(1.,0.,0.));
#1654 = ( GEOMETRIC_REPRESENTATION_CONTEXT(3) 
GLOBAL_UNCERTAINTY_ASSIGNED_CONTEXT((#1658)) 
GLOBAL_UNIT_ASSIGNED_CONTEXT((#1655,#1656,#1657)) REPRESENTATION_CONTEXT
('Context #1','3D Context with UNIT and UNCERTAINTY') );
#1655 = ( LENGTH_UNIT() NAMED_UNIT(*) SI_UNIT(.MILLI.,.METRE.) );
#1656 = ( NAMED_UNIT(*) PLANE_ANGLE_UNIT() SI_UNIT($,.RADIAN.) );
#1657 = ( NAMED_UNIT(*) SI_UNIT($,.STERADIAN.) SOLID_ANGLE_UNIT() );
#1658 = UNCERTAINTY_MEASURE_WITH_UNIT(LENGTH_MEASURE(1.E-07),#1655,
  'distance_accuracy_value','confusion accuracy');
#1659 = PRODUCT_RELATED_PRODUCT_CATEGORY('part',$,(#7));
#1660 = MECHANICAL_DESIGN_GEOMETRIC_PRESENTATION_REPRESENTATION('',(
    #1661),#1654);
#1661 = STYLED_ITEM('color',(#1662),#15);
#1662 = PRESENTATION_STYLE_ASSIGNMENT((#1663,#1669));
#1663 = SURFACE_STYLE_USAGE(.BOTH.,#1664);
#1664 = SURFACE_SIDE_STYLE('',(#1665));
#1665 = SURFACE_STYLE_FILL_AREA(#1666);
#1666 = FILL_AREA_STYLE('',(#1667));
#1667 = FILL_AREA_STYLE_COLOUR('',#1668);
#1668 = COLOUR_RGB('',0.447058818107,0.474509808674,0.501960817233);
#1669 = CURVE_STYLE('',#1670,POSITIVE_LENGTH_MEASURE(0.1),#1671);
#1670 = DRAUGHTING_PRE_DEFINED_CURVE_FONT('continuous');
#1671 = COLOUR_RGB('',9.803921802644E-02,9.803921802644E-02,
  9.803921802644E-02);
ENDSEC;
END-ISO-10303-21;
