ISO-10303-21;
HEADER;
FILE_DESCRIPTION(('FreeCAD Model'),'2;1');
FILE_NAME('Open CASCADE Shape Model','2026-04-24T03:51:08',(''),(''),
  'Open CASCADE STEP processor 7.8','FreeCAD','Unknown');
FILE_SCHEMA(('AUTOMOTIVE_DESIGN { 1 0 10303 214 1 1 1 1 }'));
ENDSEC;
DATA;
#1 = APPLICATION_PROTOCOL_DEFINITION('international standard',
  'automotive_design',2000,#2);
#2 = APPLICATION_CONTEXT(
  'core data for automotive mechanical design processes');
#3 = SHAPE_DEFINITION_REPRESENTATION(#4,#10);
#4 = PRODUCT_DEFINITION_SHAPE('','',#5);
#5 = PRODUCT_DEFINITION('design','',#6,#9);
#6 = PRODUCT_DEFINITION_FORMATION('','',#7);
#7 = PRODUCT('Buttons','Buttons','',(#8));
#8 = PRODUCT_CONTEXT('',#2,'mechanical');
#9 = PRODUCT_DEFINITION_CONTEXT('part definition',#2,'design');
#10 = ADVANCED_BREP_SHAPE_REPRESENTATION('',(#11,#15),#679);
#11 = AXIS2_PLACEMENT_3D('',#12,#13,#14);
#12 = CARTESIAN_POINT('',(0.,0.,0.));
#13 = DIRECTION('',(0.,0.,1.));
#14 = DIRECTION('',(1.,0.,-0.));
#15 = MANIFOLD_SOLID_BREP('',#16);
#16 = CLOSED_SHELL('',(#17,#57,#90,#123,#216,#241,#265,#298,#357,#382,
    #413,#437,#461,#478,#503,#527,#552,#569,#587,#612,#630,#655,#667));
#17 = ADVANCED_FACE('',(#18),#52,.F.);
#18 = FACE_BOUND('',#19,.F.);
#19 = EDGE_LOOP('',(#20,#30,#38,#46));
#20 = ORIENTED_EDGE('',*,*,#21,.T.);
#21 = EDGE_CURVE('',#22,#24,#26,.T.);
#22 = VERTEX_POINT('',#23);
#23 = CARTESIAN_POINT('',(21.202553,3.E-15,12.150638228971));
#24 = VERTEX_POINT('',#25);
#25 = CARTESIAN_POINT('',(21.202553,-2.15,12.150638228971));
#26 = LINE('',#27,#28);
#27 = CARTESIAN_POINT('',(21.202553,2.7E-15,12.150638228971));
#28 = VECTOR('',#29,1.);
#29 = DIRECTION('',(0.,-1.,2.2E-16));
#30 = ORIENTED_EDGE('',*,*,#31,.T.);
#31 = EDGE_CURVE('',#24,#32,#34,.T.);
#32 = VERTEX_POINT('',#33);
#33 = CARTESIAN_POINT('',(21.202553,-2.15,11.688272771029));
#34 = LINE('',#35,#36);
#35 = CARTESIAN_POINT('',(21.202553,-2.15,12.150638228971));
#36 = VECTOR('',#37,1.);
#37 = DIRECTION('',(0.,-2.2E-16,-1.));
#38 = ORIENTED_EDGE('',*,*,#39,.F.);
#39 = EDGE_CURVE('',#40,#32,#42,.T.);
#40 = VERTEX_POINT('',#41);
#41 = CARTESIAN_POINT('',(21.202553,3.E-15,11.688272771029));
#42 = LINE('',#43,#44);
#43 = CARTESIAN_POINT('',(21.202553,2.6E-15,11.688272771029));
#44 = VECTOR('',#45,1.);
#45 = DIRECTION('',(0.,-1.,2.2E-16));
#46 = ORIENTED_EDGE('',*,*,#47,.F.);
#47 = EDGE_CURVE('',#22,#40,#48,.T.);
#48 = LINE('',#49,#50);
#49 = CARTESIAN_POINT('',(21.202553,0.,12.150638228971));
#50 = VECTOR('',#51,1.);
#51 = DIRECTION('',(0.,0.,-1.));
#52 = PLANE('',#53);
#53 = AXIS2_PLACEMENT_3D('',#54,#55,#56);
#54 = CARTESIAN_POINT('',(21.202553,2.7E-15,12.150638228971));
#55 = DIRECTION('',(1.,0.,0.));
#56 = DIRECTION('',(0.,-2.2E-16,-1.));
#57 = ADVANCED_FACE('',(#58),#85,.T.);
#58 = FACE_BOUND('',#59,.F.);
#59 = EDGE_LOOP('',(#60,#70,#77,#78));
#60 = ORIENTED_EDGE('',*,*,#61,.T.);
#61 = EDGE_CURVE('',#62,#64,#66,.T.);
#62 = VERTEX_POINT('',#63);
#63 = CARTESIAN_POINT('',(21.609248771029,3.E-15,12.557334));
#64 = VERTEX_POINT('',#65);
#65 = CARTESIAN_POINT('',(21.609248771029,-2.15,12.557334));
#66 = LINE('',#67,#68);
#67 = CARTESIAN_POINT('',(21.609248771029,2.79E-15,12.557334));
#68 = VECTOR('',#69,1.);
#69 = DIRECTION('',(0.,-1.,2.2E-16));
#70 = ORIENTED_EDGE('',*,*,#71,.T.);
#71 = EDGE_CURVE('',#64,#24,#72,.T.);
#72 = CIRCLE('',#73,0.406695771029);
#73 = AXIS2_PLACEMENT_3D('',#74,#75,#76);
#74 = CARTESIAN_POINT('',(21.609248771029,-2.15,12.150638228971));
#75 = DIRECTION('',(0.,-1.,0.));
#76 = DIRECTION('',(0.,0.,1.));
#77 = ORIENTED_EDGE('',*,*,#21,.F.);
#78 = ORIENTED_EDGE('',*,*,#79,.F.);
#79 = EDGE_CURVE('',#62,#22,#80,.T.);
#80 = CIRCLE('',#81,0.406695771029);
#81 = AXIS2_PLACEMENT_3D('',#82,#83,#84);
#82 = CARTESIAN_POINT('',(21.609248771029,0.,12.150638228971));
#83 = DIRECTION('',(0.,-1.,0.));
#84 = DIRECTION('',(1.,0.,0.));
#85 = CYLINDRICAL_SURFACE('',#86,0.406695771029);
#86 = AXIS2_PLACEMENT_3D('',#87,#88,#89);
#87 = CARTESIAN_POINT('',(21.609248771029,2.7E-15,12.150638228971));
#88 = DIRECTION('',(0.,1.,-2.2E-16));
#89 = DIRECTION('',(1.,0.,0.));
#90 = ADVANCED_FACE('',(#91),#118,.T.);
#91 = FACE_BOUND('',#92,.T.);
#92 = EDGE_LOOP('',(#93,#102,#103,#112));
#93 = ORIENTED_EDGE('',*,*,#94,.T.);
#94 = EDGE_CURVE('',#95,#24,#97,.T.);
#95 = VERTEX_POINT('',#96);
#96 = CARTESIAN_POINT('',(21.502553,-2.45,12.150638228971));
#97 = CIRCLE('',#98,0.3);
#98 = AXIS2_PLACEMENT_3D('',#99,#100,#101);
#99 = CARTESIAN_POINT('',(21.502553,-2.15,12.150638228971));
#100 = DIRECTION('',(3.8E-16,0.,-1.));
#101 = DIRECTION('',(-1.,0.,-3.8E-16));
#102 = ORIENTED_EDGE('',*,*,#31,.T.);
#103 = ORIENTED_EDGE('',*,*,#104,.F.);
#104 = EDGE_CURVE('',#105,#32,#107,.T.);
#105 = VERTEX_POINT('',#106);
#106 = CARTESIAN_POINT('',(21.502553,-2.45,11.688272771029));
#107 = CIRCLE('',#108,0.3);
#108 = AXIS2_PLACEMENT_3D('',#109,#110,#111);
#109 = CARTESIAN_POINT('',(21.502553,-2.15,11.688272771029));
#110 = DIRECTION('',(-0.,-2.2E-16,-1.));
#111 = DIRECTION('',(0.,-1.,2.2E-16));
#112 = ORIENTED_EDGE('',*,*,#113,.F.);
#113 = EDGE_CURVE('',#95,#105,#114,.T.);
#114 = LINE('',#115,#116);
#115 = CARTESIAN_POINT('',(21.502553,-2.45,12.150638228971));
#116 = VECTOR('',#117,1.);
#117 = DIRECTION('',(0.,-2.2E-16,-1.));
#118 = CYLINDRICAL_SURFACE('',#119,0.3);
#119 = AXIS2_PLACEMENT_3D('',#120,#121,#122);
#120 = CARTESIAN_POINT('',(21.502553,-2.15,12.150638228971));
#121 = DIRECTION('',(0.,-2.2E-16,-1.));
#122 = DIRECTION('',(0.,-1.,2.2E-16));
#123 = ADVANCED_FACE('',(#124,#158),#211,.F.);
#124 = FACE_BOUND('',#125,.F.);
#125 = EDGE_LOOP('',(#126,#136,#144,#152));
#126 = ORIENTED_EDGE('',*,*,#127,.T.);
#127 = EDGE_CURVE('',#128,#130,#132,.T.);
#128 = VERTEX_POINT('',#129);
#129 = CARTESIAN_POINT('',(33.74,6.E-15,13.44));
#130 = VERTEX_POINT('',#131);
#131 = CARTESIAN_POINT('',(33.74,5.E-15,10.47));
#132 = LINE('',#133,#134);
#133 = CARTESIAN_POINT('',(33.74,3.E-15,13.44));
#134 = VECTOR('',#135,1.);
#135 = DIRECTION('',(0.,0.,-1.));
#136 = ORIENTED_EDGE('',*,*,#137,.T.);
#137 = EDGE_CURVE('',#130,#138,#140,.T.);
#138 = VERTEX_POINT('',#139);
#139 = CARTESIAN_POINT('',(20.74,5.E-15,10.47));
#140 = LINE('',#141,#142);
#141 = CARTESIAN_POINT('',(33.74,3.E-15,10.47));
#142 = VECTOR('',#143,1.);
#143 = DIRECTION('',(-1.,0.,0.));
#144 = ORIENTED_EDGE('',*,*,#145,.T.);
#145 = EDGE_CURVE('',#138,#146,#148,.T.);
#146 = VERTEX_POINT('',#147);
#147 = CARTESIAN_POINT('',(20.74,6.E-15,13.44));
#148 = LINE('',#149,#150);
#149 = CARTESIAN_POINT('',(20.74,3.E-15,10.47));
#150 = VECTOR('',#151,1.);
#151 = DIRECTION('',(0.,0.,1.));
#152 = ORIENTED_EDGE('',*,*,#153,.T.);
#153 = EDGE_CURVE('',#146,#128,#154,.T.);
#154 = LINE('',#155,#156);
#155 = CARTESIAN_POINT('',(20.74,3.E-15,13.44));
#156 = VECTOR('',#157,1.);
#157 = DIRECTION('',(1.,0.,0.));
#158 = FACE_BOUND('',#159,.F.);
#159 = EDGE_LOOP('',(#160,#161,#162,#171,#179,#188,#196,#205));
#160 = ORIENTED_EDGE('',*,*,#79,.T.);
#161 = ORIENTED_EDGE('',*,*,#47,.T.);
#162 = ORIENTED_EDGE('',*,*,#163,.T.);
#163 = EDGE_CURVE('',#40,#164,#166,.T.);
#164 = VERTEX_POINT('',#165);
#165 = CARTESIAN_POINT('',(21.609248771029,3.E-15,11.281577));
#166 = CIRCLE('',#167,0.406695771029);
#167 = AXIS2_PLACEMENT_3D('',#168,#169,#170);
#168 = CARTESIAN_POINT('',(21.609248771029,0.,11.688272771029));
#169 = DIRECTION('',(0.,-1.,0.));
#170 = DIRECTION('',(1.,0.,0.));
#171 = ORIENTED_EDGE('',*,*,#172,.T.);
#172 = EDGE_CURVE('',#164,#173,#175,.T.);
#173 = VERTEX_POINT('',#174);
#174 = CARTESIAN_POINT('',(32.955336228971,3.E-15,11.281577));
#175 = LINE('',#176,#177);
#176 = CARTESIAN_POINT('',(21.609248771029,0.,11.281577));
#177 = VECTOR('',#178,1.);
#178 = DIRECTION('',(1.,0.,0.));
#179 = ORIENTED_EDGE('',*,*,#180,.T.);
#180 = EDGE_CURVE('',#173,#181,#183,.T.);
#181 = VERTEX_POINT('',#182);
#182 = CARTESIAN_POINT('',(33.362032,3.E-15,11.688272771029));
#183 = CIRCLE('',#184,0.406695771029);
#184 = AXIS2_PLACEMENT_3D('',#185,#186,#187);
#185 = CARTESIAN_POINT('',(32.955336228971,0.,11.688272771029));
#186 = DIRECTION('',(0.,-1.,0.));
#187 = DIRECTION('',(1.,0.,0.));
#188 = ORIENTED_EDGE('',*,*,#189,.T.);
#189 = EDGE_CURVE('',#181,#190,#192,.T.);
#190 = VERTEX_POINT('',#191);
#191 = CARTESIAN_POINT('',(33.362032,3.E-15,12.150638228971));
#192 = LINE('',#193,#194);
#193 = CARTESIAN_POINT('',(33.362032,0.,11.688272771029));
#194 = VECTOR('',#195,1.);
#195 = DIRECTION('',(0.,0.,1.));
#196 = ORIENTED_EDGE('',*,*,#197,.T.);
#197 = EDGE_CURVE('',#190,#198,#200,.T.);
#198 = VERTEX_POINT('',#199);
#199 = CARTESIAN_POINT('',(32.955336228971,3.E-15,12.557334));
#200 = CIRCLE('',#201,0.406695771029);
#201 = AXIS2_PLACEMENT_3D('',#202,#203,#204);
#202 = CARTESIAN_POINT('',(32.955336228971,0.,12.150638228971));
#203 = DIRECTION('',(0.,-1.,0.));
#204 = DIRECTION('',(1.,0.,0.));
#205 = ORIENTED_EDGE('',*,*,#206,.T.);
#206 = EDGE_CURVE('',#198,#62,#207,.T.);
#207 = LINE('',#208,#209);
#208 = CARTESIAN_POINT('',(32.955336228971,0.,12.557334));
#209 = VECTOR('',#210,1.);
#210 = DIRECTION('',(-1.,0.,0.));
#211 = PLANE('',#212);
#212 = AXIS2_PLACEMENT_3D('',#213,#214,#215);
#213 = CARTESIAN_POINT('',(27.24,5.3E-15,11.955));
#214 = DIRECTION('',(0.,1.,0.));
#215 = DIRECTION('',(0.,0.,1.));
#216 = ADVANCED_FACE('',(#217),#236,.T.);
#217 = FACE_BOUND('',#218,.F.);
#218 = EDGE_LOOP('',(#219,#220,#229,#235));
#219 = ORIENTED_EDGE('',*,*,#39,.T.);
#220 = ORIENTED_EDGE('',*,*,#221,.T.);
#221 = EDGE_CURVE('',#32,#222,#224,.T.);
#222 = VERTEX_POINT('',#223);
#223 = CARTESIAN_POINT('',(21.609248771029,-2.15,11.281577));
#224 = CIRCLE('',#225,0.406695771029);
#225 = AXIS2_PLACEMENT_3D('',#226,#227,#228);
#226 = CARTESIAN_POINT('',(21.609248771029,-2.15,11.688272771029));
#227 = DIRECTION('',(-0.,-1.,-0.));
#228 = DIRECTION('',(-1.,0.,0.));
#229 = ORIENTED_EDGE('',*,*,#230,.F.);
#230 = EDGE_CURVE('',#164,#222,#231,.T.);
#231 = LINE('',#232,#233);
#232 = CARTESIAN_POINT('',(21.609248771029,2.51E-15,11.281577));
#233 = VECTOR('',#234,1.);
#234 = DIRECTION('',(0.,-1.,2.2E-16));
#235 = ORIENTED_EDGE('',*,*,#163,.F.);
#236 = CYLINDRICAL_SURFACE('',#237,0.406695771029);
#237 = AXIS2_PLACEMENT_3D('',#238,#239,#240);
#238 = CARTESIAN_POINT('',(21.609248771029,2.6E-15,11.688272771029));
#239 = DIRECTION('',(0.,1.,-2.2E-16));
#240 = DIRECTION('',(1.,0.,0.));
#241 = ADVANCED_FACE('',(#242),#260,.F.);
#242 = FACE_BOUND('',#243,.F.);
#243 = EDGE_LOOP('',(#244,#252,#258,#259));
#244 = ORIENTED_EDGE('',*,*,#245,.T.);
#245 = EDGE_CURVE('',#198,#246,#248,.T.);
#246 = VERTEX_POINT('',#247);
#247 = CARTESIAN_POINT('',(32.955336228971,-2.15,12.557334));
#248 = LINE('',#249,#250);
#249 = CARTESIAN_POINT('',(32.955336228971,2.79E-15,12.557334));
#250 = VECTOR('',#251,1.);
#251 = DIRECTION('',(0.,-1.,2.2E-16));
#252 = ORIENTED_EDGE('',*,*,#253,.T.);
#253 = EDGE_CURVE('',#246,#64,#254,.T.);
#254 = LINE('',#255,#256);
#255 = CARTESIAN_POINT('',(32.955336228971,-2.15,12.557334));
#256 = VECTOR('',#257,1.);
#257 = DIRECTION('',(-1.,0.,0.));
#258 = ORIENTED_EDGE('',*,*,#61,.F.);
#259 = ORIENTED_EDGE('',*,*,#206,.F.);
#260 = PLANE('',#261);
#261 = AXIS2_PLACEMENT_3D('',#262,#263,#264);
#262 = CARTESIAN_POINT('',(32.955336228971,2.79E-15,12.557334));
#263 = DIRECTION('',(-0.,-2.2E-16,-1.));
#264 = DIRECTION('',(-1.,0.,0.));
#265 = ADVANCED_FACE('',(#266),#286,.T.);
#266 = FACE_BOUND('',#267,.F.);
#267 = EDGE_LOOP('',(#268,#277,#284,#285));
#268 = ORIENTED_EDGE('',*,*,#269,.F.);
#269 = EDGE_CURVE('',#270,#64,#272,.T.);
#270 = VERTEX_POINT('',#271);
#271 = CARTESIAN_POINT('',(21.609248771029,-2.45,12.257334));
#272 = CIRCLE('',#273,0.3);
#273 = AXIS2_PLACEMENT_3D('',#274,#275,#276);
#274 = CARTESIAN_POINT('',(21.609248771029,-2.15,12.257334));
#275 = DIRECTION('',(-1.,0.,0.));
#276 = DIRECTION('',(-0.,-1.,-0.));
#277 = ORIENTED_EDGE('',*,*,#278,.T.);
#278 = EDGE_CURVE('',#270,#95,#279,.T.);
#279 = CIRCLE('',#280,0.106695771029);
#280 = AXIS2_PLACEMENT_3D('',#281,#282,#283);
#281 = CARTESIAN_POINT('',(21.609248771029,-2.45,12.150638228971));
#282 = DIRECTION('',(0.,-1.,0.));
#283 = DIRECTION('',(0.,0.,1.));
#284 = ORIENTED_EDGE('',*,*,#94,.T.);
#285 = ORIENTED_EDGE('',*,*,#71,.F.);
#286 = SURFACE_OF_REVOLUTION('',#287,#295);
#287 = B_SPLINE_CURVE_WITH_KNOTS('',6,(#288,#289,#290,#291,#292,#293,
    #294),.UNSPECIFIED.,.F.,.F.,(7,7),(4.712388980385,6.28318530718),
  .PIECEWISE_BEZIER_KNOTS.);
#288 = CARTESIAN_POINT('',(21.609248771029,-2.45,12.257334));
#289 = CARTESIAN_POINT('',(21.609248771029,-2.45,12.33587381634));
#290 = CARTESIAN_POINT('',(21.609248771029,-2.425331694194,
    12.414406950212));
#291 = CARTESIAN_POINT('',(21.609248771029,-2.375957044892,
    12.483291044892));
#292 = CARTESIAN_POINT('',(21.609248771029,-2.307072950212,
    12.532665694194));
#293 = CARTESIAN_POINT('',(21.609248771029,-2.22853981634,12.557334));
#294 = CARTESIAN_POINT('',(21.609248771029,-2.15,12.557334));
#295 = AXIS1_PLACEMENT('',#296,#297);
#296 = CARTESIAN_POINT('',(21.609248771029,-2.15,12.150638228971));
#297 = DIRECTION('',(0.,1.,0.));
#298 = ADVANCED_FACE('',(#299),#352,.F.);
#299 = FACE_BOUND('',#300,.F.);
#300 = EDGE_LOOP('',(#301,#312,#320,#329,#337,#344,#345,#346));
#301 = ORIENTED_EDGE('',*,*,#302,.F.);
#302 = EDGE_CURVE('',#303,#305,#307,.T.);
#303 = VERTEX_POINT('',#304);
#304 = CARTESIAN_POINT('',(33.062032,-2.45,12.150638228971));
#305 = VERTEX_POINT('',#306);
#306 = CARTESIAN_POINT('',(32.955336228971,-2.45,12.257334));
#307 = CIRCLE('',#308,0.106695771029);
#308 = AXIS2_PLACEMENT_3D('',#309,#310,#311);
#309 = CARTESIAN_POINT('',(32.955336228971,-2.45,12.150638228971));
#310 = DIRECTION('',(0.,-1.,0.));
#311 = DIRECTION('',(1.,0.,0.));
#312 = ORIENTED_EDGE('',*,*,#313,.F.);
#313 = EDGE_CURVE('',#314,#303,#316,.T.);
#314 = VERTEX_POINT('',#315);
#315 = CARTESIAN_POINT('',(33.062032,-2.45,11.688272771029));
#316 = LINE('',#317,#318);
#317 = CARTESIAN_POINT('',(33.062032,-2.45,11.688272771029));
#318 = VECTOR('',#319,1.);
#319 = DIRECTION('',(0.,2.2E-16,1.));
#320 = ORIENTED_EDGE('',*,*,#321,.F.);
#321 = EDGE_CURVE('',#322,#314,#324,.T.);
#322 = VERTEX_POINT('',#323);
#323 = CARTESIAN_POINT('',(32.955336228971,-2.45,11.581577));
#324 = CIRCLE('',#325,0.106695771029);
#325 = AXIS2_PLACEMENT_3D('',#326,#327,#328);
#326 = CARTESIAN_POINT('',(32.955336228971,-2.45,11.688272771029));
#327 = DIRECTION('',(0.,-1.,0.));
#328 = DIRECTION('',(0.,0.,-1.));
#329 = ORIENTED_EDGE('',*,*,#330,.F.);
#330 = EDGE_CURVE('',#331,#322,#333,.T.);
#331 = VERTEX_POINT('',#332);
#332 = CARTESIAN_POINT('',(21.609248771029,-2.45,11.581577));
#333 = LINE('',#334,#335);
#334 = CARTESIAN_POINT('',(21.609248771029,-2.45,11.581577));
#335 = VECTOR('',#336,1.);
#336 = DIRECTION('',(1.,0.,0.));
#337 = ORIENTED_EDGE('',*,*,#338,.F.);
#338 = EDGE_CURVE('',#105,#331,#339,.T.);
#339 = CIRCLE('',#340,0.106695771029);
#340 = AXIS2_PLACEMENT_3D('',#341,#342,#343);
#341 = CARTESIAN_POINT('',(21.609248771029,-2.45,11.688272771029));
#342 = DIRECTION('',(-0.,-1.,-0.));
#343 = DIRECTION('',(-1.,0.,0.));
#344 = ORIENTED_EDGE('',*,*,#113,.F.);
#345 = ORIENTED_EDGE('',*,*,#278,.F.);
#346 = ORIENTED_EDGE('',*,*,#347,.F.);
#347 = EDGE_CURVE('',#305,#270,#348,.T.);
#348 = LINE('',#349,#350);
#349 = CARTESIAN_POINT('',(32.955336228971,-2.45,12.257334));
#350 = VECTOR('',#351,1.);
#351 = DIRECTION('',(-1.,0.,0.));
#352 = PLANE('',#353);
#353 = AXIS2_PLACEMENT_3D('',#354,#355,#356);
#354 = CARTESIAN_POINT('',(27.2822925,-2.45,11.9194555));
#355 = DIRECTION('',(0.,1.,0.));
#356 = DIRECTION('',(0.,0.,1.));
#357 = ADVANCED_FACE('',(#358),#370,.T.);
#358 = FACE_BOUND('',#359,.F.);
#359 = EDGE_LOOP('',(#360,#361,#362,#369));
#360 = ORIENTED_EDGE('',*,*,#104,.F.);
#361 = ORIENTED_EDGE('',*,*,#338,.T.);
#362 = ORIENTED_EDGE('',*,*,#363,.T.);
#363 = EDGE_CURVE('',#331,#222,#364,.T.);
#364 = CIRCLE('',#365,0.3);
#365 = AXIS2_PLACEMENT_3D('',#366,#367,#368);
#366 = CARTESIAN_POINT('',(21.609248771029,-2.15,11.581577));
#367 = DIRECTION('',(1.,0.,-2.28E-15));
#368 = DIRECTION('',(-2.28E-15,0.,-1.));
#369 = ORIENTED_EDGE('',*,*,#221,.F.);
#370 = SURFACE_OF_REVOLUTION('',#371,#379);
#371 = B_SPLINE_CURVE_WITH_KNOTS('',6,(#372,#373,#374,#375,#376,#377,
    #378),.UNSPECIFIED.,.F.,.F.,(7,7),(4.712388980385,6.28318530718),
  .PIECEWISE_BEZIER_KNOTS.);
#372 = CARTESIAN_POINT('',(21.502553,-2.45,11.688272771029));
#373 = CARTESIAN_POINT('',(21.42401318366,-2.45,11.688272771029));
#374 = CARTESIAN_POINT('',(21.345480049788,-2.425331694194,
    11.688272771029));
#375 = CARTESIAN_POINT('',(21.276595955108,-2.375957044892,
    11.688272771029));
#376 = CARTESIAN_POINT('',(21.227221305806,-2.307072950212,
    11.688272771029));
#377 = CARTESIAN_POINT('',(21.202553,-2.22853981634,11.688272771029));
#378 = CARTESIAN_POINT('',(21.202553,-2.15,11.688272771029));
#379 = AXIS1_PLACEMENT('',#380,#381);
#380 = CARTESIAN_POINT('',(21.609248771029,-2.15,11.688272771029));
#381 = DIRECTION('',(0.,1.,0.));
#382 = ADVANCED_FACE('',(#383),#408,.F.);
#383 = FACE_BOUND('',#384,.F.);
#384 = EDGE_LOOP('',(#385,#393,#401,#407));
#385 = ORIENTED_EDGE('',*,*,#386,.T.);
#386 = EDGE_CURVE('',#128,#387,#389,.T.);
#387 = VERTEX_POINT('',#388);
#388 = CARTESIAN_POINT('',(33.74,1.05,13.44));
#389 = LINE('',#390,#391);
#390 = CARTESIAN_POINT('',(33.74,5.63E-15,13.44));
#391 = VECTOR('',#392,1.);
#392 = DIRECTION('',(0.,1.,-2.2E-16));
#393 = ORIENTED_EDGE('',*,*,#394,.T.);
#394 = EDGE_CURVE('',#387,#395,#397,.T.);
#395 = VERTEX_POINT('',#396);
#396 = CARTESIAN_POINT('',(33.74,1.05,10.47));
#397 = LINE('',#398,#399);
#398 = CARTESIAN_POINT('',(33.74,1.05,13.44));
#399 = VECTOR('',#400,1.);
#400 = DIRECTION('',(0.,0.,-1.));
#401 = ORIENTED_EDGE('',*,*,#402,.F.);
#402 = EDGE_CURVE('',#130,#395,#403,.T.);
#403 = LINE('',#404,#405);
#404 = CARTESIAN_POINT('',(33.74,4.97E-15,10.47));
#405 = VECTOR('',#406,1.);
#406 = DIRECTION('',(0.,1.,-2.2E-16));
#407 = ORIENTED_EDGE('',*,*,#127,.F.);
#408 = PLANE('',#409);
#409 = AXIS2_PLACEMENT_3D('',#410,#411,#412);
#410 = CARTESIAN_POINT('',(33.74,5.63E-15,13.44));
#411 = DIRECTION('',(-1.,0.,0.));
#412 = DIRECTION('',(-0.,-2.2E-16,-1.));
#413 = ADVANCED_FACE('',(#414),#432,.F.);
#414 = FACE_BOUND('',#415,.F.);
#415 = EDGE_LOOP('',(#416,#424,#430,#431));
#416 = ORIENTED_EDGE('',*,*,#417,.T.);
#417 = EDGE_CURVE('',#146,#418,#420,.T.);
#418 = VERTEX_POINT('',#419);
#419 = CARTESIAN_POINT('',(20.74,1.05,13.44));
#420 = LINE('',#421,#422);
#421 = CARTESIAN_POINT('',(20.74,5.63E-15,13.44));
#422 = VECTOR('',#423,1.);
#423 = DIRECTION('',(0.,1.,-2.2E-16));
#424 = ORIENTED_EDGE('',*,*,#425,.T.);
#425 = EDGE_CURVE('',#418,#387,#426,.T.);
#426 = LINE('',#427,#428);
#427 = CARTESIAN_POINT('',(20.74,1.05,13.44));
#428 = VECTOR('',#429,1.);
#429 = DIRECTION('',(1.,0.,0.));
#430 = ORIENTED_EDGE('',*,*,#386,.F.);
#431 = ORIENTED_EDGE('',*,*,#153,.F.);
#432 = PLANE('',#433);
#433 = AXIS2_PLACEMENT_3D('',#434,#435,#436);
#434 = CARTESIAN_POINT('',(20.74,5.63E-15,13.44));
#435 = DIRECTION('',(0.,-2.2E-16,-1.));
#436 = DIRECTION('',(1.,0.,0.));
#437 = ADVANCED_FACE('',(#438),#456,.F.);
#438 = FACE_BOUND('',#439,.F.);
#439 = EDGE_LOOP('',(#440,#441,#449,#455));
#440 = ORIENTED_EDGE('',*,*,#402,.T.);
#441 = ORIENTED_EDGE('',*,*,#442,.T.);
#442 = EDGE_CURVE('',#395,#443,#445,.T.);
#443 = VERTEX_POINT('',#444);
#444 = CARTESIAN_POINT('',(20.74,1.05,10.47));
#445 = LINE('',#446,#447);
#446 = CARTESIAN_POINT('',(33.74,1.05,10.47));
#447 = VECTOR('',#448,1.);
#448 = DIRECTION('',(-1.,0.,0.));
#449 = ORIENTED_EDGE('',*,*,#450,.F.);
#450 = EDGE_CURVE('',#138,#443,#451,.T.);
#451 = LINE('',#452,#453);
#452 = CARTESIAN_POINT('',(20.74,4.97E-15,10.47));
#453 = VECTOR('',#454,1.);
#454 = DIRECTION('',(0.,1.,-2.2E-16));
#455 = ORIENTED_EDGE('',*,*,#137,.F.);
#456 = PLANE('',#457);
#457 = AXIS2_PLACEMENT_3D('',#458,#459,#460);
#458 = CARTESIAN_POINT('',(33.74,4.97E-15,10.47));
#459 = DIRECTION('',(0.,2.2E-16,1.));
#460 = DIRECTION('',(-1.,0.,0.));
#461 = ADVANCED_FACE('',(#462),#473,.F.);
#462 = FACE_BOUND('',#463,.F.);
#463 = EDGE_LOOP('',(#464,#465,#471,#472));
#464 = ORIENTED_EDGE('',*,*,#450,.T.);
#465 = ORIENTED_EDGE('',*,*,#466,.T.);
#466 = EDGE_CURVE('',#443,#418,#467,.T.);
#467 = LINE('',#468,#469);
#468 = CARTESIAN_POINT('',(20.74,1.05,10.47));
#469 = VECTOR('',#470,1.);
#470 = DIRECTION('',(0.,0.,1.));
#471 = ORIENTED_EDGE('',*,*,#417,.F.);
#472 = ORIENTED_EDGE('',*,*,#145,.F.);
#473 = PLANE('',#474);
#474 = AXIS2_PLACEMENT_3D('',#475,#476,#477);
#475 = CARTESIAN_POINT('',(20.74,4.97E-15,10.47));
#476 = DIRECTION('',(1.,0.,0.));
#477 = DIRECTION('',(0.,2.2E-16,1.));
#478 = ADVANCED_FACE('',(#479),#498,.T.);
#479 = FACE_BOUND('',#480,.F.);
#480 = EDGE_LOOP('',(#481,#489,#496,#497));
#481 = ORIENTED_EDGE('',*,*,#482,.T.);
#482 = EDGE_CURVE('',#190,#483,#485,.T.);
#483 = VERTEX_POINT('',#484);
#484 = CARTESIAN_POINT('',(33.362032,-2.15,12.150638228971));
#485 = LINE('',#486,#487);
#486 = CARTESIAN_POINT('',(33.362032,2.7E-15,12.150638228971));
#487 = VECTOR('',#488,1.);
#488 = DIRECTION('',(0.,-1.,2.2E-16));
#489 = ORIENTED_EDGE('',*,*,#490,.T.);
#490 = EDGE_CURVE('',#483,#246,#491,.T.);
#491 = CIRCLE('',#492,0.406695771029);
#492 = AXIS2_PLACEMENT_3D('',#493,#494,#495);
#493 = CARTESIAN_POINT('',(32.955336228971,-2.15,12.150638228971));
#494 = DIRECTION('',(0.,-1.,0.));
#495 = DIRECTION('',(1.,0.,0.));
#496 = ORIENTED_EDGE('',*,*,#245,.F.);
#497 = ORIENTED_EDGE('',*,*,#197,.F.);
#498 = CYLINDRICAL_SURFACE('',#499,0.406695771029);
#499 = AXIS2_PLACEMENT_3D('',#500,#501,#502);
#500 = CARTESIAN_POINT('',(32.955336228971,2.7E-15,12.150638228971));
#501 = DIRECTION('',(0.,1.,-2.2E-16));
#502 = DIRECTION('',(1.,0.,0.));
#503 = ADVANCED_FACE('',(#504),#522,.F.);
#504 = FACE_BOUND('',#505,.F.);
#505 = EDGE_LOOP('',(#506,#514,#520,#521));
#506 = ORIENTED_EDGE('',*,*,#507,.T.);
#507 = EDGE_CURVE('',#181,#508,#510,.T.);
#508 = VERTEX_POINT('',#509);
#509 = CARTESIAN_POINT('',(33.362032,-2.15,11.688272771029));
#510 = LINE('',#511,#512);
#511 = CARTESIAN_POINT('',(33.362032,2.6E-15,11.688272771029));
#512 = VECTOR('',#513,1.);
#513 = DIRECTION('',(0.,-1.,2.2E-16));
#514 = ORIENTED_EDGE('',*,*,#515,.T.);
#515 = EDGE_CURVE('',#508,#483,#516,.T.);
#516 = LINE('',#517,#518);
#517 = CARTESIAN_POINT('',(33.362032,-2.15,11.688272771029));
#518 = VECTOR('',#519,1.);
#519 = DIRECTION('',(0.,2.2E-16,1.));
#520 = ORIENTED_EDGE('',*,*,#482,.F.);
#521 = ORIENTED_EDGE('',*,*,#189,.F.);
#522 = PLANE('',#523);
#523 = AXIS2_PLACEMENT_3D('',#524,#525,#526);
#524 = CARTESIAN_POINT('',(33.362032,2.6E-15,11.688272771029));
#525 = DIRECTION('',(-1.,0.,0.));
#526 = DIRECTION('',(0.,2.2E-16,1.));
#527 = ADVANCED_FACE('',(#528),#547,.T.);
#528 = FACE_BOUND('',#529,.F.);
#529 = EDGE_LOOP('',(#530,#538,#545,#546));
#530 = ORIENTED_EDGE('',*,*,#531,.T.);
#531 = EDGE_CURVE('',#173,#532,#534,.T.);
#532 = VERTEX_POINT('',#533);
#533 = CARTESIAN_POINT('',(32.955336228971,-2.15,11.281577));
#534 = LINE('',#535,#536);
#535 = CARTESIAN_POINT('',(32.955336228971,2.51E-15,11.281577));
#536 = VECTOR('',#537,1.);
#537 = DIRECTION('',(0.,-1.,2.2E-16));
#538 = ORIENTED_EDGE('',*,*,#539,.T.);
#539 = EDGE_CURVE('',#532,#508,#540,.T.);
#540 = CIRCLE('',#541,0.406695771029);
#541 = AXIS2_PLACEMENT_3D('',#542,#543,#544);
#542 = CARTESIAN_POINT('',(32.955336228971,-2.15,11.688272771029));
#543 = DIRECTION('',(0.,-1.,0.));
#544 = DIRECTION('',(0.,0.,-1.));
#545 = ORIENTED_EDGE('',*,*,#507,.F.);
#546 = ORIENTED_EDGE('',*,*,#180,.F.);
#547 = CYLINDRICAL_SURFACE('',#548,0.406695771029);
#548 = AXIS2_PLACEMENT_3D('',#549,#550,#551);
#549 = CARTESIAN_POINT('',(32.955336228971,2.6E-15,11.688272771029));
#550 = DIRECTION('',(0.,1.,-2.2E-16));
#551 = DIRECTION('',(1.,0.,0.));
#552 = ADVANCED_FACE('',(#553),#564,.F.);
#553 = FACE_BOUND('',#554,.F.);
#554 = EDGE_LOOP('',(#555,#556,#562,#563));
#555 = ORIENTED_EDGE('',*,*,#230,.T.);
#556 = ORIENTED_EDGE('',*,*,#557,.T.);
#557 = EDGE_CURVE('',#222,#532,#558,.T.);
#558 = LINE('',#559,#560);
#559 = CARTESIAN_POINT('',(21.609248771029,-2.15,11.281577));
#560 = VECTOR('',#561,1.);
#561 = DIRECTION('',(1.,0.,0.));
#562 = ORIENTED_EDGE('',*,*,#531,.F.);
#563 = ORIENTED_EDGE('',*,*,#172,.F.);
#564 = PLANE('',#565);
#565 = AXIS2_PLACEMENT_3D('',#566,#567,#568);
#566 = CARTESIAN_POINT('',(21.609248771029,2.51E-15,11.281577));
#567 = DIRECTION('',(0.,2.2E-16,1.));
#568 = DIRECTION('',(1.,0.,0.));
#569 = ADVANCED_FACE('',(#570),#582,.T.);
#570 = FACE_BOUND('',#571,.T.);
#571 = EDGE_LOOP('',(#572,#579,#580,#581));
#572 = ORIENTED_EDGE('',*,*,#573,.T.);
#573 = EDGE_CURVE('',#305,#246,#574,.T.);
#574 = CIRCLE('',#575,0.3);
#575 = AXIS2_PLACEMENT_3D('',#576,#577,#578);
#576 = CARTESIAN_POINT('',(32.955336228971,-2.15,12.257334));
#577 = DIRECTION('',(-1.,0.,2.8E-16));
#578 = DIRECTION('',(2.8E-16,0.,1.));
#579 = ORIENTED_EDGE('',*,*,#253,.T.);
#580 = ORIENTED_EDGE('',*,*,#269,.F.);
#581 = ORIENTED_EDGE('',*,*,#347,.F.);
#582 = CYLINDRICAL_SURFACE('',#583,0.3);
#583 = AXIS2_PLACEMENT_3D('',#584,#585,#586);
#584 = CARTESIAN_POINT('',(32.955336228971,-2.15,12.257334));
#585 = DIRECTION('',(-1.,0.,0.));
#586 = DIRECTION('',(-0.,-1.,-0.));
#587 = ADVANCED_FACE('',(#588),#600,.T.);
#588 = FACE_BOUND('',#589,.F.);
#589 = EDGE_LOOP('',(#590,#597,#598,#599));
#590 = ORIENTED_EDGE('',*,*,#591,.F.);
#591 = EDGE_CURVE('',#303,#483,#592,.T.);
#592 = CIRCLE('',#593,0.3);
#593 = AXIS2_PLACEMENT_3D('',#594,#595,#596);
#594 = CARTESIAN_POINT('',(33.062032,-2.15,12.150638228971));
#595 = DIRECTION('',(0.,0.,1.));
#596 = DIRECTION('',(1.,0.,-0.));
#597 = ORIENTED_EDGE('',*,*,#302,.T.);
#598 = ORIENTED_EDGE('',*,*,#573,.T.);
#599 = ORIENTED_EDGE('',*,*,#490,.F.);
#600 = SURFACE_OF_REVOLUTION('',#601,#609);
#601 = B_SPLINE_CURVE_WITH_KNOTS('',6,(#602,#603,#604,#605,#606,#607,
    #608),.UNSPECIFIED.,.F.,.F.,(7,7),(4.712388980385,6.28318530718),
  .PIECEWISE_BEZIER_KNOTS.);
#602 = CARTESIAN_POINT('',(33.062032,-2.45,12.150638228971));
#603 = CARTESIAN_POINT('',(33.14057181634,-2.45,12.150638228971));
#604 = CARTESIAN_POINT('',(33.219104950212,-2.425331694194,
    12.150638228971));
#605 = CARTESIAN_POINT('',(33.287989044892,-2.375957044892,
    12.150638228971));
#606 = CARTESIAN_POINT('',(33.337363694194,-2.307072950212,
    12.150638228971));
#607 = CARTESIAN_POINT('',(33.362032,-2.22853981634,12.150638228971));
#608 = CARTESIAN_POINT('',(33.362032,-2.15,12.150638228971));
#609 = AXIS1_PLACEMENT('',#610,#611);
#610 = CARTESIAN_POINT('',(32.955336228971,-2.15,12.150638228971));
#611 = DIRECTION('',(0.,1.,0.));
#612 = ADVANCED_FACE('',(#613),#625,.T.);
#613 = FACE_BOUND('',#614,.T.);
#614 = EDGE_LOOP('',(#615,#622,#623,#624));
#615 = ORIENTED_EDGE('',*,*,#616,.T.);
#616 = EDGE_CURVE('',#314,#508,#617,.T.);
#617 = CIRCLE('',#618,0.3);
#618 = AXIS2_PLACEMENT_3D('',#619,#620,#621);
#619 = CARTESIAN_POINT('',(33.062032,-2.15,11.688272771029));
#620 = DIRECTION('',(6.E-17,-0.,1.));
#621 = DIRECTION('',(1.,0.,-6.E-17));
#622 = ORIENTED_EDGE('',*,*,#515,.T.);
#623 = ORIENTED_EDGE('',*,*,#591,.F.);
#624 = ORIENTED_EDGE('',*,*,#313,.F.);
#625 = CYLINDRICAL_SURFACE('',#626,0.3);
#626 = AXIS2_PLACEMENT_3D('',#627,#628,#629);
#627 = CARTESIAN_POINT('',(33.062032,-2.15,11.688272771029));
#628 = DIRECTION('',(0.,2.2E-16,1.));
#629 = DIRECTION('',(0.,-1.,2.2E-16));
#630 = ADVANCED_FACE('',(#631),#643,.T.);
#631 = FACE_BOUND('',#632,.F.);
#632 = EDGE_LOOP('',(#633,#640,#641,#642));
#633 = ORIENTED_EDGE('',*,*,#634,.F.);
#634 = EDGE_CURVE('',#322,#532,#635,.T.);
#635 = CIRCLE('',#636,0.3);
#636 = AXIS2_PLACEMENT_3D('',#637,#638,#639);
#637 = CARTESIAN_POINT('',(32.955336228971,-2.15,11.581577));
#638 = DIRECTION('',(1.,0.,0.));
#639 = DIRECTION('',(0.,-1.,0.));
#640 = ORIENTED_EDGE('',*,*,#321,.T.);
#641 = ORIENTED_EDGE('',*,*,#616,.T.);
#642 = ORIENTED_EDGE('',*,*,#539,.F.);
#643 = SURFACE_OF_REVOLUTION('',#644,#652);
#644 = B_SPLINE_CURVE_WITH_KNOTS('',6,(#645,#646,#647,#648,#649,#650,
    #651),.UNSPECIFIED.,.F.,.F.,(7,7),(4.712388980385,6.28318530718),
  .PIECEWISE_BEZIER_KNOTS.);
#645 = CARTESIAN_POINT('',(32.955336228971,-2.45,11.581577));
#646 = CARTESIAN_POINT('',(32.955336228971,-2.45,11.50303718366));
#647 = CARTESIAN_POINT('',(32.955336228971,-2.425331694194,
    11.424504049788));
#648 = CARTESIAN_POINT('',(32.955336228971,-2.375957044892,
    11.355619955108));
#649 = CARTESIAN_POINT('',(32.955336228971,-2.307072950212,
    11.306245305806));
#650 = CARTESIAN_POINT('',(32.955336228971,-2.22853981634,11.281577));
#651 = CARTESIAN_POINT('',(32.955336228971,-2.15,11.281577));
#652 = AXIS1_PLACEMENT('',#653,#654);
#653 = CARTESIAN_POINT('',(32.955336228971,-2.15,11.688272771029));
#654 = DIRECTION('',(0.,1.,0.));
#655 = ADVANCED_FACE('',(#656),#662,.T.);
#656 = FACE_BOUND('',#657,.T.);
#657 = EDGE_LOOP('',(#658,#659,#660,#661));
#658 = ORIENTED_EDGE('',*,*,#363,.T.);
#659 = ORIENTED_EDGE('',*,*,#557,.T.);
#660 = ORIENTED_EDGE('',*,*,#634,.F.);
#661 = ORIENTED_EDGE('',*,*,#330,.F.);
#662 = CYLINDRICAL_SURFACE('',#663,0.3);
#663 = AXIS2_PLACEMENT_3D('',#664,#665,#666);
#664 = CARTESIAN_POINT('',(21.609248771029,-2.15,11.581577));
#665 = DIRECTION('',(1.,0.,0.));
#666 = DIRECTION('',(0.,-1.,0.));
#667 = ADVANCED_FACE('',(#668),#674,.T.);
#668 = FACE_BOUND('',#669,.T.);
#669 = EDGE_LOOP('',(#670,#671,#672,#673));
#670 = ORIENTED_EDGE('',*,*,#394,.T.);
#671 = ORIENTED_EDGE('',*,*,#442,.T.);
#672 = ORIENTED_EDGE('',*,*,#466,.T.);
#673 = ORIENTED_EDGE('',*,*,#425,.T.);
#674 = PLANE('',#675);
#675 = AXIS2_PLACEMENT_3D('',#676,#677,#678);
#676 = CARTESIAN_POINT('',(27.24,1.05,11.955));
#677 = DIRECTION('',(0.,1.,0.));
#678 = DIRECTION('',(0.,0.,1.));
#679 = ( GEOMETRIC_REPRESENTATION_CONTEXT(3) 
GLOBAL_UNCERTAINTY_ASSIGNED_CONTEXT((#683)) GLOBAL_UNIT_ASSIGNED_CONTEXT
((#680,#681,#682)) REPRESENTATION_CONTEXT('Context #1',
  '3D Context with UNIT and UNCERTAINTY') );
#680 = ( LENGTH_UNIT() NAMED_UNIT(*) SI_UNIT(.MILLI.,.METRE.) );
#681 = ( NAMED_UNIT(*) PLANE_ANGLE_UNIT() SI_UNIT($,.RADIAN.) );
#682 = ( NAMED_UNIT(*) SI_UNIT($,.STERADIAN.) SOLID_ANGLE_UNIT() );
#683 = UNCERTAINTY_MEASURE_WITH_UNIT(LENGTH_MEASURE(1.E-07),#680,
  'distance_accuracy_value','confusion accuracy');
#684 = PRODUCT_RELATED_PRODUCT_CATEGORY('part',$,(#7));
#685 = MECHANICAL_DESIGN_GEOMETRIC_PRESENTATION_REPRESENTATION('',(#686)
  ,#679);
#686 = STYLED_ITEM('color',(#687),#15);
#687 = PRESENTATION_STYLE_ASSIGNMENT((#688,#694));
#688 = SURFACE_STYLE_USAGE(.BOTH.,#689);
#689 = SURFACE_SIDE_STYLE('',(#690));
#690 = SURFACE_STYLE_FILL_AREA(#691);
#691 = FILL_AREA_STYLE('',(#692));
#692 = FILL_AREA_STYLE_COLOUR('',#693);
#693 = COLOUR_RGB('',0.447058818107,0.474509808674,0.501960817233);
#694 = CURVE_STYLE('',#695,POSITIVE_LENGTH_MEASURE(0.1),#696);
#695 = DRAUGHTING_PRE_DEFINED_CURVE_FONT('continuous');
#696 = COLOUR_RGB('',9.803921802644E-02,9.803921802644E-02,
  9.803921802644E-02);
ENDSEC;
END-ISO-10303-21;
