%TF.GenerationSoftware,KiCad,Pcbnew,10.0.2-10.0.2~ubuntu24.04.1*%
%TF.CreationDate,2026-05-14T01:03:41+02:00*%
%TF.ProjectId,LoRa-device,4c6f5261-2d64-4657-9669-63652e6b6963,rev?*%
%TF.SameCoordinates,Original*%
%TF.FileFunction,Soldermask,Bot*%
%TF.FilePolarity,Negative*%
%FSLAX46Y46*%
G04 Gerber Fmt 4.6, Leading zero omitted, Abs format (unit mm)*
G04 Created by KiCad (PCBNEW 10.0.2-10.0.2~ubuntu24.04.1) date 2026-05-14 01:03:41*
%MOMM*%
%LPD*%
G01*
G04 APERTURE LIST*
%ADD10R,1.700000X1.700000*%
%ADD11C,1.700000*%
%ADD12C,1.000000*%
%ADD13C,3.000000*%
%ADD14R,4.800000X1.200000*%
%ADD15C,0.650000*%
%ADD16O,1.000000X2.100000*%
%ADD17O,1.000000X1.600000*%
%ADD18C,0.900025*%
%ADD19O,1.400000X1.100000*%
%ADD20O,1.200000X2.000000*%
%ADD21C,0.500025*%
G04 APERTURE END LIST*
D10*
%TO.C,J4*%
X103925000Y-115800000D03*
D11*
X103925000Y-113260000D03*
X103925000Y-110720000D03*
X103925000Y-108180000D03*
X103925000Y-105640000D03*
X103925000Y-103100000D03*
X103925000Y-100560000D03*
X103925000Y-98020000D03*
X103925000Y-95480000D03*
X103925000Y-92940000D03*
X103925000Y-90400000D03*
X103925000Y-87860000D03*
X103925000Y-85320000D03*
X103925000Y-82780000D03*
%TD*%
D10*
%TO.C,J3*%
X156580000Y-122090000D03*
D11*
X159120000Y-122090000D03*
X161660000Y-122090000D03*
X164200000Y-122090000D03*
%TD*%
D12*
%TO.C,P1*%
X114914159Y-120854000D03*
X116163841Y-120854000D03*
%TD*%
D13*
%TO.C,H2*%
X108880000Y-77290000D03*
%TD*%
D14*
%TO.C,U15*%
X185350102Y-83099962D03*
X185350102Y-88200038D03*
%TD*%
D13*
%TO.C,H1*%
X184950000Y-121290000D03*
%TD*%
D10*
%TO.C,J6*%
X184975000Y-95475000D03*
D11*
X184975000Y-98015000D03*
X184975000Y-100555000D03*
X184975000Y-103095000D03*
%TD*%
D12*
%TO.C,P2*%
X132800359Y-120900000D03*
X134050041Y-120900000D03*
%TD*%
D15*
%TO.C,J2*%
X121800000Y-119745000D03*
X127580000Y-119745000D03*
D16*
X120370000Y-119245000D03*
D17*
X120370000Y-123425000D03*
D16*
X129010000Y-119245000D03*
D17*
X129010000Y-123425000D03*
%TD*%
D18*
%TO.C,SW1*%
X177649873Y-77540178D03*
X177649873Y-74740076D03*
%TD*%
D19*
%TO.C,U5*%
X172649702Y-121950000D03*
X174649956Y-121950000D03*
X176649702Y-121950000D03*
D20*
X178749524Y-121950000D03*
X170549625Y-121950000D03*
%TD*%
D13*
%TO.C,H3*%
X184950000Y-77290000D03*
%TD*%
D12*
%TO.C,J1*%
X140150038Y-120316091D03*
X148150038Y-120316091D03*
%TD*%
D21*
%TO.C,U3*%
X151920096Y-75574910D03*
%TD*%
D13*
%TO.C,H4*%
X108870000Y-121280000D03*
%TD*%
D18*
%TO.C,SW2*%
X167949973Y-77535978D03*
X167949973Y-74735876D03*
%TD*%
M02*
