%TF.GenerationSoftware,KiCad,Pcbnew,10.0.2-10.0.2~ubuntu24.04.1*%
%TF.CreationDate,2026-05-11T04:47:57+02:00*%
%TF.ProjectId,LoRa-device,4c6f5261-2d64-4657-9669-63652e6b6963,rev?*%
%TF.SameCoordinates,Original*%
%TF.FileFunction,Paste,Top*%
%TF.FilePolarity,Positive*%
%FSLAX46Y46*%
G04 Gerber Fmt 4.6, Leading zero omitted, Abs format (unit mm)*
G04 Created by KiCad (PCBNEW 10.0.2-10.0.2~ubuntu24.04.1) date 2026-05-11 04:47:57*
%MOMM*%
%LPD*%
G01*
G04 APERTURE LIST*
G04 Aperture macros list*
%AMRoundRect*
0 Rectangle with rounded corners*
0 $1 Rounding radius*
0 $2 $3 $4 $5 $6 $7 $8 $9 X,Y pos of 4 corners*
0 Add a 4 corners polygon primitive as box body*
4,1,4,$2,$3,$4,$5,$6,$7,$8,$9,$2,$3,0*
0 Add four circle primitives for the rounded corners*
1,1,$1+$1,$2,$3*
1,1,$1+$1,$4,$5*
1,1,$1+$1,$6,$7*
1,1,$1+$1,$8,$9*
0 Add four rect primitives between the rounded corners*
20,1,$1+$1,$2,$3,$4,$5,0*
20,1,$1+$1,$4,$5,$6,$7,0*
20,1,$1+$1,$6,$7,$8,$9,0*
20,1,$1+$1,$8,$9,$2,$3,0*%
%AMFreePoly0*
4,1,170,0.717704,0.851461,0.735179,0.848387,0.752146,0.843307,0.768453,0.836271,0.783795,0.827407,0.798019,0.816815,0.810922,0.804648,0.822327,0.791059,0.832080,0.776251,0.840030,0.760401,0.846101,0.743739,0.850191,0.726492,0.852248,0.708865,0.852248,0.691135,0.850191,0.673508,0.846101,0.656261,0.840030,0.639599,0.832080,0.623749,0.822327,0.608941,0.810922,0.595352,
0.798019,0.583185,0.783795,0.572593,0.768453,0.563729,0.752146,0.556693,0.735179,0.551613,0.717704,0.548539,0.700000,0.547498,0.666294,0.546457,0.632715,0.543358,0.599390,0.538176,0.566447,0.530963,0.534036,0.521742,0.502210,0.510516,0.471171,0.497384,0.440970,0.482347,0.411786,0.465481,0.383668,0.446863,0.356769,0.426543,0.331140,0.404597,0.306934,0.381128,
0.284227,0.356210,0.263094,0.329947,0.243612,0.302413,0.225857,0.273762,0.209906,0.244044,0.195809,0.213411,0.183617,0.181966,0.173406,0.149835,0.165177,0.117120,0.158979,0.083973,0.154839,0.050521,0.152756,0.016866,0.152756,-0.016866,0.154839,-0.050521,0.158979,-0.083973,0.165177,-0.117120,0.173406,-0.149835,0.183617,-0.181966,0.195809,-0.213411,0.209906,-0.244044,
0.225857,-0.273762,0.243612,-0.302413,0.263094,-0.329947,0.284227,-0.356210,0.306934,-0.381128,0.331140,-0.404597,0.356769,-0.426543,0.383668,-0.446863,0.411786,-0.465481,0.440970,-0.482347,0.471171,-0.497384,0.502210,-0.510516,0.534036,-0.521742,0.566447,-0.530963,0.599390,-0.538176,0.632715,-0.543358,0.666294,-0.546457,0.700000,-0.547498,0.717704,-0.548539,0.735179,-0.551613,
0.752146,-0.556693,0.768453,-0.563729,0.783795,-0.572593,0.798019,-0.583185,0.810922,-0.595352,0.822327,-0.608941,0.832080,-0.623749,0.840030,-0.639599,0.846101,-0.656261,0.850191,-0.673508,0.852248,-0.691135,0.852248,-0.708865,0.850191,-0.726492,0.846101,-0.743739,0.840030,-0.760401,0.832080,-0.776251,0.822327,-0.791059,0.810922,-0.804648,0.798019,-0.816815,0.783795,-0.827407,
0.768453,-0.836271,0.752146,-0.843307,0.735179,-0.848387,0.717704,-0.851461,0.700000,-0.852502,0.658166,-0.851486,0.616434,-0.848387,0.574905,-0.843282,0.533680,-0.836119,0.492863,-0.826949,0.452527,-0.815799,0.412802,-0.802667,0.373762,-0.787605,0.335509,-0.770663,0.298146,-0.751842,0.261722,-0.731217,0.226365,-0.708839,0.192177,-0.684735,0.159182,-0.659004,0.127508,-0.631674,
0.097181,-0.602819,0.068326,-0.572492,0.040996,-0.540818,0.015265,-0.507823,-0.008839,-0.473635,-0.031217,-0.438278,-0.051842,-0.401854,-0.070663,-0.364491,-0.087605,-0.326238,-0.102667,-0.287198,-0.115799,-0.247473,-0.126949,-0.207137,-0.136119,-0.166320,-0.143282,-0.125095,-0.148387,-0.083566,-0.151486,-0.041834,-0.152502,0.000000,-0.151486,0.041834,-0.148387,0.083566,-0.143282,0.125095,
-0.136119,0.166320,-0.126949,0.207137,-0.115799,0.247473,-0.102667,0.287198,-0.087605,0.326238,-0.070663,0.364491,-0.051842,0.401854,-0.031217,0.438278,-0.008839,0.473635,0.015265,0.507823,0.040996,0.540818,0.068326,0.572492,0.097181,0.602819,0.127508,0.631674,0.159182,0.659004,0.192177,0.684735,0.226365,0.708839,0.261722,0.731217,0.298146,0.751842,0.335509,0.770663,
0.373762,0.787605,0.412802,0.802667,0.452527,0.815799,0.492863,0.826949,0.533680,0.836119,0.574905,0.843282,0.616434,0.848387,0.658166,0.851486,0.700000,0.852502,0.717704,0.851461,0.717704,0.851461,$1*%
%AMFreePoly1*
4,1,170,-0.658217,0.851486,-0.616485,0.848387,-0.574956,0.843282,-0.533731,0.836119,-0.492913,0.826949,-0.452578,0.815799,-0.412852,0.802667,-0.373813,0.787605,-0.335560,0.770663,-0.298197,0.751842,-0.261773,0.731217,-0.226416,0.708839,-0.192228,0.684735,-0.159233,0.659004,-0.127534,0.631674,-0.097231,0.602819,-0.068377,0.572492,-0.041046,0.540818,-0.015316,0.507823,0.008788,0.473635,
0.031166,0.438278,0.051791,0.401854,0.070612,0.364491,0.087554,0.326238,0.102616,0.287198,0.115748,0.247473,0.126899,0.207137,0.136068,0.166320,0.143231,0.125095,0.148336,0.083566,0.151435,0.041834,0.152451,0.000000,0.151435,-0.041834,0.148336,-0.083566,0.143231,-0.125095,0.136068,-0.166320,0.126899,-0.207137,0.115748,-0.247473,0.102616,-0.287198,0.087554,-0.326238,
0.070612,-0.364491,0.051791,-0.401854,0.031166,-0.438278,0.008788,-0.473635,-0.015316,-0.507823,-0.041046,-0.540818,-0.068377,-0.572492,-0.097231,-0.602819,-0.127534,-0.631674,-0.159233,-0.659004,-0.192228,-0.684735,-0.226416,-0.708839,-0.261773,-0.731217,-0.298197,-0.751842,-0.335560,-0.770663,-0.373813,-0.787605,-0.412852,-0.802667,-0.452578,-0.815799,-0.492913,-0.826949,-0.533731,-0.836119,
-0.574956,-0.843282,-0.616485,-0.848387,-0.658217,-0.851486,-0.700051,-0.852502,-0.717755,-0.851461,-0.735230,-0.848387,-0.752197,-0.843307,-0.768504,-0.836271,-0.783846,-0.827407,-0.798070,-0.816815,-0.810973,-0.804648,-0.822377,-0.791059,-0.832131,-0.776251,-0.840081,-0.760401,-0.846152,-0.743739,-0.850241,-0.726492,-0.852299,-0.708865,-0.852299,-0.691135,-0.850241,-0.673508,-0.846152,-0.656261,
-0.840081,-0.639599,-0.832131,-0.623749,-0.822377,-0.608941,-0.810973,-0.595352,-0.798070,-0.583185,-0.783846,-0.572593,-0.768504,-0.563729,-0.752197,-0.556693,-0.735230,-0.551613,-0.717755,-0.548539,-0.700051,-0.547498,-0.666345,-0.546457,-0.632766,-0.543358,-0.599441,-0.538176,-0.566497,-0.530963,-0.534087,-0.521742,-0.502261,-0.510541,-0.471222,-0.497384,-0.441021,-0.482347,-0.411836,-0.465481,
-0.383719,-0.446863,-0.356820,-0.426543,-0.331191,-0.404597,-0.306985,-0.381128,-0.284277,-0.356210,-0.263145,-0.329947,-0.243663,-0.302413,-0.225908,-0.273762,-0.209957,-0.244044,-0.195860,-0.213411,-0.183668,-0.181966,-0.173457,-0.149835,-0.165227,-0.117120,-0.159030,-0.083973,-0.154890,-0.050521,-0.152807,-0.016866,-0.152807,0.016866,-0.154890,0.050521,-0.159030,0.083973,-0.165227,0.117120,
-0.173457,0.149835,-0.183668,0.181966,-0.195860,0.213411,-0.209957,0.244044,-0.225908,0.273762,-0.243663,0.302413,-0.263145,0.329947,-0.284277,0.356210,-0.306985,0.381128,-0.331191,0.404597,-0.356820,0.426543,-0.383719,0.446863,-0.411836,0.465481,-0.441021,0.482347,-0.471222,0.497384,-0.502261,0.510541,-0.534087,0.521742,-0.566497,0.530963,-0.599441,0.538176,-0.632766,0.543358,
-0.666345,0.546457,-0.700051,0.547498,-0.717755,0.548539,-0.735230,0.551613,-0.752197,0.556693,-0.768504,0.563729,-0.783846,0.572593,-0.798070,0.583185,-0.810973,0.595352,-0.822377,0.608941,-0.832131,0.623749,-0.840081,0.639599,-0.846152,0.656261,-0.850241,0.673508,-0.852299,0.691135,-0.852299,0.708865,-0.850241,0.726492,-0.846152,0.743739,-0.840081,0.760401,-0.832131,0.776251,
-0.822377,0.791059,-0.810973,0.804648,-0.798070,0.816815,-0.783846,0.827407,-0.768504,0.836271,-0.752197,0.843307,-0.735230,0.848387,-0.717755,0.851461,-0.700051,0.852502,-0.658217,0.851486,-0.658217,0.851486,$1*%
G04 Aperture macros list end*
%ADD10C,0.150000*%
%ADD11RoundRect,0.140000X-0.140000X-0.170000X0.140000X-0.170000X0.140000X0.170000X-0.140000X0.170000X0*%
%ADD12RoundRect,0.140000X0.140000X0.170000X-0.140000X0.170000X-0.140000X-0.170000X0.140000X-0.170000X0*%
%ADD13RoundRect,0.218750X0.218750X0.256250X-0.218750X0.256250X-0.218750X-0.256250X0.218750X-0.256250X0*%
%ADD14RoundRect,0.140000X-0.170000X0.140000X-0.170000X-0.140000X0.170000X-0.140000X0.170000X0.140000X0*%
%ADD15RoundRect,0.140000X0.170000X-0.140000X0.170000X0.140000X-0.170000X0.140000X-0.170000X-0.140000X0*%
%ADD16RoundRect,0.150000X0.512500X0.150000X-0.512500X0.150000X-0.512500X-0.150000X0.512500X-0.150000X0*%
%ADD17RoundRect,0.225000X-0.250000X0.225000X-0.250000X-0.225000X0.250000X-0.225000X0.250000X0.225000X0*%
%ADD18RoundRect,0.250000X0.650000X-0.425000X0.650000X0.425000X-0.650000X0.425000X-0.650000X-0.425000X0*%
%ADD19RoundRect,0.093750X0.093750X-0.156250X0.093750X0.156250X-0.093750X0.156250X-0.093750X-0.156250X0*%
%ADD20RoundRect,0.075000X0.075000X-0.250000X0.075000X0.250000X-0.075000X0.250000X-0.075000X-0.250000X0*%
%ADD21RoundRect,0.218750X0.256250X-0.218750X0.256250X0.218750X-0.256250X0.218750X-0.256250X-0.218750X0*%
%ADD22R,4.800000X1.200000*%
%ADD23RoundRect,0.125000X-0.125000X-0.125000X0.125000X-0.125000X0.125000X0.125000X-0.125000X0.125000X0*%
%ADD24RoundRect,0.062500X-0.350000X-0.062500X0.350000X-0.062500X0.350000X0.062500X-0.350000X0.062500X0*%
%ADD25RoundRect,0.062500X-0.062500X-0.350000X0.062500X-0.350000X0.062500X0.350000X-0.062500X0.350000X0*%
%ADD26R,1.700000X1.500000*%
%ADD27RoundRect,0.150000X-0.150000X0.385000X-0.150000X-0.385000X0.150000X-0.385000X0.150000X0.385000X0*%
%ADD28R,0.200000X0.500000*%
%ADD29R,1.500000X0.900000*%
%ADD30RoundRect,0.150000X0.150000X-0.512500X0.150000X0.512500X-0.150000X0.512500X-0.150000X-0.512500X0*%
%ADD31RoundRect,0.200000X0.275000X-0.200000X0.275000X0.200000X-0.275000X0.200000X-0.275000X-0.200000X0*%
%ADD32RoundRect,0.225000X0.225000X0.250000X-0.225000X0.250000X-0.225000X-0.250000X0.225000X-0.250000X0*%
%ADD33RoundRect,0.140000X-0.219203X-0.021213X-0.021213X-0.219203X0.219203X0.021213X0.021213X0.219203X0*%
%ADD34RoundRect,0.250000X0.275000X0.250000X-0.275000X0.250000X-0.275000X-0.250000X0.275000X-0.250000X0*%
%ADD35RoundRect,0.250000X0.850000X0.275000X-0.850000X0.275000X-0.850000X-0.275000X0.850000X-0.275000X0*%
%ADD36RoundRect,0.150000X-0.150000X-0.500000X0.150000X-0.500000X0.150000X0.500000X-0.150000X0.500000X0*%
%ADD37RoundRect,0.075000X-0.075000X-0.575000X0.075000X-0.575000X0.075000X0.575000X-0.075000X0.575000X0*%
%ADD38RoundRect,0.140000X0.219203X0.021213X0.021213X0.219203X-0.219203X-0.021213X-0.021213X-0.219203X0*%
%ADD39RoundRect,0.250000X-0.320000X0.320000X-0.320000X-0.320000X0.320000X-0.320000X0.320000X0.320000X0*%
%ADD40RoundRect,0.075000X-0.075000X0.437500X-0.075000X-0.437500X0.075000X-0.437500X0.075000X0.437500X0*%
%ADD41RoundRect,0.075000X-0.437500X0.075000X-0.437500X-0.075000X0.437500X-0.075000X0.437500X0.075000X0*%
%ADD42R,1.550013X1.000000*%
%ADD43R,0.900000X1.500000*%
%ADD44R,0.900000X0.900000*%
%ADD45R,1.700000X0.800000*%
%ADD46RoundRect,0.225000X0.250000X-0.225000X0.250000X0.225000X-0.250000X0.225000X-0.250000X-0.225000X0*%
%ADD47R,0.600000X1.300000*%
%ADD48R,1.200000X1.400000*%
%ADD49R,1.200000X2.000000*%
%ADD50R,0.600000X0.400000*%
%ADD51FreePoly0,90.000000*%
%ADD52FreePoly1,90.000000*%
%ADD53R,1.270003X2.259995*%
%ADD54R,1.000000X1.600000*%
%ADD55R,1.800000X1.800000*%
G04 APERTURE END LIST*
D10*
%TO.C,U3*%
X150550170Y-76649992D02*
X150550170Y-77049992D01*
X151150170Y-77049992D01*
X151150170Y-76649992D01*
X151070160Y-76649992D01*
X150550170Y-76649992D01*
G36*
X151150170Y-77049992D02*
G01*
X150550170Y-77049992D01*
X150550170Y-76649992D01*
X151070160Y-76649992D01*
X151150170Y-76649992D01*
X151150170Y-77049992D01*
G37*
X150550195Y-77299903D02*
X150550195Y-77699903D01*
X151150195Y-77699903D01*
X151150195Y-77299903D01*
X151070185Y-77299903D01*
X150550195Y-77299903D01*
G36*
X151150195Y-77699903D02*
G01*
X150550195Y-77699903D01*
X150550195Y-77299903D01*
X151070185Y-77299903D01*
X151150195Y-77299903D01*
X151150195Y-77699903D01*
G37*
X150550195Y-77949967D02*
X150550195Y-78349967D01*
X151150195Y-78349967D01*
X151150195Y-77949967D01*
X151070185Y-77949967D01*
X150550195Y-77949967D01*
G36*
X151150195Y-78349967D02*
G01*
X150550195Y-78349967D01*
X150550195Y-77949967D01*
X151070185Y-77949967D01*
X151150195Y-77949967D01*
X151150195Y-78349967D01*
G37*
X152700030Y-76649992D02*
X152700030Y-77049992D01*
X153300030Y-77049992D01*
X153300030Y-76649992D01*
X153220020Y-76649992D01*
X152700030Y-76649992D01*
G36*
X153300030Y-77049992D02*
G01*
X152700030Y-77049992D01*
X152700030Y-76649992D01*
X153220020Y-76649992D01*
X153300030Y-76649992D01*
X153300030Y-77049992D01*
G37*
X152700030Y-77299979D02*
X152700030Y-77699979D01*
X153300030Y-77699979D01*
X153300030Y-77299979D01*
X153220020Y-77299979D01*
X152700030Y-77299979D01*
G36*
X153300030Y-77699979D02*
G01*
X152700030Y-77699979D01*
X152700030Y-77299979D01*
X153220020Y-77299979D01*
X153300030Y-77299979D01*
X153300030Y-77699979D01*
G37*
X152700030Y-77949941D02*
X152700030Y-78349941D01*
X153300030Y-78349941D01*
X153300030Y-77949941D01*
X153220020Y-77949941D01*
X152700030Y-77949941D01*
G36*
X153300030Y-78349941D02*
G01*
X152700030Y-78349941D01*
X152700030Y-77949941D01*
X153220020Y-77949941D01*
X153300030Y-77949941D01*
X153300030Y-78349941D01*
G37*
X151070007Y-75674910D02*
X151097839Y-75815177D01*
X151148793Y-75948794D01*
X151221425Y-76071977D01*
X151313680Y-76181241D01*
X151422947Y-76273493D01*
X151546133Y-76346121D01*
X151679751Y-76397070D01*
X151820020Y-76424897D01*
X151820020Y-76124922D01*
X151737815Y-76104319D01*
X151659751Y-76071332D01*
X151587681Y-76026743D01*
X151523317Y-75971613D01*
X151468186Y-75907248D01*
X151423598Y-75835179D01*
X151390610Y-75757115D01*
X151370007Y-75674910D01*
X151070007Y-75674910D01*
G36*
X151390610Y-75757115D02*
G01*
X151423598Y-75835179D01*
X151468186Y-75907248D01*
X151523317Y-75971613D01*
X151587681Y-76026743D01*
X151659751Y-76071332D01*
X151737815Y-76104319D01*
X151820020Y-76124922D01*
X151820020Y-76424897D01*
X151679751Y-76397070D01*
X151546133Y-76346121D01*
X151422947Y-76273493D01*
X151313680Y-76181241D01*
X151221425Y-76071977D01*
X151148793Y-75948794D01*
X151097839Y-75815177D01*
X151070007Y-75674910D01*
X151370007Y-75674910D01*
X151390610Y-75757115D01*
G37*
X151820096Y-74724897D02*
X151679829Y-74752729D01*
X151546212Y-74803682D01*
X151423028Y-74876314D01*
X151313764Y-74968569D01*
X151221513Y-75077837D01*
X151148885Y-75201023D01*
X151097936Y-75334641D01*
X151070109Y-75474910D01*
X151370083Y-75474910D01*
X151390687Y-75392704D01*
X151423674Y-75314640D01*
X151468262Y-75242571D01*
X151523393Y-75178206D01*
X151587757Y-75123076D01*
X151659827Y-75078487D01*
X151737891Y-75045500D01*
X151820096Y-75024897D01*
X151820096Y-74724897D01*
G36*
X151820096Y-75024897D02*
G01*
X151737891Y-75045500D01*
X151659827Y-75078487D01*
X151587757Y-75123076D01*
X151523393Y-75178206D01*
X151468262Y-75242571D01*
X151423674Y-75314640D01*
X151390687Y-75392704D01*
X151370083Y-75474910D01*
X151070109Y-75474910D01*
X151097936Y-75334641D01*
X151148885Y-75201023D01*
X151221513Y-75077837D01*
X151313764Y-74968569D01*
X151423028Y-74876314D01*
X151546212Y-74803682D01*
X151679829Y-74752729D01*
X151820096Y-74724897D01*
X151820096Y-75024897D01*
G37*
X152020096Y-76424922D02*
X152160364Y-76397090D01*
X152293980Y-76346137D01*
X152417164Y-76273505D01*
X152526428Y-76181250D01*
X152618680Y-76071983D01*
X152691307Y-75948796D01*
X152742256Y-75815178D01*
X152770083Y-75674910D01*
X152470109Y-75674910D01*
X152449506Y-75757115D01*
X152416518Y-75835179D01*
X152371930Y-75907248D01*
X152316799Y-75971613D01*
X152252435Y-76026743D01*
X152180365Y-76071332D01*
X152102301Y-76104319D01*
X152020096Y-76124922D01*
X152020096Y-76424922D01*
G36*
X152742256Y-75815178D02*
G01*
X152691307Y-75948796D01*
X152618680Y-76071983D01*
X152526428Y-76181250D01*
X152417164Y-76273505D01*
X152293980Y-76346137D01*
X152160364Y-76397090D01*
X152020096Y-76424922D01*
X152020096Y-76124922D01*
X152102301Y-76104319D01*
X152180365Y-76071332D01*
X152252435Y-76026743D01*
X152316799Y-75971613D01*
X152371930Y-75907248D01*
X152416518Y-75835179D01*
X152449506Y-75757115D01*
X152470109Y-75674910D01*
X152770083Y-75674910D01*
X152742256Y-75815178D01*
G37*
X152770185Y-75474833D02*
X152742353Y-75334566D01*
X152691400Y-75200949D01*
X152618768Y-75077765D01*
X152526512Y-74968502D01*
X152417245Y-74876250D01*
X152294059Y-74803622D01*
X152160441Y-74752673D01*
X152020172Y-74724846D01*
X152020172Y-75024821D01*
X152102377Y-75045424D01*
X152180442Y-75078411D01*
X152252511Y-75122999D01*
X152316876Y-75178130D01*
X152372006Y-75242494D01*
X152416595Y-75314564D01*
X152449582Y-75392628D01*
X152470185Y-75474833D01*
X152770185Y-75474833D01*
G36*
X152160441Y-74752673D02*
G01*
X152294059Y-74803622D01*
X152417245Y-74876250D01*
X152526512Y-74968502D01*
X152618768Y-75077765D01*
X152691400Y-75200949D01*
X152742353Y-75334566D01*
X152770185Y-75474833D01*
X152470185Y-75474833D01*
X152449582Y-75392628D01*
X152416595Y-75314564D01*
X152372006Y-75242494D01*
X152316876Y-75178130D01*
X152252511Y-75122999D01*
X152180442Y-75078411D01*
X152102377Y-75045424D01*
X152020172Y-75024821D01*
X152020172Y-74724846D01*
X152160441Y-74752673D01*
G37*
%TD*%
D11*
%TO.C,R45*%
X163100000Y-83300000D03*
X164100000Y-83300000D03*
%TD*%
D12*
%TO.C,R23*%
X114950000Y-118650000D03*
X113950000Y-118650000D03*
%TD*%
D13*
%TO.C,D4*%
X115987500Y-105850000D03*
X114412500Y-105850000D03*
%TD*%
D14*
%TO.C,C50*%
X118800000Y-81700000D03*
X118800000Y-82700000D03*
%TD*%
D15*
%TO.C,C43*%
X161150000Y-110700000D03*
X161150000Y-109700000D03*
%TD*%
D11*
%TO.C,R44*%
X165100000Y-83300000D03*
X166100000Y-83300000D03*
%TD*%
D16*
%TO.C,U12*%
X114205000Y-103110000D03*
X114205000Y-102160000D03*
X114205000Y-101210000D03*
X111930000Y-101210000D03*
X111930000Y-103110000D03*
%TD*%
D11*
%TO.C,R1*%
X150800000Y-79300000D03*
X151800000Y-79300000D03*
%TD*%
D17*
%TO.C,C55*%
X116380000Y-96580000D03*
X116380000Y-98140000D03*
%TD*%
D15*
%TO.C,R49*%
X111000000Y-112700000D03*
X111000000Y-111700000D03*
%TD*%
D11*
%TO.C,L2*%
X181710000Y-108010000D03*
X182710000Y-108010000D03*
%TD*%
D15*
%TO.C,C53*%
X113450000Y-109350000D03*
X113450000Y-108350000D03*
%TD*%
D18*
%TO.C,FLASH1*%
X156440000Y-79740000D03*
X156440000Y-75590000D03*
%TD*%
D15*
%TO.C,R34*%
X124200000Y-111000000D03*
X124200000Y-110000000D03*
%TD*%
D14*
%TO.C,C29*%
X179450000Y-107980000D03*
X179450000Y-108980000D03*
%TD*%
D19*
%TO.C,U6*%
X124155000Y-114030000D03*
D20*
X124692500Y-114105000D03*
D19*
X125230000Y-114030000D03*
X125230000Y-112330000D03*
D20*
X124692500Y-112255000D03*
D19*
X124155000Y-112330000D03*
%TD*%
D21*
%TO.C,D2*%
X115700000Y-86687500D03*
X115700000Y-85112500D03*
%TD*%
D15*
%TO.C,C8*%
X119800000Y-82700000D03*
X119800000Y-81700000D03*
%TD*%
%TO.C,C20*%
X161500000Y-113350000D03*
X161500000Y-112350000D03*
%TD*%
D14*
%TO.C,C54*%
X115830000Y-103110000D03*
X115830000Y-104110000D03*
%TD*%
D15*
%TO.C,C7*%
X171250000Y-83149999D03*
X171250000Y-82150001D03*
%TD*%
D14*
%TO.C,R32*%
X112650000Y-114150000D03*
X112650000Y-115150000D03*
%TD*%
D15*
%TO.C,R31*%
X106350000Y-88000000D03*
X106350000Y-87000000D03*
%TD*%
D14*
%TO.C,C16*%
X117750000Y-112800000D03*
X117750000Y-113800000D03*
%TD*%
D22*
%TO.C,U15*%
X185350102Y-88199784D03*
X185350102Y-83099962D03*
X185350102Y-85649873D03*
%TD*%
D15*
%TO.C,C19*%
X117800000Y-82700000D03*
X117800000Y-81700000D03*
%TD*%
D11*
%TO.C,R46*%
X161050000Y-83300000D03*
X162050000Y-83300000D03*
%TD*%
D14*
%TO.C,C57*%
X119800000Y-83900000D03*
X119800000Y-84900000D03*
%TD*%
D11*
%TO.C,R30*%
X178500000Y-111150000D03*
X179500000Y-111150000D03*
%TD*%
D14*
%TO.C,R8*%
X176630000Y-105650000D03*
X176630000Y-106650000D03*
%TD*%
D23*
%TO.C,U19*%
X133280000Y-111462500D03*
X133280000Y-112082500D03*
X133900000Y-111462500D03*
X133900000Y-112082500D03*
D24*
X132152500Y-111022500D03*
X132152500Y-111522500D03*
X132152500Y-112022500D03*
X132152500Y-112522500D03*
D25*
X132840000Y-113210000D03*
X133340000Y-113210000D03*
X133840000Y-113210000D03*
X134340000Y-113210000D03*
D24*
X135027500Y-112522500D03*
X135027500Y-112022500D03*
X135027500Y-111522500D03*
X135027500Y-111022500D03*
D25*
X134340000Y-110335000D03*
X133840000Y-110335000D03*
X133340000Y-110335000D03*
X132840000Y-110335000D03*
%TD*%
D17*
%TO.C,C34*%
X120000000Y-112520000D03*
X120000000Y-114080000D03*
%TD*%
D15*
%TO.C,R37*%
X106350000Y-110700000D03*
X106350000Y-109700000D03*
%TD*%
%TO.C,R4*%
X147600000Y-101200000D03*
X147600000Y-100200000D03*
%TD*%
D11*
%TO.C,R11*%
X173800000Y-102550000D03*
X174800000Y-102550000D03*
%TD*%
D15*
%TO.C,R53*%
X113800000Y-115150000D03*
X113800000Y-114150000D03*
%TD*%
D14*
%TO.C,C42*%
X115050000Y-112800000D03*
X115050000Y-113800000D03*
%TD*%
D26*
%TO.C,U9*%
X113000000Y-99399824D03*
X113000000Y-95599976D03*
%TD*%
D27*
%TO.C,U10*%
X157650000Y-109390000D03*
X159550000Y-109390000D03*
X158600000Y-106910000D03*
%TD*%
D12*
%TO.C,R50*%
X120200000Y-105650000D03*
X119200000Y-105650000D03*
%TD*%
D14*
%TO.C,R68*%
X140650000Y-94050000D03*
X140650000Y-95050000D03*
%TD*%
D15*
%TO.C,R35*%
X125220000Y-111000000D03*
X125220000Y-110000000D03*
%TD*%
D14*
%TO.C,R52*%
X111870100Y-108350000D03*
X111870100Y-109350000D03*
%TD*%
D28*
%TO.C,U7*%
X113830175Y-110722162D03*
X113430124Y-110722416D03*
X113030327Y-110722416D03*
X112630276Y-110722416D03*
X112230225Y-110722416D03*
X112230225Y-112822238D03*
X112630276Y-112822238D03*
X113030327Y-112822238D03*
X113430124Y-112822238D03*
X113830175Y-112822238D03*
D29*
X113030327Y-111772200D03*
%TD*%
D15*
%TO.C,R61*%
X138500000Y-108000000D03*
X138500000Y-107000000D03*
%TD*%
D11*
%TO.C,R17*%
X145550000Y-105500000D03*
X146550000Y-105500000D03*
%TD*%
D30*
%TO.C,U8*%
X119200000Y-109687500D03*
X120150000Y-109687500D03*
X121100000Y-109687500D03*
X121100000Y-107412500D03*
X120150000Y-107412500D03*
X119200000Y-107412500D03*
%TD*%
D31*
%TO.C,R51*%
X109800000Y-112620000D03*
X109800000Y-110980000D03*
%TD*%
D11*
%TO.C,R40*%
X113950000Y-117600000D03*
X114950000Y-117600000D03*
%TD*%
D32*
%TO.C,C51*%
X116630000Y-82700000D03*
X115070000Y-82700000D03*
%TD*%
D15*
%TO.C,C35*%
X122418700Y-107887500D03*
X122418700Y-106887500D03*
%TD*%
D11*
%TO.C,C52*%
X158750000Y-81250000D03*
X159750000Y-81250000D03*
%TD*%
D33*
%TO.C,R71*%
X140546447Y-86496447D03*
X141253553Y-87203553D03*
%TD*%
D15*
%TO.C,R66*%
X132200000Y-101800000D03*
X132200000Y-100800000D03*
%TD*%
D34*
%TO.C,J8*%
X183950000Y-108950000D03*
D35*
X185450000Y-110450000D03*
X185450000Y-107450000D03*
%TD*%
D15*
%TO.C,C44*%
X166720000Y-122060000D03*
X166720000Y-121060000D03*
%TD*%
%TO.C,R12*%
X114300000Y-85850000D03*
X114300000Y-84850000D03*
%TD*%
D12*
%TO.C,R18*%
X111500000Y-114100000D03*
X110500000Y-114100000D03*
%TD*%
D14*
%TO.C,R43*%
X150800000Y-80300000D03*
X150800000Y-81300000D03*
%TD*%
%TO.C,R48*%
X155100000Y-116900000D03*
X155100000Y-117900000D03*
%TD*%
D36*
%TO.C,J2*%
X121490000Y-118605000D03*
X122290000Y-118605000D03*
D37*
X123440000Y-118605000D03*
X124440000Y-118605000D03*
X124940000Y-118605000D03*
X125940000Y-118605000D03*
D36*
X127090000Y-118605000D03*
X127890000Y-118605000D03*
X127890000Y-118605000D03*
X127090000Y-118605000D03*
D37*
X126440000Y-118605000D03*
X125440000Y-118605000D03*
X123940000Y-118605000D03*
X122940000Y-118605000D03*
D36*
X122290000Y-118605000D03*
X121490000Y-118605000D03*
%TD*%
D15*
%TO.C,C24*%
X163500000Y-113350000D03*
X163500000Y-112350000D03*
%TD*%
%TO.C,C4*%
X113000000Y-83500000D03*
X113000000Y-82500000D03*
%TD*%
D17*
%TO.C,C6*%
X121350000Y-112520000D03*
X121350000Y-114080000D03*
%TD*%
D14*
%TO.C,R16*%
X139550000Y-107000000D03*
X139550000Y-108000000D03*
%TD*%
%TO.C,R15*%
X158650000Y-116900000D03*
X158650000Y-117900000D03*
%TD*%
%TO.C,R47*%
X159800000Y-116900000D03*
X159800000Y-117900000D03*
%TD*%
D12*
%TO.C,R54*%
X178300000Y-108000000D03*
X177300000Y-108000000D03*
%TD*%
D11*
%TO.C,C13*%
X116150000Y-118650000D03*
X117150000Y-118650000D03*
%TD*%
D14*
%TO.C,R60*%
X140600000Y-107000000D03*
X140600000Y-108000000D03*
%TD*%
D12*
%TO.C,R2*%
X116000000Y-107150000D03*
X115000000Y-107150000D03*
%TD*%
D14*
%TO.C,C40*%
X162150000Y-109700000D03*
X162150000Y-110700000D03*
%TD*%
D15*
%TO.C,R42*%
X126480000Y-114310000D03*
X126480000Y-113310000D03*
%TD*%
%TO.C,C23*%
X162500000Y-113350000D03*
X162500000Y-112350000D03*
%TD*%
%TO.C,R33*%
X112500000Y-105400000D03*
X112500000Y-104400000D03*
%TD*%
D38*
%TO.C,R59*%
X167507106Y-98007106D03*
X166800000Y-97300000D03*
%TD*%
D39*
%TO.C,U14*%
X153400000Y-96790000D03*
X151980000Y-96790000D03*
X150560000Y-96790000D03*
X153400000Y-98210000D03*
X151980000Y-98210000D03*
X150560000Y-98210000D03*
X153400000Y-99630000D03*
X151980000Y-99630000D03*
X150560000Y-99630000D03*
D40*
X153930000Y-95372500D03*
X153280000Y-95372500D03*
X152630000Y-95372500D03*
X151980000Y-95372500D03*
X151330000Y-95372500D03*
X150680000Y-95372500D03*
X150030000Y-95372500D03*
D41*
X149142500Y-96260000D03*
X149142500Y-96910000D03*
X149142500Y-97560000D03*
X149142500Y-98210000D03*
X149142500Y-98860000D03*
X149142500Y-99510000D03*
X149142500Y-100160000D03*
D40*
X150030000Y-101047500D03*
X150680000Y-101047500D03*
X151330000Y-101047500D03*
X151980000Y-101047500D03*
X152630000Y-101047500D03*
X153280000Y-101047500D03*
X153930000Y-101047500D03*
D41*
X154817500Y-100160000D03*
X154817500Y-99510000D03*
X154817500Y-98860000D03*
X154817500Y-98210000D03*
X154817500Y-97560000D03*
X154817500Y-96910000D03*
X154817500Y-96260000D03*
%TD*%
D15*
%TO.C,R41*%
X110000000Y-109400000D03*
X110000000Y-108400000D03*
%TD*%
D14*
%TO.C,R25*%
X147350000Y-107050000D03*
X147350000Y-108050000D03*
%TD*%
D42*
%TO.C,SW1*%
X175050025Y-76990013D03*
X175050076Y-75289987D03*
X180250000Y-76990013D03*
X180250000Y-75289987D03*
%TD*%
D14*
%TO.C,C47*%
X133152500Y-114572500D03*
X133152500Y-115572500D03*
%TD*%
D15*
%TO.C,R14*%
X140600000Y-106050000D03*
X140600000Y-105050000D03*
%TD*%
%TO.C,DNP2*%
X178160000Y-85730000D03*
X178160000Y-84730000D03*
%TD*%
%TO.C,R7*%
X122418700Y-110187500D03*
X122418700Y-109187500D03*
%TD*%
D29*
%TO.C,U4*%
X121499836Y-81443529D03*
X121499836Y-82713532D03*
X121499836Y-83983534D03*
X121499836Y-85253537D03*
X121499836Y-86523539D03*
X121499836Y-87793542D03*
X121499836Y-89063544D03*
X121499836Y-90333547D03*
X121499836Y-91603550D03*
X121499836Y-92873552D03*
X121499836Y-94143555D03*
X121499836Y-95413557D03*
X121499836Y-96683560D03*
X121499836Y-97953562D03*
D43*
X123264886Y-99233471D03*
X124534889Y-99233471D03*
X125804891Y-99233471D03*
X127074894Y-99233471D03*
X128344896Y-99233471D03*
X129614899Y-99233471D03*
X130884901Y-99233471D03*
X132154904Y-99233471D03*
X133424906Y-99233471D03*
X134694909Y-99233471D03*
X135964911Y-99233471D03*
X137234914Y-99203499D03*
D29*
X138999964Y-97953562D03*
X138999964Y-96683560D03*
X138999964Y-95413557D03*
X138999964Y-94143555D03*
X138999964Y-92873552D03*
X138999964Y-91603550D03*
X138999964Y-90333547D03*
X138999964Y-89063544D03*
X138999964Y-87793542D03*
X138999964Y-86523539D03*
X138999964Y-85253537D03*
X138999964Y-83983534D03*
X138999964Y-82713532D03*
X138999964Y-81443529D03*
D44*
X127349722Y-87763570D03*
X127349722Y-89163621D03*
X127349722Y-90563671D03*
X128749773Y-87763570D03*
X128749773Y-89163621D03*
X128749773Y-90563671D03*
X130149824Y-87763570D03*
X130149824Y-89163621D03*
X130149824Y-90563671D03*
%TD*%
D45*
%TO.C,U18*%
X165149975Y-105649849D03*
X165149975Y-106749925D03*
X165149975Y-107850002D03*
X165149975Y-108949824D03*
X165149975Y-110049900D03*
X165149975Y-111149976D03*
X165149975Y-112249798D03*
X165149975Y-113349875D03*
X165149975Y-114449951D03*
X174550025Y-114449951D03*
X174550025Y-113349875D03*
X174550025Y-112249798D03*
X174550025Y-111149976D03*
X174550025Y-110049900D03*
X174550025Y-108949824D03*
X174550025Y-107850002D03*
X174550025Y-106749925D03*
X174550025Y-105649849D03*
%TD*%
D12*
%TO.C,R22*%
X155900000Y-81350000D03*
X154900000Y-81350000D03*
%TD*%
D15*
%TO.C,C36*%
X172300000Y-83149999D03*
X172300000Y-82150001D03*
%TD*%
D17*
%TO.C,C1*%
X116300000Y-112820000D03*
X116300000Y-114380000D03*
%TD*%
D14*
%TO.C,R5*%
X131900000Y-108300000D03*
X131900000Y-109300000D03*
%TD*%
D11*
%TO.C,R10*%
X179300000Y-85750000D03*
X180300000Y-85750000D03*
%TD*%
D14*
%TO.C,C9*%
X163150000Y-109700000D03*
X163150000Y-110700000D03*
%TD*%
%TO.C,C46*%
X134140000Y-114570000D03*
X134140000Y-115570000D03*
%TD*%
D15*
%TO.C,R63*%
X169800000Y-83150000D03*
X169800000Y-82150000D03*
%TD*%
%TO.C,C28*%
X180560000Y-108010000D03*
X180560000Y-107010000D03*
%TD*%
D14*
%TO.C,R72*%
X118800000Y-83900000D03*
X118800000Y-84900000D03*
%TD*%
D12*
%TO.C,C15*%
X125800000Y-100800000D03*
X124800000Y-100800000D03*
%TD*%
D14*
%TO.C,R20*%
X156200000Y-116900000D03*
X156200000Y-117900000D03*
%TD*%
D15*
%TO.C,C45*%
X167740000Y-122060000D03*
X167740000Y-121060000D03*
%TD*%
D14*
%TO.C,R69*%
X140650000Y-91600000D03*
X140650000Y-92600000D03*
%TD*%
%TO.C,DNP4*%
X181460000Y-85630000D03*
X181460000Y-86630000D03*
%TD*%
D11*
%TO.C,R58*%
X108350000Y-84900000D03*
X109350000Y-84900000D03*
%TD*%
D33*
%TO.C,R70*%
X140646447Y-85196447D03*
X141353553Y-85903553D03*
%TD*%
D11*
%TO.C,R9*%
X111000001Y-88700000D03*
X111999999Y-88700000D03*
%TD*%
D15*
%TO.C,R13*%
X122910000Y-114300000D03*
X122910000Y-113300000D03*
%TD*%
%TO.C,R64*%
X130900000Y-101800000D03*
X130900000Y-100800000D03*
%TD*%
D18*
%TO.C,RESET1*%
X160200000Y-79750000D03*
X160200000Y-75600000D03*
%TD*%
D11*
%TO.C,C27*%
X181550000Y-111230100D03*
X182550000Y-111230100D03*
%TD*%
D14*
%TO.C,R38*%
X111400000Y-104400000D03*
X111400000Y-105400000D03*
%TD*%
D15*
%TO.C,C21*%
X154100000Y-76850000D03*
X154100000Y-75850000D03*
%TD*%
D14*
%TO.C,C5*%
X159550000Y-110700000D03*
X159550000Y-111700000D03*
%TD*%
D46*
%TO.C,C2*%
X117500000Y-109680000D03*
X117500000Y-108120000D03*
%TD*%
D15*
%TO.C,C30*%
X144050000Y-107720000D03*
X144050000Y-106720000D03*
%TD*%
D14*
%TO.C,C48*%
X132180000Y-114570000D03*
X132180000Y-115570000D03*
%TD*%
D47*
%TO.C,J1*%
X147340005Y-109473901D03*
X146239954Y-109473901D03*
X145139903Y-109473901D03*
X144039853Y-109473901D03*
X142940030Y-109473901D03*
X141839980Y-109473901D03*
X140739929Y-109473901D03*
X139640107Y-109473901D03*
X138540005Y-109474308D03*
D48*
X137340005Y-110324295D03*
D49*
X137340005Y-120026099D03*
X152859970Y-120026099D03*
D48*
X152020015Y-110324295D03*
%TD*%
D50*
%TO.C,U3*%
X153000030Y-78149967D03*
X153000030Y-77499979D03*
X153000030Y-76849992D03*
D51*
X151920096Y-76274910D03*
D52*
X151920096Y-74874859D03*
D50*
X150850170Y-76849992D03*
X150850170Y-77499979D03*
X150850170Y-78149967D03*
%TD*%
D14*
%TO.C,DNP6*%
X177400000Y-111130000D03*
X177400000Y-112130000D03*
%TD*%
%TO.C,R62*%
X106350000Y-105900000D03*
X106350000Y-106900000D03*
%TD*%
D53*
%TO.C,U17*%
X175800102Y-85125019D03*
D54*
X173800102Y-84794819D03*
X171800102Y-84794819D03*
X169800102Y-84794819D03*
X167800102Y-84794819D03*
X165800102Y-84794819D03*
X163800102Y-84794819D03*
X161800102Y-84794819D03*
X161800102Y-100674930D03*
X163800102Y-100674930D03*
X165800102Y-100674930D03*
X167800102Y-100674930D03*
X169800102Y-100674930D03*
X171800102Y-100674930D03*
X173800102Y-100674930D03*
X175800102Y-100674930D03*
D55*
X173459995Y-95764847D03*
%TD*%
D32*
%TO.C,C56*%
X111680000Y-83300000D03*
X110120000Y-83300000D03*
%TD*%
D11*
%TO.C,C39*%
X150150000Y-94050000D03*
X151150000Y-94050000D03*
%TD*%
D13*
%TO.C,D5*%
X111237500Y-115400000D03*
X109662500Y-115400000D03*
%TD*%
D42*
%TO.C,SW2*%
X165350125Y-76985813D03*
X165350176Y-75285787D03*
X170550100Y-76985813D03*
X170550100Y-75285787D03*
%TD*%
D12*
%TO.C,C41*%
X157500000Y-106400000D03*
X156500000Y-106400000D03*
%TD*%
D15*
%TO.C,DNP7*%
X180550000Y-111230000D03*
X180550000Y-110230000D03*
%TD*%
M02*
