M48
; DRILL file KiCad 10.0.2-10.0.2~ubuntu24.04.1 date 2026-05-14T01:03:41
; FORMAT={-:-/ absolute / inch / decimal}
; #@! TF.CreationDate,2026-05-14T01:03:41+02:00
; #@! TF.GenerationSoftware,Kicad,Pcbnew,10.0.2-10.0.2~ubuntu24.04.1
; #@! TF.FileFunction,Plated,1,4,PTH
FMAT,2
INCH
; #@! TA.AperFunction,Plated,PTH,ViaDrill
T1C0.0118
; #@! TA.AperFunction,Plated,PTH,ComponentDrill
T2C0.0118
; #@! TA.AperFunction,Plated,PTH,ComponentDrill
T3C0.0236
; #@! TA.AperFunction,Plated,PTH,ComponentDrill
T4C0.0276
; #@! TA.AperFunction,Plated,PTH,ComponentDrill
T5C0.0394
%
G90
G05
T1
X4.0472Y-3.1791
X4.062Y-3.2018
X4.0768Y-3.1791
X4.0862Y-4.6757
X4.0896Y-3.2028
X4.1043Y-3.1791
X4.1181Y-3.2028
X4.1339Y-3.1791
X4.1476Y-3.2028
X4.1634Y-3.1791
X4.1772Y-3.2028
X4.1831Y-3.9606
X4.1831Y-4.0157
X4.1831Y-4.0689
X4.1862Y-3.2757
X4.1862Y-3.6757
X4.1862Y-3.8757
X4.187Y-3.3957
X4.187Y-4.2373
X4.1929Y-3.1791
X4.2067Y-3.2028
X4.2205Y-3.498
X4.2205Y-4.3189
X4.2224Y-3.1791
X4.2362Y-3.2028
X4.252Y-3.1791
X4.2598Y-3.9587
X4.2598Y-4.0157
X4.2598Y-4.0689
X4.2657Y-3.2028
X4.2677Y-3.498
X4.2677Y-4.5423
X4.2815Y-3.1791
X4.2862Y-4.3757
X4.2862Y-4.6757
X4.2953Y-3.2028
X4.3071Y-3.4173
X4.311Y-3.1791
X4.3209Y-3.6713
X4.3209Y-3.7008
X4.3209Y-3.7303
X4.3209Y-3.7598
X4.3209Y-3.7894
X4.3209Y-3.9173
X4.3209Y-3.9469
X4.3209Y-4.0157
X4.3209Y-4.065
X4.3209Y-4.0945
X4.3209Y-4.122
X4.3228Y-3.6417
X4.3248Y-3.2028
X4.3406Y-3.1791
X4.3504Y-3.624
X4.3504Y-3.6516
X4.3504Y-3.6811
X4.3504Y-3.7106
X4.3504Y-3.7402
X4.3504Y-3.878
X4.3504Y-3.9075
X4.3504Y-3.937
X4.3504Y-3.9646
X4.3504Y-4.0157
X4.3504Y-4.065
X4.3504Y-4.0945
X4.3504Y-4.122
X4.3543Y-3.2028
X4.3661Y-3.3425
X4.3661Y-3.3819
X4.3681Y-4.2677
X4.3701Y-3.1791
X4.3701Y-4.3622
X4.378Y-3.6142
X4.3839Y-3.2028
X4.3862Y-3.8757
X4.3957Y-3.5946
X4.3976Y-3.3189
X4.3996Y-3.1791
X4.4055Y-3.6929
X4.4055Y-4.2343
X4.4134Y-3.2028
X4.4154Y-3.6142
X4.4213Y-3.6575
X4.4252Y-3.4173
X4.4291Y-3.1791
X4.4291Y-4.1811
X4.4331Y-3.5946
X4.435Y-4.565
X4.437Y-3.6929
X4.4429Y-3.2028
X4.4488Y-3.6161
X4.4528Y-3.6575
X4.4547Y-3.5157
X4.4587Y-3.1791
X4.4685Y-3.6929
X4.4685Y-4.1102
X4.4724Y-3.2028
X4.4724Y-4.1668
X4.4803Y-4.563
X4.4843Y-3.6575
X4.4882Y-3.1791
X4.4961Y-4.1102
X4.4972Y-4.3045
X4.5Y-3.6929
X4.502Y-3.2028
X4.5059Y-3.5157
X4.5161Y-4.5535
X4.5177Y-3.1791
X4.5236Y-4.1102
X4.5276Y-3.6181
X4.5276Y-4.25
X4.5315Y-3.2028
X4.5374Y-4.2854
X4.5453Y-3.5965
X4.5453Y-4.5413
X4.5472Y-3.1791
X4.5512Y-3.2992
X4.5551Y-4.6024
X4.5571Y-3.622
X4.5571Y-3.6516
X4.5571Y-3.6811
X4.5571Y-3.7106
X4.5571Y-3.9075
X4.5571Y-3.937
X4.5571Y-3.9646
X4.5571Y-4.0157
X4.561Y-3.2028
X4.5748Y-4.6339
X4.5768Y-3.1791
X4.5768Y-3.7303
X4.5827Y-4.2854
X4.5827Y-4.5492
X4.5862Y-3.3757
X4.5862Y-4.3757
X4.5866Y-3.6122
X4.5866Y-3.6417
X4.5866Y-3.6713
X4.5866Y-3.7008
X4.5866Y-3.9272
X4.5866Y-3.9567
X4.5866Y-4.0157
X4.5886Y-3.2992
X4.5906Y-3.2028
X4.5965Y-3.75
X4.5984Y-4.1102
X4.6063Y-3.1791
X4.6063Y-3.7205
X4.6181Y-3.5157
X4.622Y-3.378
X4.622Y-3.878
X4.622Y-3.9055
X4.624Y-3.2992
X4.626Y-3.7402
X4.626Y-3.7697
X4.626Y-3.7992
X4.626Y-3.8268
X4.6299Y-3.9449
X4.6339Y-4.5669
X4.6358Y-3.1791
X4.6457Y-4.065
X4.6476Y-4.6713
X4.6496Y-3.9664
X4.6535Y-3.5157
X4.6535Y-3.8189
X4.6555Y-3.7598
X4.6555Y-3.7894
X4.6614Y-4.5846
X4.6654Y-3.1791
X4.6654Y-4.7877
X4.6862Y-4.0757
X4.6862Y-4.6757
X4.6929Y-3.4921
X4.6929Y-3.7795
X4.6949Y-3.1791
X4.6969Y-3.8858
X4.7008Y-4.0157
X4.7087Y-3.9134
X4.7165Y-3.4252
X4.7165Y-3.5197
X4.7244Y-3.1791
X4.7244Y-3.7795
X4.7303Y-4.374
X4.7323Y-3.8858
X4.7323Y-3.937
X4.748Y-4.063
X4.7539Y-3.1791
X4.7559Y-3.9606
X4.7717Y-4.0866
X4.7862Y-4.4757
X4.7953Y-4.1102
X4.8071Y-4.0157
X4.8189Y-4.1339
X4.8307Y-3.1801
X4.8425Y-4.1575
X4.8504Y-4.4252
X4.8504Y-4.4646
X4.8543Y-4.063
X4.8547Y-4.3386
X4.8559Y-3.3643
X4.8602Y-3.1801
X4.8661Y-4.3701
X4.8701Y-3.7087
X4.8701Y-4.1889
X4.8701Y-4.2362
X4.8701Y-4.2835
X4.878Y-3.4449
X4.878Y-4.0866
X4.8862Y-3.4757
X4.8898Y-3.1801
X4.8976Y-3.3661
X4.9016Y-4.1102
X4.9055Y-3.8031
X4.9134Y-4.0157
X4.9193Y-3.1801
X4.9252Y-4.1339
X4.937Y-3.3466
X4.9449Y-4.1575
X4.9449Y-4.2816
X4.9469Y-4.1889
X4.9469Y-4.2362
X4.9488Y-3.1801
X4.9587Y-4.3091
X4.9606Y-4.3465
X4.9646Y-3.3661
X4.9685Y-4.4331
X4.9685Y-4.4646
X4.9783Y-3.1801
X4.9921Y-4.378
X5.0079Y-3.1801
X5.0157Y-4.0157
X5.0197Y-4.5669
X5.0236Y-3.8268
X5.0315Y-4.1575
X5.0374Y-3.1801
X5.0417Y-4.2815
X5.0512Y-3.8504
X5.0669Y-3.1801
X5.0787Y-4.5669
X5.0862Y-4.0757
X5.0862Y-4.4757
X5.0866Y-4.2815
X5.0965Y-3.1801
X5.1024Y-3.7835
X5.1201Y-4.0138
X5.128Y-3.1811
X5.1339Y-3.7874
X5.1339Y-4.1575
X5.1457Y-4.5395
X5.1496Y-4.4173
X5.1535Y-4.0601
X5.1575Y-3.1811
X5.1811Y-3.7047
X5.1831Y-4.5098
X5.1862Y-3.4757
X5.1862Y-4.6757
X5.187Y-3.1811
X5.2047Y-4.0601
X5.2165Y-3.1811
X5.2302Y-4.0847
X5.2362Y-3.563
X5.2461Y-3.1811
X5.252Y-4.5906
X5.2756Y-3.1811
X5.2795Y-3.956
X5.2815Y-4.6575
X5.2835Y-4.5906
X5.2862Y-4.2757
X5.3022Y-4.5098
X5.3051Y-3.1811
X5.3248Y-3.7343
X5.3346Y-3.1811
X5.3445Y-3.9882
X5.3465Y-3.7559
X5.3465Y-4.0866
X5.3583Y-4.3898
X5.3642Y-3.1811
X5.3671Y-4.1132
X5.38Y-3.6575
X5.3858Y-3.6929
X5.3858Y-3.9843
X5.3862Y-3.3757
X5.3862Y-3.7757
X5.3862Y-4.5757
X5.3937Y-3.1811
X5.4016Y-4.1417
X5.4094Y-3.5709
X5.4094Y-3.6397
X5.4134Y-3.6024
X5.4173Y-3.2854
X5.4173Y-3.9843
X5.4193Y-3.5413
X5.4193Y-4.1693
X5.4232Y-3.1811
X5.4488Y-3.9213
X5.4488Y-3.9843
X5.4528Y-4.1772
X5.4803Y-3.9213
X5.4803Y-3.9843
X5.4803Y-4.4136
X5.4941Y-4.1772
X5.5118Y-3.9213
X5.5157Y-3.1791
X5.5236Y-3.4843
X5.5276Y-3.5787
X5.5295Y-3.2047
X5.5354Y-3.8031
X5.5354Y-3.8346
X5.5413Y-4.1064
X5.5453Y-3.1791
X5.5591Y-3.2047
X5.5591Y-4.0236
X5.56Y-3.4813
X5.5748Y-3.1791
X5.5827Y-3.9843
X5.5846Y-4.3819
X5.5862Y-4.1757
X5.5862Y-4.6757
X5.5886Y-3.2047
X5.5947Y-3.6018
X5.5966Y-3.5295
X5.6043Y-3.1791
X5.6063Y-3.6693
X5.6063Y-3.7126
X5.6063Y-3.7441
X5.6142Y-3.5551
X5.6142Y-3.6241
X5.6181Y-3.2047
X5.622Y-3.9843
X5.626Y-4.3543
X5.6299Y-3.9213
X5.6339Y-3.1791
X5.6378Y-4.0236
X5.6457Y-4.2402
X5.6476Y-3.2047
X5.6634Y-3.1791
X5.6641Y-4.0079
X5.6772Y-3.2047
X5.689Y-3.3583
X5.6929Y-3.1791
X5.6929Y-3.8898
X5.6969Y-4.2402
X5.7054Y-3.918
X5.7067Y-3.2047
X5.7224Y-3.1791
X5.7362Y-3.2047
X5.7362Y-3.9803
X5.7441Y-3.4232
X5.752Y-3.1791
X5.7638Y-3.8268
X5.764Y-3.4452
X5.7657Y-3.2047
X5.7692Y-3.9433
X5.7716Y-3.9764
X5.7775Y-3.9134
X5.7815Y-3.1791
X5.7815Y-3.3917
X5.7862Y-4.4757
X5.7862Y-4.6757
X5.7953Y-3.2047
X5.7953Y-3.7953
X5.8012Y-2.9606
X5.8012Y-2.9921
X5.8012Y-3.0217
X5.8012Y-3.0512
X5.8012Y-3.0807
X5.8012Y-3.1102
X5.8012Y-4.1831
X5.8022Y-3.1447
X5.813Y-3.1801
X5.8257Y-3.3319
X5.8297Y-3.1555
X5.8307Y-2.9429
X5.8307Y-2.9724
X5.8307Y-3.002
X5.8307Y-3.0315
X5.8307Y-3.061
X5.8307Y-3.0906
X5.8307Y-3.1201
X5.8445Y-3.9843
X5.8455Y-3.2293
X5.8476Y-3.7098
X5.8504Y-3.7638
X5.8583Y-3.315
X5.874Y-3.7244
X5.8862Y-2.9757
X5.9055Y-3.2677
X5.9291Y-4.0551
X5.9323Y-4.0205
X5.9701Y-4.2917
X5.9744Y-3.7028
X5.9862Y-4.5757
X5.9921Y-4.0551
X6.0Y-3.252
X6.0082Y-3.7055
X6.0256Y-3.2756
X6.0315Y-3.3465
X6.035Y-3.1236
X6.0353Y-3.6935
X6.0374Y-4.0256
X6.061Y-3.7126
X6.0669Y-3.0571
X6.0669Y-3.1004
X6.0862Y-3.2757
X6.0862Y-4.1757
X6.0941Y-3.6024
X6.0945Y-3.7165
X6.0965Y-4.1201
X6.1063Y-4.5689
X6.126Y-3.7638
X6.126Y-4.1339
X6.1339Y-3.3386
X6.1339Y-3.7067
X6.1378Y-3.2343
X6.1378Y-3.815
X6.1417Y-3.6024
X6.1437Y-3.9449
X6.1575Y-3.8898
X6.1594Y-3.8406
X6.1751Y-3.9173
X6.1772Y-3.9488
X6.1811Y-3.8661
X6.1862Y-3.0757
X6.1862Y-4.5757
X6.1949Y-3.2008
X6.2028Y-4.2264
X6.2067Y-4.3524
X6.2087Y-3.9252
X6.2283Y-3.7968
X6.2283Y-3.8346
X6.248Y-4.5354
X6.248Y-4.5697
X6.2862Y-3.8757
X6.2862Y-4.0757
X6.2913Y-4.5689
X6.3071Y-3.3583
X6.3228Y-4.4232
X6.3248Y-4.4646
X6.3307Y-3.3937
X6.3445Y-4.2835
X6.3465Y-4.0157
X6.3484Y-3.9035
X6.3703Y-3.6553
X6.3839Y-4.2835
X6.3858Y-3.3937
X6.3862Y-2.9757
X6.3862Y-3.1757
X6.3862Y-4.5757
X6.3898Y-3.9035
X6.3937Y-4.0157
X6.4095Y-3.3412
X6.4154Y-3.6102
X6.4372Y-3.6302
X6.4409Y-4.1063
X6.4409Y-4.1594
X6.4508Y-2.9646
X6.4862Y-4.0757
X6.502Y-4.1063
X6.5247Y-3.6859
X6.53Y-3.722
X6.5312Y-3.1654
X6.563Y-4.185
X6.565Y-4.7283
X6.5669Y-3.1654
X6.5748Y-4.2165
X6.5862Y-3.4757
X6.5862Y-4.2757
X6.5862Y-4.4757
X6.5862Y-4.6757
X6.5945Y-3.6811
X6.6043Y-4.7283
X6.6299Y-3.7205
X6.6862Y-3.1757
X6.6862Y-3.6757
X6.6862Y-4.0757
X6.7343Y-3.3937
X6.7618Y-3.3937
X6.7717Y-2.9646
X6.7862Y-3.4757
X6.7862Y-4.2757
X6.7862Y-4.4757
X6.7862Y-4.6757
X6.7913Y-3.3937
X6.813Y-4.4193
X6.8307Y-3.2776
X6.8327Y-2.9646
X6.8346Y-3.3957
X6.8563Y-3.1398
X6.8661Y-3.2776
X6.8661Y-3.3957
X6.874Y-4.5551
X6.8862Y-3.0757
X6.8862Y-3.6757
X6.8862Y-3.9757
X6.8898Y-3.1496
X6.9035Y-3.8957
X6.9134Y-4.0374
X6.9291Y-4.3701
X6.937Y-3.8957
X6.9409Y-4.2913
X6.9409Y-4.5039
X6.9488Y-4.4173
X6.9606Y-4.3701
X6.9705Y-4.0039
X6.9724Y-4.2913
X6.9803Y-4.4173
X6.9862Y-3.4757
X6.9862Y-4.1757
X6.9862Y-4.5757
X6.9921Y-4.3701
X7.0Y-3.2953
X7.0039Y-4.2913
X7.0079Y-3.4173
X7.0118Y-4.4173
X7.0236Y-4.3701
X7.0236Y-4.5039
X7.0315Y-3.2953
X7.0354Y-4.2913
X7.0394Y-3.4173
X7.0433Y-4.4173
X7.0551Y-3.3307
X7.0551Y-4.5039
X7.0669Y-4.2913
X7.0709Y-3.4173
X7.0748Y-4.4173
X7.0862Y-3.0757
X7.0862Y-3.2757
X7.0862Y-3.6757
X7.0862Y-3.8757
X7.0862Y-4.7757
X7.0866Y-3.3307
X7.0866Y-4.5039
X7.1024Y-3.4173
X7.1122Y-4.3701
X7.1181Y-3.3307
X7.1181Y-4.5039
X7.126Y-3.4528
X7.1417Y-4.2913
X7.1417Y-4.3701
X7.1476Y-4.4173
X7.1496Y-3.3307
X7.1496Y-4.5039
X7.1555Y-2.9646
X7.1575Y-3.4528
X7.1732Y-3.4882
X7.1732Y-4.2913
X7.1732Y-4.3701
X7.1772Y-4.4173
X7.1811Y-3.3307
X7.1811Y-4.5039
X7.1862Y-4.0757
X7.1862Y-4.5757
X7.2047Y-4.2913
X7.2087Y-4.4173
X7.2087Y-4.5354
X7.2165Y-3.2205
X7.2205Y-3.5276
X7.2283Y-4.311
X7.2362Y-4.565
X7.248Y-3.2205
X7.248Y-4.3346
X7.252Y-3.5276
X7.2677Y-4.3583
X7.2677Y-4.565
X7.2795Y-3.2205
X7.2835Y-3.5276
X7.2862Y-3.1757
X7.2862Y-3.5757
X7.2862Y-4.2757
X7.2992Y-4.3583
X7.2992Y-4.565
X7.311Y-3.2205
X7.315Y-3.5276
X7.3307Y-4.3583
X7.3307Y-4.565
X7.3425Y-3.2205
X7.3465Y-3.5276
X7.3622Y-4.3583
X7.3622Y-4.565
X7.374Y-3.2205
X7.378Y-3.5276
T2
X4.4303Y-4.4005
X4.4697Y-4.4005
X5.0138Y-3.4818
X5.0138Y-3.5369
X5.0413Y-3.4543
X5.0413Y-3.5094
X5.0413Y-3.5645
X5.0689Y-3.4818
X5.0689Y-3.5369
X5.0965Y-3.4543
X5.0965Y-3.5094
X5.0965Y-3.5645
X5.124Y-3.4818
X5.124Y-3.5369
X5.2476Y-4.4005
X5.2713Y-4.4005
X5.9244Y-3.839
X5.9244Y-3.898
X5.9559Y-3.8075
X5.9559Y-3.8665
X5.9559Y-3.9256
X5.9835Y-3.839
X5.9835Y-3.898
X6.011Y-3.8075
X6.011Y-3.8665
X6.011Y-3.9256
X6.0425Y-3.839
X6.0425Y-3.898
X6.8071Y-3.7494
X6.8071Y-3.7927
X6.8504Y-3.7494
X6.8504Y-3.7927
T4
X4.5242Y-4.758
X4.5734Y-4.758
X5.2284Y-4.7598
X5.2776Y-4.7598
T5
X4.0915Y-3.2591
X4.0915Y-3.3591
X4.0915Y-3.4591
X4.0915Y-3.5591
X4.0915Y-3.6591
X4.0915Y-3.7591
X4.0915Y-3.8591
X4.0915Y-3.9591
X4.0915Y-4.0591
X4.0915Y-4.1591
X4.0915Y-4.2591
X4.0915Y-4.3591
X4.0915Y-4.4591
X4.0915Y-4.5591
X6.1646Y-4.8067
X6.2646Y-4.8067
X6.3646Y-4.8067
X6.4646Y-4.8067
X7.2825Y-3.7589
X7.2825Y-3.8589
X7.2825Y-3.9589
X7.2825Y-4.0589
T3
G00X4.739Y-4.673
M15
G01X4.739Y-4.7163
M16
G05
G00X4.739Y-4.8474
M15
G01X4.739Y-4.8711
M16
G05
G00X5.0791Y-4.673
M15
G01X5.0791Y-4.7163
M16
G05
G00X5.0791Y-4.8474
M15
G01X5.0791Y-4.8711
M16
G05
T4
G00X6.7146Y-4.7854
M15
G01X6.7146Y-4.8169
M16
G05
G00X6.7933Y-4.8012
M15
G01X6.8012Y-4.8012
M16
G05
G00X6.872Y-4.8012
M15
G01X6.8799Y-4.8012
M16
G05
G00X6.9508Y-4.8012
M15
G01X6.9587Y-4.8012
M16
G05
G00X7.0374Y-4.7854
M15
G01X7.0374Y-4.8169
M16
G05
M30
