M48
; DRILL file {KiCad 9.0.7} date 2026-04-10T22:45:37+0200
; FORMAT={-:-/ absolute / inch / decimal}
; #@! TF.CreationDate,2026-04-10T22:45:37+02:00
; #@! TF.GenerationSoftware,Kicad,Pcbnew,9.0.7
; #@! TF.FileFunction,Plated,1,4,PTH
FMAT,2
INCH
; #@! TA.AperFunction,Plated,PTH,ViaDrill
T1C0.0118
; #@! TA.AperFunction,Plated,PTH,ComponentDrill
T2C0.0118
; #@! TA.AperFunction,Plated,PTH,ComponentDrill
T3C0.0236
; #@! TA.AperFunction,Plated,PTH,ComponentDrill
T4C0.0276
; #@! TA.AperFunction,Plated,PTH,ComponentDrill
T5C0.0394
%
G90
G05
T1
X4.0472Y-3.189
X4.0768Y-3.189
X4.1043Y-3.189
X4.1339Y-3.189
X4.1634Y-3.189
X4.1929Y-3.189
X4.2067Y-3.2126
X4.2224Y-3.189
X4.2362Y-3.2126
X4.252Y-3.189
X4.2657Y-3.2126
X4.2815Y-3.189
X4.2953Y-3.2126
X4.311Y-3.189
X4.3248Y-3.2126
X4.3406Y-3.189
X4.3543Y-3.2126
X4.3701Y-3.189
X4.3839Y-3.2126
X4.3996Y-3.189
X4.4134Y-3.2126
X4.4291Y-3.189
X4.4429Y-3.2126
X4.4587Y-3.189
X4.4724Y-3.2126
X4.4882Y-3.189
X4.502Y-3.2126
X4.5177Y-3.189
X4.5315Y-3.2126
X4.5472Y-3.189
X4.561Y-3.2126
X4.5768Y-3.189
X4.5906Y-3.2126
X4.6063Y-3.189
X4.6201Y-3.2126
X4.6358Y-3.189
X4.6496Y-3.2126
X4.6654Y-3.189
X4.6791Y-3.2126
X4.6949Y-3.189
X4.7087Y-3.2126
X4.7244Y-3.189
X4.7382Y-3.2126
X4.7539Y-3.189
X4.7677Y-3.2126
X4.7835Y-3.189
X4.7972Y-3.2126
X4.813Y-3.189
X4.8268Y-3.2126
X4.8425Y-3.189
X4.8563Y-3.2126
X4.872Y-3.189
X4.8839Y-3.2126
X4.9016Y-3.189
X4.9134Y-3.2126
X4.9311Y-3.189
X4.9429Y-3.2126
X4.9606Y-3.189
X4.9724Y-3.2126
X4.9902Y-3.189
X5.002Y-3.2126
X5.0197Y-3.189
X5.0315Y-3.2126
X5.0492Y-3.189
X5.061Y-3.2126
X5.0787Y-3.189
X5.0906Y-3.2126
X5.1083Y-3.189
X5.1201Y-3.2126
X5.1378Y-3.189
X5.1496Y-3.2126
X5.2165Y-3.189
X5.2933Y-3.2146
X5.3051Y-3.189
X5.3189Y-3.2146
X5.3346Y-3.189
X5.3484Y-3.2146
X5.3642Y-3.189
X5.378Y-3.2146
X5.3937Y-3.189
X5.4075Y-3.2146
X5.4232Y-3.189
X5.437Y-3.2146
X5.4528Y-3.189
X5.4665Y-3.2146
X5.4823Y-3.189
X5.4961Y-3.2146
X5.5118Y-3.189
X5.5256Y-3.2146
X5.5413Y-3.189
X5.5551Y-3.2146
X5.5709Y-3.189
X5.5846Y-3.2146
X5.6004Y-3.189
X5.6142Y-3.2146
X5.6299Y-3.189
X5.6437Y-3.2146
X5.6594Y-3.189
X5.6732Y-3.2146
X5.689Y-3.189
X5.7028Y-3.2146
X5.7185Y-3.189
X5.7323Y-3.2146
X5.748Y-3.189
X5.7618Y-3.2146
X5.7776Y-3.189
X5.7913Y-3.2146
X5.8071Y-3.189
X5.8209Y-3.2146
X5.8366Y-3.189
X5.8504Y-3.2146
X5.8661Y-3.189
X5.8799Y-3.2146
X5.8957Y-3.189
X5.9094Y-3.2146
X5.9252Y-3.189
X5.939Y-3.2146
X5.9547Y-3.189
X5.9665Y-3.2146
X5.9843Y-3.189
X5.9941Y-3.2146
X6.0039Y-2.9331
X6.0039Y-2.9626
X6.0039Y-2.9921
X6.0039Y-3.0217
X6.0039Y-3.0512
X6.0039Y-3.0807
X6.0039Y-3.1102
X6.0039Y-3.1398
X6.0039Y-3.1693
X6.0138Y-3.1969
X6.0335Y-2.9429
X6.0335Y-2.9724
X6.0335Y-3.002
X6.0335Y-3.0315
X6.0335Y-3.061
X6.0335Y-3.0906
X6.0335Y-3.1201
X6.0335Y-3.1496
X6.0335Y-3.1791
T2
X5.2618Y-3.1378
T4
X4.502Y-4.7618
X4.5512Y-4.7618
X5.2284Y-4.7598
X5.2776Y-4.7598
T5
X4.0935Y-3.2598
X4.0935Y-3.3598
X4.0935Y-3.4598
X4.0935Y-3.5598
X4.0935Y-3.6598
X4.0935Y-3.7598
X4.0935Y-3.8598
X4.0935Y-3.9598
X4.0935Y-4.0598
X4.0935Y-4.1598
X4.0935Y-4.2598
X4.0935Y-4.3598
X4.0935Y-4.4598
X4.0935Y-4.5598
X6.1646Y-4.8067
X6.2646Y-4.8067
X6.3646Y-4.8067
X6.4646Y-4.8067
X7.2825Y-3.7589
X7.2825Y-3.8589
X7.2825Y-3.9589
X7.2825Y-4.0589
T3
G00X4.7394Y-4.5643
M15
G01X4.7394Y-4.6076
M16
G05
G00X4.7394Y-4.7347
M15
G01X4.7394Y-4.7662
M16
G05
G00X5.0795Y-4.5643
M15
G01X5.0795Y-4.6076
M16
G05
G00X5.0795Y-4.7347
M15
G01X5.0795Y-4.7662
M16
G05
T4
G00X6.7146Y-4.7854
M15
G01X6.7146Y-4.8169
M16
G05
G00X6.7933Y-4.8012
M15
G01X6.8012Y-4.8012
M16
G05
G00X6.872Y-4.8012
M15
G01X6.8799Y-4.8012
M16
G05
G00X6.9508Y-4.8012
M15
G01X6.9587Y-4.8012
M16
G05
G00X7.0374Y-4.7854
M15
G01X7.0374Y-4.8169
M16
G05
M30
