%TF.GenerationSoftware,KiCad,Pcbnew,9.0.7*%
%TF.CreationDate,2026-05-03T22:32:43+02:00*%
%TF.ProjectId,LoRa-device,4c6f5261-2d64-4657-9669-63652e6b6963,rev?*%
%TF.SameCoordinates,Original*%
%TF.FileFunction,Soldermask,Top*%
%TF.FilePolarity,Negative*%
%FSLAX46Y46*%
G04 Gerber Fmt 4.6, Leading zero omitted, Abs format (unit mm)*
G04 Created by KiCad (PCBNEW 9.0.7) date 2026-05-03 22:32:43*
%MOMM*%
%LPD*%
G01*
G04 APERTURE LIST*
G04 Aperture macros list*
%AMRoundRect*
0 Rectangle with rounded corners*
0 $1 Rounding radius*
0 $2 $3 $4 $5 $6 $7 $8 $9 X,Y pos of 4 corners*
0 Add a 4 corners polygon primitive as box body*
4,1,4,$2,$3,$4,$5,$6,$7,$8,$9,$2,$3,0*
0 Add four circle primitives for the rounded corners*
1,1,$1+$1,$2,$3*
1,1,$1+$1,$4,$5*
1,1,$1+$1,$6,$7*
1,1,$1+$1,$8,$9*
0 Add four rect primitives between the rounded corners*
20,1,$1+$1,$2,$3,$4,$5,0*
20,1,$1+$1,$4,$5,$6,$7,0*
20,1,$1+$1,$6,$7,$8,$9,0*
20,1,$1+$1,$8,$9,$2,$3,0*%
%AMFreePoly0*
4,1,23,0.550000,-0.750000,0.000000,-0.750000,0.000000,-0.745722,-0.065263,-0.745722,-0.191342,-0.711940,-0.304381,-0.646677,-0.396677,-0.554381,-0.461940,-0.441342,-0.495722,-0.315263,-0.495722,-0.250000,-0.500000,-0.250000,-0.500000,0.250000,-0.495722,0.250000,-0.495722,0.315263,-0.461940,0.441342,-0.396677,0.554381,-0.304381,0.646677,-0.191342,0.711940,-0.065263,0.745722,0.000000,0.745722,
0.000000,0.750000,0.550000,0.750000,0.550000,-0.750000,0.550000,-0.750000,$1*%
%AMFreePoly1*
4,1,23,0.000000,0.745722,0.065263,0.745722,0.191342,0.711940,0.304381,0.646677,0.396677,0.554381,0.461940,0.441342,0.495722,0.315263,0.495722,0.250000,0.500000,0.250000,0.500000,-0.250000,0.495722,-0.250000,0.495722,-0.315263,0.461940,-0.441342,0.396677,-0.554381,0.304381,-0.646677,0.191342,-0.711940,0.065263,-0.745722,0.000000,-0.745722,0.000000,-0.750000,-0.550000,-0.750000,
-0.550000,0.750000,0.000000,0.750000,0.000000,0.745722,0.000000,0.745722,$1*%
%AMFreePoly2*
4,1,170,0.717704,0.851461,0.735179,0.848387,0.752146,0.843307,0.768453,0.836271,0.783795,0.827407,0.798019,0.816815,0.810922,0.804648,0.822327,0.791059,0.832080,0.776251,0.840030,0.760401,0.846101,0.743739,0.850191,0.726492,0.852248,0.708865,0.852248,0.691135,0.850191,0.673508,0.846101,0.656261,0.840030,0.639599,0.832080,0.623749,0.822327,0.608941,0.810922,0.595352,
0.798019,0.583185,0.783795,0.572593,0.768453,0.563729,0.752146,0.556693,0.735179,0.551613,0.717704,0.548539,0.700000,0.547498,0.666294,0.546457,0.632715,0.543358,0.599390,0.538176,0.566447,0.530963,0.534036,0.521742,0.502210,0.510516,0.471171,0.497384,0.440970,0.482347,0.411786,0.465481,0.383668,0.446863,0.356769,0.426543,0.331140,0.404597,0.306934,0.381128,
0.284227,0.356210,0.263094,0.329947,0.243612,0.302413,0.225857,0.273762,0.209906,0.244044,0.195809,0.213411,0.183617,0.181966,0.173406,0.149835,0.165177,0.117120,0.158979,0.083973,0.154839,0.050521,0.152756,0.016866,0.152756,-0.016866,0.154839,-0.050521,0.158979,-0.083973,0.165177,-0.117120,0.173406,-0.149835,0.183617,-0.181966,0.195809,-0.213411,0.209906,-0.244044,
0.225857,-0.273762,0.243612,-0.302413,0.263094,-0.329947,0.284227,-0.356210,0.306934,-0.381128,0.331140,-0.404597,0.356769,-0.426543,0.383668,-0.446863,0.411786,-0.465481,0.440970,-0.482347,0.471171,-0.497384,0.502210,-0.510516,0.534036,-0.521742,0.566447,-0.530963,0.599390,-0.538176,0.632715,-0.543358,0.666294,-0.546457,0.700000,-0.547498,0.717704,-0.548539,0.735179,-0.551613,
0.752146,-0.556693,0.768453,-0.563729,0.783795,-0.572593,0.798019,-0.583185,0.810922,-0.595352,0.822327,-0.608941,0.832080,-0.623749,0.840030,-0.639599,0.846101,-0.656261,0.850191,-0.673508,0.852248,-0.691135,0.852248,-0.708865,0.850191,-0.726492,0.846101,-0.743739,0.840030,-0.760401,0.832080,-0.776251,0.822327,-0.791059,0.810922,-0.804648,0.798019,-0.816815,0.783795,-0.827407,
0.768453,-0.836271,0.752146,-0.843307,0.735179,-0.848387,0.717704,-0.851461,0.700000,-0.852502,0.658166,-0.851486,0.616434,-0.848387,0.574905,-0.843282,0.533680,-0.836119,0.492863,-0.826949,0.452527,-0.815799,0.412802,-0.802667,0.373762,-0.787605,0.335509,-0.770663,0.298146,-0.751842,0.261722,-0.731217,0.226365,-0.708839,0.192177,-0.684735,0.159182,-0.659004,0.127508,-0.631674,
0.097181,-0.602819,0.068326,-0.572492,0.040996,-0.540818,0.015265,-0.507823,-0.008839,-0.473635,-0.031217,-0.438278,-0.051842,-0.401854,-0.070663,-0.364491,-0.087605,-0.326238,-0.102667,-0.287198,-0.115799,-0.247473,-0.126949,-0.207137,-0.136119,-0.166320,-0.143282,-0.125095,-0.148387,-0.083566,-0.151486,-0.041834,-0.152502,0.000000,-0.151486,0.041834,-0.148387,0.083566,-0.143282,0.125095,
-0.136119,0.166320,-0.126949,0.207137,-0.115799,0.247473,-0.102667,0.287198,-0.087605,0.326238,-0.070663,0.364491,-0.051842,0.401854,-0.031217,0.438278,-0.008839,0.473635,0.015265,0.507823,0.040996,0.540818,0.068326,0.572492,0.097181,0.602819,0.127508,0.631674,0.159182,0.659004,0.192177,0.684735,0.226365,0.708839,0.261722,0.731217,0.298146,0.751842,0.335509,0.770663,
0.373762,0.787605,0.412802,0.802667,0.452527,0.815799,0.492863,0.826949,0.533680,0.836119,0.574905,0.843282,0.616434,0.848387,0.658166,0.851486,0.700000,0.852502,0.717704,0.851461,0.717704,0.851461,$1*%
%AMFreePoly3*
4,1,170,-0.658217,0.851486,-0.616485,0.848387,-0.574956,0.843282,-0.533731,0.836119,-0.492913,0.826949,-0.452578,0.815799,-0.412852,0.802667,-0.373813,0.787605,-0.335560,0.770663,-0.298197,0.751842,-0.261773,0.731217,-0.226416,0.708839,-0.192228,0.684735,-0.159233,0.659004,-0.127534,0.631674,-0.097231,0.602819,-0.068377,0.572492,-0.041046,0.540818,-0.015316,0.507823,0.008788,0.473635,
0.031166,0.438278,0.051791,0.401854,0.070612,0.364491,0.087554,0.326238,0.102616,0.287198,0.115748,0.247473,0.126899,0.207137,0.136068,0.166320,0.143231,0.125095,0.148336,0.083566,0.151435,0.041834,0.152451,0.000000,0.151435,-0.041834,0.148336,-0.083566,0.143231,-0.125095,0.136068,-0.166320,0.126899,-0.207137,0.115748,-0.247473,0.102616,-0.287198,0.087554,-0.326238,
0.070612,-0.364491,0.051791,-0.401854,0.031166,-0.438278,0.008788,-0.473635,-0.015316,-0.507823,-0.041046,-0.540818,-0.068377,-0.572492,-0.097231,-0.602819,-0.127534,-0.631674,-0.159233,-0.659004,-0.192228,-0.684735,-0.226416,-0.708839,-0.261773,-0.731217,-0.298197,-0.751842,-0.335560,-0.770663,-0.373813,-0.787605,-0.412852,-0.802667,-0.452578,-0.815799,-0.492913,-0.826949,-0.533731,-0.836119,
-0.574956,-0.843282,-0.616485,-0.848387,-0.658217,-0.851486,-0.700051,-0.852502,-0.717755,-0.851461,-0.735230,-0.848387,-0.752197,-0.843307,-0.768504,-0.836271,-0.783846,-0.827407,-0.798070,-0.816815,-0.810973,-0.804648,-0.822377,-0.791059,-0.832131,-0.776251,-0.840081,-0.760401,-0.846152,-0.743739,-0.850241,-0.726492,-0.852299,-0.708865,-0.852299,-0.691135,-0.850241,-0.673508,-0.846152,-0.656261,
-0.840081,-0.639599,-0.832131,-0.623749,-0.822377,-0.608941,-0.810973,-0.595352,-0.798070,-0.583185,-0.783846,-0.572593,-0.768504,-0.563729,-0.752197,-0.556693,-0.735230,-0.551613,-0.717755,-0.548539,-0.700051,-0.547498,-0.666345,-0.546457,-0.632766,-0.543358,-0.599441,-0.538176,-0.566497,-0.530963,-0.534087,-0.521742,-0.502261,-0.510541,-0.471222,-0.497384,-0.441021,-0.482347,-0.411836,-0.465481,
-0.383719,-0.446863,-0.356820,-0.426543,-0.331191,-0.404597,-0.306985,-0.381128,-0.284277,-0.356210,-0.263145,-0.329947,-0.243663,-0.302413,-0.225908,-0.273762,-0.209957,-0.244044,-0.195860,-0.213411,-0.183668,-0.181966,-0.173457,-0.149835,-0.165227,-0.117120,-0.159030,-0.083973,-0.154890,-0.050521,-0.152807,-0.016866,-0.152807,0.016866,-0.154890,0.050521,-0.159030,0.083973,-0.165227,0.117120,
-0.173457,0.149835,-0.183668,0.181966,-0.195860,0.213411,-0.209957,0.244044,-0.225908,0.273762,-0.243663,0.302413,-0.263145,0.329947,-0.284277,0.356210,-0.306985,0.381128,-0.331191,0.404597,-0.356820,0.426543,-0.383719,0.446863,-0.411836,0.465481,-0.441021,0.482347,-0.471222,0.497384,-0.502261,0.510541,-0.534087,0.521742,-0.566497,0.530963,-0.599441,0.538176,-0.632766,0.543358,
-0.666345,0.546457,-0.700051,0.547498,-0.717755,0.548539,-0.735230,0.551613,-0.752197,0.556693,-0.768504,0.563729,-0.783846,0.572593,-0.798070,0.583185,-0.810973,0.595352,-0.822377,0.608941,-0.832131,0.623749,-0.840081,0.639599,-0.846152,0.656261,-0.850241,0.673508,-0.852299,0.691135,-0.852299,0.708865,-0.850241,0.726492,-0.846152,0.743739,-0.840081,0.760401,-0.832131,0.776251,
-0.822377,0.791059,-0.810973,0.804648,-0.798070,0.816815,-0.783846,0.827407,-0.768504,0.836271,-0.752197,0.843307,-0.735230,0.848387,-0.717755,0.851461,-0.700051,0.852502,-0.658217,0.851486,-0.658217,0.851486,$1*%
G04 Aperture macros list end*
%ADD10RoundRect,0.159000X0.189000X-0.159000X0.189000X0.159000X-0.189000X0.159000X-0.189000X-0.159000X0*%
%ADD11RoundRect,0.159000X-0.189000X0.159000X-0.189000X-0.159000X0.189000X-0.159000X0.189000X0.159000X0*%
%ADD12R,1.700000X1.700000*%
%ADD13C,1.700000*%
%ADD14RoundRect,0.159000X-0.159000X-0.189000X0.159000X-0.189000X0.159000X0.189000X-0.159000X0.189000X0*%
%ADD15RoundRect,0.159000X0.159000X0.189000X-0.159000X0.189000X-0.159000X-0.189000X0.159000X-0.189000X0*%
%ADD16RoundRect,0.218750X-0.218750X-0.256250X0.218750X-0.256250X0.218750X0.256250X-0.218750X0.256250X0*%
%ADD17RoundRect,0.159000X-0.021213X0.246073X-0.246073X0.021213X0.021213X-0.246073X0.246073X-0.021213X0*%
%ADD18RoundRect,0.150000X0.512500X0.150000X-0.512500X0.150000X-0.512500X-0.150000X0.512500X-0.150000X0*%
%ADD19RoundRect,0.159000X-0.246073X-0.021213X-0.021213X-0.246073X0.246073X0.021213X0.021213X0.246073X0*%
%ADD20RoundRect,0.244000X-0.269000X0.244000X-0.269000X-0.244000X0.269000X-0.244000X0.269000X0.244000X0*%
%ADD21C,1.000000*%
%ADD22RoundRect,0.287778X0.714222X-0.489222X0.714222X0.489222X-0.714222X0.489222X-0.714222X-0.489222X0*%
%ADD23RoundRect,0.218750X0.256250X-0.218750X0.256250X0.218750X-0.256250X0.218750X-0.256250X-0.218750X0*%
%ADD24R,4.800000X1.200000*%
%ADD25RoundRect,0.062500X-0.350000X-0.062500X0.350000X-0.062500X0.350000X0.062500X-0.350000X0.062500X0*%
%ADD26RoundRect,0.062500X-0.062500X-0.350000X0.062500X-0.350000X0.062500X0.350000X-0.062500X0.350000X0*%
%ADD27C,0.600000*%
%ADD28R,1.230000X1.230000*%
%ADD29RoundRect,0.093750X0.093750X-0.156250X0.093750X0.156250X-0.093750X0.156250X-0.093750X-0.156250X0*%
%ADD30RoundRect,0.075000X0.075000X-0.250000X0.075000X0.250000X-0.075000X0.250000X-0.075000X-0.250000X0*%
%ADD31R,1.700000X1.500000*%
%ADD32RoundRect,0.150000X-0.150000X0.385000X-0.150000X-0.385000X0.150000X-0.385000X0.150000X0.385000X0*%
%ADD33R,0.200000X0.500000*%
%ADD34R,1.500000X0.900000*%
%ADD35RoundRect,0.150000X0.150000X-0.512500X0.150000X0.512500X-0.150000X0.512500X-0.150000X-0.512500X0*%
%ADD36RoundRect,0.219000X0.294000X-0.219000X0.294000X0.219000X-0.294000X0.219000X-0.294000X-0.219000X0*%
%ADD37RoundRect,0.218750X-0.256250X0.218750X-0.256250X-0.218750X0.256250X-0.218750X0.256250X0.218750X0*%
%ADD38RoundRect,0.250000X0.275000X0.250000X-0.275000X0.250000X-0.275000X-0.250000X0.275000X-0.250000X0*%
%ADD39RoundRect,0.250000X0.850000X0.275000X-0.850000X0.275000X-0.850000X-0.275000X0.850000X-0.275000X0*%
%ADD40RoundRect,0.250000X-0.325000X-0.250000X0.325000X-0.250000X0.325000X0.250000X-0.325000X0.250000X0*%
%ADD41RoundRect,0.075000X-0.437500X-0.075000X0.437500X-0.075000X0.437500X0.075000X-0.437500X0.075000X0*%
%ADD42RoundRect,0.075000X-0.075000X-0.437500X0.075000X-0.437500X0.075000X0.437500X-0.075000X0.437500X0*%
%ADD43R,4.250000X4.250000*%
%ADD44R,1.550013X1.000000*%
%ADD45R,1.700000X0.800000*%
%ADD46O,1.400000X1.100000*%
%ADD47O,1.200000X2.000000*%
%ADD48RoundRect,0.050000X-0.050000X0.350000X-0.050000X-0.350000X0.050000X-0.350000X0.050000X0.350000X0*%
%ADD49RoundRect,0.050000X-0.350000X0.050000X-0.350000X-0.050000X0.350000X-0.050000X0.350000X0.050000X0*%
%ADD50R,4.000000X4.000000*%
%ADD51RoundRect,0.159000X0.021213X-0.246073X0.246073X-0.021213X-0.021213X0.246073X-0.246073X0.021213X0*%
%ADD52RoundRect,0.244000X0.269000X-0.244000X0.269000X0.244000X-0.269000X0.244000X-0.269000X-0.244000X0*%
%ADD53FreePoly0,90.000000*%
%ADD54R,1.500000X1.000000*%
%ADD55FreePoly1,90.000000*%
%ADD56O,0.900000X2.100000*%
%ADD57O,0.900000X1.800000*%
%ADD58R,0.600000X1.150013*%
%ADD59R,0.300000X1.150013*%
%ADD60R,0.600000X1.300000*%
%ADD61R,1.200000X1.400000*%
%ADD62R,1.200000X2.000000*%
%ADD63R,0.600000X0.400000*%
%ADD64FreePoly2,90.000000*%
%ADD65FreePoly3,90.000000*%
%ADD66R,1.270003X2.259995*%
%ADD67R,1.000000X1.600000*%
%ADD68R,1.800000X1.800000*%
%ADD69RoundRect,0.244000X0.244000X0.269000X-0.244000X0.269000X-0.244000X-0.269000X0.244000X-0.269000X0*%
%ADD70RoundRect,0.162500X0.162500X-0.650000X0.162500X0.650000X-0.162500X0.650000X-0.162500X-0.650000X0*%
%ADD71R,1.800000X1.000000*%
G04 APERTURE END LIST*
%TO.C,JP3*%
G36*
X127867500Y-112327500D02*
G01*
X129367500Y-112327500D01*
X129367500Y-110827500D01*
X127867500Y-110827500D01*
X127867500Y-112327500D01*
G37*
%TD*%
D10*
%TO.C,C43*%
X161150000Y-109700000D03*
X161150000Y-110700000D03*
%TD*%
D11*
%TO.C,C9*%
X163150000Y-110700000D03*
X163150000Y-109700000D03*
%TD*%
%TO.C,C40*%
X162150000Y-110700000D03*
X162150000Y-109700000D03*
%TD*%
D12*
%TO.C,J4*%
X103925000Y-115800000D03*
D13*
X103925000Y-113260000D03*
X103925000Y-110720000D03*
X103925000Y-108180000D03*
X103925000Y-105640000D03*
X103925000Y-103100000D03*
X103925000Y-100560000D03*
X103925000Y-98020000D03*
X103925000Y-95480000D03*
X103925000Y-92940000D03*
X103925000Y-90400000D03*
X103925000Y-87860000D03*
X103925000Y-85320000D03*
X103925000Y-82780000D03*
%TD*%
D14*
%TO.C,R45*%
X162800000Y-83300000D03*
X163800000Y-83300000D03*
%TD*%
D15*
%TO.C,R23*%
X114950000Y-118650000D03*
X113950000Y-118650000D03*
%TD*%
D16*
%TO.C,D4*%
X103162500Y-123100000D03*
X104737500Y-123100000D03*
%TD*%
D17*
%TO.C,C25*%
X120703553Y-81646447D03*
X119996447Y-82353553D03*
%TD*%
D12*
%TO.C,J3*%
X156580000Y-122090000D03*
D13*
X159120000Y-122090000D03*
X161660000Y-122090000D03*
X164200000Y-122090000D03*
%TD*%
D11*
%TO.C,C37*%
X138800000Y-85750000D03*
X138800000Y-86750000D03*
%TD*%
D14*
%TO.C,C12*%
X131525000Y-83800000D03*
X132525000Y-83800000D03*
%TD*%
%TO.C,R44*%
X164900000Y-83300000D03*
X165900000Y-83300000D03*
%TD*%
D17*
%TO.C,C11*%
X119353553Y-81596447D03*
X118646447Y-82303553D03*
%TD*%
D18*
%TO.C,U12*%
X114205000Y-103110000D03*
X114205000Y-102160000D03*
X114205000Y-101210000D03*
X111930000Y-101210000D03*
X111930000Y-103110000D03*
%TD*%
D11*
%TO.C,R1*%
X151900000Y-79400000D03*
X151900000Y-80400000D03*
%TD*%
D19*
%TO.C,R27*%
X131696447Y-95946447D03*
X132403553Y-96653553D03*
%TD*%
D20*
%TO.C,C55*%
X116380000Y-96580000D03*
X116380000Y-98140000D03*
%TD*%
D10*
%TO.C,R49*%
X109520000Y-112740000D03*
X109520000Y-111740000D03*
%TD*%
D14*
%TO.C,L2*%
X181710000Y-108010000D03*
X182710000Y-108010000D03*
%TD*%
D10*
%TO.C,C53*%
X114200000Y-109100000D03*
X114200000Y-108100000D03*
%TD*%
D21*
%TO.C,P1*%
X114914176Y-120854013D03*
X116163858Y-120854013D03*
%TD*%
D22*
%TO.C,FLASH1*%
X156440000Y-79740000D03*
X156440000Y-75590000D03*
%TD*%
D19*
%TO.C,R21*%
X127646447Y-95996447D03*
X128353553Y-96703553D03*
%TD*%
D10*
%TO.C,C22*%
X114450000Y-91200000D03*
X114450000Y-90200000D03*
%TD*%
D11*
%TO.C,C29*%
X179450000Y-107980000D03*
X179450000Y-108980000D03*
%TD*%
D19*
%TO.C,C18*%
X135046447Y-91246447D03*
X135753553Y-91953553D03*
%TD*%
D23*
%TO.C,D2*%
X119400000Y-97937500D03*
X119400000Y-96362500D03*
%TD*%
D14*
%TO.C,C8*%
X134250000Y-85200000D03*
X135250000Y-85200000D03*
%TD*%
D10*
%TO.C,C20*%
X161500000Y-113350000D03*
X161500000Y-112350000D03*
%TD*%
D11*
%TO.C,C54*%
X115830000Y-103110000D03*
X115830000Y-104110000D03*
%TD*%
D10*
%TO.C,C7*%
X171800000Y-82799999D03*
X171800000Y-81800001D03*
%TD*%
D15*
%TO.C,R39*%
X161750000Y-81300000D03*
X160750000Y-81300000D03*
%TD*%
D11*
%TO.C,R32*%
X112810000Y-114380000D03*
X112810000Y-115380000D03*
%TD*%
D10*
%TO.C,R31*%
X112400000Y-84600000D03*
X112400000Y-83600000D03*
%TD*%
D11*
%TO.C,C16*%
X117750000Y-112800000D03*
X117750000Y-113800000D03*
%TD*%
D24*
%TO.C,U15*%
X185350102Y-88199784D03*
X185350102Y-83099962D03*
X185350102Y-85649873D03*
%TD*%
D11*
%TO.C,C49*%
X114450000Y-88000000D03*
X114450000Y-89000000D03*
%TD*%
D14*
%TO.C,C19*%
X134250000Y-86150000D03*
X135250000Y-86150000D03*
%TD*%
D19*
%TO.C,R28*%
X133146447Y-95946447D03*
X133853553Y-96653553D03*
%TD*%
D11*
%TO.C,R46*%
X159275000Y-84200000D03*
X159275000Y-85200000D03*
%TD*%
D15*
%TO.C,C3*%
X129700000Y-100500000D03*
X128700000Y-100500000D03*
%TD*%
%TO.C,C26*%
X129700000Y-99300000D03*
X128700000Y-99300000D03*
%TD*%
D14*
%TO.C,R30*%
X178500000Y-111150000D03*
X179500000Y-111150000D03*
%TD*%
D11*
%TO.C,R8*%
X176630000Y-105650000D03*
X176630000Y-106650000D03*
%TD*%
D25*
%TO.C,U19*%
X132152500Y-111022500D03*
X132152500Y-111522500D03*
X132152500Y-112022500D03*
X132152500Y-112522500D03*
D26*
X132840000Y-113210000D03*
X133340000Y-113210000D03*
X133840000Y-113210000D03*
X134340000Y-113210000D03*
D25*
X135027500Y-112522500D03*
X135027500Y-112022500D03*
X135027500Y-111522500D03*
X135027500Y-111022500D03*
D26*
X134340000Y-110335000D03*
X133840000Y-110335000D03*
X133340000Y-110335000D03*
X132840000Y-110335000D03*
D27*
X133290000Y-111472500D03*
X133290000Y-112072500D03*
D28*
X133590000Y-111772500D03*
D27*
X133890000Y-111472500D03*
X133890000Y-112072500D03*
%TD*%
D20*
%TO.C,C34*%
X119550000Y-112520000D03*
X119550000Y-114080000D03*
%TD*%
D11*
%TO.C,R37*%
X108050000Y-110700000D03*
X108050000Y-111700000D03*
%TD*%
D12*
%TO.C,J6*%
X184975000Y-95475000D03*
D13*
X184975000Y-98015000D03*
X184975000Y-100555000D03*
X184975000Y-103095000D03*
%TD*%
D15*
%TO.C,R4*%
X154805000Y-100770000D03*
X153805000Y-100770000D03*
%TD*%
D14*
%TO.C,R11*%
X173800000Y-102550000D03*
X174800000Y-102550000D03*
%TD*%
D10*
%TO.C,R53*%
X113759975Y-115380038D03*
X113759975Y-114380038D03*
%TD*%
D11*
%TO.C,C42*%
X115050000Y-112800000D03*
X115050000Y-113800000D03*
%TD*%
D29*
%TO.C,U6*%
X124162500Y-114020000D03*
D30*
X124700000Y-114095000D03*
D29*
X125237500Y-114020000D03*
X125237500Y-112320000D03*
D30*
X124700000Y-112245000D03*
D29*
X124162500Y-112320000D03*
%TD*%
D10*
%TO.C,R34*%
X124200000Y-111100000D03*
X124200000Y-110100000D03*
%TD*%
D31*
%TO.C,U9*%
X113000000Y-99399848D03*
X113000000Y-95600000D03*
%TD*%
D15*
%TO.C,R3*%
X129700000Y-101900000D03*
X128700000Y-101900000D03*
%TD*%
D32*
%TO.C,U10*%
X157650000Y-109390000D03*
X159550000Y-109390000D03*
X158600000Y-106910000D03*
%TD*%
D15*
%TO.C,R50*%
X120200000Y-105650000D03*
X119200000Y-105650000D03*
%TD*%
D11*
%TO.C,R52*%
X111870076Y-108349962D03*
X111870076Y-109349962D03*
%TD*%
D33*
%TO.C,U7*%
X113830135Y-110722209D03*
X113430084Y-110722463D03*
X113030287Y-110722463D03*
X112630236Y-110722463D03*
X112230185Y-110722463D03*
X112230185Y-112822285D03*
X112630236Y-112822285D03*
X113030287Y-112822285D03*
X113430084Y-112822285D03*
X113830135Y-112822285D03*
D27*
X113430160Y-111772247D03*
D34*
X113030287Y-111772247D03*
D27*
X112630160Y-111772247D03*
%TD*%
D10*
%TO.C,R17*%
X146150000Y-108050000D03*
X146150000Y-107050000D03*
%TD*%
D35*
%TO.C,U8*%
X119200000Y-109687500D03*
X120150000Y-109687500D03*
X121100000Y-109687500D03*
X121100000Y-107412500D03*
X120150000Y-107412500D03*
X119200000Y-107412500D03*
%TD*%
D36*
%TO.C,R51*%
X110770051Y-112660000D03*
X110770051Y-111020000D03*
%TD*%
D14*
%TO.C,R40*%
X113950000Y-117600000D03*
X114950000Y-117600000D03*
%TD*%
D10*
%TO.C,C38*%
X143450000Y-86200000D03*
X143450000Y-85200000D03*
%TD*%
D21*
%TO.C,P2*%
X132800318Y-120900000D03*
X134050000Y-120900000D03*
%TD*%
D10*
%TO.C,C35*%
X122418700Y-107887500D03*
X122418700Y-106887500D03*
%TD*%
D15*
%TO.C,L4*%
X137385000Y-86750000D03*
X136385000Y-86750000D03*
%TD*%
D37*
%TO.C,D3*%
X140625000Y-89962500D03*
X140625000Y-91537500D03*
%TD*%
D38*
%TO.C,J8*%
X183950000Y-108950000D03*
D39*
X185450000Y-110450000D03*
X185450000Y-107450000D03*
%TD*%
D10*
%TO.C,C44*%
X166720000Y-122060000D03*
X166720000Y-121060000D03*
%TD*%
%TO.C,R12*%
X118000000Y-97100000D03*
X118000000Y-96100000D03*
%TD*%
D14*
%TO.C,R18*%
X103100000Y-118650000D03*
X104100000Y-118650000D03*
%TD*%
D11*
%TO.C,R43*%
X150900000Y-79400000D03*
X150900000Y-80400000D03*
%TD*%
%TO.C,R48*%
X155100000Y-116900000D03*
X155100000Y-117900000D03*
%TD*%
D19*
%TO.C,R24*%
X137296447Y-92746447D03*
X138003553Y-93453553D03*
%TD*%
D10*
%TO.C,C24*%
X163500000Y-113350000D03*
X163500000Y-112350000D03*
%TD*%
D19*
%TO.C,R29*%
X134596447Y-95896447D03*
X135303553Y-96603553D03*
%TD*%
D10*
%TO.C,C4*%
X117400000Y-82550000D03*
X117400000Y-81550000D03*
%TD*%
%TO.C,C32*%
X118100000Y-88750000D03*
X118100000Y-87750000D03*
%TD*%
D20*
%TO.C,C6*%
X120900000Y-112520000D03*
X120900000Y-114080000D03*
%TD*%
D11*
%TO.C,R16*%
X139650000Y-107000000D03*
X139650000Y-108000000D03*
%TD*%
%TO.C,R15*%
X158650000Y-116900000D03*
X158650000Y-117900000D03*
%TD*%
%TO.C,R47*%
X157550000Y-116900000D03*
X157550000Y-117900000D03*
%TD*%
D15*
%TO.C,R54*%
X178300000Y-108000000D03*
X177300000Y-108000000D03*
%TD*%
D14*
%TO.C,C13*%
X116150000Y-118650000D03*
X117150000Y-118650000D03*
%TD*%
%TO.C,R2*%
X103100000Y-121600000D03*
X104100000Y-121600000D03*
%TD*%
D10*
%TO.C,C33*%
X122600000Y-82550000D03*
X122600000Y-81550000D03*
%TD*%
%TO.C,L6*%
X131550000Y-82800000D03*
X131550000Y-81800000D03*
%TD*%
%TO.C,C23*%
X162500000Y-113350000D03*
X162500000Y-112350000D03*
%TD*%
D40*
%TO.C,Y2*%
X140250000Y-87000000D03*
X142000000Y-87000000D03*
X142000000Y-85600000D03*
X140250000Y-85600000D03*
%TD*%
D10*
%TO.C,R33*%
X112500000Y-105400000D03*
X112500000Y-104400000D03*
%TD*%
D41*
%TO.C,U14*%
X148072500Y-94970000D03*
X148072500Y-95620000D03*
X148072500Y-96270000D03*
X148072500Y-96920000D03*
X148072500Y-97570000D03*
X148072500Y-98220000D03*
X148072500Y-98870000D03*
D42*
X148960000Y-99757500D03*
X149610000Y-99757500D03*
X150260000Y-99757500D03*
X150910000Y-99757500D03*
X151560000Y-99757500D03*
X152210000Y-99757500D03*
X152860000Y-99757500D03*
D41*
X153747500Y-98870000D03*
X153747500Y-98220000D03*
X153747500Y-97570000D03*
X153747500Y-96920000D03*
X153747500Y-96270000D03*
X153747500Y-95620000D03*
X153747500Y-94970000D03*
D42*
X152860000Y-94082500D03*
X152210000Y-94082500D03*
X151560000Y-94082500D03*
X150910000Y-94082500D03*
X150260000Y-94082500D03*
X149610000Y-94082500D03*
X148960000Y-94082500D03*
D27*
X149410000Y-95420000D03*
X149410000Y-96920000D03*
X149410000Y-98420000D03*
X150910000Y-95420000D03*
X150910000Y-96920000D03*
D43*
X150910000Y-96920000D03*
D27*
X150910000Y-98420000D03*
X152410000Y-95420000D03*
X152410000Y-96920000D03*
X152410000Y-98420000D03*
%TD*%
D10*
%TO.C,C10*%
X125750000Y-82550000D03*
X125750000Y-81550000D03*
%TD*%
%TO.C,R41*%
X110000000Y-109400000D03*
X110000000Y-108400000D03*
%TD*%
D11*
%TO.C,R25*%
X147350000Y-107050000D03*
X147350000Y-108050000D03*
%TD*%
%TO.C,R19*%
X142100000Y-89650000D03*
X142100000Y-90650000D03*
%TD*%
D14*
%TO.C,C14*%
X134600000Y-81850000D03*
X135600000Y-81850000D03*
%TD*%
D44*
%TO.C,SW1*%
X175050025Y-76990013D03*
X175050076Y-75289987D03*
X180250000Y-76990013D03*
X180250000Y-75289987D03*
%TD*%
D11*
%TO.C,C47*%
X133152500Y-114572500D03*
X133152500Y-115572500D03*
%TD*%
%TO.C,R14*%
X141600000Y-105700000D03*
X141600000Y-106700000D03*
%TD*%
D10*
%TO.C,DNP2*%
X178160000Y-85730000D03*
X178160000Y-84730000D03*
%TD*%
%TO.C,R7*%
X122418700Y-110187500D03*
X122418700Y-109187500D03*
%TD*%
%TO.C,R35*%
X125200000Y-111100000D03*
X125200000Y-110100000D03*
%TD*%
D45*
%TO.C,U18*%
X165149950Y-105649873D03*
X165149950Y-106749949D03*
X165149950Y-107850026D03*
X165149950Y-108949848D03*
X165149950Y-110049924D03*
X165149950Y-111150000D03*
X165149950Y-112249822D03*
X165149950Y-113349899D03*
X165149950Y-114449975D03*
X174550000Y-114449975D03*
X174550000Y-113349899D03*
X174550000Y-112249822D03*
X174550000Y-111150000D03*
X174550000Y-110049924D03*
X174550000Y-108949848D03*
X174550000Y-107850026D03*
X174550000Y-106749949D03*
X174550000Y-105649873D03*
%TD*%
D15*
%TO.C,L5*%
X133625000Y-81850000D03*
X132625000Y-81850000D03*
%TD*%
%TO.C,R22*%
X155900000Y-81350000D03*
X154900000Y-81350000D03*
%TD*%
D10*
%TO.C,C36*%
X172850000Y-82799999D03*
X172850000Y-81800001D03*
%TD*%
D46*
%TO.C,U5*%
X172649746Y-121950000D03*
X174650000Y-121950000D03*
X176649746Y-121950000D03*
D47*
X178749568Y-121950000D03*
X170549669Y-121950000D03*
%TD*%
D48*
%TO.C,U1*%
X131550000Y-85210000D03*
X131150000Y-85210000D03*
X130750000Y-85210000D03*
X130350000Y-85210000D03*
X129950000Y-85210000D03*
X129550000Y-85210000D03*
X129150000Y-85210000D03*
X128750000Y-85210000D03*
X128350000Y-85210000D03*
X127950000Y-85210000D03*
X127550000Y-85210000D03*
X127150000Y-85210000D03*
X126750000Y-85210000D03*
X126350000Y-85210000D03*
D49*
X125500000Y-86060000D03*
X125500000Y-86460000D03*
X125500000Y-86860000D03*
X125500000Y-87260000D03*
X125500000Y-87660000D03*
X125500000Y-88060000D03*
X125500000Y-88460000D03*
X125500000Y-88860000D03*
X125500000Y-89260000D03*
X125500000Y-89660000D03*
X125500000Y-90060000D03*
X125500000Y-90460000D03*
X125500000Y-90860000D03*
X125500000Y-91260000D03*
D48*
X126350000Y-92110000D03*
X126750000Y-92110000D03*
X127150000Y-92110000D03*
X127550000Y-92110000D03*
X127950000Y-92110000D03*
X128350000Y-92110000D03*
X128750000Y-92110000D03*
X129150000Y-92110000D03*
X129550000Y-92110000D03*
X129950000Y-92110000D03*
X130350000Y-92110000D03*
X130750000Y-92110000D03*
X131150000Y-92110000D03*
X131550000Y-92110000D03*
D49*
X132400000Y-91260000D03*
X132400000Y-90860000D03*
X132400000Y-90460000D03*
X132400000Y-90060000D03*
X132400000Y-89660000D03*
X132400000Y-89260000D03*
X132400000Y-88860000D03*
X132400000Y-88460000D03*
X132400000Y-88060000D03*
X132400000Y-87660000D03*
X132400000Y-87260000D03*
X132400000Y-86860000D03*
X132400000Y-86460000D03*
X132400000Y-86060000D03*
D27*
X130280000Y-87330000D03*
X128950000Y-87330000D03*
X127620000Y-87330000D03*
X130280000Y-88660000D03*
X128950000Y-88660000D03*
D50*
X128950000Y-88660000D03*
D27*
X127620000Y-88660000D03*
X130280000Y-89990000D03*
X128950000Y-89990000D03*
X127620000Y-89990000D03*
%TD*%
D20*
%TO.C,C1*%
X116300000Y-112820000D03*
X116300000Y-114380000D03*
%TD*%
D11*
%TO.C,R5*%
X130550000Y-109677500D03*
X130550000Y-110677500D03*
%TD*%
D19*
%TO.C,R36*%
X138046447Y-91996447D03*
X138753553Y-92703553D03*
%TD*%
D14*
%TO.C,R10*%
X179300000Y-85750000D03*
X180300000Y-85750000D03*
%TD*%
D11*
%TO.C,C46*%
X134140000Y-114570000D03*
X134140000Y-115570000D03*
%TD*%
D10*
%TO.C,C28*%
X180560000Y-108010000D03*
X180560000Y-107010000D03*
%TD*%
D15*
%TO.C,C15*%
X124400000Y-84250000D03*
X123400000Y-84250000D03*
%TD*%
D11*
%TO.C,R20*%
X156200000Y-116900000D03*
X156200000Y-117900000D03*
%TD*%
D10*
%TO.C,C45*%
X167740000Y-122060000D03*
X167740000Y-121060000D03*
%TD*%
%TO.C,R42*%
X126550000Y-114200000D03*
X126550000Y-113200000D03*
%TD*%
D11*
%TO.C,DNP4*%
X181460000Y-85630000D03*
X181460000Y-86630000D03*
%TD*%
D19*
%TO.C,R26*%
X129246447Y-95946447D03*
X129953553Y-96653553D03*
%TD*%
D15*
%TO.C,C17*%
X159700000Y-81300000D03*
X158700000Y-81300000D03*
%TD*%
D51*
%TO.C,R9*%
X109196447Y-90753553D03*
X109903553Y-90046447D03*
%TD*%
D22*
%TO.C,RESET1*%
X160200000Y-79750000D03*
X160200000Y-75600000D03*
%TD*%
D14*
%TO.C,C27*%
X181550025Y-111230076D03*
X182550025Y-111230076D03*
%TD*%
D11*
%TO.C,R38*%
X111400000Y-104400000D03*
X111400000Y-105400000D03*
%TD*%
D10*
%TO.C,C21*%
X154200000Y-76800000D03*
X154200000Y-75800000D03*
%TD*%
D15*
%TO.C,C5*%
X159550000Y-110650000D03*
X158550000Y-110650000D03*
%TD*%
D52*
%TO.C,C2*%
X117500000Y-109680000D03*
X117500000Y-108120000D03*
%TD*%
D15*
%TO.C,C31*%
X131550000Y-80820000D03*
X130550000Y-80820000D03*
%TD*%
D14*
%TO.C,L3*%
X123675000Y-81620000D03*
X124675000Y-81620000D03*
%TD*%
D10*
%TO.C,C30*%
X144050000Y-107720000D03*
X144050000Y-106720000D03*
%TD*%
D53*
%TO.C,JP3*%
X128617500Y-112877500D03*
D54*
X128617500Y-111577500D03*
D55*
X128617500Y-110277500D03*
%TD*%
D11*
%TO.C,C48*%
X132180000Y-114570000D03*
X132180000Y-115570000D03*
%TD*%
D56*
%TO.C,U11*%
X120380086Y-116482659D03*
D57*
X120380086Y-120662492D03*
D56*
X129019914Y-116482659D03*
D57*
X129019914Y-120662492D03*
D58*
X121499975Y-115917508D03*
X122300076Y-115917508D03*
D59*
X123449936Y-115917508D03*
X124449936Y-115917508D03*
X124950064Y-115917508D03*
X125950064Y-115917508D03*
D58*
X127900025Y-115917508D03*
X127099924Y-115917508D03*
D59*
X126449936Y-115917508D03*
X125449936Y-115917508D03*
X123950064Y-115917508D03*
X122950064Y-115917508D03*
%TD*%
D60*
%TO.C,J1*%
X147340005Y-109473901D03*
X146239954Y-109473901D03*
X145139903Y-109473901D03*
X144039853Y-109473901D03*
X142940030Y-109473901D03*
X141839980Y-109473901D03*
X140739929Y-109473901D03*
X139640107Y-109473901D03*
X138540005Y-109474308D03*
D61*
X137340005Y-110324295D03*
D62*
X137340005Y-120026099D03*
X152859970Y-120026099D03*
D61*
X152020015Y-110324295D03*
%TD*%
D63*
%TO.C,U3*%
X153000000Y-78149988D03*
X153000000Y-77500000D03*
X153000000Y-76850013D03*
D64*
X151920066Y-76274931D03*
D65*
X151920066Y-74874880D03*
D63*
X150850140Y-76850013D03*
X150850140Y-77500000D03*
X150850140Y-78149988D03*
%TD*%
D11*
%TO.C,DNP6*%
X177400000Y-111130000D03*
X177400000Y-112130000D03*
%TD*%
D66*
%TO.C,U17*%
X175800102Y-85125044D03*
D67*
X173800102Y-84794844D03*
X171800102Y-84794844D03*
X169800102Y-84794844D03*
X167800102Y-84794844D03*
X165800102Y-84794844D03*
X163800102Y-84794844D03*
X161800102Y-84794844D03*
X161800102Y-100674955D03*
X163800102Y-100674955D03*
X165800102Y-100674955D03*
X167800102Y-100674955D03*
X169800102Y-100674955D03*
X171800102Y-100674955D03*
X173800102Y-100674955D03*
X175800102Y-100674955D03*
D27*
X173900000Y-95434925D03*
X173000000Y-95434925D03*
D68*
X173459995Y-95764872D03*
D27*
X173900000Y-96134925D03*
X173000000Y-96134925D03*
%TD*%
D69*
%TO.C,C56*%
X116180000Y-82100000D03*
X114620000Y-82100000D03*
%TD*%
D10*
%TO.C,R13*%
X122850000Y-114200000D03*
X122850000Y-113200000D03*
%TD*%
%TO.C,C39*%
X146500000Y-98550000D03*
X146500000Y-97550000D03*
%TD*%
D70*
%TO.C,U2*%
X131395000Y-105837500D03*
X132665000Y-105837500D03*
X133935000Y-105837500D03*
X135205000Y-105837500D03*
X135205000Y-98662500D03*
X133935000Y-98662500D03*
X132665000Y-98662500D03*
X131395000Y-98662500D03*
%TD*%
D16*
%TO.C,D5*%
X103162500Y-120110000D03*
X104737500Y-120110000D03*
%TD*%
D44*
%TO.C,SW2*%
X165350152Y-76985848D03*
X165350203Y-75285822D03*
X170550127Y-76985848D03*
X170550127Y-75285822D03*
%TD*%
D15*
%TO.C,C41*%
X157500000Y-106400000D03*
X156500000Y-106400000D03*
%TD*%
D10*
%TO.C,DNP7*%
X180550000Y-111230000D03*
X180550000Y-110230000D03*
%TD*%
D71*
%TO.C,Y1*%
X116300000Y-90850000D03*
X116300000Y-88350000D03*
%TD*%
M02*
