%TF.GenerationSoftware,KiCad,Pcbnew,9.0.7*%
%TF.CreationDate,2026-04-09T04:36:37+02:00*%
%TF.ProjectId,LoRa-device,4c6f5261-2d64-4657-9669-63652e6b6963,rev?*%
%TF.SameCoordinates,Original*%
%TF.FileFunction,Soldermask,Top*%
%TF.FilePolarity,Negative*%
%FSLAX46Y46*%
G04 Gerber Fmt 4.6, Leading zero omitted, Abs format (unit mm)*
G04 Created by KiCad (PCBNEW 9.0.7) date 2026-04-09 04:36:37*
%MOMM*%
%LPD*%
G01*
G04 APERTURE LIST*
G04 Aperture macros list*
%AMRoundRect*
0 Rectangle with rounded corners*
0 $1 Rounding radius*
0 $2 $3 $4 $5 $6 $7 $8 $9 X,Y pos of 4 corners*
0 Add a 4 corners polygon primitive as box body*
4,1,4,$2,$3,$4,$5,$6,$7,$8,$9,$2,$3,0*
0 Add four circle primitives for the rounded corners*
1,1,$1+$1,$2,$3*
1,1,$1+$1,$4,$5*
1,1,$1+$1,$6,$7*
1,1,$1+$1,$8,$9*
0 Add four rect primitives between the rounded corners*
20,1,$1+$1,$2,$3,$4,$5,0*
20,1,$1+$1,$4,$5,$6,$7,0*
20,1,$1+$1,$6,$7,$8,$9,0*
20,1,$1+$1,$8,$9,$2,$3,0*%
%AMFreePoly0*
4,1,64,0.235711,1.439036,0.382774,1.378120,0.515127,1.289684,0.627684,1.177127,0.716120,1.044774,0.777036,0.897711,0.808090,0.741590,0.808090,0.582410,0.777036,0.426289,0.716120,0.279226,0.627684,0.146873,0.515127,0.034316,0.382774,-0.054120,0.235711,-0.115036,0.079590,-0.146090,0.031746,-0.146090,0.029264,-0.147118,-0.029264,-0.147118,-0.031746,-0.146090,-0.079590,-0.146090,
-0.235711,-0.115036,-0.382774,-0.054120,-0.515127,0.034316,-0.627684,0.146873,-0.716120,0.279226,-0.777036,0.426289,-0.808090,0.582410,-0.808090,0.729406,-0.512000,0.729406,-0.512000,0.594594,-0.477108,0.464375,-0.409702,0.347625,-0.314375,0.252298,-0.197625,0.184892,-0.067406,0.150000,0.067406,0.150000,0.197625,0.184892,0.314375,0.252298,0.409702,0.347625,0.477108,0.464375,
0.512000,0.594594,0.512000,0.729406,0.477108,0.859625,0.409702,0.976375,0.314375,1.071702,0.197625,1.139108,0.067406,1.174000,-0.067406,1.174000,-0.197625,1.139108,-0.314375,1.071702,-0.409702,0.976375,-0.477108,0.859625,-0.512000,0.729406,-0.808090,0.729406,-0.808090,0.741590,-0.777036,0.897711,-0.716120,1.044774,-0.627684,1.177127,-0.515127,1.289684,-0.382774,1.378120,
-0.235711,1.439036,-0.079590,1.470090,0.079590,1.470090,0.235711,1.439036,0.235711,1.439036,$1*%
%AMFreePoly1*
4,1,23,0.550000,-0.750000,0.000000,-0.750000,0.000000,-0.745722,-0.065263,-0.745722,-0.191342,-0.711940,-0.304381,-0.646677,-0.396677,-0.554381,-0.461940,-0.441342,-0.495722,-0.315263,-0.495722,-0.250000,-0.500000,-0.250000,-0.500000,0.250000,-0.495722,0.250000,-0.495722,0.315263,-0.461940,0.441342,-0.396677,0.554381,-0.304381,0.646677,-0.191342,0.711940,-0.065263,0.745722,0.000000,0.745722,
0.000000,0.750000,0.550000,0.750000,0.550000,-0.750000,0.550000,-0.750000,$1*%
%AMFreePoly2*
4,1,23,0.000000,0.745722,0.065263,0.745722,0.191342,0.711940,0.304381,0.646677,0.396677,0.554381,0.461940,0.441342,0.495722,0.315263,0.495722,0.250000,0.500000,0.250000,0.500000,-0.250000,0.495722,-0.250000,0.495722,-0.315263,0.461940,-0.441342,0.396677,-0.554381,0.304381,-0.646677,0.191342,-0.711940,0.065263,-0.745722,0.000000,-0.745722,0.000000,-0.750000,-0.550000,-0.750000,
-0.550000,0.750000,0.000000,0.750000,0.000000,0.745722,0.000000,0.745722,$1*%
G04 Aperture macros list end*
%ADD10C,1.700000*%
%ADD11R,1.700000X1.700000*%
%ADD12RoundRect,0.159000X-0.159000X-0.189000X0.159000X-0.189000X0.159000X0.189000X-0.159000X0.189000X0*%
%ADD13RoundRect,0.159000X0.189000X-0.159000X0.189000X0.159000X-0.189000X0.159000X-0.189000X-0.159000X0*%
%ADD14RoundRect,0.159000X-0.189000X0.159000X-0.189000X-0.159000X0.189000X-0.159000X0.189000X0.159000X0*%
%ADD15RoundRect,0.244000X-0.269000X0.244000X-0.269000X-0.244000X0.269000X-0.244000X0.269000X0.244000X0*%
%ADD16RoundRect,0.244000X0.269000X-0.244000X0.269000X0.244000X-0.269000X0.244000X-0.269000X-0.244000X0*%
%ADD17RoundRect,0.140000X-0.140000X-0.170000X0.140000X-0.170000X0.140000X0.170000X-0.140000X0.170000X0*%
%ADD18RoundRect,0.159000X0.159000X0.189000X-0.159000X0.189000X-0.159000X-0.189000X0.159000X-0.189000X0*%
%ADD19RoundRect,0.140000X0.170000X-0.140000X0.170000X0.140000X-0.170000X0.140000X-0.170000X-0.140000X0*%
%ADD20RoundRect,0.218750X0.218750X0.256250X-0.218750X0.256250X-0.218750X-0.256250X0.218750X-0.256250X0*%
%ADD21RoundRect,0.135000X-0.226274X-0.035355X-0.035355X-0.226274X0.226274X0.035355X0.035355X0.226274X0*%
%ADD22RoundRect,0.140000X-0.021213X0.219203X-0.219203X0.021213X0.021213X-0.219203X0.219203X-0.021213X0*%
%ADD23RoundRect,0.135000X0.135000X0.185000X-0.135000X0.185000X-0.135000X-0.185000X0.135000X-0.185000X0*%
%ADD24RoundRect,0.135000X-0.185000X0.135000X-0.185000X-0.135000X0.185000X-0.135000X0.185000X0.135000X0*%
%ADD25RoundRect,0.140000X-0.170000X0.140000X-0.170000X-0.140000X0.170000X-0.140000X0.170000X0.140000X0*%
%ADD26RoundRect,0.150000X0.512500X0.150000X-0.512500X0.150000X-0.512500X-0.150000X0.512500X-0.150000X0*%
%ADD27RoundRect,0.135000X0.185000X-0.135000X0.185000X0.135000X-0.185000X0.135000X-0.185000X-0.135000X0*%
%ADD28C,1.000000*%
%ADD29RoundRect,0.287778X0.714222X-0.489222X0.714222X0.489222X-0.714222X0.489222X-0.714222X-0.489222X0*%
%ADD30RoundRect,0.130500X0.130500X-0.169500X0.130500X0.169500X-0.130500X0.169500X-0.130500X-0.169500X0*%
%ADD31FreePoly0,180.000000*%
%ADD32RoundRect,0.218750X0.256250X-0.218750X0.256250X0.218750X-0.256250X0.218750X-0.256250X-0.218750X0*%
%ADD33R,0.600000X1.100000*%
%ADD34RoundRect,0.140000X0.140000X0.170000X-0.140000X0.170000X-0.140000X-0.170000X0.140000X-0.170000X0*%
%ADD35R,4.800000X1.200000*%
%ADD36RoundRect,0.135000X-0.135000X-0.185000X0.135000X-0.185000X0.135000X0.185000X-0.135000X0.185000X0*%
%ADD37RoundRect,0.062500X-0.350000X-0.062500X0.350000X-0.062500X0.350000X0.062500X-0.350000X0.062500X0*%
%ADD38RoundRect,0.062500X-0.062500X-0.350000X0.062500X-0.350000X0.062500X0.350000X-0.062500X0.350000X0*%
%ADD39R,1.230000X1.230000*%
%ADD40RoundRect,0.250001X0.999999X-0.499999X0.999999X0.499999X-0.999999X0.499999X-0.999999X-0.499999X0*%
%ADD41RoundRect,0.093750X0.093750X-0.156250X0.093750X0.156250X-0.093750X0.156250X-0.093750X-0.156250X0*%
%ADD42RoundRect,0.075000X0.075000X-0.250000X0.075000X0.250000X-0.075000X0.250000X-0.075000X-0.250000X0*%
%ADD43R,0.200000X0.500000*%
%ADD44R,1.500000X0.900000*%
%ADD45RoundRect,0.150000X0.150000X-0.512500X0.150000X0.512500X-0.150000X0.512500X-0.150000X-0.512500X0*%
%ADD46RoundRect,0.219000X-0.294000X0.219000X-0.294000X-0.219000X0.294000X-0.219000X0.294000X0.219000X0*%
%ADD47RoundRect,0.218750X-0.256250X0.218750X-0.256250X-0.218750X0.256250X-0.218750X0.256250X0.218750X0*%
%ADD48RoundRect,0.250000X0.275000X0.250000X-0.275000X0.250000X-0.275000X-0.250000X0.275000X-0.250000X0*%
%ADD49RoundRect,0.250000X0.850000X0.275000X-0.850000X0.275000X-0.850000X-0.275000X0.850000X-0.275000X0*%
%ADD50RoundRect,0.220000X0.220000X0.255000X-0.220000X0.255000X-0.220000X-0.255000X0.220000X-0.255000X0*%
%ADD51RoundRect,0.140000X0.021213X-0.219203X0.219203X-0.021213X-0.021213X0.219203X-0.219203X0.021213X0*%
%ADD52RoundRect,0.147500X0.172500X-0.147500X0.172500X0.147500X-0.172500X0.147500X-0.172500X-0.147500X0*%
%ADD53RoundRect,0.250000X-0.325000X-0.250000X0.325000X-0.250000X0.325000X0.250000X-0.325000X0.250000X0*%
%ADD54RoundRect,0.075000X-0.437500X-0.075000X0.437500X-0.075000X0.437500X0.075000X-0.437500X0.075000X0*%
%ADD55RoundRect,0.075000X-0.075000X-0.437500X0.075000X-0.437500X0.075000X0.437500X-0.075000X0.437500X0*%
%ADD56R,4.250000X4.250000*%
%ADD57R,1.550013X1.000000*%
%ADD58R,1.700000X0.800000*%
%ADD59O,1.400000X1.100000*%
%ADD60O,1.200000X2.000000*%
%ADD61RoundRect,0.050000X-0.050000X0.350000X-0.050000X-0.350000X0.050000X-0.350000X0.050000X0.350000X0*%
%ADD62RoundRect,0.050000X-0.350000X0.050000X-0.350000X-0.050000X0.350000X-0.050000X0.350000X0.050000X0*%
%ADD63R,4.000000X4.000000*%
%ADD64RoundRect,0.147500X-0.017678X0.226274X-0.226274X0.017678X0.017678X-0.226274X0.226274X-0.017678X0*%
%ADD65FreePoly1,0.000000*%
%ADD66R,1.000000X1.500000*%
%ADD67FreePoly2,0.000000*%
%ADD68O,0.900000X2.100000*%
%ADD69O,0.900000X1.800000*%
%ADD70R,0.600000X1.150013*%
%ADD71R,0.300000X1.150013*%
%ADD72R,0.600000X1.300000*%
%ADD73R,1.200000X1.400000*%
%ADD74R,1.200000X2.000000*%
%ADD75R,1.270003X2.259995*%
%ADD76R,1.000000X1.600000*%
%ADD77R,1.800000X1.800000*%
%ADD78RoundRect,0.162500X0.650000X0.162500X-0.650000X0.162500X-0.650000X-0.162500X0.650000X-0.162500X0*%
%ADD79RoundRect,0.218750X-0.218750X-0.256250X0.218750X-0.256250X0.218750X0.256250X-0.218750X0.256250X0*%
%ADD80R,1.800000X1.000000*%
G04 APERTURE END LIST*
%TO.C,JP3*%
G36*
X130850000Y-112250000D02*
G01*
X132350000Y-112250000D01*
X132350000Y-113750000D01*
X130850000Y-113750000D01*
X130850000Y-112250000D01*
G37*
%TD*%
D10*
%TO.C,J4*%
X103975000Y-115820000D03*
X103975000Y-113280000D03*
X103975000Y-110740000D03*
X103975000Y-108200000D03*
X103975000Y-105660000D03*
X103975000Y-103120000D03*
X103975000Y-100580000D03*
X103975000Y-98040000D03*
X103975000Y-95500000D03*
X103975000Y-92960000D03*
X103975000Y-90420000D03*
X103975000Y-87880000D03*
X103975000Y-85340000D03*
D11*
X103975000Y-82800000D03*
%TD*%
D10*
%TO.C,J6*%
X184975000Y-103095000D03*
X184975000Y-100555000D03*
X184975000Y-98015000D03*
D11*
X184975000Y-95475000D03*
%TD*%
D12*
%TO.C,C9*%
X162000000Y-109650000D03*
X163000000Y-109650000D03*
%TD*%
%TO.C,C5*%
X162000000Y-108600000D03*
X163000000Y-108600000D03*
%TD*%
D13*
%TO.C,R32*%
X116000000Y-111300000D03*
X116000000Y-110300000D03*
%TD*%
D14*
%TO.C,R20*%
X112600000Y-107750000D03*
X112600000Y-108750000D03*
%TD*%
D13*
%TO.C,R15*%
X111650000Y-108750000D03*
X111650000Y-107750000D03*
%TD*%
D14*
%TO.C,R6*%
X110550000Y-106200000D03*
X110550000Y-107200000D03*
%TD*%
D15*
%TO.C,C2*%
X116000000Y-116020000D03*
X116000000Y-117580000D03*
%TD*%
D16*
%TO.C,C1*%
X113700000Y-112080000D03*
X113700000Y-110520000D03*
%TD*%
D17*
%TO.C,C39*%
X130380600Y-87160600D03*
X131340600Y-87160600D03*
%TD*%
D18*
%TO.C,R45*%
X161000000Y-87300000D03*
X160000000Y-87300000D03*
%TD*%
D19*
%TO.C,C4*%
X134945000Y-87630000D03*
X134945000Y-86670000D03*
%TD*%
D20*
%TO.C,D4*%
X110850000Y-114750000D03*
X109275000Y-114750000D03*
%TD*%
D21*
%TO.C,R28*%
X124589376Y-95139376D03*
X125310624Y-95860624D03*
%TD*%
D22*
%TO.C,C26*%
X122039411Y-83060589D03*
X121360589Y-83739411D03*
%TD*%
D23*
%TO.C,R36*%
X178850000Y-109250000D03*
X177830000Y-109250000D03*
%TD*%
D11*
%TO.C,J3*%
X156580000Y-122090000D03*
D10*
X159120000Y-122090000D03*
X161660000Y-122090000D03*
X164200000Y-122090000D03*
%TD*%
D24*
%TO.C,R31*%
X146150000Y-107040000D03*
X146150000Y-108060000D03*
%TD*%
D25*
%TO.C,C13*%
X132950000Y-100290000D03*
X132950000Y-101250000D03*
%TD*%
D23*
%TO.C,R21*%
X155950000Y-81325000D03*
X154930000Y-81325000D03*
%TD*%
D18*
%TO.C,R44*%
X161000000Y-89150000D03*
X160000000Y-89150000D03*
%TD*%
D26*
%TO.C,U12*%
X114425000Y-106300000D03*
X114425000Y-105350000D03*
X114425000Y-104400000D03*
X112150000Y-104400000D03*
X112150000Y-106300000D03*
%TD*%
D17*
%TO.C,C11*%
X131220000Y-91450000D03*
X132180000Y-91450000D03*
%TD*%
D18*
%TO.C,R1*%
X182800000Y-114400000D03*
X181800000Y-114400000D03*
%TD*%
D15*
%TO.C,C55*%
X116600000Y-99770000D03*
X116600000Y-101330000D03*
%TD*%
D13*
%TO.C,R49*%
X116950025Y-111299962D03*
X116950025Y-110299962D03*
%TD*%
D27*
%TO.C,R9*%
X177900000Y-111360000D03*
X177900000Y-110340000D03*
%TD*%
D18*
%TO.C,C53*%
X114080160Y-115449962D03*
X113080160Y-115449962D03*
%TD*%
D23*
%TO.C,R10*%
X176460000Y-102900000D03*
X175440000Y-102900000D03*
%TD*%
D27*
%TO.C,R2*%
X124150000Y-111110000D03*
X124150000Y-110090000D03*
%TD*%
D28*
%TO.C,P1*%
X114350318Y-120950000D03*
X115600000Y-120950000D03*
%TD*%
D29*
%TO.C,FLASH1*%
X156440000Y-79740000D03*
X156440000Y-75590000D03*
%TD*%
D30*
%TO.C,MK1*%
X184078000Y-116300000D03*
X184900000Y-116300000D03*
D31*
X186152000Y-114738000D03*
D30*
X184900000Y-114500000D03*
X184078000Y-114500000D03*
X184078000Y-115400000D03*
%TD*%
D13*
%TO.C,C29*%
X177850000Y-108200000D03*
X177850000Y-107200000D03*
%TD*%
D32*
%TO.C,D2*%
X110150000Y-84587500D03*
X110150000Y-83012500D03*
%TD*%
D12*
%TO.C,R24*%
X154715000Y-94370000D03*
X155715000Y-94370000D03*
%TD*%
D14*
%TO.C,C20*%
X168100000Y-116000000D03*
X168100000Y-117000000D03*
%TD*%
D25*
%TO.C,C33*%
X139625000Y-86120000D03*
X139625000Y-87080000D03*
%TD*%
D14*
%TO.C,C54*%
X116050000Y-106300000D03*
X116050000Y-107300000D03*
%TD*%
D27*
%TO.C,R18*%
X125250000Y-111120000D03*
X125250000Y-110100000D03*
%TD*%
D13*
%TO.C,C7*%
X173000000Y-83499999D03*
X173000000Y-82500001D03*
%TD*%
D33*
%TO.C,U4*%
X162000076Y-113600204D03*
X162950038Y-113600204D03*
X163900000Y-113600204D03*
X163900000Y-111000000D03*
X162000076Y-111000000D03*
%TD*%
D19*
%TO.C,DNP1*%
X129390000Y-83400000D03*
X129390000Y-82440000D03*
%TD*%
D34*
%TO.C,C37*%
X112730000Y-91400000D03*
X111770000Y-91400000D03*
%TD*%
D24*
%TO.C,R35*%
X126650000Y-113160000D03*
X126650000Y-114180000D03*
%TD*%
D35*
%TO.C,U15*%
X185350102Y-88199784D03*
X185350102Y-83099962D03*
X185350102Y-85649873D03*
%TD*%
D23*
%TO.C,R13*%
X107720000Y-87300000D03*
X106700000Y-87300000D03*
%TD*%
D36*
%TO.C,L1*%
X177600000Y-83610000D03*
X178620000Y-83610000D03*
%TD*%
D34*
%TO.C,C8*%
X111930000Y-117850000D03*
X110970000Y-117850000D03*
%TD*%
D12*
%TO.C,R39*%
X131200000Y-103900000D03*
X132200000Y-103900000D03*
%TD*%
D36*
%TO.C,R27*%
X128990001Y-96050000D03*
X130009999Y-96050000D03*
%TD*%
D18*
%TO.C,R46*%
X161000000Y-85450000D03*
X160000000Y-85450000D03*
%TD*%
D13*
%TO.C,R38*%
X127850000Y-107980000D03*
X127850000Y-106980000D03*
%TD*%
D14*
%TO.C,R8*%
X177900000Y-105050000D03*
X177900000Y-106050000D03*
%TD*%
D37*
%TO.C,U19*%
X129522500Y-105790000D03*
X129522500Y-106290000D03*
X129522500Y-106790000D03*
X129522500Y-107290000D03*
D38*
X130210000Y-107977500D03*
X130710000Y-107977500D03*
X131210000Y-107977500D03*
X131710000Y-107977500D03*
D37*
X132397500Y-107290000D03*
X132397500Y-106790000D03*
X132397500Y-106290000D03*
X132397500Y-105790000D03*
D38*
X131710000Y-105102500D03*
X131210000Y-105102500D03*
X130710000Y-105102500D03*
X130210000Y-105102500D03*
D39*
X130960000Y-106540000D03*
%TD*%
D27*
%TO.C,R23*%
X133875000Y-87650000D03*
X133875000Y-86630000D03*
%TD*%
D18*
%TO.C,R4*%
X153565000Y-99570000D03*
X152565000Y-99570000D03*
%TD*%
D14*
%TO.C,R53*%
X115050025Y-110299962D03*
X115050025Y-111299962D03*
%TD*%
D18*
%TO.C,C42*%
X114150025Y-113499962D03*
X113150025Y-113499962D03*
%TD*%
D40*
%TO.C,L7*%
X113350000Y-102300000D03*
X113350000Y-98600000D03*
%TD*%
D41*
%TO.C,U6*%
X124162500Y-114020000D03*
D42*
X124700000Y-114095000D03*
D41*
X125237500Y-114020000D03*
X125237500Y-112320000D03*
D42*
X124700000Y-112245000D03*
D41*
X124162500Y-112320000D03*
%TD*%
D24*
%TO.C,R14*%
X140800000Y-106990000D03*
X140800000Y-108010000D03*
%TD*%
%TO.C,R11*%
X108260000Y-107210000D03*
X108260000Y-108230000D03*
%TD*%
D13*
%TO.C,R52*%
X117200000Y-116799962D03*
X117200000Y-115799962D03*
%TD*%
D43*
%TO.C,U7*%
X115250025Y-114650038D03*
X115650076Y-114649784D03*
X116049873Y-114649784D03*
X116449924Y-114649784D03*
X116849975Y-114649784D03*
X116849975Y-112549962D03*
X116449924Y-112549962D03*
X116049873Y-112549962D03*
X115650076Y-112549962D03*
X115250025Y-112549962D03*
D44*
X116049873Y-113600000D03*
%TD*%
D45*
%TO.C,U8*%
X119250000Y-108137500D03*
X120200000Y-108137500D03*
X121150000Y-108137500D03*
X121150000Y-105862500D03*
X120200000Y-105862500D03*
X119250000Y-105862500D03*
%TD*%
D46*
%TO.C,R51*%
X118300025Y-112809962D03*
X118300025Y-114449962D03*
%TD*%
D19*
%TO.C,C43*%
X145115000Y-99550000D03*
X145115000Y-98590000D03*
%TD*%
D28*
%TO.C,P2*%
X132800318Y-120900000D03*
X134050000Y-120900000D03*
%TD*%
D13*
%TO.C,C35*%
X122468700Y-106337500D03*
X122468700Y-105337500D03*
%TD*%
D24*
%TO.C,R37*%
X139650000Y-106990000D03*
X139650000Y-108010000D03*
%TD*%
D47*
%TO.C,D3*%
X111950000Y-83062500D03*
X111950000Y-84637500D03*
%TD*%
D48*
%TO.C,J8*%
X183950000Y-108950000D03*
D49*
X185450000Y-110450000D03*
X185450000Y-107450000D03*
%TD*%
D13*
%TO.C,C44*%
X166710000Y-121985000D03*
X166710000Y-120985000D03*
%TD*%
D24*
%TO.C,R19*%
X111900000Y-118840000D03*
X111900000Y-119860000D03*
%TD*%
D18*
%TO.C,R43*%
X182805500Y-115400000D03*
X181805500Y-115400000D03*
%TD*%
D13*
%TO.C,R48*%
X147465000Y-101220000D03*
X147465000Y-100220000D03*
%TD*%
D14*
%TO.C,C24*%
X166100000Y-116000000D03*
X166100000Y-117000000D03*
%TD*%
D34*
%TO.C,C15*%
X159680000Y-81275000D03*
X158720000Y-81275000D03*
%TD*%
D50*
%TO.C,L4*%
X181690000Y-109000000D03*
X180110000Y-109000000D03*
%TD*%
D13*
%TO.C,R47*%
X148515000Y-101220000D03*
X148515000Y-100220000D03*
%TD*%
D17*
%TO.C,C40*%
X130370000Y-86150000D03*
X131330000Y-86150000D03*
%TD*%
D34*
%TO.C,C16*%
X121780000Y-111850000D03*
X120820000Y-111850000D03*
%TD*%
D51*
%TO.C,C19*%
X126710589Y-83739411D03*
X127389411Y-83060589D03*
%TD*%
D34*
%TO.C,C10*%
X114970000Y-87730000D03*
X114010000Y-87730000D03*
%TD*%
D36*
%TO.C,R26*%
X128990001Y-94900000D03*
X130009999Y-94900000D03*
%TD*%
D52*
%TO.C,L6*%
X130470000Y-83375000D03*
X130470000Y-82405000D03*
%TD*%
D14*
%TO.C,C23*%
X167100000Y-116000000D03*
X167100000Y-117000000D03*
%TD*%
D53*
%TO.C,Y2*%
X136370000Y-87870000D03*
X138120000Y-87870000D03*
X138120000Y-86470000D03*
X136370000Y-86470000D03*
%TD*%
D21*
%TO.C,R29*%
X123489376Y-95539376D03*
X124210624Y-96260624D03*
%TD*%
D25*
%TO.C,C32*%
X134050000Y-100290000D03*
X134050000Y-101250000D03*
%TD*%
D54*
%TO.C,U14*%
X146832500Y-93770000D03*
X146832500Y-94420000D03*
X146832500Y-95070000D03*
X146832500Y-95720000D03*
X146832500Y-96370000D03*
X146832500Y-97020000D03*
X146832500Y-97670000D03*
D55*
X147720000Y-98557500D03*
X148370000Y-98557500D03*
X149020000Y-98557500D03*
X149670000Y-98557500D03*
X150320000Y-98557500D03*
X150970000Y-98557500D03*
X151620000Y-98557500D03*
D54*
X152507500Y-97670000D03*
X152507500Y-97020000D03*
X152507500Y-96370000D03*
X152507500Y-95720000D03*
X152507500Y-95070000D03*
X152507500Y-94420000D03*
X152507500Y-93770000D03*
D55*
X151620000Y-92882500D03*
X150970000Y-92882500D03*
X150320000Y-92882500D03*
X149670000Y-92882500D03*
X149020000Y-92882500D03*
X148370000Y-92882500D03*
X147720000Y-92882500D03*
D56*
X149670000Y-95720000D03*
%TD*%
D24*
%TO.C,R12*%
X112950000Y-117780000D03*
X112950000Y-118800000D03*
%TD*%
D14*
%TO.C,R41*%
X118200000Y-115799962D03*
X118200000Y-116799962D03*
%TD*%
D19*
%TO.C,C14*%
X133700000Y-83380000D03*
X133700000Y-82420000D03*
%TD*%
D57*
%TO.C,SW1*%
X175050025Y-76990013D03*
X175050076Y-75289987D03*
X180250000Y-76990013D03*
X180250000Y-75289987D03*
%TD*%
D14*
%TO.C,C47*%
X130522500Y-109340000D03*
X130522500Y-110340000D03*
%TD*%
D19*
%TO.C,DNP2*%
X175960000Y-83590000D03*
X175960000Y-82630000D03*
%TD*%
D24*
%TO.C,R17*%
X147350000Y-107040000D03*
X147350000Y-108060000D03*
%TD*%
D13*
%TO.C,R7*%
X122468700Y-108637500D03*
X122468700Y-107637500D03*
%TD*%
D18*
%TO.C,R40*%
X130250000Y-103900000D03*
X129250000Y-103900000D03*
%TD*%
D58*
%TO.C,U18*%
X166499975Y-105799949D03*
X166499975Y-106900025D03*
X166499975Y-108000102D03*
X166499975Y-109099924D03*
X166499975Y-110200000D03*
X166499975Y-111300076D03*
X166499975Y-112399898D03*
X166499975Y-113499975D03*
X166499975Y-114600051D03*
X175900025Y-114600051D03*
X175900025Y-113499975D03*
X175900025Y-112399898D03*
X175900025Y-111300076D03*
X175900025Y-110200000D03*
X175900025Y-109099924D03*
X175900025Y-108000102D03*
X175900025Y-106900025D03*
X175900025Y-105799949D03*
%TD*%
D24*
%TO.C,R34*%
X122900000Y-113060000D03*
X122900000Y-114080000D03*
%TD*%
D52*
%TO.C,L5*%
X132640000Y-83385000D03*
X132640000Y-82415000D03*
%TD*%
D19*
%TO.C,C3*%
X117450000Y-83930000D03*
X117450000Y-82970000D03*
%TD*%
D13*
%TO.C,C36*%
X174050000Y-83499999D03*
X174050000Y-82500001D03*
%TD*%
D59*
%TO.C,U5*%
X172649746Y-121950000D03*
X174650000Y-121950000D03*
X176649746Y-121950000D03*
D60*
X178749568Y-121950000D03*
X170549669Y-121950000D03*
%TD*%
D61*
%TO.C,U1*%
X127610000Y-86180000D03*
X127210000Y-86180000D03*
X126810000Y-86180000D03*
X126410000Y-86180000D03*
X126010000Y-86180000D03*
X125610000Y-86180000D03*
X125210000Y-86180000D03*
X124810000Y-86180000D03*
X124410000Y-86180000D03*
X124010000Y-86180000D03*
X123610000Y-86180000D03*
X123210000Y-86180000D03*
X122810000Y-86180000D03*
X122410000Y-86180000D03*
D62*
X121560000Y-87030000D03*
X121560000Y-87430000D03*
X121560000Y-87830000D03*
X121560000Y-88230000D03*
X121560000Y-88630000D03*
X121560000Y-89030000D03*
X121560000Y-89430000D03*
X121560000Y-89830000D03*
X121560000Y-90230000D03*
X121560000Y-90630000D03*
X121560000Y-91030000D03*
X121560000Y-91430000D03*
X121560000Y-91830000D03*
X121560000Y-92230000D03*
D61*
X122410000Y-93080000D03*
X122810000Y-93080000D03*
X123210000Y-93080000D03*
X123610000Y-93080000D03*
X124010000Y-93080000D03*
X124410000Y-93080000D03*
X124810000Y-93080000D03*
X125210000Y-93080000D03*
X125610000Y-93080000D03*
X126010000Y-93080000D03*
X126410000Y-93080000D03*
X126810000Y-93080000D03*
X127210000Y-93080000D03*
X127610000Y-93080000D03*
D62*
X128460000Y-92230000D03*
X128460000Y-91830000D03*
X128460000Y-91430000D03*
X128460000Y-91030000D03*
X128460000Y-90630000D03*
X128460000Y-90230000D03*
X128460000Y-89830000D03*
X128460000Y-89430000D03*
X128460000Y-89030000D03*
X128460000Y-88630000D03*
X128460000Y-88230000D03*
X128460000Y-87830000D03*
X128460000Y-87430000D03*
X128460000Y-87030000D03*
D63*
X125010000Y-89630000D03*
%TD*%
D14*
%TO.C,R5*%
X127850000Y-104930000D03*
X127850000Y-105930000D03*
%TD*%
%TO.C,C46*%
X131510000Y-109337500D03*
X131510000Y-110337500D03*
%TD*%
D13*
%TO.C,C28*%
X178850000Y-108200000D03*
X178850000Y-107200000D03*
%TD*%
D14*
%TO.C,C49*%
X131900000Y-100300000D03*
X131900000Y-101300000D03*
%TD*%
D13*
%TO.C,C45*%
X167730000Y-121985000D03*
X167730000Y-120985000D03*
%TD*%
D34*
%TO.C,C6*%
X121780000Y-113020000D03*
X120820000Y-113020000D03*
%TD*%
D27*
%TO.C,R16*%
X108700000Y-84895000D03*
X108700000Y-83875000D03*
%TD*%
D25*
%TO.C,DNP4*%
X180310000Y-83630000D03*
X180310000Y-84590000D03*
%TD*%
D22*
%TO.C,C25*%
X120639411Y-83060589D03*
X119960589Y-83739411D03*
%TD*%
D25*
%TO.C,C38*%
X112540000Y-88690000D03*
X112540000Y-89650000D03*
%TD*%
D29*
%TO.C,RESET1*%
X160200000Y-79750000D03*
X160200000Y-75600000D03*
%TD*%
D12*
%TO.C,C27*%
X179000000Y-110350000D03*
X180000000Y-110350000D03*
%TD*%
D14*
%TO.C,C57*%
X108550000Y-103800000D03*
X108550000Y-104800000D03*
%TD*%
D36*
%TO.C,R22*%
X160720000Y-81275000D03*
X161740000Y-81275000D03*
%TD*%
D12*
%TO.C,R42*%
X154715000Y-98070000D03*
X155715000Y-98070000D03*
%TD*%
D25*
%TO.C,C31*%
X131560000Y-82390000D03*
X131560000Y-83350000D03*
%TD*%
D24*
%TO.C,R25*%
X113350000Y-82890000D03*
X113350000Y-83910000D03*
%TD*%
D64*
%TO.C,L3*%
X125442947Y-83057053D03*
X124757053Y-83742947D03*
%TD*%
D13*
%TO.C,C30*%
X144050000Y-108000000D03*
X144050000Y-107000000D03*
%TD*%
D65*
%TO.C,JP3*%
X130300000Y-113000000D03*
D66*
X131600000Y-113000000D03*
D67*
X132900000Y-113000000D03*
%TD*%
D14*
%TO.C,C48*%
X129550000Y-109337500D03*
X129550000Y-110337500D03*
%TD*%
D68*
%TO.C,U11*%
X120380086Y-116482659D03*
D69*
X120380086Y-120662492D03*
D68*
X129019914Y-116482659D03*
D69*
X129019914Y-120662492D03*
D70*
X121499975Y-115917508D03*
X122300076Y-115917508D03*
D71*
X123449936Y-115917508D03*
X124449936Y-115917508D03*
X124950064Y-115917508D03*
X125950064Y-115917508D03*
D70*
X127900025Y-115917508D03*
X127099924Y-115917508D03*
D71*
X126449936Y-115917508D03*
X125449936Y-115917508D03*
X123950064Y-115917508D03*
X122950064Y-115917508D03*
%TD*%
D72*
%TO.C,J1*%
X147340005Y-109473901D03*
X146239954Y-109473901D03*
X145139903Y-109473901D03*
X144039853Y-109473901D03*
X142940030Y-109473901D03*
X141839980Y-109473901D03*
X140739929Y-109473901D03*
X139640107Y-109473901D03*
X138540005Y-109474308D03*
D73*
X137340005Y-110324295D03*
D74*
X137340005Y-120026099D03*
X152859970Y-120026099D03*
D73*
X152020015Y-110324295D03*
%TD*%
D25*
%TO.C,DNP6*%
X178450000Y-112470000D03*
X178450000Y-113430000D03*
%TD*%
D21*
%TO.C,R30*%
X122289376Y-95889376D03*
X123010624Y-96610624D03*
%TD*%
D75*
%TO.C,U17*%
X177500102Y-85490119D03*
D76*
X175500102Y-85159919D03*
X173500102Y-85159919D03*
X171500102Y-85159919D03*
X169500102Y-85159919D03*
X167500102Y-85159919D03*
X165500102Y-85159919D03*
X163500102Y-85159919D03*
X163500102Y-101040030D03*
X165500102Y-101040030D03*
X167500102Y-101040030D03*
X169500102Y-101040030D03*
X171500102Y-101040030D03*
X173500102Y-101040030D03*
X175500102Y-101040030D03*
X177500102Y-101040030D03*
D77*
X175159995Y-96129947D03*
%TD*%
D22*
%TO.C,C18*%
X123439411Y-83060589D03*
X122760589Y-83739411D03*
%TD*%
D23*
%TO.C,R55*%
X110672500Y-111250000D03*
X109652500Y-111250000D03*
%TD*%
D15*
%TO.C,C56*%
X110100000Y-99820000D03*
X110100000Y-101380000D03*
%TD*%
D34*
%TO.C,C22*%
X121780000Y-114070000D03*
X120820000Y-114070000D03*
%TD*%
D78*
%TO.C,U2*%
X138987500Y-98705000D03*
X138987500Y-97435000D03*
X138987500Y-96165000D03*
X138987500Y-94895000D03*
X131812500Y-94895000D03*
X131812500Y-96165000D03*
X131812500Y-97435000D03*
X131812500Y-98705000D03*
%TD*%
D36*
%TO.C,R54*%
X109642500Y-116200000D03*
X110662500Y-116200000D03*
%TD*%
D79*
%TO.C,D5*%
X109275000Y-112800000D03*
X110850000Y-112800000D03*
%TD*%
D19*
%TO.C,C17*%
X116370000Y-83922500D03*
X116370000Y-82962500D03*
%TD*%
D57*
%TO.C,SW2*%
X165350152Y-76985848D03*
X165350203Y-75285822D03*
X170550127Y-76985848D03*
X170550127Y-75285822D03*
%TD*%
D12*
%TO.C,C41*%
X161920076Y-114960304D03*
X162920076Y-114960304D03*
%TD*%
D25*
%TO.C,DNP7*%
X179850000Y-112470000D03*
X179850000Y-113430000D03*
%TD*%
D80*
%TO.C,Y1*%
X114450000Y-91500000D03*
X114450000Y-89000000D03*
%TD*%
D23*
%TO.C,R3*%
X120160000Y-104000000D03*
X119140000Y-104000000D03*
%TD*%
M02*
