M48
; DRILL file {KiCad 9.0.7} date 2026-05-03T22:32:43+0200
; FORMAT={-:-/ absolute / inch / decimal}
; #@! TF.CreationDate,2026-05-03T22:32:43+02:00
; #@! TF.GenerationSoftware,Kicad,Pcbnew,9.0.7
; #@! TF.FileFunction,Plated,1,4,PTH
FMAT,2
INCH
; #@! TA.AperFunction,Plated,PTH,ViaDrill
T1C0.0118
; #@! TA.AperFunction,Plated,PTH,ComponentDrill
T2C0.0118
; #@! TA.AperFunction,Plated,PTH,ComponentDrill
T3C0.0236
; #@! TA.AperFunction,Plated,PTH,ComponentDrill
T4C0.0276
; #@! TA.AperFunction,Plated,PTH,ComponentDrill
T5C0.0394
%
G90
G05
T1
X4.0472Y-3.1496
X4.062Y-3.1722
X4.0768Y-3.1496
X4.0896Y-3.1732
X4.1043Y-3.1496
X4.1181Y-3.1732
X4.1338Y-4.7874
X4.1339Y-3.1496
X4.1476Y-3.1732
X4.1565Y-4.6791
X4.1634Y-3.1496
X4.1772Y-3.1732
X4.1862Y-3.2757
X4.1862Y-3.3757
X4.1862Y-3.4757
X4.1862Y-4.1757
X4.1862Y-4.4757
X4.1862Y-4.7757
X4.1929Y-3.1496
X4.2067Y-3.1732
X4.2205Y-4.3976
X4.2224Y-3.1496
X4.2362Y-3.1732
X4.252Y-3.1496
X4.2657Y-3.1732
X4.2815Y-3.1496
X4.2862Y-3.2757
X4.2862Y-3.3757
X4.2862Y-4.6757
X4.2953Y-3.1732
X4.311Y-3.1496
X4.315Y-4.3622
X4.3248Y-3.1732
X4.3248Y-3.4606
X4.3307Y-4.2323
X4.3406Y-3.1496
X4.3543Y-3.1732
X4.3701Y-3.1496
X4.3701Y-4.2559
X4.3709Y-4.3067
X4.3839Y-3.1732
X4.3858Y-4.185
X4.3862Y-3.5757
X4.3862Y-3.8757
X4.3862Y-4.7757
X4.3996Y-3.1496
X4.4055Y-3.6929
X4.4055Y-4.5433
X4.4134Y-3.1732
X4.4213Y-3.6575
X4.4262Y-3.2598
X4.4291Y-3.1496
X4.4291Y-4.185
X4.437Y-3.6929
X4.4429Y-3.1732
X4.4528Y-3.6575
X4.4547Y-4.2353
X4.4567Y-4.5748
X4.4587Y-3.1496
X4.4606Y-3.5039
X4.4606Y-3.5354
X4.4685Y-3.6929
X4.4724Y-3.1732
X4.4724Y-3.2323
X4.4843Y-3.6575
X4.4862Y-4.1757
X4.4882Y-3.1496
X4.5Y-3.6929
X4.502Y-3.1732
X4.5177Y-3.1496
X4.5266Y-4.5876
X4.5295Y-4.5177
X4.5315Y-3.1732
X4.5321Y-4.2951
X4.5321Y-4.3226
X4.5354Y-4.2353
X4.5472Y-3.1496
X4.5591Y-3.9843
X4.5591Y-4.0197
X4.5591Y-4.1378
X4.561Y-3.1732
X4.561Y-4.6299
X4.5744Y-3.2825
X4.5768Y-3.1496
X4.5807Y-4.2353
X4.5807Y-4.2854
X4.5827Y-3.9094
X4.5906Y-3.1732
X4.6063Y-3.1496
X4.6201Y-3.1732
X4.622Y-3.2835
X4.628Y-4.5177
X4.6358Y-3.1496
X4.6457Y-4.6713
X4.6496Y-3.1732
X4.6575Y-3.2087
X4.6594Y-4.5197
X4.6654Y-3.1496
X4.6732Y-3.748
X4.6791Y-3.1732
X4.6862Y-4.0757
X4.6862Y-4.7757
X4.689Y-3.4458
X4.689Y-4.378
X4.6909Y-3.4961
X4.6949Y-3.1496
X4.6969Y-3.2657
X4.7087Y-3.1732
X4.7126Y-3.4675
X4.7244Y-3.1496
X4.7382Y-3.1732
X4.7499Y-3.4368
X4.7539Y-3.1496
X4.7671Y-4.3793
X4.7677Y-3.1732
X4.7835Y-3.1496
X4.7862Y-4.1757
X4.7862Y-4.6757
X4.7862Y-4.7757
X4.7913Y-3.2126
X4.7913Y-3.252
X4.7913Y-3.4134
X4.7972Y-3.1732
X4.813Y-3.1496
X4.8228Y-3.9626
X4.8228Y-4.0138
X4.8248Y-3.9154
X4.8268Y-3.1732
X4.8268Y-3.3169
X4.8346Y-3.3976
X4.8394Y-4.3764
X4.8425Y-3.1496
X4.8504Y-4.1752
X4.8563Y-3.1732
X4.8642Y-4.2381
X4.872Y-3.1496
X4.8839Y-3.1732
X4.8862Y-4.6757
X4.8862Y-4.7757
X4.9016Y-3.1496
X4.9016Y-3.7264
X4.9017Y-3.7638
X4.9035Y-3.9882
X4.9035Y-4.0315
X4.9035Y-4.0807
X4.9048Y-3.3819
X4.9134Y-3.1732
X4.9134Y-3.252
X4.9248Y-3.7008
X4.9311Y-3.1496
X4.9429Y-3.1732
X4.9469Y-4.1732
X4.9575Y-3.3052
X4.9606Y-3.1496
X4.9724Y-3.1732
X4.9733Y-4.2942
X4.9764Y-3.8245
X4.9817Y-4.4238
X4.9862Y-4.6757
X4.9862Y-4.7757
X4.9902Y-3.1496
X4.9921Y-3.2324
X5.002Y-3.1732
X5.0039Y-3.394
X5.0197Y-3.1496
X5.0276Y-3.2324
X5.0315Y-3.1732
X5.0315Y-3.8819
X5.0394Y-3.2916
X5.0417Y-4.2815
X5.0492Y-3.1496
X5.0604Y-3.2324
X5.061Y-3.1732
X5.063Y-3.394
X5.0712Y-3.3067
X5.0787Y-3.1496
X5.0862Y-4.6757
X5.0866Y-4.2815
X5.0906Y-3.1732
X5.1083Y-3.1496
X5.1378Y-3.1496
X5.1417Y-4.4134
X5.1417Y-4.4449
X5.1772Y-3.5562
X5.1781Y-4.4823
X5.1862Y-4.6757
X5.1862Y-4.7757
X5.2008Y-3.7008
X5.2073Y-4.588
X5.2165Y-3.1496
X5.2165Y-3.9488
X5.2165Y-4.0039
X5.2293Y-3.1752
X5.2421Y-4.5886
X5.248Y-3.6693
X5.248Y-4.2992
X5.252Y-3.3641
X5.252Y-3.3937
X5.2589Y-3.1752
X5.2618Y-3.6083
X5.2795Y-4.5886
X5.2874Y-3.563
X5.2894Y-3.1752
X5.2913Y-4.2362
X5.3023Y-3.5374
X5.3051Y-3.1496
X5.3189Y-3.1752
X5.3228Y-4.2362
X5.3346Y-3.1496
X5.3484Y-3.1752
X5.3504Y-3.5531
X5.3562Y-4.0039
X5.3602Y-3.378
X5.3622Y-4.3898
X5.3642Y-3.1496
X5.3661Y-3.6437
X5.378Y-3.1752
X5.3937Y-3.1496
X5.3937Y-4.2126
X5.4075Y-3.1752
X5.4232Y-3.1496
X5.4252Y-3.378
X5.437Y-3.1752
X5.437Y-3.9685
X5.439Y-3.5551
X5.4528Y-3.1496
X5.4665Y-3.1752
X5.4685Y-4.0157
X5.4724Y-3.752
X5.4823Y-3.1496
X5.4862Y-4.4757
X5.4862Y-4.5757
X5.4862Y-4.7757
X5.4961Y-3.1752
X5.498Y-4.1776
X5.5Y-3.7776
X5.5079Y-4.0894
X5.5118Y-3.1496
X5.5256Y-3.1752
X5.5295Y-3.8091
X5.5413Y-3.1496
X5.5472Y-3.4843
X5.5551Y-3.1752
X5.5591Y-4.3819
X5.5689Y-3.7441
X5.5709Y-3.1496
X5.5748Y-4.2362
X5.5846Y-3.1752
X5.5862Y-4.4757
X5.5862Y-4.5757
X5.5862Y-4.7757
X5.5906Y-4.3819
X5.5945Y-3.6142
X5.5965Y-3.7717
X5.6004Y-3.1496
X5.6142Y-3.1752
X5.622Y-3.9016
X5.622Y-4.3819
X5.6287Y-4.2232
X5.6299Y-3.1496
X5.6339Y-4.1732
X5.6358Y-3.8091
X5.6437Y-3.1752
X5.6496Y-3.4843
X5.6535Y-3.9331
X5.6594Y-3.1496
X5.6667Y-3.773
X5.6683Y-3.5522
X5.6695Y-3.7435
X5.6705Y-4.2709
X5.6732Y-3.1752
X5.6744Y-4.1563
X5.6811Y-4.0665
X5.685Y-3.9646
X5.6862Y-4.4757
X5.6862Y-4.5757
X5.6862Y-4.7757
X5.6885Y-3.7948
X5.689Y-3.1496
X5.689Y-4.0039
X5.6929Y-3.3701
X5.7028Y-3.1752
X5.7185Y-3.1496
X5.7323Y-3.1752
X5.7351Y-3.8415
X5.7358Y-3.8119
X5.748Y-3.1496
X5.7539Y-4.1795
X5.7559Y-4.0374
X5.7618Y-3.1752
X5.7638Y-4.0883
X5.7765Y-3.2916
X5.7776Y-3.1496
X5.7815Y-3.9094
X5.7862Y-3.3757
X5.7862Y-3.4757
X5.7862Y-3.6757
X5.7862Y-4.4757
X5.7862Y-4.5757
X5.7862Y-4.7757
X5.7913Y-3.1752
X5.7972Y-2.9626
X5.7972Y-2.9921
X5.7972Y-3.0217
X5.7972Y-3.0512
X5.7972Y-3.0807
X5.7982Y-3.1152
X5.8016Y-4.1787
X5.8031Y-3.9345
X5.8091Y-3.1506
X5.8258Y-3.126
X5.8268Y-2.9429
X5.8268Y-2.9724
X5.8268Y-3.002
X5.8268Y-3.0315
X5.8268Y-3.061
X5.8268Y-3.0906
X5.8278Y-3.6635
X5.8386Y-3.2777
X5.8386Y-4.0098
X5.8681Y-4.0394
X5.8862Y-2.9757
X5.8862Y-3.3757
X5.8862Y-4.1757
X5.8862Y-4.4757
X5.8862Y-4.5757
X5.8862Y-4.7757
X5.889Y-3.5118
X5.8898Y-3.9843
X5.8961Y-4.0665
X5.9189Y-4.089
X5.9331Y-4.1752
X5.9449Y-4.0
X5.9656Y-3.6054
X5.9764Y-4.188
X5.9764Y-4.2382
X5.9803Y-4.0
X5.9843Y-4.0394
X5.9862Y-3.0757
X5.9862Y-4.5757
X5.9872Y-3.2559
X5.9946Y-3.658
X6.0079Y-4.185
X6.0138Y-3.2284
X6.0187Y-3.9754
X6.0236Y-3.124
X6.0236Y-3.1654
X6.0472Y-4.1752
X6.0492Y-3.2067
X6.0492Y-4.3051
X6.0709Y-4.2008
X6.0728Y-2.9469
X6.0728Y-3.0768
X6.0862Y-3.4757
X6.1004Y-3.9252
X6.1043Y-3.8189
X6.1063Y-4.5689
X6.1083Y-4.2441
X6.1083Y-4.3602
X6.1102Y-3.0256
X6.122Y-4.4823
X6.122Y-4.5335
X6.124Y-4.4272
X6.1311Y-3.9673
X6.1339Y-4.2185
X6.1496Y-3.5138
X6.1571Y-3.8449
X6.1693Y-4.3071
X6.1762Y-3.2028
X6.1811Y-4.5335
X6.1862Y-3.0757
X6.1862Y-3.3757
X6.1901Y-3.7952
X6.2008Y-4.2244
X6.2028Y-4.5689
X6.2205Y-4.4429
X6.2224Y-4.4921
X6.2421Y-4.3937
X6.2638Y-4.5335
X6.2687Y-3.9321
X6.2862Y-3.0757
X6.2862Y-3.4757
X6.2943Y-4.0423
X6.3189Y-4.4646
X6.3386Y-4.0394
X6.3504Y-4.2854
X6.3583Y-4.3921
X6.3691Y-4.19
X6.3862Y-3.4757
X6.3862Y-3.5757
X6.3862Y-4.5757
X6.3878Y-4.2854
X6.3937Y-3.8701
X6.3976Y-4.3917
X6.4016Y-2.9646
X6.4016Y-3.2008
X6.4016Y-4.0394
X6.4209Y-3.1008
X6.4252Y-3.9016
X6.4266Y-4.2782
X6.437Y-4.3917
X6.4449Y-4.1339
X6.4449Y-4.5079
X6.4508Y-2.9646
X6.4803Y-4.1142
X6.4862Y-3.0757
X6.4862Y-3.4757
X6.4862Y-3.6757
X6.4862Y-3.7757
X6.4862Y-4.5757
X6.499Y-4.0118
X6.5197Y-4.1142
X6.5512Y-4.063
X6.563Y-4.1575
X6.565Y-4.7264
X6.5862Y-3.1757
X6.5862Y-3.2757
X6.5862Y-3.5757
X6.5862Y-3.6757
X6.5862Y-3.7757
X6.5862Y-3.8757
X6.5862Y-4.2757
X6.5862Y-4.3757
X6.5862Y-4.4757
X6.5862Y-4.5757
X6.5886Y-4.1142
X6.5984Y-4.063
X6.6024Y-4.7264
X6.6319Y-4.6791
X6.6437Y-4.0315
X6.6535Y-4.1142
X6.6862Y-3.1757
X6.6862Y-3.4757
X6.6862Y-3.5757
X6.6862Y-3.6757
X6.6862Y-3.7757
X6.6862Y-3.8757
X6.6862Y-4.1757
X6.6862Y-4.2757
X6.6862Y-4.3757
X6.6862Y-4.4757
X6.6862Y-4.5757
X6.6969Y-4.0709
X6.7283Y-3.2598
X6.7343Y-3.3937
X6.7382Y-4.0276
X6.7618Y-3.3937
X6.7776Y-2.9646
X6.7862Y-3.0757
X6.7862Y-3.1757
X6.7862Y-3.4757
X6.7862Y-3.5757
X6.7862Y-3.6757
X6.7862Y-3.8757
X6.7862Y-4.1757
X6.7862Y-4.2757
X6.7862Y-4.5757
X6.7913Y-3.3937
X6.7992Y-4.0364
X6.8031Y-3.2953
X6.8031Y-4.4016
X6.8031Y-4.437
X6.8031Y-4.4764
X6.8031Y-4.5118
X6.8307Y-3.3976
X6.8327Y-2.9646
X6.8386Y-3.2598
X6.8622Y-3.3976
X6.874Y-3.2795
X6.8862Y-3.0757
X6.8862Y-3.1757
X6.8862Y-3.5757
X6.8862Y-3.6757
X6.8862Y-3.7757
X6.8862Y-3.8757
X6.8862Y-4.5757
X6.8862Y-4.6757
X6.9163Y-4.0374
X6.9252Y-4.374
X6.9331Y-4.4843
X6.9449Y-4.3504
X6.9567Y-4.4646
X6.9685Y-3.2992
X6.9764Y-4.3386
X6.9862Y-3.1757
X6.9862Y-3.4757
X6.9862Y-3.5757
X6.9862Y-3.6757
X6.9862Y-3.7757
X6.9862Y-3.8757
X6.9862Y-3.9757
X6.9862Y-4.0757
X6.9862Y-4.1757
X6.9862Y-4.5757
X6.9862Y-4.6757
X6.9882Y-4.4528
X7.0Y-3.2992
X7.0079Y-3.4173
X7.0079Y-4.3386
X7.0197Y-4.4449
X7.0276Y-4.4134
X7.0315Y-3.2992
X7.0394Y-3.4173
X7.0394Y-4.3386
X7.0472Y-3.3307
X7.0535Y-3.135
X7.0591Y-4.4134
X7.0709Y-3.4173
X7.0709Y-4.3386
X7.0787Y-3.3307
X7.0862Y-3.2757
X7.0862Y-3.5757
X7.0862Y-3.6757
X7.0862Y-3.7757
X7.0862Y-3.8757
X7.0862Y-3.9757
X7.0862Y-4.0757
X7.0862Y-4.4757
X7.0862Y-4.5757
X7.0862Y-4.6757
X7.0862Y-4.7757
X7.0906Y-4.4134
X7.1024Y-3.4173
X7.1024Y-4.3071
X7.1083Y-4.1752
X7.1102Y-3.3307
X7.1181Y-3.4488
X7.122Y-4.4134
X7.1299Y-4.3071
X7.1417Y-3.3307
X7.1457Y-4.3425
X7.1496Y-3.4488
X7.1535Y-4.4134
X7.1575Y-2.9646
X7.1732Y-3.3307
X7.1732Y-4.3425
X7.1811Y-3.4488
X7.185Y-4.4134
X7.1862Y-3.0757
X7.1862Y-3.6757
X7.1862Y-3.7757
X7.1862Y-3.8757
X7.1862Y-3.9757
X7.1862Y-4.0757
X7.1862Y-4.1757
X7.1862Y-4.4757
X7.1862Y-4.5757
X7.1862Y-4.6757
X7.1862Y-4.7757
X7.1969Y-4.2953
X7.2008Y-4.3268
X7.2087Y-3.2067
X7.2087Y-3.5374
X7.2165Y-4.4094
X7.2323Y-4.374
X7.2421Y-3.2067
X7.2421Y-3.5374
X7.2579Y-4.1791
X7.2638Y-4.4035
X7.2776Y-3.2067
X7.2776Y-3.5374
X7.2862Y-3.6757
X7.2862Y-4.2757
X7.2862Y-4.4757
X7.2862Y-4.5757
X7.2862Y-4.6757
X7.2992Y-4.1791
X7.3012Y-4.4035
X7.313Y-3.2067
X7.313Y-3.5374
X7.3406Y-4.1791
X7.3406Y-4.4035
X7.3465Y-3.2067
X7.3465Y-3.5374
X7.3799Y-3.2067
X7.3799Y-3.5374
T2
X4.4343Y-4.4005
X4.4658Y-4.4005
X5.0244Y-3.4382
X5.0244Y-3.4906
X5.0244Y-3.5429
X5.0768Y-3.4382
X5.0768Y-3.4906
X5.0768Y-3.5429
X5.1291Y-3.4382
X5.1291Y-3.4906
X5.1291Y-3.5429
X5.2476Y-4.3887
X5.2476Y-4.4123
X5.2618Y-3.1378
X5.2713Y-4.3887
X5.2713Y-4.4123
X5.8823Y-3.7567
X5.8823Y-3.8157
X5.8823Y-3.8748
X5.9413Y-3.7567
X5.9413Y-3.8157
X5.9413Y-3.8748
X6.0004Y-3.7567
X6.0004Y-3.8157
X6.0004Y-3.8748
X6.811Y-3.7573
X6.811Y-3.7848
X6.8465Y-3.7573
X6.8465Y-3.7848
T4
X4.5242Y-4.758
X4.5734Y-4.758
X5.2284Y-4.7598
X5.2776Y-4.7598
T5
X4.0915Y-3.2591
X4.0915Y-3.3591
X4.0915Y-3.4591
X4.0915Y-3.5591
X4.0915Y-3.6591
X4.0915Y-3.7591
X4.0915Y-3.8591
X4.0915Y-3.9591
X4.0915Y-4.0591
X4.0915Y-4.1591
X4.0915Y-4.2591
X4.0915Y-4.3591
X4.0915Y-4.4591
X4.0915Y-4.5591
X6.1646Y-4.8067
X6.2646Y-4.8067
X6.3646Y-4.8067
X6.4646Y-4.8067
X7.2825Y-3.7589
X7.2825Y-3.8589
X7.2825Y-3.9589
X7.2825Y-4.0589
T3
G00X4.7394Y-4.5643
M15
G01X4.7394Y-4.6076
M16
G05
G00X4.7394Y-4.7347
M15
G01X4.7394Y-4.7662
M16
G05
G00X5.0795Y-4.5643
M15
G01X5.0795Y-4.6076
M16
G05
G00X5.0795Y-4.7347
M15
G01X5.0795Y-4.7662
M16
G05
T4
G00X6.7146Y-4.7854
M15
G01X6.7146Y-4.8169
M16
G05
G00X6.7933Y-4.8012
M15
G01X6.8012Y-4.8012
M16
G05
G00X6.872Y-4.8012
M15
G01X6.8799Y-4.8012
M16
G05
G00X6.9508Y-4.8012
M15
G01X6.9587Y-4.8012
M16
G05
G00X7.0374Y-4.7854
M15
G01X7.0374Y-4.8169
M16
G05
M30
