%TF.GenerationSoftware,KiCad,Pcbnew,9.0.7*%
%TF.CreationDate,2026-05-05T21:59:40+02:00*%
%TF.ProjectId,LoRa-device,4c6f5261-2d64-4657-9669-63652e6b6963,rev?*%
%TF.SameCoordinates,Original*%
%TF.FileFunction,Legend,Bot*%
%TF.FilePolarity,Positive*%
%FSLAX46Y46*%
G04 Gerber Fmt 4.6, Leading zero omitted, Abs format (unit mm)*
G04 Created by KiCad (PCBNEW 9.0.7) date 2026-05-05 21:59:40*
%MOMM*%
%LPD*%
G01*
G04 APERTURE LIST*
%ADD10C,0.200000*%
%ADD11C,0.100000*%
%ADD12R,1.700000X1.700000*%
%ADD13C,1.700000*%
%ADD14C,1.000000*%
%ADD15C,3.000000*%
%ADD16R,4.800000X1.200000*%
%ADD17C,0.600000*%
%ADD18C,2.000000*%
%ADD19C,0.900025*%
%ADD20O,1.400000X1.100000*%
%ADD21O,1.200000X2.000000*%
%ADD22C,0.649987*%
%ADD23O,0.900000X2.100000*%
%ADD24O,0.900000X1.800000*%
%ADD25C,0.500025*%
G04 APERTURE END LIST*
D10*
X179630326Y-104097611D02*
X179630326Y-103097611D01*
X179630326Y-103097611D02*
X179296993Y-103811896D01*
X179296993Y-103811896D02*
X178963660Y-103097611D01*
X178963660Y-103097611D02*
X178963660Y-104097611D01*
X178106517Y-104049992D02*
X178201755Y-104097611D01*
X178201755Y-104097611D02*
X178392231Y-104097611D01*
X178392231Y-104097611D02*
X178487469Y-104049992D01*
X178487469Y-104049992D02*
X178535088Y-103954753D01*
X178535088Y-103954753D02*
X178535088Y-103573801D01*
X178535088Y-103573801D02*
X178487469Y-103478563D01*
X178487469Y-103478563D02*
X178392231Y-103430944D01*
X178392231Y-103430944D02*
X178201755Y-103430944D01*
X178201755Y-103430944D02*
X178106517Y-103478563D01*
X178106517Y-103478563D02*
X178058898Y-103573801D01*
X178058898Y-103573801D02*
X178058898Y-103669039D01*
X178058898Y-103669039D02*
X178535088Y-103764277D01*
X177630326Y-104097611D02*
X177630326Y-103430944D01*
X177630326Y-103621420D02*
X177582707Y-103526182D01*
X177582707Y-103526182D02*
X177535088Y-103478563D01*
X177535088Y-103478563D02*
X177439850Y-103430944D01*
X177439850Y-103430944D02*
X177344612Y-103430944D01*
X176582707Y-104049992D02*
X176677945Y-104097611D01*
X176677945Y-104097611D02*
X176868421Y-104097611D01*
X176868421Y-104097611D02*
X176963659Y-104049992D01*
X176963659Y-104049992D02*
X177011278Y-104002372D01*
X177011278Y-104002372D02*
X177058897Y-103907134D01*
X177058897Y-103907134D02*
X177058897Y-103621420D01*
X177058897Y-103621420D02*
X177011278Y-103526182D01*
X177011278Y-103526182D02*
X176963659Y-103478563D01*
X176963659Y-103478563D02*
X176868421Y-103430944D01*
X176868421Y-103430944D02*
X176677945Y-103430944D01*
X176677945Y-103430944D02*
X176582707Y-103478563D01*
X175725564Y-103430944D02*
X175725564Y-104097611D01*
X176154135Y-103430944D02*
X176154135Y-103954753D01*
X176154135Y-103954753D02*
X176106516Y-104049992D01*
X176106516Y-104049992D02*
X176011278Y-104097611D01*
X176011278Y-104097611D02*
X175868421Y-104097611D01*
X175868421Y-104097611D02*
X175773183Y-104049992D01*
X175773183Y-104049992D02*
X175725564Y-104002372D01*
X175249373Y-104097611D02*
X175249373Y-103430944D01*
X175249373Y-103621420D02*
X175201754Y-103526182D01*
X175201754Y-103526182D02*
X175154135Y-103478563D01*
X175154135Y-103478563D02*
X175058897Y-103430944D01*
X175058897Y-103430944D02*
X174963659Y-103430944D01*
X174630325Y-104097611D02*
X174630325Y-103430944D01*
X174630325Y-103097611D02*
X174677944Y-103145230D01*
X174677944Y-103145230D02*
X174630325Y-103192849D01*
X174630325Y-103192849D02*
X174582706Y-103145230D01*
X174582706Y-103145230D02*
X174630325Y-103097611D01*
X174630325Y-103097611D02*
X174630325Y-103192849D01*
X174011278Y-104097611D02*
X174106516Y-104049992D01*
X174106516Y-104049992D02*
X174154135Y-104002372D01*
X174154135Y-104002372D02*
X174201754Y-103907134D01*
X174201754Y-103907134D02*
X174201754Y-103621420D01*
X174201754Y-103621420D02*
X174154135Y-103526182D01*
X174154135Y-103526182D02*
X174106516Y-103478563D01*
X174106516Y-103478563D02*
X174011278Y-103430944D01*
X174011278Y-103430944D02*
X173868421Y-103430944D01*
X173868421Y-103430944D02*
X173773183Y-103478563D01*
X173773183Y-103478563D02*
X173725564Y-103526182D01*
X173725564Y-103526182D02*
X173677945Y-103621420D01*
X173677945Y-103621420D02*
X173677945Y-103907134D01*
X173677945Y-103907134D02*
X173725564Y-104002372D01*
X173725564Y-104002372D02*
X173773183Y-104049992D01*
X173773183Y-104049992D02*
X173868421Y-104097611D01*
X173868421Y-104097611D02*
X174011278Y-104097611D01*
X171916040Y-104097611D02*
X172249373Y-103621420D01*
X172487468Y-104097611D02*
X172487468Y-103097611D01*
X172487468Y-103097611D02*
X172106516Y-103097611D01*
X172106516Y-103097611D02*
X172011278Y-103145230D01*
X172011278Y-103145230D02*
X171963659Y-103192849D01*
X171963659Y-103192849D02*
X171916040Y-103288087D01*
X171916040Y-103288087D02*
X171916040Y-103430944D01*
X171916040Y-103430944D02*
X171963659Y-103526182D01*
X171963659Y-103526182D02*
X172011278Y-103573801D01*
X172011278Y-103573801D02*
X172106516Y-103621420D01*
X172106516Y-103621420D02*
X172487468Y-103621420D01*
X171106516Y-104049992D02*
X171201754Y-104097611D01*
X171201754Y-104097611D02*
X171392230Y-104097611D01*
X171392230Y-104097611D02*
X171487468Y-104049992D01*
X171487468Y-104049992D02*
X171535087Y-103954753D01*
X171535087Y-103954753D02*
X171535087Y-103573801D01*
X171535087Y-103573801D02*
X171487468Y-103478563D01*
X171487468Y-103478563D02*
X171392230Y-103430944D01*
X171392230Y-103430944D02*
X171201754Y-103430944D01*
X171201754Y-103430944D02*
X171106516Y-103478563D01*
X171106516Y-103478563D02*
X171058897Y-103573801D01*
X171058897Y-103573801D02*
X171058897Y-103669039D01*
X171058897Y-103669039D02*
X171535087Y-103764277D01*
X170725563Y-103430944D02*
X170487468Y-104097611D01*
X170487468Y-104097611D02*
X170249373Y-103430944D01*
X169868420Y-103716658D02*
X169106516Y-103716658D01*
X168296992Y-103573801D02*
X168154135Y-103621420D01*
X168154135Y-103621420D02*
X168106516Y-103669039D01*
X168106516Y-103669039D02*
X168058897Y-103764277D01*
X168058897Y-103764277D02*
X168058897Y-103907134D01*
X168058897Y-103907134D02*
X168106516Y-104002372D01*
X168106516Y-104002372D02*
X168154135Y-104049992D01*
X168154135Y-104049992D02*
X168249373Y-104097611D01*
X168249373Y-104097611D02*
X168630325Y-104097611D01*
X168630325Y-104097611D02*
X168630325Y-103097611D01*
X168630325Y-103097611D02*
X168296992Y-103097611D01*
X168296992Y-103097611D02*
X168201754Y-103145230D01*
X168201754Y-103145230D02*
X168154135Y-103192849D01*
X168154135Y-103192849D02*
X168106516Y-103288087D01*
X168106516Y-103288087D02*
X168106516Y-103383325D01*
X168106516Y-103383325D02*
X168154135Y-103478563D01*
X168154135Y-103478563D02*
X168201754Y-103526182D01*
X168201754Y-103526182D02*
X168296992Y-103573801D01*
X168296992Y-103573801D02*
X168630325Y-103573801D01*
X179630326Y-105707555D02*
X179630326Y-104707555D01*
X179630326Y-104707555D02*
X179249374Y-104707555D01*
X179249374Y-104707555D02*
X179154136Y-104755174D01*
X179154136Y-104755174D02*
X179106517Y-104802793D01*
X179106517Y-104802793D02*
X179058898Y-104898031D01*
X179058898Y-104898031D02*
X179058898Y-105040888D01*
X179058898Y-105040888D02*
X179106517Y-105136126D01*
X179106517Y-105136126D02*
X179154136Y-105183745D01*
X179154136Y-105183745D02*
X179249374Y-105231364D01*
X179249374Y-105231364D02*
X179630326Y-105231364D01*
X178058898Y-105707555D02*
X178392231Y-105231364D01*
X178630326Y-105707555D02*
X178630326Y-104707555D01*
X178630326Y-104707555D02*
X178249374Y-104707555D01*
X178249374Y-104707555D02*
X178154136Y-104755174D01*
X178154136Y-104755174D02*
X178106517Y-104802793D01*
X178106517Y-104802793D02*
X178058898Y-104898031D01*
X178058898Y-104898031D02*
X178058898Y-105040888D01*
X178058898Y-105040888D02*
X178106517Y-105136126D01*
X178106517Y-105136126D02*
X178154136Y-105183745D01*
X178154136Y-105183745D02*
X178249374Y-105231364D01*
X178249374Y-105231364D02*
X178630326Y-105231364D01*
X177439850Y-104707555D02*
X177249374Y-104707555D01*
X177249374Y-104707555D02*
X177154136Y-104755174D01*
X177154136Y-104755174D02*
X177058898Y-104850412D01*
X177058898Y-104850412D02*
X177011279Y-105040888D01*
X177011279Y-105040888D02*
X177011279Y-105374221D01*
X177011279Y-105374221D02*
X177058898Y-105564697D01*
X177058898Y-105564697D02*
X177154136Y-105659936D01*
X177154136Y-105659936D02*
X177249374Y-105707555D01*
X177249374Y-105707555D02*
X177439850Y-105707555D01*
X177439850Y-105707555D02*
X177535088Y-105659936D01*
X177535088Y-105659936D02*
X177630326Y-105564697D01*
X177630326Y-105564697D02*
X177677945Y-105374221D01*
X177677945Y-105374221D02*
X177677945Y-105040888D01*
X177677945Y-105040888D02*
X177630326Y-104850412D01*
X177630326Y-104850412D02*
X177535088Y-104755174D01*
X177535088Y-104755174D02*
X177439850Y-104707555D01*
X176725564Y-104707555D02*
X176154136Y-104707555D01*
X176439850Y-105707555D02*
X176439850Y-104707555D01*
X175630326Y-104707555D02*
X175439850Y-104707555D01*
X175439850Y-104707555D02*
X175344612Y-104755174D01*
X175344612Y-104755174D02*
X175249374Y-104850412D01*
X175249374Y-104850412D02*
X175201755Y-105040888D01*
X175201755Y-105040888D02*
X175201755Y-105374221D01*
X175201755Y-105374221D02*
X175249374Y-105564697D01*
X175249374Y-105564697D02*
X175344612Y-105659936D01*
X175344612Y-105659936D02*
X175439850Y-105707555D01*
X175439850Y-105707555D02*
X175630326Y-105707555D01*
X175630326Y-105707555D02*
X175725564Y-105659936D01*
X175725564Y-105659936D02*
X175820802Y-105564697D01*
X175820802Y-105564697D02*
X175868421Y-105374221D01*
X175868421Y-105374221D02*
X175868421Y-105040888D01*
X175868421Y-105040888D02*
X175820802Y-104850412D01*
X175820802Y-104850412D02*
X175725564Y-104755174D01*
X175725564Y-104755174D02*
X175630326Y-104707555D01*
X174582707Y-105231364D02*
X174582707Y-105707555D01*
X174916040Y-104707555D02*
X174582707Y-105231364D01*
X174582707Y-105231364D02*
X174249374Y-104707555D01*
X173916040Y-105707555D02*
X173916040Y-104707555D01*
X173916040Y-104707555D02*
X173535088Y-104707555D01*
X173535088Y-104707555D02*
X173439850Y-104755174D01*
X173439850Y-104755174D02*
X173392231Y-104802793D01*
X173392231Y-104802793D02*
X173344612Y-104898031D01*
X173344612Y-104898031D02*
X173344612Y-105040888D01*
X173344612Y-105040888D02*
X173392231Y-105136126D01*
X173392231Y-105136126D02*
X173439850Y-105183745D01*
X173439850Y-105183745D02*
X173535088Y-105231364D01*
X173535088Y-105231364D02*
X173916040Y-105231364D01*
X172916040Y-105183745D02*
X172582707Y-105183745D01*
X172439850Y-105707555D02*
X172916040Y-105707555D01*
X172916040Y-105707555D02*
X172916040Y-104707555D01*
X172916040Y-104707555D02*
X172439850Y-104707555D01*
X171963659Y-105659936D02*
X171963659Y-105707555D01*
X171963659Y-105707555D02*
X172011278Y-105802793D01*
X172011278Y-105802793D02*
X172058897Y-105850412D01*
X170773183Y-105707555D02*
X170773183Y-104707555D01*
X170773183Y-104707555D02*
X170201755Y-105707555D01*
X170201755Y-105707555D02*
X170201755Y-104707555D01*
X169535088Y-104707555D02*
X169344612Y-104707555D01*
X169344612Y-104707555D02*
X169249374Y-104755174D01*
X169249374Y-104755174D02*
X169154136Y-104850412D01*
X169154136Y-104850412D02*
X169106517Y-105040888D01*
X169106517Y-105040888D02*
X169106517Y-105374221D01*
X169106517Y-105374221D02*
X169154136Y-105564697D01*
X169154136Y-105564697D02*
X169249374Y-105659936D01*
X169249374Y-105659936D02*
X169344612Y-105707555D01*
X169344612Y-105707555D02*
X169535088Y-105707555D01*
X169535088Y-105707555D02*
X169630326Y-105659936D01*
X169630326Y-105659936D02*
X169725564Y-105564697D01*
X169725564Y-105564697D02*
X169773183Y-105374221D01*
X169773183Y-105374221D02*
X169773183Y-105040888D01*
X169773183Y-105040888D02*
X169725564Y-104850412D01*
X169725564Y-104850412D02*
X169630326Y-104755174D01*
X169630326Y-104755174D02*
X169535088Y-104707555D01*
X168820802Y-104707555D02*
X168249374Y-104707555D01*
X168535088Y-105707555D02*
X168535088Y-104707555D01*
X166820802Y-105183745D02*
X167154135Y-105183745D01*
X167154135Y-105707555D02*
X167154135Y-104707555D01*
X167154135Y-104707555D02*
X166677945Y-104707555D01*
X166106516Y-104707555D02*
X165916040Y-104707555D01*
X165916040Y-104707555D02*
X165820802Y-104755174D01*
X165820802Y-104755174D02*
X165725564Y-104850412D01*
X165725564Y-104850412D02*
X165677945Y-105040888D01*
X165677945Y-105040888D02*
X165677945Y-105374221D01*
X165677945Y-105374221D02*
X165725564Y-105564697D01*
X165725564Y-105564697D02*
X165820802Y-105659936D01*
X165820802Y-105659936D02*
X165916040Y-105707555D01*
X165916040Y-105707555D02*
X166106516Y-105707555D01*
X166106516Y-105707555D02*
X166201754Y-105659936D01*
X166201754Y-105659936D02*
X166296992Y-105564697D01*
X166296992Y-105564697D02*
X166344611Y-105374221D01*
X166344611Y-105374221D02*
X166344611Y-105040888D01*
X166344611Y-105040888D02*
X166296992Y-104850412D01*
X166296992Y-104850412D02*
X166201754Y-104755174D01*
X166201754Y-104755174D02*
X166106516Y-104707555D01*
X164677945Y-105707555D02*
X165011278Y-105231364D01*
X165249373Y-105707555D02*
X165249373Y-104707555D01*
X165249373Y-104707555D02*
X164868421Y-104707555D01*
X164868421Y-104707555D02*
X164773183Y-104755174D01*
X164773183Y-104755174D02*
X164725564Y-104802793D01*
X164725564Y-104802793D02*
X164677945Y-104898031D01*
X164677945Y-104898031D02*
X164677945Y-105040888D01*
X164677945Y-105040888D02*
X164725564Y-105136126D01*
X164725564Y-105136126D02*
X164773183Y-105183745D01*
X164773183Y-105183745D02*
X164868421Y-105231364D01*
X164868421Y-105231364D02*
X165249373Y-105231364D01*
X162916040Y-105707555D02*
X163249373Y-105231364D01*
X163487468Y-105707555D02*
X163487468Y-104707555D01*
X163487468Y-104707555D02*
X163106516Y-104707555D01*
X163106516Y-104707555D02*
X163011278Y-104755174D01*
X163011278Y-104755174D02*
X162963659Y-104802793D01*
X162963659Y-104802793D02*
X162916040Y-104898031D01*
X162916040Y-104898031D02*
X162916040Y-105040888D01*
X162916040Y-105040888D02*
X162963659Y-105136126D01*
X162963659Y-105136126D02*
X163011278Y-105183745D01*
X163011278Y-105183745D02*
X163106516Y-105231364D01*
X163106516Y-105231364D02*
X163487468Y-105231364D01*
X162487468Y-105183745D02*
X162154135Y-105183745D01*
X162011278Y-105707555D02*
X162487468Y-105707555D01*
X162487468Y-105707555D02*
X162487468Y-104707555D01*
X162487468Y-104707555D02*
X162011278Y-104707555D01*
X161630325Y-105659936D02*
X161487468Y-105707555D01*
X161487468Y-105707555D02*
X161249373Y-105707555D01*
X161249373Y-105707555D02*
X161154135Y-105659936D01*
X161154135Y-105659936D02*
X161106516Y-105612316D01*
X161106516Y-105612316D02*
X161058897Y-105517078D01*
X161058897Y-105517078D02*
X161058897Y-105421840D01*
X161058897Y-105421840D02*
X161106516Y-105326602D01*
X161106516Y-105326602D02*
X161154135Y-105278983D01*
X161154135Y-105278983D02*
X161249373Y-105231364D01*
X161249373Y-105231364D02*
X161439849Y-105183745D01*
X161439849Y-105183745D02*
X161535087Y-105136126D01*
X161535087Y-105136126D02*
X161582706Y-105088507D01*
X161582706Y-105088507D02*
X161630325Y-104993269D01*
X161630325Y-104993269D02*
X161630325Y-104898031D01*
X161630325Y-104898031D02*
X161582706Y-104802793D01*
X161582706Y-104802793D02*
X161535087Y-104755174D01*
X161535087Y-104755174D02*
X161439849Y-104707555D01*
X161439849Y-104707555D02*
X161201754Y-104707555D01*
X161201754Y-104707555D02*
X161058897Y-104755174D01*
X160677944Y-105421840D02*
X160201754Y-105421840D01*
X160773182Y-105707555D02*
X160439849Y-104707555D01*
X160439849Y-104707555D02*
X160106516Y-105707555D01*
X159296992Y-105707555D02*
X159773182Y-105707555D01*
X159773182Y-105707555D02*
X159773182Y-104707555D01*
X158963658Y-105183745D02*
X158630325Y-105183745D01*
X158487468Y-105707555D02*
X158963658Y-105707555D01*
X158963658Y-105707555D02*
X158963658Y-104707555D01*
X158963658Y-104707555D02*
X158487468Y-104707555D01*
X179630326Y-107317499D02*
X179630326Y-106317499D01*
X179630326Y-106317499D02*
X179058898Y-107317499D01*
X179058898Y-107317499D02*
X179058898Y-106317499D01*
X178392231Y-106317499D02*
X178201755Y-106317499D01*
X178201755Y-106317499D02*
X178106517Y-106365118D01*
X178106517Y-106365118D02*
X178011279Y-106460356D01*
X178011279Y-106460356D02*
X177963660Y-106650832D01*
X177963660Y-106650832D02*
X177963660Y-106984165D01*
X177963660Y-106984165D02*
X178011279Y-107174641D01*
X178011279Y-107174641D02*
X178106517Y-107269880D01*
X178106517Y-107269880D02*
X178201755Y-107317499D01*
X178201755Y-107317499D02*
X178392231Y-107317499D01*
X178392231Y-107317499D02*
X178487469Y-107269880D01*
X178487469Y-107269880D02*
X178582707Y-107174641D01*
X178582707Y-107174641D02*
X178630326Y-106984165D01*
X178630326Y-106984165D02*
X178630326Y-106650832D01*
X178630326Y-106650832D02*
X178582707Y-106460356D01*
X178582707Y-106460356D02*
X178487469Y-106365118D01*
X178487469Y-106365118D02*
X178392231Y-106317499D01*
X176201755Y-107317499D02*
X176535088Y-106841308D01*
X176773183Y-107317499D02*
X176773183Y-106317499D01*
X176773183Y-106317499D02*
X176392231Y-106317499D01*
X176392231Y-106317499D02*
X176296993Y-106365118D01*
X176296993Y-106365118D02*
X176249374Y-106412737D01*
X176249374Y-106412737D02*
X176201755Y-106507975D01*
X176201755Y-106507975D02*
X176201755Y-106650832D01*
X176201755Y-106650832D02*
X176249374Y-106746070D01*
X176249374Y-106746070D02*
X176296993Y-106793689D01*
X176296993Y-106793689D02*
X176392231Y-106841308D01*
X176392231Y-106841308D02*
X176773183Y-106841308D01*
X175773183Y-106793689D02*
X175439850Y-106793689D01*
X175296993Y-107317499D02*
X175773183Y-107317499D01*
X175773183Y-107317499D02*
X175773183Y-106317499D01*
X175773183Y-106317499D02*
X175296993Y-106317499D01*
X174344612Y-106365118D02*
X174439850Y-106317499D01*
X174439850Y-106317499D02*
X174582707Y-106317499D01*
X174582707Y-106317499D02*
X174725564Y-106365118D01*
X174725564Y-106365118D02*
X174820802Y-106460356D01*
X174820802Y-106460356D02*
X174868421Y-106555594D01*
X174868421Y-106555594D02*
X174916040Y-106746070D01*
X174916040Y-106746070D02*
X174916040Y-106888927D01*
X174916040Y-106888927D02*
X174868421Y-107079403D01*
X174868421Y-107079403D02*
X174820802Y-107174641D01*
X174820802Y-107174641D02*
X174725564Y-107269880D01*
X174725564Y-107269880D02*
X174582707Y-107317499D01*
X174582707Y-107317499D02*
X174487469Y-107317499D01*
X174487469Y-107317499D02*
X174344612Y-107269880D01*
X174344612Y-107269880D02*
X174296993Y-107222260D01*
X174296993Y-107222260D02*
X174296993Y-106888927D01*
X174296993Y-106888927D02*
X174487469Y-106888927D01*
X173868421Y-106317499D02*
X173868421Y-107127022D01*
X173868421Y-107127022D02*
X173820802Y-107222260D01*
X173820802Y-107222260D02*
X173773183Y-107269880D01*
X173773183Y-107269880D02*
X173677945Y-107317499D01*
X173677945Y-107317499D02*
X173487469Y-107317499D01*
X173487469Y-107317499D02*
X173392231Y-107269880D01*
X173392231Y-107269880D02*
X173344612Y-107222260D01*
X173344612Y-107222260D02*
X173296993Y-107127022D01*
X173296993Y-107127022D02*
X173296993Y-106317499D01*
X172344612Y-107317499D02*
X172820802Y-107317499D01*
X172820802Y-107317499D02*
X172820802Y-106317499D01*
X172058897Y-107031784D02*
X171582707Y-107031784D01*
X172154135Y-107317499D02*
X171820802Y-106317499D01*
X171820802Y-106317499D02*
X171487469Y-107317499D01*
X171296992Y-106317499D02*
X170725564Y-106317499D01*
X171011278Y-107317499D02*
X171011278Y-106317499D01*
X170201754Y-106317499D02*
X170011278Y-106317499D01*
X170011278Y-106317499D02*
X169916040Y-106365118D01*
X169916040Y-106365118D02*
X169820802Y-106460356D01*
X169820802Y-106460356D02*
X169773183Y-106650832D01*
X169773183Y-106650832D02*
X169773183Y-106984165D01*
X169773183Y-106984165D02*
X169820802Y-107174641D01*
X169820802Y-107174641D02*
X169916040Y-107269880D01*
X169916040Y-107269880D02*
X170011278Y-107317499D01*
X170011278Y-107317499D02*
X170201754Y-107317499D01*
X170201754Y-107317499D02*
X170296992Y-107269880D01*
X170296992Y-107269880D02*
X170392230Y-107174641D01*
X170392230Y-107174641D02*
X170439849Y-106984165D01*
X170439849Y-106984165D02*
X170439849Y-106650832D01*
X170439849Y-106650832D02*
X170392230Y-106460356D01*
X170392230Y-106460356D02*
X170296992Y-106365118D01*
X170296992Y-106365118D02*
X170201754Y-106317499D01*
X168773183Y-107317499D02*
X169106516Y-106841308D01*
X169344611Y-107317499D02*
X169344611Y-106317499D01*
X169344611Y-106317499D02*
X168963659Y-106317499D01*
X168963659Y-106317499D02*
X168868421Y-106365118D01*
X168868421Y-106365118D02*
X168820802Y-106412737D01*
X168820802Y-106412737D02*
X168773183Y-106507975D01*
X168773183Y-106507975D02*
X168773183Y-106650832D01*
X168773183Y-106650832D02*
X168820802Y-106746070D01*
X168820802Y-106746070D02*
X168868421Y-106793689D01*
X168868421Y-106793689D02*
X168963659Y-106841308D01*
X168963659Y-106841308D02*
X169344611Y-106841308D01*
X168154135Y-106841308D02*
X168154135Y-107317499D01*
X168487468Y-106317499D02*
X168154135Y-106841308D01*
X168154135Y-106841308D02*
X167820802Y-106317499D01*
X166773182Y-107031784D02*
X166296992Y-107031784D01*
X166868420Y-107317499D02*
X166535087Y-106317499D01*
X166535087Y-106317499D02*
X166201754Y-107317499D01*
X165868420Y-107317499D02*
X165868420Y-106317499D01*
X165868420Y-106317499D02*
X165487468Y-106317499D01*
X165487468Y-106317499D02*
X165392230Y-106365118D01*
X165392230Y-106365118D02*
X165344611Y-106412737D01*
X165344611Y-106412737D02*
X165296992Y-106507975D01*
X165296992Y-106507975D02*
X165296992Y-106650832D01*
X165296992Y-106650832D02*
X165344611Y-106746070D01*
X165344611Y-106746070D02*
X165392230Y-106793689D01*
X165392230Y-106793689D02*
X165487468Y-106841308D01*
X165487468Y-106841308D02*
X165868420Y-106841308D01*
X164868420Y-107317499D02*
X164868420Y-106317499D01*
X164868420Y-106317499D02*
X164487468Y-106317499D01*
X164487468Y-106317499D02*
X164392230Y-106365118D01*
X164392230Y-106365118D02*
X164344611Y-106412737D01*
X164344611Y-106412737D02*
X164296992Y-106507975D01*
X164296992Y-106507975D02*
X164296992Y-106650832D01*
X164296992Y-106650832D02*
X164344611Y-106746070D01*
X164344611Y-106746070D02*
X164392230Y-106793689D01*
X164392230Y-106793689D02*
X164487468Y-106841308D01*
X164487468Y-106841308D02*
X164868420Y-106841308D01*
X163296992Y-107317499D02*
X163630325Y-106841308D01*
X163868420Y-107317499D02*
X163868420Y-106317499D01*
X163868420Y-106317499D02*
X163487468Y-106317499D01*
X163487468Y-106317499D02*
X163392230Y-106365118D01*
X163392230Y-106365118D02*
X163344611Y-106412737D01*
X163344611Y-106412737D02*
X163296992Y-106507975D01*
X163296992Y-106507975D02*
X163296992Y-106650832D01*
X163296992Y-106650832D02*
X163344611Y-106746070D01*
X163344611Y-106746070D02*
X163392230Y-106793689D01*
X163392230Y-106793689D02*
X163487468Y-106841308D01*
X163487468Y-106841308D02*
X163868420Y-106841308D01*
X162677944Y-106317499D02*
X162487468Y-106317499D01*
X162487468Y-106317499D02*
X162392230Y-106365118D01*
X162392230Y-106365118D02*
X162296992Y-106460356D01*
X162296992Y-106460356D02*
X162249373Y-106650832D01*
X162249373Y-106650832D02*
X162249373Y-106984165D01*
X162249373Y-106984165D02*
X162296992Y-107174641D01*
X162296992Y-107174641D02*
X162392230Y-107269880D01*
X162392230Y-107269880D02*
X162487468Y-107317499D01*
X162487468Y-107317499D02*
X162677944Y-107317499D01*
X162677944Y-107317499D02*
X162773182Y-107269880D01*
X162773182Y-107269880D02*
X162868420Y-107174641D01*
X162868420Y-107174641D02*
X162916039Y-106984165D01*
X162916039Y-106984165D02*
X162916039Y-106650832D01*
X162916039Y-106650832D02*
X162868420Y-106460356D01*
X162868420Y-106460356D02*
X162773182Y-106365118D01*
X162773182Y-106365118D02*
X162677944Y-106317499D01*
X161963658Y-106317499D02*
X161630325Y-107317499D01*
X161630325Y-107317499D02*
X161296992Y-106317499D01*
X161011277Y-107031784D02*
X160535087Y-107031784D01*
X161106515Y-107317499D02*
X160773182Y-106317499D01*
X160773182Y-106317499D02*
X160439849Y-107317499D01*
X159630325Y-107317499D02*
X160106515Y-107317499D01*
X160106515Y-107317499D02*
X160106515Y-106317499D01*
X179630326Y-107927443D02*
X179630326Y-108736966D01*
X179630326Y-108736966D02*
X179582707Y-108832204D01*
X179582707Y-108832204D02*
X179535088Y-108879824D01*
X179535088Y-108879824D02*
X179439850Y-108927443D01*
X179439850Y-108927443D02*
X179249374Y-108927443D01*
X179249374Y-108927443D02*
X179154136Y-108879824D01*
X179154136Y-108879824D02*
X179106517Y-108832204D01*
X179106517Y-108832204D02*
X179058898Y-108736966D01*
X179058898Y-108736966D02*
X179058898Y-107927443D01*
X178630326Y-108879824D02*
X178487469Y-108927443D01*
X178487469Y-108927443D02*
X178249374Y-108927443D01*
X178249374Y-108927443D02*
X178154136Y-108879824D01*
X178154136Y-108879824D02*
X178106517Y-108832204D01*
X178106517Y-108832204D02*
X178058898Y-108736966D01*
X178058898Y-108736966D02*
X178058898Y-108641728D01*
X178058898Y-108641728D02*
X178106517Y-108546490D01*
X178106517Y-108546490D02*
X178154136Y-108498871D01*
X178154136Y-108498871D02*
X178249374Y-108451252D01*
X178249374Y-108451252D02*
X178439850Y-108403633D01*
X178439850Y-108403633D02*
X178535088Y-108356014D01*
X178535088Y-108356014D02*
X178582707Y-108308395D01*
X178582707Y-108308395D02*
X178630326Y-108213157D01*
X178630326Y-108213157D02*
X178630326Y-108117919D01*
X178630326Y-108117919D02*
X178582707Y-108022681D01*
X178582707Y-108022681D02*
X178535088Y-107975062D01*
X178535088Y-107975062D02*
X178439850Y-107927443D01*
X178439850Y-107927443D02*
X178201755Y-107927443D01*
X178201755Y-107927443D02*
X178058898Y-107975062D01*
X177630326Y-108403633D02*
X177296993Y-108403633D01*
X177154136Y-108927443D02*
X177630326Y-108927443D01*
X177630326Y-108927443D02*
X177630326Y-107927443D01*
X177630326Y-107927443D02*
X177154136Y-107927443D01*
X176011278Y-108641728D02*
X175535088Y-108641728D01*
X176106516Y-108927443D02*
X175773183Y-107927443D01*
X175773183Y-107927443D02*
X175439850Y-108927443D01*
X175249373Y-107927443D02*
X174677945Y-107927443D01*
X174963659Y-108927443D02*
X174963659Y-107927443D01*
X173392230Y-107927443D02*
X173201754Y-107927443D01*
X173201754Y-107927443D02*
X173106516Y-107975062D01*
X173106516Y-107975062D02*
X173011278Y-108070300D01*
X173011278Y-108070300D02*
X172963659Y-108260776D01*
X172963659Y-108260776D02*
X172963659Y-108594109D01*
X172963659Y-108594109D02*
X173011278Y-108784585D01*
X173011278Y-108784585D02*
X173106516Y-108879824D01*
X173106516Y-108879824D02*
X173201754Y-108927443D01*
X173201754Y-108927443D02*
X173392230Y-108927443D01*
X173392230Y-108927443D02*
X173487468Y-108879824D01*
X173487468Y-108879824D02*
X173582706Y-108784585D01*
X173582706Y-108784585D02*
X173630325Y-108594109D01*
X173630325Y-108594109D02*
X173630325Y-108260776D01*
X173630325Y-108260776D02*
X173582706Y-108070300D01*
X173582706Y-108070300D02*
X173487468Y-107975062D01*
X173487468Y-107975062D02*
X173392230Y-107927443D01*
X172630325Y-107927443D02*
X172392230Y-108927443D01*
X172392230Y-108927443D02*
X172201754Y-108213157D01*
X172201754Y-108213157D02*
X172011278Y-108927443D01*
X172011278Y-108927443D02*
X171773183Y-107927443D01*
X171392230Y-108927443D02*
X171392230Y-107927443D01*
X171392230Y-107927443D02*
X170820802Y-108927443D01*
X170820802Y-108927443D02*
X170820802Y-107927443D01*
X169011278Y-108927443D02*
X169344611Y-108451252D01*
X169582706Y-108927443D02*
X169582706Y-107927443D01*
X169582706Y-107927443D02*
X169201754Y-107927443D01*
X169201754Y-107927443D02*
X169106516Y-107975062D01*
X169106516Y-107975062D02*
X169058897Y-108022681D01*
X169058897Y-108022681D02*
X169011278Y-108117919D01*
X169011278Y-108117919D02*
X169011278Y-108260776D01*
X169011278Y-108260776D02*
X169058897Y-108356014D01*
X169058897Y-108356014D02*
X169106516Y-108403633D01*
X169106516Y-108403633D02*
X169201754Y-108451252D01*
X169201754Y-108451252D02*
X169582706Y-108451252D01*
X168582706Y-108927443D02*
X168582706Y-107927443D01*
X168154135Y-108879824D02*
X168011278Y-108927443D01*
X168011278Y-108927443D02*
X167773183Y-108927443D01*
X167773183Y-108927443D02*
X167677945Y-108879824D01*
X167677945Y-108879824D02*
X167630326Y-108832204D01*
X167630326Y-108832204D02*
X167582707Y-108736966D01*
X167582707Y-108736966D02*
X167582707Y-108641728D01*
X167582707Y-108641728D02*
X167630326Y-108546490D01*
X167630326Y-108546490D02*
X167677945Y-108498871D01*
X167677945Y-108498871D02*
X167773183Y-108451252D01*
X167773183Y-108451252D02*
X167963659Y-108403633D01*
X167963659Y-108403633D02*
X168058897Y-108356014D01*
X168058897Y-108356014D02*
X168106516Y-108308395D01*
X168106516Y-108308395D02*
X168154135Y-108213157D01*
X168154135Y-108213157D02*
X168154135Y-108117919D01*
X168154135Y-108117919D02*
X168106516Y-108022681D01*
X168106516Y-108022681D02*
X168058897Y-107975062D01*
X168058897Y-107975062D02*
X167963659Y-107927443D01*
X167963659Y-107927443D02*
X167725564Y-107927443D01*
X167725564Y-107927443D02*
X167582707Y-107975062D01*
X167154135Y-108927443D02*
X167154135Y-107927443D01*
X166582707Y-108927443D02*
X167011278Y-108356014D01*
X166582707Y-107927443D02*
X167154135Y-108498871D01*
X179630326Y-110013577D02*
X179296993Y-110013577D01*
X179154136Y-110537387D02*
X179630326Y-110537387D01*
X179630326Y-110537387D02*
X179630326Y-109537387D01*
X179630326Y-109537387D02*
X179154136Y-109537387D01*
X178868421Y-109537387D02*
X178535088Y-110537387D01*
X178535088Y-110537387D02*
X178201755Y-109537387D01*
X177916040Y-110251672D02*
X177439850Y-110251672D01*
X178011278Y-110537387D02*
X177677945Y-109537387D01*
X177677945Y-109537387D02*
X177344612Y-110537387D01*
X176535088Y-110537387D02*
X177011278Y-110537387D01*
X177011278Y-110537387D02*
X177011278Y-109537387D01*
X176201754Y-109537387D02*
X176201754Y-110346910D01*
X176201754Y-110346910D02*
X176154135Y-110442148D01*
X176154135Y-110442148D02*
X176106516Y-110489768D01*
X176106516Y-110489768D02*
X176011278Y-110537387D01*
X176011278Y-110537387D02*
X175820802Y-110537387D01*
X175820802Y-110537387D02*
X175725564Y-110489768D01*
X175725564Y-110489768D02*
X175677945Y-110442148D01*
X175677945Y-110442148D02*
X175630326Y-110346910D01*
X175630326Y-110346910D02*
X175630326Y-109537387D01*
X175201754Y-110251672D02*
X174725564Y-110251672D01*
X175296992Y-110537387D02*
X174963659Y-109537387D01*
X174963659Y-109537387D02*
X174630326Y-110537387D01*
X174439849Y-109537387D02*
X173868421Y-109537387D01*
X174154135Y-110537387D02*
X174154135Y-109537387D01*
X173535087Y-110537387D02*
X173535087Y-109537387D01*
X172868421Y-109537387D02*
X172677945Y-109537387D01*
X172677945Y-109537387D02*
X172582707Y-109585006D01*
X172582707Y-109585006D02*
X172487469Y-109680244D01*
X172487469Y-109680244D02*
X172439850Y-109870720D01*
X172439850Y-109870720D02*
X172439850Y-110204053D01*
X172439850Y-110204053D02*
X172487469Y-110394529D01*
X172487469Y-110394529D02*
X172582707Y-110489768D01*
X172582707Y-110489768D02*
X172677945Y-110537387D01*
X172677945Y-110537387D02*
X172868421Y-110537387D01*
X172868421Y-110537387D02*
X172963659Y-110489768D01*
X172963659Y-110489768D02*
X173058897Y-110394529D01*
X173058897Y-110394529D02*
X173106516Y-110204053D01*
X173106516Y-110204053D02*
X173106516Y-109870720D01*
X173106516Y-109870720D02*
X173058897Y-109680244D01*
X173058897Y-109680244D02*
X172963659Y-109585006D01*
X172963659Y-109585006D02*
X172868421Y-109537387D01*
X172011278Y-110537387D02*
X172011278Y-109537387D01*
X172011278Y-109537387D02*
X171439850Y-110537387D01*
X171439850Y-110537387D02*
X171439850Y-109537387D01*
X170011278Y-109537387D02*
X169820802Y-109537387D01*
X169820802Y-109537387D02*
X169725564Y-109585006D01*
X169725564Y-109585006D02*
X169630326Y-109680244D01*
X169630326Y-109680244D02*
X169582707Y-109870720D01*
X169582707Y-109870720D02*
X169582707Y-110204053D01*
X169582707Y-110204053D02*
X169630326Y-110394529D01*
X169630326Y-110394529D02*
X169725564Y-110489768D01*
X169725564Y-110489768D02*
X169820802Y-110537387D01*
X169820802Y-110537387D02*
X170011278Y-110537387D01*
X170011278Y-110537387D02*
X170106516Y-110489768D01*
X170106516Y-110489768D02*
X170201754Y-110394529D01*
X170201754Y-110394529D02*
X170249373Y-110204053D01*
X170249373Y-110204053D02*
X170249373Y-109870720D01*
X170249373Y-109870720D02*
X170201754Y-109680244D01*
X170201754Y-109680244D02*
X170106516Y-109585006D01*
X170106516Y-109585006D02*
X170011278Y-109537387D01*
X169154135Y-110537387D02*
X169154135Y-109537387D01*
X169154135Y-109537387D02*
X168582707Y-110537387D01*
X168582707Y-110537387D02*
X168582707Y-109537387D01*
X167630326Y-110537387D02*
X168106516Y-110537387D01*
X168106516Y-110537387D02*
X168106516Y-109537387D01*
X167106516Y-110061196D02*
X167106516Y-110537387D01*
X167439849Y-109537387D02*
X167106516Y-110061196D01*
X167106516Y-110061196D02*
X166773183Y-109537387D01*
X179630326Y-113757275D02*
X179630326Y-112757275D01*
X179630326Y-112757275D02*
X179392231Y-112757275D01*
X179392231Y-112757275D02*
X179249374Y-112804894D01*
X179249374Y-112804894D02*
X179154136Y-112900132D01*
X179154136Y-112900132D02*
X179106517Y-112995370D01*
X179106517Y-112995370D02*
X179058898Y-113185846D01*
X179058898Y-113185846D02*
X179058898Y-113328703D01*
X179058898Y-113328703D02*
X179106517Y-113519179D01*
X179106517Y-113519179D02*
X179154136Y-113614417D01*
X179154136Y-113614417D02*
X179249374Y-113709656D01*
X179249374Y-113709656D02*
X179392231Y-113757275D01*
X179392231Y-113757275D02*
X179630326Y-113757275D01*
X178630326Y-113233465D02*
X178296993Y-113233465D01*
X178154136Y-113757275D02*
X178630326Y-113757275D01*
X178630326Y-113757275D02*
X178630326Y-112757275D01*
X178630326Y-112757275D02*
X178154136Y-112757275D01*
X177773183Y-113709656D02*
X177630326Y-113757275D01*
X177630326Y-113757275D02*
X177392231Y-113757275D01*
X177392231Y-113757275D02*
X177296993Y-113709656D01*
X177296993Y-113709656D02*
X177249374Y-113662036D01*
X177249374Y-113662036D02*
X177201755Y-113566798D01*
X177201755Y-113566798D02*
X177201755Y-113471560D01*
X177201755Y-113471560D02*
X177249374Y-113376322D01*
X177249374Y-113376322D02*
X177296993Y-113328703D01*
X177296993Y-113328703D02*
X177392231Y-113281084D01*
X177392231Y-113281084D02*
X177582707Y-113233465D01*
X177582707Y-113233465D02*
X177677945Y-113185846D01*
X177677945Y-113185846D02*
X177725564Y-113138227D01*
X177725564Y-113138227D02*
X177773183Y-113042989D01*
X177773183Y-113042989D02*
X177773183Y-112947751D01*
X177773183Y-112947751D02*
X177725564Y-112852513D01*
X177725564Y-112852513D02*
X177677945Y-112804894D01*
X177677945Y-112804894D02*
X177582707Y-112757275D01*
X177582707Y-112757275D02*
X177344612Y-112757275D01*
X177344612Y-112757275D02*
X177201755Y-112804894D01*
X176773183Y-113757275D02*
X176773183Y-112757275D01*
X175773184Y-112804894D02*
X175868422Y-112757275D01*
X175868422Y-112757275D02*
X176011279Y-112757275D01*
X176011279Y-112757275D02*
X176154136Y-112804894D01*
X176154136Y-112804894D02*
X176249374Y-112900132D01*
X176249374Y-112900132D02*
X176296993Y-112995370D01*
X176296993Y-112995370D02*
X176344612Y-113185846D01*
X176344612Y-113185846D02*
X176344612Y-113328703D01*
X176344612Y-113328703D02*
X176296993Y-113519179D01*
X176296993Y-113519179D02*
X176249374Y-113614417D01*
X176249374Y-113614417D02*
X176154136Y-113709656D01*
X176154136Y-113709656D02*
X176011279Y-113757275D01*
X176011279Y-113757275D02*
X175916041Y-113757275D01*
X175916041Y-113757275D02*
X175773184Y-113709656D01*
X175773184Y-113709656D02*
X175725565Y-113662036D01*
X175725565Y-113662036D02*
X175725565Y-113328703D01*
X175725565Y-113328703D02*
X175916041Y-113328703D01*
X175296993Y-113757275D02*
X175296993Y-112757275D01*
X175296993Y-112757275D02*
X174725565Y-113757275D01*
X174725565Y-113757275D02*
X174725565Y-112757275D01*
X174249374Y-113233465D02*
X173916041Y-113233465D01*
X173773184Y-113757275D02*
X174249374Y-113757275D01*
X174249374Y-113757275D02*
X174249374Y-112757275D01*
X174249374Y-112757275D02*
X173773184Y-112757275D01*
X173344612Y-113757275D02*
X173344612Y-112757275D01*
X173344612Y-112757275D02*
X173106517Y-112757275D01*
X173106517Y-112757275D02*
X172963660Y-112804894D01*
X172963660Y-112804894D02*
X172868422Y-112900132D01*
X172868422Y-112900132D02*
X172820803Y-112995370D01*
X172820803Y-112995370D02*
X172773184Y-113185846D01*
X172773184Y-113185846D02*
X172773184Y-113328703D01*
X172773184Y-113328703D02*
X172820803Y-113519179D01*
X172820803Y-113519179D02*
X172868422Y-113614417D01*
X172868422Y-113614417D02*
X172963660Y-113709656D01*
X172963660Y-113709656D02*
X173106517Y-113757275D01*
X173106517Y-113757275D02*
X173344612Y-113757275D01*
X171249374Y-113233465D02*
X171106517Y-113281084D01*
X171106517Y-113281084D02*
X171058898Y-113328703D01*
X171058898Y-113328703D02*
X171011279Y-113423941D01*
X171011279Y-113423941D02*
X171011279Y-113566798D01*
X171011279Y-113566798D02*
X171058898Y-113662036D01*
X171058898Y-113662036D02*
X171106517Y-113709656D01*
X171106517Y-113709656D02*
X171201755Y-113757275D01*
X171201755Y-113757275D02*
X171582707Y-113757275D01*
X171582707Y-113757275D02*
X171582707Y-112757275D01*
X171582707Y-112757275D02*
X171249374Y-112757275D01*
X171249374Y-112757275D02*
X171154136Y-112804894D01*
X171154136Y-112804894D02*
X171106517Y-112852513D01*
X171106517Y-112852513D02*
X171058898Y-112947751D01*
X171058898Y-112947751D02*
X171058898Y-113042989D01*
X171058898Y-113042989D02*
X171106517Y-113138227D01*
X171106517Y-113138227D02*
X171154136Y-113185846D01*
X171154136Y-113185846D02*
X171249374Y-113233465D01*
X171249374Y-113233465D02*
X171582707Y-113233465D01*
X170392231Y-113281084D02*
X170392231Y-113757275D01*
X170725564Y-112757275D02*
X170392231Y-113281084D01*
X170392231Y-113281084D02*
X170058898Y-112757275D01*
X168963659Y-113757275D02*
X168963659Y-112757275D01*
X168487469Y-113757275D02*
X168487469Y-112757275D01*
X168487469Y-112757275D02*
X167916041Y-113757275D01*
X167916041Y-113757275D02*
X167916041Y-112757275D01*
X167439850Y-113757275D02*
X167439850Y-112757275D01*
X167439850Y-112757275D02*
X167201755Y-112757275D01*
X167201755Y-112757275D02*
X167058898Y-112804894D01*
X167058898Y-112804894D02*
X166963660Y-112900132D01*
X166963660Y-112900132D02*
X166916041Y-112995370D01*
X166916041Y-112995370D02*
X166868422Y-113185846D01*
X166868422Y-113185846D02*
X166868422Y-113328703D01*
X166868422Y-113328703D02*
X166916041Y-113519179D01*
X166916041Y-113519179D02*
X166963660Y-113614417D01*
X166963660Y-113614417D02*
X167058898Y-113709656D01*
X167058898Y-113709656D02*
X167201755Y-113757275D01*
X167201755Y-113757275D02*
X167439850Y-113757275D01*
X166249374Y-112757275D02*
X166058898Y-112757275D01*
X166058898Y-112757275D02*
X165963660Y-112804894D01*
X165963660Y-112804894D02*
X165868422Y-112900132D01*
X165868422Y-112900132D02*
X165820803Y-113090608D01*
X165820803Y-113090608D02*
X165820803Y-113423941D01*
X165820803Y-113423941D02*
X165868422Y-113614417D01*
X165868422Y-113614417D02*
X165963660Y-113709656D01*
X165963660Y-113709656D02*
X166058898Y-113757275D01*
X166058898Y-113757275D02*
X166249374Y-113757275D01*
X166249374Y-113757275D02*
X166344612Y-113709656D01*
X166344612Y-113709656D02*
X166439850Y-113614417D01*
X166439850Y-113614417D02*
X166487469Y-113423941D01*
X166487469Y-113423941D02*
X166487469Y-113090608D01*
X166487469Y-113090608D02*
X166439850Y-112900132D01*
X166439850Y-112900132D02*
X166344612Y-112804894D01*
X166344612Y-112804894D02*
X166249374Y-112757275D01*
X165201755Y-112757275D02*
X165011279Y-112757275D01*
X165011279Y-112757275D02*
X164916041Y-112804894D01*
X164916041Y-112804894D02*
X164820803Y-112900132D01*
X164820803Y-112900132D02*
X164773184Y-113090608D01*
X164773184Y-113090608D02*
X164773184Y-113423941D01*
X164773184Y-113423941D02*
X164820803Y-113614417D01*
X164820803Y-113614417D02*
X164916041Y-113709656D01*
X164916041Y-113709656D02*
X165011279Y-113757275D01*
X165011279Y-113757275D02*
X165201755Y-113757275D01*
X165201755Y-113757275D02*
X165296993Y-113709656D01*
X165296993Y-113709656D02*
X165392231Y-113614417D01*
X165392231Y-113614417D02*
X165439850Y-113423941D01*
X165439850Y-113423941D02*
X165439850Y-113090608D01*
X165439850Y-113090608D02*
X165392231Y-112900132D01*
X165392231Y-112900132D02*
X165296993Y-112804894D01*
X165296993Y-112804894D02*
X165201755Y-112757275D01*
X163773184Y-113757275D02*
X164106517Y-113281084D01*
X164344612Y-113757275D02*
X164344612Y-112757275D01*
X164344612Y-112757275D02*
X163963660Y-112757275D01*
X163963660Y-112757275D02*
X163868422Y-112804894D01*
X163868422Y-112804894D02*
X163820803Y-112852513D01*
X163820803Y-112852513D02*
X163773184Y-112947751D01*
X163773184Y-112947751D02*
X163773184Y-113090608D01*
X163773184Y-113090608D02*
X163820803Y-113185846D01*
X163820803Y-113185846D02*
X163868422Y-113233465D01*
X163868422Y-113233465D02*
X163963660Y-113281084D01*
X163963660Y-113281084D02*
X164344612Y-113281084D01*
X163582708Y-113852513D02*
X162820803Y-113852513D01*
X162582707Y-113757275D02*
X162582707Y-112757275D01*
X162106517Y-113757275D02*
X162106517Y-112757275D01*
X162106517Y-112757275D02*
X161535089Y-113757275D01*
X161535089Y-113757275D02*
X161535089Y-112757275D01*
X161058898Y-113757275D02*
X161058898Y-112757275D01*
X161058898Y-112757275D02*
X160820803Y-112757275D01*
X160820803Y-112757275D02*
X160677946Y-112804894D01*
X160677946Y-112804894D02*
X160582708Y-112900132D01*
X160582708Y-112900132D02*
X160535089Y-112995370D01*
X160535089Y-112995370D02*
X160487470Y-113185846D01*
X160487470Y-113185846D02*
X160487470Y-113328703D01*
X160487470Y-113328703D02*
X160535089Y-113519179D01*
X160535089Y-113519179D02*
X160582708Y-113614417D01*
X160582708Y-113614417D02*
X160677946Y-113709656D01*
X160677946Y-113709656D02*
X160820803Y-113757275D01*
X160820803Y-113757275D02*
X161058898Y-113757275D01*
X160058898Y-112757275D02*
X160058898Y-113566798D01*
X160058898Y-113566798D02*
X160011279Y-113662036D01*
X160011279Y-113662036D02*
X159963660Y-113709656D01*
X159963660Y-113709656D02*
X159868422Y-113757275D01*
X159868422Y-113757275D02*
X159677946Y-113757275D01*
X159677946Y-113757275D02*
X159582708Y-113709656D01*
X159582708Y-113709656D02*
X159535089Y-113662036D01*
X159535089Y-113662036D02*
X159487470Y-113566798D01*
X159487470Y-113566798D02*
X159487470Y-112757275D01*
X159058898Y-113709656D02*
X158916041Y-113757275D01*
X158916041Y-113757275D02*
X158677946Y-113757275D01*
X158677946Y-113757275D02*
X158582708Y-113709656D01*
X158582708Y-113709656D02*
X158535089Y-113662036D01*
X158535089Y-113662036D02*
X158487470Y-113566798D01*
X158487470Y-113566798D02*
X158487470Y-113471560D01*
X158487470Y-113471560D02*
X158535089Y-113376322D01*
X158535089Y-113376322D02*
X158582708Y-113328703D01*
X158582708Y-113328703D02*
X158677946Y-113281084D01*
X158677946Y-113281084D02*
X158868422Y-113233465D01*
X158868422Y-113233465D02*
X158963660Y-113185846D01*
X158963660Y-113185846D02*
X159011279Y-113138227D01*
X159011279Y-113138227D02*
X159058898Y-113042989D01*
X159058898Y-113042989D02*
X159058898Y-112947751D01*
X159058898Y-112947751D02*
X159011279Y-112852513D01*
X159011279Y-112852513D02*
X158963660Y-112804894D01*
X158963660Y-112804894D02*
X158868422Y-112757275D01*
X158868422Y-112757275D02*
X158630327Y-112757275D01*
X158630327Y-112757275D02*
X158487470Y-112804894D01*
X158201755Y-112757275D02*
X157630327Y-112757275D01*
X157916041Y-113757275D02*
X157916041Y-112757275D01*
X156725565Y-113757275D02*
X157058898Y-113281084D01*
X157296993Y-113757275D02*
X157296993Y-112757275D01*
X157296993Y-112757275D02*
X156916041Y-112757275D01*
X156916041Y-112757275D02*
X156820803Y-112804894D01*
X156820803Y-112804894D02*
X156773184Y-112852513D01*
X156773184Y-112852513D02*
X156725565Y-112947751D01*
X156725565Y-112947751D02*
X156725565Y-113090608D01*
X156725565Y-113090608D02*
X156773184Y-113185846D01*
X156773184Y-113185846D02*
X156820803Y-113233465D01*
X156820803Y-113233465D02*
X156916041Y-113281084D01*
X156916041Y-113281084D02*
X157296993Y-113281084D01*
X156106517Y-113281084D02*
X156106517Y-113757275D01*
X156439850Y-112757275D02*
X156106517Y-113281084D01*
X156106517Y-113281084D02*
X155773184Y-112757275D01*
X179439850Y-114367219D02*
X179344612Y-114367219D01*
X179344612Y-114367219D02*
X179249374Y-114414838D01*
X179249374Y-114414838D02*
X179201755Y-114462457D01*
X179201755Y-114462457D02*
X179154136Y-114557695D01*
X179154136Y-114557695D02*
X179106517Y-114748171D01*
X179106517Y-114748171D02*
X179106517Y-114986266D01*
X179106517Y-114986266D02*
X179154136Y-115176742D01*
X179154136Y-115176742D02*
X179201755Y-115271980D01*
X179201755Y-115271980D02*
X179249374Y-115319600D01*
X179249374Y-115319600D02*
X179344612Y-115367219D01*
X179344612Y-115367219D02*
X179439850Y-115367219D01*
X179439850Y-115367219D02*
X179535088Y-115319600D01*
X179535088Y-115319600D02*
X179582707Y-115271980D01*
X179582707Y-115271980D02*
X179630326Y-115176742D01*
X179630326Y-115176742D02*
X179677945Y-114986266D01*
X179677945Y-114986266D02*
X179677945Y-114748171D01*
X179677945Y-114748171D02*
X179630326Y-114557695D01*
X179630326Y-114557695D02*
X179582707Y-114462457D01*
X179582707Y-114462457D02*
X179535088Y-114414838D01*
X179535088Y-114414838D02*
X179439850Y-114367219D01*
X178249374Y-114700552D02*
X178249374Y-115367219D01*
X178487469Y-114319600D02*
X178725564Y-115033885D01*
X178725564Y-115033885D02*
X178106517Y-115033885D01*
X177011279Y-114319600D02*
X177868421Y-115605314D01*
X176725564Y-114462457D02*
X176677945Y-114414838D01*
X176677945Y-114414838D02*
X176582707Y-114367219D01*
X176582707Y-114367219D02*
X176344612Y-114367219D01*
X176344612Y-114367219D02*
X176249374Y-114414838D01*
X176249374Y-114414838D02*
X176201755Y-114462457D01*
X176201755Y-114462457D02*
X176154136Y-114557695D01*
X176154136Y-114557695D02*
X176154136Y-114652933D01*
X176154136Y-114652933D02*
X176201755Y-114795790D01*
X176201755Y-114795790D02*
X176773183Y-115367219D01*
X176773183Y-115367219D02*
X176154136Y-115367219D01*
X175535088Y-114367219D02*
X175439850Y-114367219D01*
X175439850Y-114367219D02*
X175344612Y-114414838D01*
X175344612Y-114414838D02*
X175296993Y-114462457D01*
X175296993Y-114462457D02*
X175249374Y-114557695D01*
X175249374Y-114557695D02*
X175201755Y-114748171D01*
X175201755Y-114748171D02*
X175201755Y-114986266D01*
X175201755Y-114986266D02*
X175249374Y-115176742D01*
X175249374Y-115176742D02*
X175296993Y-115271980D01*
X175296993Y-115271980D02*
X175344612Y-115319600D01*
X175344612Y-115319600D02*
X175439850Y-115367219D01*
X175439850Y-115367219D02*
X175535088Y-115367219D01*
X175535088Y-115367219D02*
X175630326Y-115319600D01*
X175630326Y-115319600D02*
X175677945Y-115271980D01*
X175677945Y-115271980D02*
X175725564Y-115176742D01*
X175725564Y-115176742D02*
X175773183Y-114986266D01*
X175773183Y-114986266D02*
X175773183Y-114748171D01*
X175773183Y-114748171D02*
X175725564Y-114557695D01*
X175725564Y-114557695D02*
X175677945Y-114462457D01*
X175677945Y-114462457D02*
X175630326Y-114414838D01*
X175630326Y-114414838D02*
X175535088Y-114367219D01*
X174820802Y-114462457D02*
X174773183Y-114414838D01*
X174773183Y-114414838D02*
X174677945Y-114367219D01*
X174677945Y-114367219D02*
X174439850Y-114367219D01*
X174439850Y-114367219D02*
X174344612Y-114414838D01*
X174344612Y-114414838D02*
X174296993Y-114462457D01*
X174296993Y-114462457D02*
X174249374Y-114557695D01*
X174249374Y-114557695D02*
X174249374Y-114652933D01*
X174249374Y-114652933D02*
X174296993Y-114795790D01*
X174296993Y-114795790D02*
X174868421Y-115367219D01*
X174868421Y-115367219D02*
X174249374Y-115367219D01*
X173392231Y-114367219D02*
X173582707Y-114367219D01*
X173582707Y-114367219D02*
X173677945Y-114414838D01*
X173677945Y-114414838D02*
X173725564Y-114462457D01*
X173725564Y-114462457D02*
X173820802Y-114605314D01*
X173820802Y-114605314D02*
X173868421Y-114795790D01*
X173868421Y-114795790D02*
X173868421Y-115176742D01*
X173868421Y-115176742D02*
X173820802Y-115271980D01*
X173820802Y-115271980D02*
X173773183Y-115319600D01*
X173773183Y-115319600D02*
X173677945Y-115367219D01*
X173677945Y-115367219D02*
X173487469Y-115367219D01*
X173487469Y-115367219D02*
X173392231Y-115319600D01*
X173392231Y-115319600D02*
X173344612Y-115271980D01*
X173344612Y-115271980D02*
X173296993Y-115176742D01*
X173296993Y-115176742D02*
X173296993Y-114938647D01*
X173296993Y-114938647D02*
X173344612Y-114843409D01*
X173344612Y-114843409D02*
X173392231Y-114795790D01*
X173392231Y-114795790D02*
X173487469Y-114748171D01*
X173487469Y-114748171D02*
X173677945Y-114748171D01*
X173677945Y-114748171D02*
X173773183Y-114795790D01*
X173773183Y-114795790D02*
X173820802Y-114843409D01*
X173820802Y-114843409D02*
X173868421Y-114938647D01*
D11*
X106503104Y-116755639D02*
X105703104Y-116588973D01*
X105703104Y-116588973D02*
X106503104Y-116422306D01*
X105779295Y-115969926D02*
X105741200Y-115993735D01*
X105741200Y-115993735D02*
X105703104Y-116065164D01*
X105703104Y-116065164D02*
X105703104Y-116112783D01*
X105703104Y-116112783D02*
X105741200Y-116184211D01*
X105741200Y-116184211D02*
X105817390Y-116231830D01*
X105817390Y-116231830D02*
X105893580Y-116255640D01*
X105893580Y-116255640D02*
X106045961Y-116279449D01*
X106045961Y-116279449D02*
X106160247Y-116279449D01*
X106160247Y-116279449D02*
X106312628Y-116255640D01*
X106312628Y-116255640D02*
X106388819Y-116231830D01*
X106388819Y-116231830D02*
X106465009Y-116184211D01*
X106465009Y-116184211D02*
X106503104Y-116112783D01*
X106503104Y-116112783D02*
X106503104Y-116065164D01*
X106503104Y-116065164D02*
X106465009Y-115993735D01*
X106465009Y-115993735D02*
X106426914Y-115969926D01*
X105779295Y-115469926D02*
X105741200Y-115493735D01*
X105741200Y-115493735D02*
X105703104Y-115565164D01*
X105703104Y-115565164D02*
X105703104Y-115612783D01*
X105703104Y-115612783D02*
X105741200Y-115684211D01*
X105741200Y-115684211D02*
X105817390Y-115731830D01*
X105817390Y-115731830D02*
X105893580Y-115755640D01*
X105893580Y-115755640D02*
X106045961Y-115779449D01*
X106045961Y-115779449D02*
X106160247Y-115779449D01*
X106160247Y-115779449D02*
X106312628Y-115755640D01*
X106312628Y-115755640D02*
X106388819Y-115731830D01*
X106388819Y-115731830D02*
X106465009Y-115684211D01*
X106465009Y-115684211D02*
X106503104Y-115612783D01*
X106503104Y-115612783D02*
X106503104Y-115565164D01*
X106503104Y-115565164D02*
X106465009Y-115493735D01*
X106465009Y-115493735D02*
X106426914Y-115469926D01*
X106465009Y-113850879D02*
X106503104Y-113898498D01*
X106503104Y-113898498D02*
X106503104Y-113969927D01*
X106503104Y-113969927D02*
X106465009Y-114041355D01*
X106465009Y-114041355D02*
X106388819Y-114088974D01*
X106388819Y-114088974D02*
X106312628Y-114112784D01*
X106312628Y-114112784D02*
X106160247Y-114136593D01*
X106160247Y-114136593D02*
X106045961Y-114136593D01*
X106045961Y-114136593D02*
X105893580Y-114112784D01*
X105893580Y-114112784D02*
X105817390Y-114088974D01*
X105817390Y-114088974D02*
X105741200Y-114041355D01*
X105741200Y-114041355D02*
X105703104Y-113969927D01*
X105703104Y-113969927D02*
X105703104Y-113922308D01*
X105703104Y-113922308D02*
X105741200Y-113850879D01*
X105741200Y-113850879D02*
X105779295Y-113827070D01*
X105779295Y-113827070D02*
X106045961Y-113827070D01*
X106045961Y-113827070D02*
X106045961Y-113922308D01*
X105703104Y-113612784D02*
X106503104Y-113612784D01*
X106503104Y-113612784D02*
X105703104Y-113327070D01*
X105703104Y-113327070D02*
X106503104Y-113327070D01*
X105703104Y-113088974D02*
X106503104Y-113088974D01*
X106503104Y-113088974D02*
X106503104Y-112969926D01*
X106503104Y-112969926D02*
X106465009Y-112898498D01*
X106465009Y-112898498D02*
X106388819Y-112850879D01*
X106388819Y-112850879D02*
X106312628Y-112827069D01*
X106312628Y-112827069D02*
X106160247Y-112803260D01*
X106160247Y-112803260D02*
X106045961Y-112803260D01*
X106045961Y-112803260D02*
X105893580Y-112827069D01*
X105893580Y-112827069D02*
X105817390Y-112850879D01*
X105817390Y-112850879D02*
X105741200Y-112898498D01*
X105741200Y-112898498D02*
X105703104Y-112969926D01*
X105703104Y-112969926D02*
X105703104Y-113088974D01*
X105779295Y-110398500D02*
X105741200Y-110422309D01*
X105741200Y-110422309D02*
X105703104Y-110493738D01*
X105703104Y-110493738D02*
X105703104Y-110541357D01*
X105703104Y-110541357D02*
X105741200Y-110612785D01*
X105741200Y-110612785D02*
X105817390Y-110660404D01*
X105817390Y-110660404D02*
X105893580Y-110684214D01*
X105893580Y-110684214D02*
X106045961Y-110708023D01*
X106045961Y-110708023D02*
X106160247Y-110708023D01*
X106160247Y-110708023D02*
X106312628Y-110684214D01*
X106312628Y-110684214D02*
X106388819Y-110660404D01*
X106388819Y-110660404D02*
X106465009Y-110612785D01*
X106465009Y-110612785D02*
X106503104Y-110541357D01*
X106503104Y-110541357D02*
X106503104Y-110493738D01*
X106503104Y-110493738D02*
X106465009Y-110422309D01*
X106465009Y-110422309D02*
X106426914Y-110398500D01*
X105741200Y-110208023D02*
X105703104Y-110136595D01*
X105703104Y-110136595D02*
X105703104Y-110017547D01*
X105703104Y-110017547D02*
X105741200Y-109969928D01*
X105741200Y-109969928D02*
X105779295Y-109946119D01*
X105779295Y-109946119D02*
X105855485Y-109922309D01*
X105855485Y-109922309D02*
X105931676Y-109922309D01*
X105931676Y-109922309D02*
X106007866Y-109946119D01*
X106007866Y-109946119D02*
X106045961Y-109969928D01*
X106045961Y-109969928D02*
X106084057Y-110017547D01*
X106084057Y-110017547D02*
X106122152Y-110112785D01*
X106122152Y-110112785D02*
X106160247Y-110160404D01*
X106160247Y-110160404D02*
X106198342Y-110184214D01*
X106198342Y-110184214D02*
X106274533Y-110208023D01*
X106274533Y-110208023D02*
X106350723Y-110208023D01*
X106350723Y-110208023D02*
X106426914Y-110184214D01*
X106426914Y-110184214D02*
X106465009Y-110160404D01*
X106465009Y-110160404D02*
X106503104Y-110112785D01*
X106503104Y-110112785D02*
X106503104Y-109993738D01*
X106503104Y-109993738D02*
X106465009Y-109922309D01*
X105703104Y-108279454D02*
X106084057Y-108446120D01*
X105703104Y-108565168D02*
X106503104Y-108565168D01*
X106503104Y-108565168D02*
X106503104Y-108374692D01*
X106503104Y-108374692D02*
X106465009Y-108327073D01*
X106465009Y-108327073D02*
X106426914Y-108303263D01*
X106426914Y-108303263D02*
X106350723Y-108279454D01*
X106350723Y-108279454D02*
X106236438Y-108279454D01*
X106236438Y-108279454D02*
X106160247Y-108303263D01*
X106160247Y-108303263D02*
X106122152Y-108327073D01*
X106122152Y-108327073D02*
X106084057Y-108374692D01*
X106084057Y-108374692D02*
X106084057Y-108565168D01*
X105741200Y-108088977D02*
X105703104Y-108017549D01*
X105703104Y-108017549D02*
X105703104Y-107898501D01*
X105703104Y-107898501D02*
X105741200Y-107850882D01*
X105741200Y-107850882D02*
X105779295Y-107827073D01*
X105779295Y-107827073D02*
X105855485Y-107803263D01*
X105855485Y-107803263D02*
X105931676Y-107803263D01*
X105931676Y-107803263D02*
X106007866Y-107827073D01*
X106007866Y-107827073D02*
X106045961Y-107850882D01*
X106045961Y-107850882D02*
X106084057Y-107898501D01*
X106084057Y-107898501D02*
X106122152Y-107993739D01*
X106122152Y-107993739D02*
X106160247Y-108041358D01*
X106160247Y-108041358D02*
X106198342Y-108065168D01*
X106198342Y-108065168D02*
X106274533Y-108088977D01*
X106274533Y-108088977D02*
X106350723Y-108088977D01*
X106350723Y-108088977D02*
X106426914Y-108065168D01*
X106426914Y-108065168D02*
X106465009Y-108041358D01*
X106465009Y-108041358D02*
X106503104Y-107993739D01*
X106503104Y-107993739D02*
X106503104Y-107874692D01*
X106503104Y-107874692D02*
X106465009Y-107803263D01*
X106503104Y-107660406D02*
X106503104Y-107374692D01*
X105703104Y-107517549D02*
X106503104Y-107517549D01*
X105703104Y-105684218D02*
X106503104Y-105684218D01*
X106503104Y-105684218D02*
X106503104Y-105565170D01*
X106503104Y-105565170D02*
X106465009Y-105493742D01*
X106465009Y-105493742D02*
X106388819Y-105446123D01*
X106388819Y-105446123D02*
X106312628Y-105422313D01*
X106312628Y-105422313D02*
X106160247Y-105398504D01*
X106160247Y-105398504D02*
X106045961Y-105398504D01*
X106045961Y-105398504D02*
X105893580Y-105422313D01*
X105893580Y-105422313D02*
X105817390Y-105446123D01*
X105817390Y-105446123D02*
X105741200Y-105493742D01*
X105741200Y-105493742D02*
X105703104Y-105565170D01*
X105703104Y-105565170D02*
X105703104Y-105684218D01*
X105779295Y-104898504D02*
X105741200Y-104922313D01*
X105741200Y-104922313D02*
X105703104Y-104993742D01*
X105703104Y-104993742D02*
X105703104Y-105041361D01*
X105703104Y-105041361D02*
X105741200Y-105112789D01*
X105741200Y-105112789D02*
X105817390Y-105160408D01*
X105817390Y-105160408D02*
X105893580Y-105184218D01*
X105893580Y-105184218D02*
X106045961Y-105208027D01*
X106045961Y-105208027D02*
X106160247Y-105208027D01*
X106160247Y-105208027D02*
X106312628Y-105184218D01*
X106312628Y-105184218D02*
X106388819Y-105160408D01*
X106388819Y-105160408D02*
X106465009Y-105112789D01*
X106465009Y-105112789D02*
X106503104Y-105041361D01*
X106503104Y-105041361D02*
X106503104Y-104993742D01*
X106503104Y-104993742D02*
X106465009Y-104922313D01*
X106465009Y-104922313D02*
X106426914Y-104898504D01*
X105703104Y-103922314D02*
X106503104Y-103922314D01*
X106503104Y-103922314D02*
X105931676Y-103755647D01*
X105931676Y-103755647D02*
X106503104Y-103588981D01*
X106503104Y-103588981D02*
X105703104Y-103588981D01*
X106503104Y-103255647D02*
X106503104Y-103160409D01*
X106503104Y-103160409D02*
X106465009Y-103112790D01*
X106465009Y-103112790D02*
X106388819Y-103065171D01*
X106388819Y-103065171D02*
X106236438Y-103041361D01*
X106236438Y-103041361D02*
X105969771Y-103041361D01*
X105969771Y-103041361D02*
X105817390Y-103065171D01*
X105817390Y-103065171D02*
X105741200Y-103112790D01*
X105741200Y-103112790D02*
X105703104Y-103160409D01*
X105703104Y-103160409D02*
X105703104Y-103255647D01*
X105703104Y-103255647D02*
X105741200Y-103303266D01*
X105741200Y-103303266D02*
X105817390Y-103350885D01*
X105817390Y-103350885D02*
X105969771Y-103374694D01*
X105969771Y-103374694D02*
X106236438Y-103374694D01*
X106236438Y-103374694D02*
X106388819Y-103350885D01*
X106388819Y-103350885D02*
X106465009Y-103303266D01*
X106465009Y-103303266D02*
X106503104Y-103255647D01*
X105741200Y-102850884D02*
X105703104Y-102779456D01*
X105703104Y-102779456D02*
X105703104Y-102660408D01*
X105703104Y-102660408D02*
X105741200Y-102612789D01*
X105741200Y-102612789D02*
X105779295Y-102588980D01*
X105779295Y-102588980D02*
X105855485Y-102565170D01*
X105855485Y-102565170D02*
X105931676Y-102565170D01*
X105931676Y-102565170D02*
X106007866Y-102588980D01*
X106007866Y-102588980D02*
X106045961Y-102612789D01*
X106045961Y-102612789D02*
X106084057Y-102660408D01*
X106084057Y-102660408D02*
X106122152Y-102755646D01*
X106122152Y-102755646D02*
X106160247Y-102803265D01*
X106160247Y-102803265D02*
X106198342Y-102827075D01*
X106198342Y-102827075D02*
X106274533Y-102850884D01*
X106274533Y-102850884D02*
X106350723Y-102850884D01*
X106350723Y-102850884D02*
X106426914Y-102827075D01*
X106426914Y-102827075D02*
X106465009Y-102803265D01*
X106465009Y-102803265D02*
X106503104Y-102755646D01*
X106503104Y-102755646D02*
X106503104Y-102636599D01*
X106503104Y-102636599D02*
X106465009Y-102565170D01*
X105703104Y-102350885D02*
X106503104Y-102350885D01*
X105741200Y-101374695D02*
X105703104Y-101303267D01*
X105703104Y-101303267D02*
X105703104Y-101184219D01*
X105703104Y-101184219D02*
X105741200Y-101136600D01*
X105741200Y-101136600D02*
X105779295Y-101112791D01*
X105779295Y-101112791D02*
X105855485Y-101088981D01*
X105855485Y-101088981D02*
X105931676Y-101088981D01*
X105931676Y-101088981D02*
X106007866Y-101112791D01*
X106007866Y-101112791D02*
X106045961Y-101136600D01*
X106045961Y-101136600D02*
X106084057Y-101184219D01*
X106084057Y-101184219D02*
X106122152Y-101279457D01*
X106122152Y-101279457D02*
X106160247Y-101327076D01*
X106160247Y-101327076D02*
X106198342Y-101350886D01*
X106198342Y-101350886D02*
X106274533Y-101374695D01*
X106274533Y-101374695D02*
X106350723Y-101374695D01*
X106350723Y-101374695D02*
X106426914Y-101350886D01*
X106426914Y-101350886D02*
X106465009Y-101327076D01*
X106465009Y-101327076D02*
X106503104Y-101279457D01*
X106503104Y-101279457D02*
X106503104Y-101160410D01*
X106503104Y-101160410D02*
X106465009Y-101088981D01*
X105779295Y-100588982D02*
X105741200Y-100612791D01*
X105741200Y-100612791D02*
X105703104Y-100684220D01*
X105703104Y-100684220D02*
X105703104Y-100731839D01*
X105703104Y-100731839D02*
X105741200Y-100803267D01*
X105741200Y-100803267D02*
X105817390Y-100850886D01*
X105817390Y-100850886D02*
X105893580Y-100874696D01*
X105893580Y-100874696D02*
X106045961Y-100898505D01*
X106045961Y-100898505D02*
X106160247Y-100898505D01*
X106160247Y-100898505D02*
X106312628Y-100874696D01*
X106312628Y-100874696D02*
X106388819Y-100850886D01*
X106388819Y-100850886D02*
X106465009Y-100803267D01*
X106465009Y-100803267D02*
X106503104Y-100731839D01*
X106503104Y-100731839D02*
X106503104Y-100684220D01*
X106503104Y-100684220D02*
X106465009Y-100612791D01*
X106465009Y-100612791D02*
X106426914Y-100588982D01*
X105703104Y-100374696D02*
X106503104Y-100374696D01*
X105703104Y-100088982D02*
X106160247Y-100303267D01*
X106503104Y-100088982D02*
X106045961Y-100374696D01*
X105703104Y-98112793D02*
X105703104Y-98350888D01*
X105703104Y-98350888D02*
X106503104Y-98350888D01*
X106122152Y-97946126D02*
X106122152Y-97779459D01*
X105703104Y-97708031D02*
X105703104Y-97946126D01*
X105703104Y-97946126D02*
X106503104Y-97946126D01*
X106503104Y-97946126D02*
X106503104Y-97708031D01*
X105703104Y-97493745D02*
X106503104Y-97493745D01*
X106503104Y-97493745D02*
X106503104Y-97374697D01*
X106503104Y-97374697D02*
X106465009Y-97303269D01*
X106465009Y-97303269D02*
X106388819Y-97255650D01*
X106388819Y-97255650D02*
X106312628Y-97231840D01*
X106312628Y-97231840D02*
X106160247Y-97208031D01*
X106160247Y-97208031D02*
X106045961Y-97208031D01*
X106045961Y-97208031D02*
X105893580Y-97231840D01*
X105893580Y-97231840D02*
X105817390Y-97255650D01*
X105817390Y-97255650D02*
X105741200Y-97303269D01*
X105741200Y-97303269D02*
X105703104Y-97374697D01*
X105703104Y-97374697D02*
X105703104Y-97493745D01*
X105703104Y-96231841D02*
X106503104Y-96231841D01*
X106503104Y-96231841D02*
X105931676Y-96065174D01*
X105931676Y-96065174D02*
X106503104Y-95898508D01*
X106503104Y-95898508D02*
X105703104Y-95898508D01*
X105703104Y-95660412D02*
X106503104Y-95660412D01*
X105741200Y-95446126D02*
X105703104Y-95374698D01*
X105703104Y-95374698D02*
X105703104Y-95255650D01*
X105703104Y-95255650D02*
X105741200Y-95208031D01*
X105741200Y-95208031D02*
X105779295Y-95184222D01*
X105779295Y-95184222D02*
X105855485Y-95160412D01*
X105855485Y-95160412D02*
X105931676Y-95160412D01*
X105931676Y-95160412D02*
X106007866Y-95184222D01*
X106007866Y-95184222D02*
X106045961Y-95208031D01*
X106045961Y-95208031D02*
X106084057Y-95255650D01*
X106084057Y-95255650D02*
X106122152Y-95350888D01*
X106122152Y-95350888D02*
X106160247Y-95398507D01*
X106160247Y-95398507D02*
X106198342Y-95422317D01*
X106198342Y-95422317D02*
X106274533Y-95446126D01*
X106274533Y-95446126D02*
X106350723Y-95446126D01*
X106350723Y-95446126D02*
X106426914Y-95422317D01*
X106426914Y-95422317D02*
X106465009Y-95398507D01*
X106465009Y-95398507D02*
X106503104Y-95350888D01*
X106503104Y-95350888D02*
X106503104Y-95231841D01*
X106503104Y-95231841D02*
X106465009Y-95160412D01*
X106503104Y-94850889D02*
X106503104Y-94755651D01*
X106503104Y-94755651D02*
X106465009Y-94708032D01*
X106465009Y-94708032D02*
X106388819Y-94660413D01*
X106388819Y-94660413D02*
X106236438Y-94636603D01*
X106236438Y-94636603D02*
X105969771Y-94636603D01*
X105969771Y-94636603D02*
X105817390Y-94660413D01*
X105817390Y-94660413D02*
X105741200Y-94708032D01*
X105741200Y-94708032D02*
X105703104Y-94755651D01*
X105703104Y-94755651D02*
X105703104Y-94850889D01*
X105703104Y-94850889D02*
X105741200Y-94898508D01*
X105741200Y-94898508D02*
X105817390Y-94946127D01*
X105817390Y-94946127D02*
X105969771Y-94969936D01*
X105969771Y-94969936D02*
X106236438Y-94969936D01*
X106236438Y-94969936D02*
X106388819Y-94946127D01*
X106388819Y-94946127D02*
X106465009Y-94898508D01*
X106465009Y-94898508D02*
X106503104Y-94850889D01*
X106503104Y-94112793D02*
X106503104Y-93827079D01*
X105703104Y-93969936D02*
X106503104Y-93969936D01*
X105626914Y-93779461D02*
X105626914Y-93398508D01*
X105779295Y-92993747D02*
X105741200Y-93017556D01*
X105741200Y-93017556D02*
X105703104Y-93088985D01*
X105703104Y-93088985D02*
X105703104Y-93136604D01*
X105703104Y-93136604D02*
X105741200Y-93208032D01*
X105741200Y-93208032D02*
X105817390Y-93255651D01*
X105817390Y-93255651D02*
X105893580Y-93279461D01*
X105893580Y-93279461D02*
X106045961Y-93303270D01*
X106045961Y-93303270D02*
X106160247Y-93303270D01*
X106160247Y-93303270D02*
X106312628Y-93279461D01*
X106312628Y-93279461D02*
X106388819Y-93255651D01*
X106388819Y-93255651D02*
X106465009Y-93208032D01*
X106465009Y-93208032D02*
X106503104Y-93136604D01*
X106503104Y-93136604D02*
X106503104Y-93088985D01*
X106503104Y-93088985D02*
X106465009Y-93017556D01*
X106465009Y-93017556D02*
X106426914Y-92993747D01*
X105703104Y-92541366D02*
X105703104Y-92779461D01*
X105703104Y-92779461D02*
X106503104Y-92779461D01*
X105703104Y-92374699D02*
X106503104Y-92374699D01*
X105703104Y-92088985D02*
X106160247Y-92303270D01*
X106503104Y-92088985D02*
X106045961Y-92374699D01*
X106503104Y-91184223D02*
X106503104Y-90898509D01*
X105703104Y-91041366D02*
X106503104Y-91041366D01*
X105626914Y-90850891D02*
X105626914Y-90469938D01*
X105779295Y-90065177D02*
X105741200Y-90088986D01*
X105741200Y-90088986D02*
X105703104Y-90160415D01*
X105703104Y-90160415D02*
X105703104Y-90208034D01*
X105703104Y-90208034D02*
X105741200Y-90279462D01*
X105741200Y-90279462D02*
X105817390Y-90327081D01*
X105817390Y-90327081D02*
X105893580Y-90350891D01*
X105893580Y-90350891D02*
X106045961Y-90374700D01*
X106045961Y-90374700D02*
X106160247Y-90374700D01*
X106160247Y-90374700D02*
X106312628Y-90350891D01*
X106312628Y-90350891D02*
X106388819Y-90327081D01*
X106388819Y-90327081D02*
X106465009Y-90279462D01*
X106465009Y-90279462D02*
X106503104Y-90208034D01*
X106503104Y-90208034D02*
X106503104Y-90160415D01*
X106503104Y-90160415D02*
X106465009Y-90088986D01*
X106465009Y-90088986D02*
X106426914Y-90065177D01*
X105741200Y-89874700D02*
X105703104Y-89803272D01*
X105703104Y-89803272D02*
X105703104Y-89684224D01*
X105703104Y-89684224D02*
X105741200Y-89636605D01*
X105741200Y-89636605D02*
X105779295Y-89612796D01*
X105779295Y-89612796D02*
X105855485Y-89588986D01*
X105855485Y-89588986D02*
X105931676Y-89588986D01*
X105931676Y-89588986D02*
X106007866Y-89612796D01*
X106007866Y-89612796D02*
X106045961Y-89636605D01*
X106045961Y-89636605D02*
X106084057Y-89684224D01*
X106084057Y-89684224D02*
X106122152Y-89779462D01*
X106122152Y-89779462D02*
X106160247Y-89827081D01*
X106160247Y-89827081D02*
X106198342Y-89850891D01*
X106198342Y-89850891D02*
X106274533Y-89874700D01*
X106274533Y-89874700D02*
X106350723Y-89874700D01*
X106350723Y-89874700D02*
X106426914Y-89850891D01*
X106426914Y-89850891D02*
X106465009Y-89827081D01*
X106465009Y-89827081D02*
X106503104Y-89779462D01*
X106503104Y-89779462D02*
X106503104Y-89660415D01*
X106503104Y-89660415D02*
X106465009Y-89588986D01*
X106503104Y-88684225D02*
X106503104Y-88398511D01*
X105703104Y-88541368D02*
X106503104Y-88541368D01*
X105626914Y-88350893D02*
X105626914Y-87969940D01*
X105703104Y-87850893D02*
X106503104Y-87850893D01*
X106503104Y-87850893D02*
X106503104Y-87731845D01*
X106503104Y-87731845D02*
X106465009Y-87660417D01*
X106465009Y-87660417D02*
X106388819Y-87612798D01*
X106388819Y-87612798D02*
X106312628Y-87588988D01*
X106312628Y-87588988D02*
X106160247Y-87565179D01*
X106160247Y-87565179D02*
X106045961Y-87565179D01*
X106045961Y-87565179D02*
X105893580Y-87588988D01*
X105893580Y-87588988D02*
X105817390Y-87612798D01*
X105817390Y-87612798D02*
X105741200Y-87660417D01*
X105741200Y-87660417D02*
X105703104Y-87731845D01*
X105703104Y-87731845D02*
X105703104Y-87850893D01*
X105703104Y-87350893D02*
X106503104Y-87350893D01*
X105703104Y-87112798D02*
X106503104Y-87112798D01*
X106503104Y-87112798D02*
X105703104Y-86827084D01*
X105703104Y-86827084D02*
X106503104Y-86827084D01*
X106503104Y-86279464D02*
X106503104Y-85993750D01*
X105703104Y-86136607D02*
X106503104Y-86136607D01*
X105626914Y-85946132D02*
X105626914Y-85565179D01*
X105703104Y-85446132D02*
X106503104Y-85446132D01*
X106503104Y-85446132D02*
X106503104Y-85327084D01*
X106503104Y-85327084D02*
X106465009Y-85255656D01*
X106465009Y-85255656D02*
X106388819Y-85208037D01*
X106388819Y-85208037D02*
X106312628Y-85184227D01*
X106312628Y-85184227D02*
X106160247Y-85160418D01*
X106160247Y-85160418D02*
X106045961Y-85160418D01*
X106045961Y-85160418D02*
X105893580Y-85184227D01*
X105893580Y-85184227D02*
X105817390Y-85208037D01*
X105817390Y-85208037D02*
X105741200Y-85255656D01*
X105741200Y-85255656D02*
X105703104Y-85327084D01*
X105703104Y-85327084D02*
X105703104Y-85446132D01*
X106503104Y-84850894D02*
X106503104Y-84755656D01*
X106503104Y-84755656D02*
X106465009Y-84708037D01*
X106465009Y-84708037D02*
X106388819Y-84660418D01*
X106388819Y-84660418D02*
X106236438Y-84636608D01*
X106236438Y-84636608D02*
X105969771Y-84636608D01*
X105969771Y-84636608D02*
X105817390Y-84660418D01*
X105817390Y-84660418D02*
X105741200Y-84708037D01*
X105741200Y-84708037D02*
X105703104Y-84755656D01*
X105703104Y-84755656D02*
X105703104Y-84850894D01*
X105703104Y-84850894D02*
X105741200Y-84898513D01*
X105741200Y-84898513D02*
X105817390Y-84946132D01*
X105817390Y-84946132D02*
X105969771Y-84969941D01*
X105969771Y-84969941D02*
X106236438Y-84969941D01*
X106236438Y-84969941D02*
X106388819Y-84946132D01*
X106388819Y-84946132D02*
X106465009Y-84898513D01*
X106465009Y-84898513D02*
X106503104Y-84850894D01*
X106503104Y-83731846D02*
X106503104Y-83446132D01*
X105703104Y-83588989D02*
X106503104Y-83588989D01*
X105626914Y-83398514D02*
X105626914Y-83017561D01*
X105703104Y-82898514D02*
X106503104Y-82898514D01*
X105703104Y-82374705D02*
X106084057Y-82541371D01*
X105703104Y-82660419D02*
X106503104Y-82660419D01*
X106503104Y-82660419D02*
X106503104Y-82469943D01*
X106503104Y-82469943D02*
X106465009Y-82422324D01*
X106465009Y-82422324D02*
X106426914Y-82398514D01*
X106426914Y-82398514D02*
X106350723Y-82374705D01*
X106350723Y-82374705D02*
X106236438Y-82374705D01*
X106236438Y-82374705D02*
X106160247Y-82398514D01*
X106160247Y-82398514D02*
X106122152Y-82422324D01*
X106122152Y-82422324D02*
X106084057Y-82469943D01*
X106084057Y-82469943D02*
X106084057Y-82660419D01*
X105626914Y-81827086D02*
X105665009Y-81874705D01*
X105665009Y-81874705D02*
X105741200Y-81922324D01*
X105741200Y-81922324D02*
X105855485Y-81993752D01*
X105855485Y-81993752D02*
X105893580Y-82041371D01*
X105893580Y-82041371D02*
X105893580Y-82088990D01*
X105703104Y-82065181D02*
X105741200Y-82112800D01*
X105741200Y-82112800D02*
X105817390Y-82160419D01*
X105817390Y-82160419D02*
X105969771Y-82184228D01*
X105969771Y-82184228D02*
X106236438Y-82184228D01*
X106236438Y-82184228D02*
X106388819Y-82160419D01*
X106388819Y-82160419D02*
X106465009Y-82112800D01*
X106465009Y-82112800D02*
X106503104Y-82065181D01*
X106503104Y-82065181D02*
X106503104Y-81969943D01*
X106503104Y-81969943D02*
X106465009Y-81922324D01*
X106465009Y-81922324D02*
X106388819Y-81874705D01*
X106388819Y-81874705D02*
X106236438Y-81850895D01*
X106236438Y-81850895D02*
X105969771Y-81850895D01*
X105969771Y-81850895D02*
X105817390Y-81874705D01*
X105817390Y-81874705D02*
X105741200Y-81922324D01*
X105741200Y-81922324D02*
X105703104Y-81969943D01*
X105703104Y-81969943D02*
X105703104Y-82065181D01*
%LPC*%
D12*
%TO.C,J4*%
X103925000Y-115800000D03*
D13*
X103925000Y-113260000D03*
X103925000Y-110720000D03*
X103925000Y-108180000D03*
X103925000Y-105640000D03*
X103925000Y-103100000D03*
X103925000Y-100560000D03*
X103925000Y-98020000D03*
X103925000Y-95480000D03*
X103925000Y-92940000D03*
X103925000Y-90400000D03*
X103925000Y-87860000D03*
X103925000Y-85320000D03*
X103925000Y-82780000D03*
%TD*%
D12*
%TO.C,J3*%
X156580000Y-122090000D03*
D13*
X159120000Y-122090000D03*
X161660000Y-122090000D03*
X164200000Y-122090000D03*
%TD*%
D14*
%TO.C,P1*%
X114914176Y-120854013D03*
X116163858Y-120854013D03*
%TD*%
D15*
%TO.C,H2*%
X108880000Y-77290000D03*
%TD*%
D16*
%TO.C,U15*%
X185350102Y-83099962D03*
X185350102Y-88200038D03*
%TD*%
D17*
%TO.C,U19*%
X133290000Y-111472500D03*
X133290000Y-112072500D03*
X133890000Y-111472500D03*
X133890000Y-112072500D03*
%TD*%
D15*
%TO.C,H1*%
X184950000Y-121290000D03*
%TD*%
D12*
%TO.C,J6*%
X184975000Y-95475000D03*
D13*
X184975000Y-98015000D03*
X184975000Y-100555000D03*
X184975000Y-103095000D03*
%TD*%
D17*
%TO.C,U7*%
X113430160Y-111772247D03*
X112630160Y-111772247D03*
%TD*%
D14*
%TO.C,P2*%
X132800318Y-120900000D03*
X134050000Y-120900000D03*
%TD*%
D18*
%TO.C,TP1*%
X158150000Y-92700000D03*
%TD*%
D17*
%TO.C,U14*%
X149410000Y-95420000D03*
X149410000Y-96920000D03*
X149410000Y-98420000D03*
X150910000Y-95420000D03*
X150910000Y-96920000D03*
X150910000Y-98420000D03*
X152410000Y-95420000D03*
X152410000Y-96920000D03*
X152410000Y-98420000D03*
%TD*%
D19*
%TO.C,SW1*%
X177649873Y-77540178D03*
X177649873Y-74740076D03*
%TD*%
D20*
%TO.C,U5*%
X172649746Y-121950000D03*
X174650000Y-121950000D03*
X176649746Y-121950000D03*
D21*
X178749568Y-121950000D03*
X170549669Y-121950000D03*
%TD*%
D17*
%TO.C,U1*%
X130280000Y-87330000D03*
X128950000Y-87330000D03*
X127620000Y-87330000D03*
X130280000Y-88660000D03*
X128950000Y-88660000D03*
X127620000Y-88660000D03*
X130280000Y-89990000D03*
X128950000Y-89990000D03*
X127620000Y-89990000D03*
%TD*%
D15*
%TO.C,H3*%
X184950000Y-77290000D03*
%TD*%
D22*
%TO.C,U11*%
X121809855Y-117042477D03*
X127589891Y-117042477D03*
D23*
X120380086Y-116482659D03*
D24*
X120380086Y-120662492D03*
D23*
X129019914Y-116482659D03*
D24*
X129019914Y-120662492D03*
%TD*%
D14*
%TO.C,J1*%
X140150038Y-120316091D03*
X148150038Y-120316091D03*
%TD*%
D25*
%TO.C,U3*%
X151920066Y-75574931D03*
%TD*%
D17*
%TO.C,U17*%
X173900000Y-95434925D03*
X173000000Y-95434925D03*
X173900000Y-96134925D03*
X173000000Y-96134925D03*
%TD*%
D15*
%TO.C,H4*%
X108870000Y-121280000D03*
%TD*%
D19*
%TO.C,SW2*%
X167950000Y-77536013D03*
X167950000Y-74735911D03*
%TD*%
%LPD*%
M02*
