M48
; DRILL file {KiCad 9.0.7} date 2026-03-28T15:03:12+0100
; FORMAT={-:-/ absolute / inch / decimal}
; #@! TF.CreationDate,2026-03-28T15:03:12+01:00
; #@! TF.GenerationSoftware,Kicad,Pcbnew,9.0.7
; #@! TF.FileFunction,Plated,1,4,PTH
FMAT,2
INCH
; #@! TA.AperFunction,Plated,PTH,ViaDrill
T1C0.0118
; #@! TA.AperFunction,Plated,PTH,ComponentDrill
T2C0.0118
; #@! TA.AperFunction,Plated,PTH,ComponentDrill
T3C0.0197
; #@! TA.AperFunction,Plated,PTH,ComponentDrill
T4C0.0236
; #@! TA.AperFunction,Plated,PTH,ComponentDrill
T5C0.0394
%
G90
G05
T1
X4.0386Y-4.4825
X4.0472Y-3.189
X4.0768Y-3.189
X4.1043Y-3.189
X4.1339Y-3.189
X4.1634Y-3.189
X4.1821Y-3.8027
X4.1929Y-3.189
X4.1994Y-3.9121
X4.2067Y-3.2126
X4.2224Y-3.189
X4.2362Y-3.2126
X4.252Y-3.189
X4.2618Y-4.1831
X4.2657Y-3.2126
X4.2677Y-3.9488
X4.2677Y-4.002
X4.2815Y-3.189
X4.2835Y-3.2618
X4.2953Y-3.2126
X4.2992Y-3.6417
X4.311Y-3.189
X4.3248Y-3.2126
X4.3366Y-4.2539
X4.3406Y-3.189
X4.3543Y-3.2126
X4.3563Y-3.8366
X4.3591Y-4.6318
X4.3701Y-3.189
X4.3839Y-3.2126
X4.3996Y-3.189
X4.4079Y-4.621
X4.4114Y-3.8287
X4.4134Y-3.2126
X4.4291Y-3.189
X4.439Y-3.6654
X4.4429Y-3.2126
X4.4528Y-3.8287
X4.4587Y-3.189
X4.4724Y-3.2126
X4.4882Y-3.189
X4.499Y-4.5141
X4.502Y-3.2126
X4.5118Y-3.8406
X4.5177Y-3.189
X4.5276Y-3.4154
X4.5315Y-3.2126
X4.5446Y-3.6676
X4.5466Y-3.7988
X4.5472Y-3.189
X4.5559Y-3.2573
X4.561Y-3.2126
X4.5657Y-3.4625
X4.5741Y-3.6656
X4.5768Y-3.189
X4.5906Y-3.2126
X4.6063Y-3.189
X4.615Y-4.3626
X4.6201Y-3.2126
X4.6233Y-3.4739
X4.6356Y-3.8434
X4.6358Y-3.189
X4.6401Y-3.5005
X4.6409Y-4.4122
X4.6413Y-3.6828
X4.6496Y-3.2126
X4.6547Y-3.2869
X4.6619Y-4.7352
X4.6654Y-3.189
X4.6752Y-3.502
X4.6791Y-3.2126
X4.6854Y-3.4162
X4.6937Y-3.3309
X4.6949Y-3.189
X4.7087Y-3.2126
X4.7106Y-3.2539
X4.7244Y-3.189
X4.7352Y-3.4856
X4.7382Y-3.2126
X4.7389Y-4.4016
X4.7411Y-3.6978
X4.7441Y-4.5802
X4.7442Y-4.3049
X4.7475Y-4.1784
X4.7503Y-3.5599
X4.7539Y-3.189
X4.7557Y-3.7794
X4.7677Y-3.2126
X4.7704Y-3.6539
X4.7717Y-4.7462
X4.7724Y-3.3978
X4.7756Y-3.252
X4.7835Y-3.189
X4.7891Y-4.2186
X4.7924Y-3.7505
X4.7972Y-3.2126
X4.8038Y-4.1427
X4.813Y-3.189
X4.8216Y-3.3436
X4.8241Y-3.6303
X4.8242Y-3.4507
X4.8268Y-3.2126
X4.8327Y-3.252
X4.8425Y-3.189
X4.8441Y-4.2159
X4.8563Y-3.2126
X4.8571Y-4.2477
X4.862Y-4.1372
X4.862Y-4.2818
X4.8665Y-3.7036
X4.872Y-3.189
X4.8803Y-3.3298
X4.8839Y-3.2126
X4.8867Y-3.9143
X4.8976Y-3.2539
X4.9008Y-3.4319
X4.9016Y-3.189
X4.9134Y-3.2126
X4.9201Y-3.3317
X4.9311Y-3.189
X4.9322Y-3.9831
X4.938Y-3.4295
X4.9429Y-3.2126
X4.957Y-3.7314
X4.9606Y-3.189
X4.9614Y-4.2694
X4.9674Y-3.3431
X4.9699Y-4.3032
X4.9724Y-3.2126
X4.9731Y-4.0563
X4.9732Y-4.1219
X4.9764Y-3.2539
X4.9794Y-3.9558
X4.9902Y-3.189
X4.9962Y-4.0986
X4.9964Y-3.6303
X5.002Y-3.2126
X5.016Y-3.7235
X5.0197Y-3.189
X5.0217Y-3.5846
X5.0268Y-4.0049
X5.0315Y-3.2126
X5.0492Y-3.189
X5.0576Y-3.9558
X5.061Y-3.2126
X5.0769Y-3.8328
X5.0775Y-4.0012
X5.0787Y-3.189
X5.0906Y-3.2126
X5.0924Y-3.7834
X5.1004Y-3.4114
X5.1043Y-4.185
X5.1083Y-3.189
X5.1181Y-3.5845
X5.1201Y-3.2126
X5.1201Y-3.4331
X5.1281Y-4.0325
X5.1284Y-3.787
X5.1349Y-3.6903
X5.1378Y-3.189
X5.1483Y-3.9217
X5.1488Y-4.059
X5.1496Y-3.2126
X5.1584Y-3.5106
X5.1615Y-4.397
X5.2038Y-3.6903
X5.2165Y-3.189
X5.2299Y-4.6987
X5.2342Y-3.9333
X5.2351Y-3.3829
X5.2397Y-4.269
X5.241Y-3.7773
X5.2512Y-4.376
X5.2574Y-3.6423
X5.2646Y-3.7372
X5.2708Y-3.5813
X5.2733Y-3.9254
X5.2756Y-4.5472
X5.2814Y-4.2214
X5.2933Y-3.2146
X5.2988Y-4.2833
X5.3051Y-3.189
X5.3189Y-3.2146
X5.3262Y-3.6269
X5.3346Y-3.189
X5.3396Y-4.0846
X5.3453Y-4.4182
X5.3484Y-3.2146
X5.3558Y-3.7011
X5.3593Y-4.7653
X5.3603Y-3.5523
X5.3642Y-3.189
X5.378Y-3.2146
X5.378Y-4.5472
X5.3821Y-3.5271
X5.3937Y-3.189
X5.3944Y-3.5618
X5.4016Y-4.1319
X5.4075Y-3.2146
X5.4232Y-3.189
X5.437Y-3.2146
X5.4488Y-4.0325
X5.4528Y-3.189
X5.4539Y-4.1803
X5.4665Y-3.2146
X5.4788Y-4.5421
X5.4823Y-3.189
X5.4898Y-4.3541
X5.4961Y-3.2146
X5.4961Y-4.2165
X5.4961Y-4.2461
X5.4961Y-4.2776
X5.5059Y-3.2638
X5.5118Y-3.189
X5.5221Y-3.8841
X5.5256Y-3.2146
X5.5413Y-3.189
X5.5498Y-4.3686
X5.5551Y-3.2146
X5.5709Y-3.189
X5.5846Y-3.2146
X5.5903Y-4.1428
X5.5979Y-4.3329
X5.6004Y-3.189
X5.6142Y-3.2146
X5.6299Y-3.189
X5.6429Y-3.9905
X5.6437Y-3.2146
X5.6594Y-3.189
X5.6732Y-3.2146
X5.6758Y-3.5352
X5.6887Y-4.0033
X5.689Y-3.189
X5.6968Y-4.4249
X5.7028Y-3.2146
X5.7183Y-4.0663
X5.7185Y-3.189
X5.72Y-3.9972
X5.7323Y-3.2146
X5.7323Y-3.2638
X5.7374Y-3.8165
X5.7461Y-4.1083
X5.7461Y-4.1398
X5.748Y-3.189
X5.7618Y-3.2146
X5.7665Y-3.951
X5.7776Y-3.189
X5.7913Y-3.2146
X5.7977Y-3.9708
X5.8071Y-3.189
X5.8086Y-3.6153
X5.8102Y-4.5882
X5.8131Y-3.8339
X5.8209Y-3.2146
X5.8293Y-3.8993
X5.8366Y-3.189
X5.8504Y-3.2146
X5.8558Y-3.7693
X5.8661Y-3.189
X5.8799Y-3.2146
X5.8869Y-3.7693
X5.8957Y-3.189
X5.8996Y-4.7067
X5.907Y-4.3497
X5.9094Y-3.2146
X5.9252Y-3.189
X5.939Y-3.2146
X5.9397Y-3.9281
X5.951Y-4.8311
X5.9547Y-3.189
X5.9665Y-3.2146
X5.9843Y-3.189
X5.9941Y-3.2146
X5.9941Y-3.439
X6.0039Y-2.9331
X6.0039Y-2.9626
X6.0039Y-2.9921
X6.0039Y-3.0217
X6.0039Y-3.0512
X6.0039Y-3.0807
X6.0039Y-3.1102
X6.0039Y-3.1398
X6.0039Y-3.1693
X6.0138Y-3.1969
X6.0335Y-2.9429
X6.0335Y-2.9724
X6.0335Y-3.002
X6.0335Y-3.0315
X6.0335Y-3.061
X6.0335Y-3.0906
X6.0335Y-3.1201
X6.0335Y-3.1496
X6.0335Y-3.1791
X6.0492Y-4.2244
X6.0539Y-4.1648
X6.0561Y-3.4784
X6.0803Y-4.4724
X6.0853Y-4.2252
X6.0904Y-4.2823
X6.1018Y-4.6345
X6.1057Y-4.1576
X6.1164Y-4.0722
X6.1592Y-3.9803
X6.1701Y-3.6598
X6.1866Y-3.953
X6.2053Y-4.6521
X6.2238Y-3.9757
X6.2331Y-3.8619
X6.248Y-3.9435
X6.2644Y-3.8315
X6.2915Y-3.9673
X6.319Y-3.9044
X6.3268Y-3.8359
X6.3781Y-3.7896
X6.4054Y-3.6532
X6.4488Y-3.7087
X6.4488Y-3.7441
X6.5454Y-4.8842
X6.6461Y-3.7533
X6.652Y-4.4791
X6.6873Y-4.4835
X6.7362Y-3.8602
X6.7556Y-3.4803
X6.7629Y-4.4791
X6.7657Y-3.8602
X6.7719Y-3.6315
X6.7874Y-4.6358
X6.7904Y-3.7011
X6.7953Y-3.8602
X6.8071Y-3.4783
X6.8346Y-3.4783
X6.8553Y-3.6359
X6.8869Y-3.5708
X6.887Y-3.4347
X6.8898Y-3.6791
X6.9311Y-3.6024
X6.9746Y-4.0264
X7.0045Y-3.6723
X7.1063Y-3.6654
T2
X5.2618Y-3.1378
T3
X4.5785Y-3.8585
T5
X4.0984Y-3.2598
X4.0984Y-3.3598
X4.0984Y-3.4598
X4.0984Y-3.5598
X4.0984Y-3.6598
X4.0984Y-3.7598
X4.0984Y-3.8598
X4.0984Y-3.9598
X4.0984Y-4.0598
X4.0984Y-4.1598
X4.0984Y-4.2598
X4.0984Y-4.3598
X4.0984Y-4.4598
X4.0984Y-4.5598
X4.4815Y-4.7272
X4.5815Y-4.7272
X5.3102Y-4.6811
X5.4102Y-4.6811
X5.5102Y-4.6811
X5.6102Y-4.6811
X6.1673Y-4.8012
X6.2673Y-4.8012
X7.2874Y-3.7638
X7.2874Y-3.8638
X7.2874Y-3.9638
X7.2874Y-4.0638
X7.2894Y-3.3508
X7.2894Y-3.4508
T4
G00X4.7402Y-4.6178
M15
G01X4.7402Y-4.6611
M16
G05
G00X4.7402Y-4.7883
M15
G01X4.7402Y-4.8198
M16
G05
G00X5.0803Y-4.6178
M15
G01X5.0803Y-4.6611
M16
G05
G00X5.0803Y-4.7883
M15
G01X5.0803Y-4.8198
M16
G05
M30
