%TF.GenerationSoftware,KiCad,Pcbnew,9.0.7*%
%TF.CreationDate,2026-04-14T00:44:38+02:00*%
%TF.ProjectId,LoRa-device,4c6f5261-2d64-4657-9669-63652e6b6963,rev?*%
%TF.SameCoordinates,Original*%
%TF.FileFunction,Copper,L4,Bot*%
%TF.FilePolarity,Positive*%
%FSLAX46Y46*%
G04 Gerber Fmt 4.6, Leading zero omitted, Abs format (unit mm)*
G04 Created by KiCad (PCBNEW 9.0.7) date 2026-04-14 00:44:38*
%MOMM*%
%LPD*%
G01*
G04 APERTURE LIST*
%TA.AperFunction,ComponentPad*%
%ADD10R,1.700000X1.700000*%
%TD*%
%TA.AperFunction,ComponentPad*%
%ADD11C,1.700000*%
%TD*%
%TA.AperFunction,ComponentPad*%
%ADD12C,1.000000*%
%TD*%
%TA.AperFunction,SMDPad,CuDef*%
%ADD13R,4.800000X1.200000*%
%TD*%
%TA.AperFunction,ComponentPad*%
%ADD14C,0.600000*%
%TD*%
%TA.AperFunction,ComponentPad*%
%ADD15R,0.900000X0.500000*%
%TD*%
%TA.AperFunction,HeatsinkPad*%
%ADD16C,0.600000*%
%TD*%
%TA.AperFunction,ComponentPad*%
%ADD17O,1.400000X1.100000*%
%TD*%
%TA.AperFunction,ComponentPad*%
%ADD18O,1.200000X2.000000*%
%TD*%
%TA.AperFunction,ComponentPad*%
%ADD19O,0.900000X2.100000*%
%TD*%
%TA.AperFunction,ComponentPad*%
%ADD20O,0.900000X1.800000*%
%TD*%
%TA.AperFunction,ViaPad*%
%ADD21C,0.600000*%
%TD*%
G04 APERTURE END LIST*
D10*
%TO.P,J4,1,Pin_1*%
%TO.N,VDD_CPU*%
X103975000Y-82800000D03*
D11*
%TO.P,J4,2,Pin_2*%
%TO.N,GND*%
X103975000Y-85340000D03*
%TO.P,J4,3,Pin_3*%
%TO.N,SCREEN_CS*%
X103975000Y-87880000D03*
%TO.P,J4,4,Pin_4*%
%TO.N,SCREEN_RST*%
X103975000Y-90420000D03*
%TO.P,J4,5,Pin_5*%
%TO.N,SCREEN_DC*%
X103975000Y-92960000D03*
%TO.P,J4,6,Pin_6*%
%TO.N,MOSIB*%
X103975000Y-95500000D03*
%TO.P,J4,7,Pin_7*%
%TO.N,SCKB*%
X103975000Y-98040000D03*
%TO.P,J4,8,Pin_8*%
%TO.N,SCREEN_LED*%
X103975000Y-100580000D03*
%TO.P,J4,9,Pin_9*%
%TO.N,MISOB*%
X103975000Y-103120000D03*
%TO.P,J4,10,Pin_10*%
%TO.N,SCKB*%
X103975000Y-105660000D03*
%TO.P,J4,11,Pin_11*%
%TO.N,TOUCH_CS*%
X103975000Y-108200000D03*
%TO.P,J4,12,Pin_12*%
%TO.N,MOSIB*%
X103975000Y-110740000D03*
%TO.P,J4,13,Pin_13*%
%TO.N,MISOB*%
X103975000Y-113280000D03*
%TO.P,J4,14,Pin_14*%
%TO.N,TOUCH_IRQ*%
X103975000Y-115820000D03*
%TD*%
D10*
%TO.P,J3,1,Pin_1*%
%TO.N,Net-(J3-Pin_1)*%
X156580000Y-122090000D03*
D11*
%TO.P,J3,2,Pin_2*%
%TO.N,Net-(J3-Pin_2)*%
X159120000Y-122090000D03*
%TO.P,J3,3,Pin_3*%
%TO.N,GND*%
X161660000Y-122090000D03*
%TO.P,J3,4,Pin_4*%
%TO.N,VDD_CPU*%
X164200000Y-122090000D03*
%TD*%
D12*
%TO.P,P1,1,1*%
%TO.N,VBAT*%
X114350318Y-120950000D03*
%TO.P,P1,2,2*%
%TO.N,GND*%
X115600000Y-120950000D03*
%TD*%
D13*
%TO.P,U15,3,3*%
%TO.N,GND*%
X185350102Y-83099962D03*
%TO.P,U15,4,4*%
X185350102Y-88200038D03*
%TD*%
D14*
%TO.P,U19,17,PAD*%
%TO.N,GND*%
X130660000Y-106240000D03*
X130660000Y-106840000D03*
X131260000Y-106240000D03*
X131260000Y-106840000D03*
%TD*%
D10*
%TO.P,J6,1,Pin_1*%
%TO.N,unconnected-(J6-Pin_1-Pad1)*%
X184975000Y-95475000D03*
D11*
%TO.P,J6,2,Pin_2*%
%TO.N,unconnected-(J6-Pin_2-Pad2)*%
X184975000Y-98015000D03*
%TO.P,J6,3,Pin_3*%
%TO.N,unconnected-(J6-Pin_3-Pad3)*%
X184975000Y-100555000D03*
%TO.P,J6,4,Pin_4*%
%TO.N,unconnected-(J6-Pin_4-Pad4)*%
X184975000Y-103095000D03*
%TD*%
D14*
%TO.P,U7,11,EP*%
%TO.N,GND*%
X115650000Y-113600000D03*
X116450000Y-113600000D03*
%TD*%
D12*
%TO.P,P2,1,1*%
%TO.N,Net-(U19-OUTP)*%
X132800318Y-120900000D03*
%TO.P,P2,2,2*%
%TO.N,Net-(U19-OUTN)*%
X134050000Y-120900000D03*
%TD*%
D15*
%TO.P,AE1,2,PCB_Trace*%
%TO.N,GND*%
X133650000Y-79700000D03*
%TD*%
D16*
%TO.P,U14,29,EP*%
%TO.N,GND*%
X148170000Y-94220000D03*
X148170000Y-95720000D03*
X148170000Y-97220000D03*
X149670000Y-94220000D03*
X149670000Y-95720000D03*
X149670000Y-97220000D03*
X151170000Y-94220000D03*
X151170000Y-95720000D03*
X151170000Y-97220000D03*
%TD*%
D17*
%TO.P,U5,1,1*%
%TO.N,unconnected-(U5-Pad1)*%
X172649746Y-121950000D03*
%TO.P,U5,2,2*%
%TO.N,GND*%
X174650000Y-121950000D03*
%TO.P,U5,3,3*%
%TO.N,Net-(U8-~{ON})*%
X176649746Y-121950000D03*
D18*
%TO.P,U5,4,4*%
%TO.N,GND*%
X178749568Y-121950000D03*
%TO.P,U5,5,5*%
X170549669Y-121950000D03*
%TD*%
D16*
%TO.P,U1,57,GND*%
%TO.N,GND*%
X125100000Y-90050000D03*
X123770000Y-90050000D03*
X122440000Y-90050000D03*
X125100000Y-91380000D03*
X123770000Y-91380000D03*
X122440000Y-91380000D03*
X125100000Y-92710000D03*
X123770000Y-92710000D03*
X122440000Y-92710000D03*
%TD*%
D19*
%TO.P,U11,13,EH*%
%TO.N,GND*%
X120380086Y-116482659D03*
D20*
X120380086Y-120662492D03*
D19*
X129019914Y-116482659D03*
D20*
X129019914Y-120662492D03*
%TD*%
D14*
%TO.P,U17,17,GND*%
%TO.N,GND*%
X173900000Y-95434925D03*
X173000000Y-95434925D03*
X173900000Y-96134925D03*
X173000000Y-96134925D03*
%TD*%
D21*
%TO.N,GND*%
X107250000Y-81000000D03*
X111750000Y-81000000D03*
X153250000Y-80000000D03*
X123750000Y-81000000D03*
X114750000Y-81000000D03*
X106850000Y-81600000D03*
X135850000Y-81650000D03*
X142250000Y-81000000D03*
X146350000Y-81650000D03*
X111000000Y-81000000D03*
X109500000Y-81000000D03*
X153250000Y-79250000D03*
X150100000Y-81650000D03*
X115100000Y-81600000D03*
X109100000Y-81600000D03*
X140350000Y-81650000D03*
X128550000Y-81600000D03*
X153250000Y-80750000D03*
X127500000Y-81000000D03*
X110600000Y-81600000D03*
X152500000Y-76000000D03*
X117750000Y-81000000D03*
X138850000Y-81650000D03*
X152500000Y-78250000D03*
X127800000Y-81600000D03*
X108000000Y-81000000D03*
X153250000Y-77750000D03*
X151550000Y-81650000D03*
X142600000Y-81650000D03*
X132500000Y-81000000D03*
X121850000Y-81600000D03*
X105000000Y-81000000D03*
X120350000Y-81600000D03*
X121100000Y-81600000D03*
X139600000Y-81650000D03*
X152750000Y-81200000D03*
X115500000Y-81000000D03*
X152000000Y-81000000D03*
X123000000Y-81000000D03*
X119250000Y-81000000D03*
X152500000Y-79000000D03*
X138100000Y-81650000D03*
X143350000Y-81650000D03*
X153250000Y-76250000D03*
X152500000Y-76750000D03*
X150850000Y-81650000D03*
X130050000Y-81600000D03*
X153250000Y-78500000D03*
X153250000Y-75500000D03*
X150500000Y-81000000D03*
X127050000Y-81600000D03*
X112500000Y-81000000D03*
X147500000Y-81000000D03*
X141850000Y-81650000D03*
X129300000Y-81600000D03*
X152500000Y-79750000D03*
X103550000Y-81000000D03*
X126000000Y-81000000D03*
X126300000Y-81600000D03*
X105750000Y-81000000D03*
X149750000Y-81000000D03*
X122250000Y-81000000D03*
X145250000Y-81000000D03*
X107600000Y-81600000D03*
X144100000Y-81650000D03*
X123350000Y-81600000D03*
X124050000Y-81600000D03*
X116250000Y-81000000D03*
X149000000Y-81000000D03*
X144850000Y-81650000D03*
X151250000Y-81000000D03*
X125550000Y-81600000D03*
X118100000Y-81600000D03*
X152500000Y-80500000D03*
X115850000Y-81600000D03*
X140750000Y-81000000D03*
X108350000Y-81600000D03*
X134750000Y-81000000D03*
X148250551Y-80999999D03*
X118500000Y-81000000D03*
X152250000Y-81650000D03*
X112850000Y-81600000D03*
X102800000Y-81000000D03*
X148600000Y-81650000D03*
X137350000Y-81650000D03*
X152500000Y-75250000D03*
X112100000Y-81600000D03*
X136250000Y-81000000D03*
X143750000Y-81000000D03*
X113600000Y-81600000D03*
X130500000Y-81000000D03*
X149350000Y-81650000D03*
X104250000Y-81000000D03*
X139250000Y-81000000D03*
X152500000Y-74500000D03*
X144500000Y-81000000D03*
X125250000Y-81000000D03*
X106500000Y-81000000D03*
X135100000Y-81650000D03*
X134450000Y-81650000D03*
X130800000Y-81600000D03*
X129000000Y-81000000D03*
X117000000Y-81000000D03*
X113250000Y-81000000D03*
X137750000Y-81000000D03*
X141500000Y-81000000D03*
X152500000Y-77500000D03*
X141100000Y-81650000D03*
X138500000Y-81000000D03*
X124500000Y-81000000D03*
X153250000Y-74750000D03*
X114000000Y-81000000D03*
X129750000Y-81000000D03*
X120750000Y-81000000D03*
X110250000Y-81000000D03*
X135500000Y-81000000D03*
X118850000Y-81600000D03*
X146750000Y-81000000D03*
X128250000Y-81000000D03*
X147850000Y-81650000D03*
X143000000Y-81000000D03*
X126750000Y-81000000D03*
X111350000Y-81600000D03*
X153250000Y-77000000D03*
X121500000Y-81000000D03*
X145600000Y-81650000D03*
X109850000Y-81600000D03*
X140000000Y-81000000D03*
X122600000Y-81600000D03*
X116600000Y-81600000D03*
X114350000Y-81600000D03*
X108750000Y-81000000D03*
X146000000Y-81000000D03*
X117350000Y-81600000D03*
X137000000Y-81000000D03*
X119600000Y-81600000D03*
X120000000Y-81000000D03*
X147100000Y-81650000D03*
X124800000Y-81600000D03*
X136600000Y-81650000D03*
%TD*%
M02*
