%TF.GenerationSoftware,KiCad,Pcbnew,9.0.7*%
%TF.CreationDate,2026-03-28T15:03:12+01:00*%
%TF.ProjectId,LoRa-device,4c6f5261-2d64-4657-9669-63652e6b6963,rev?*%
%TF.SameCoordinates,Original*%
%TF.FileFunction,Soldermask,Bot*%
%TF.FilePolarity,Negative*%
%FSLAX46Y46*%
G04 Gerber Fmt 4.6, Leading zero omitted, Abs format (unit mm)*
G04 Created by KiCad (PCBNEW 9.0.7) date 2026-03-28 15:03:12*
%MOMM*%
%LPD*%
G01*
G04 APERTURE LIST*
%ADD10R,1.700000X1.700000*%
%ADD11C,1.700000*%
%ADD12C,0.500000*%
%ADD13R,4.800000X1.200000*%
%ADD14C,1.000000*%
%ADD15C,0.900000*%
%ADD16R,1.000000X1.000000*%
%ADD17C,0.649987*%
%ADD18O,0.900000X2.100000*%
%ADD19O,0.900000X1.800000*%
G04 APERTURE END LIST*
D10*
%TO.C,J4*%
X104100000Y-82800000D03*
D11*
X104100000Y-85340000D03*
X104100000Y-87880000D03*
X104100000Y-90420000D03*
X104100000Y-92960000D03*
X104100000Y-95500000D03*
X104100000Y-98040000D03*
X104100000Y-100580000D03*
X104100000Y-103120000D03*
X104100000Y-105660000D03*
X104100000Y-108200000D03*
X104100000Y-110740000D03*
X104100000Y-113280000D03*
X104100000Y-115820000D03*
%TD*%
D10*
%TO.C,J3*%
X134880000Y-118900000D03*
D11*
X137420000Y-118900000D03*
X139960000Y-118900000D03*
X142500000Y-118900000D03*
%TD*%
D12*
%TO.C,MK1*%
X148960000Y-122706500D03*
%TD*%
D13*
%TO.C,U12*%
X185500002Y-109450062D03*
X185500002Y-114550138D03*
%TD*%
D14*
%TO.C,J1*%
X177199962Y-78700009D03*
X169199962Y-78700009D03*
%TD*%
D10*
%TO.C,J6*%
X185100000Y-95600000D03*
D11*
X185100000Y-98140000D03*
X185100000Y-100680000D03*
X185100000Y-103220000D03*
%TD*%
D10*
%TO.C,J2*%
X116370000Y-120070000D03*
D11*
X113830000Y-120070000D03*
%TD*%
D15*
%TO.C,SW1*%
X174745000Y-122880000D03*
X176695000Y-122880000D03*
%TD*%
D16*
%TO.C,TP1*%
X116293300Y-98006700D03*
%TD*%
D15*
%TO.C,SW3*%
X168545000Y-122880000D03*
X170495000Y-122880000D03*
%TD*%
D17*
%TO.C,U4*%
X121829855Y-118402477D03*
X127609891Y-118402477D03*
D18*
X120400086Y-117842659D03*
D19*
X120400086Y-122022492D03*
D18*
X129039914Y-117842659D03*
D19*
X129039914Y-122022492D03*
%TD*%
D10*
%TO.C,J5*%
X156650000Y-121950000D03*
D11*
X159190000Y-121950000D03*
%TD*%
D10*
%TO.C,SW2*%
X185150000Y-85110000D03*
D11*
X185150000Y-87650000D03*
%TD*%
M02*
