%TF.GenerationSoftware,KiCad,Pcbnew,9.0.7*%
%TF.CreationDate,2026-03-28T15:03:12+01:00*%
%TF.ProjectId,LoRa-device,4c6f5261-2d64-4657-9669-63652e6b6963,rev?*%
%TF.SameCoordinates,Original*%
%TF.FileFunction,Legend,Bot*%
%TF.FilePolarity,Positive*%
%FSLAX46Y46*%
G04 Gerber Fmt 4.6, Leading zero omitted, Abs format (unit mm)*
G04 Created by KiCad (PCBNEW 9.0.7) date 2026-03-28 15:03:12*
%MOMM*%
%LPD*%
G01*
G04 APERTURE LIST*
%ADD10C,0.000000*%
%ADD11R,1.700000X1.700000*%
%ADD12C,1.700000*%
%ADD13C,0.500000*%
%ADD14R,4.800000X1.200000*%
%ADD15C,1.000000*%
%ADD16C,0.900000*%
%ADD17R,1.000000X1.000000*%
%ADD18C,0.649987*%
%ADD19O,0.900000X2.100000*%
%ADD20O,0.900000X1.800000*%
G04 APERTURE END LIST*
D10*
%TO.C,G\u002A\u002A\u002A*%
G36*
X152737812Y-105887643D02*
G01*
X152737812Y-106644754D01*
X152601489Y-106639617D01*
X152465166Y-106634479D01*
X152460580Y-105882506D01*
X152455994Y-105130532D01*
X152596903Y-105130532D01*
X152737812Y-105130532D01*
X152737812Y-105887643D01*
G37*
G36*
X148615267Y-99183167D02*
G01*
X148647467Y-99200084D01*
X148664762Y-99219880D01*
X148666025Y-99249290D01*
X148651503Y-99295672D01*
X148621445Y-99366381D01*
X148595714Y-99419496D01*
X148574518Y-99443336D01*
X148550432Y-99441340D01*
X148515960Y-99417111D01*
X148476637Y-99385270D01*
X148515441Y-99270389D01*
X148554246Y-99155509D01*
X148615267Y-99183167D01*
G37*
G36*
X149471588Y-99195900D02*
G01*
X149515129Y-99212056D01*
X149586172Y-99240482D01*
X149559646Y-99318333D01*
X149541741Y-99362454D01*
X149516864Y-99389918D01*
X149479576Y-99393044D01*
X149420598Y-99375658D01*
X149363836Y-99355132D01*
X149401408Y-99274515D01*
X149415024Y-99245323D01*
X149433289Y-99206256D01*
X149441533Y-99188764D01*
X149445018Y-99188457D01*
X149471588Y-99195900D01*
G37*
G36*
X143048525Y-94614136D02*
G01*
X143108057Y-94636212D01*
X143148568Y-94675362D01*
X143166535Y-94724347D01*
X143158434Y-94775931D01*
X143120742Y-94822874D01*
X143071535Y-94846950D01*
X143012836Y-94849046D01*
X142959216Y-94828721D01*
X142920118Y-94789776D01*
X142904986Y-94736013D01*
X142905035Y-94731890D01*
X142920473Y-94669003D01*
X142959876Y-94626994D01*
X143017947Y-94611695D01*
X143048525Y-94614136D01*
G37*
G36*
X145818335Y-105185501D02*
G01*
X145817650Y-105190283D01*
X145815274Y-105228656D01*
X145813100Y-105296940D01*
X145811187Y-105391010D01*
X145809594Y-105506738D01*
X145808382Y-105639999D01*
X145807611Y-105786666D01*
X145807341Y-105942612D01*
X145807341Y-106644754D01*
X145671018Y-106639617D01*
X145534696Y-106634479D01*
X145530109Y-105882506D01*
X145525523Y-105130532D01*
X145677426Y-105130532D01*
X145829329Y-105130532D01*
X145818335Y-105185501D01*
G37*
G36*
X149750826Y-98534666D02*
G01*
X149779908Y-98543567D01*
X149823600Y-98560511D01*
X149886399Y-98586750D01*
X149849788Y-98674846D01*
X149834698Y-98710234D01*
X149817275Y-98748199D01*
X149808648Y-98762942D01*
X149804617Y-98761699D01*
X149777158Y-98750455D01*
X149733462Y-98731308D01*
X149662804Y-98699673D01*
X149698603Y-98616973D01*
X149712636Y-98586685D01*
X149733733Y-98548997D01*
X149747602Y-98534272D01*
X149750826Y-98534666D01*
G37*
G36*
X146851656Y-106454182D02*
G01*
X146859444Y-106496275D01*
X146861495Y-106562563D01*
X146852066Y-106615451D01*
X146850671Y-106618338D01*
X146841273Y-106626550D01*
X146821419Y-106632768D01*
X146786990Y-106637260D01*
X146733865Y-106640290D01*
X146657924Y-106642125D01*
X146555046Y-106643031D01*
X146421110Y-106643274D01*
X146000831Y-106643274D01*
X146000831Y-106528939D01*
X146000831Y-106414604D01*
X146420940Y-106414604D01*
X146841050Y-106414604D01*
X146851656Y-106454182D01*
G37*
G36*
X148346100Y-99067485D02*
G01*
X148384132Y-99082696D01*
X148414371Y-99103255D01*
X148418431Y-99131068D01*
X148411285Y-99149014D01*
X148393317Y-99194730D01*
X148371335Y-99251065D01*
X148355104Y-99289675D01*
X148335245Y-99328413D01*
X148322222Y-99343413D01*
X148302448Y-99334722D01*
X148269724Y-99311591D01*
X148230426Y-99279769D01*
X148270132Y-99170871D01*
X148291659Y-99117033D01*
X148311371Y-99077194D01*
X148324244Y-99061972D01*
X148346100Y-99067485D01*
G37*
G36*
X148632553Y-99843874D02*
G01*
X148667093Y-99861009D01*
X148694425Y-99883067D01*
X148702248Y-99912059D01*
X148692076Y-99956287D01*
X148665424Y-100024052D01*
X148662265Y-100031114D01*
X148637862Y-100067409D01*
X148612974Y-100082194D01*
X148587508Y-100076409D01*
X148543404Y-100059964D01*
X148498239Y-100039399D01*
X148467869Y-100021360D01*
X148471600Y-100005989D01*
X148486311Y-99966848D01*
X148508798Y-99912804D01*
X148554088Y-99807839D01*
X148632553Y-99843874D01*
G37*
G36*
X141833693Y-96608450D02*
G01*
X141878868Y-96621814D01*
X141926332Y-96659591D01*
X141944403Y-96714406D01*
X141930720Y-96782037D01*
X141928253Y-96787690D01*
X141901705Y-96832361D01*
X141873220Y-96860888D01*
X141829925Y-96877418D01*
X141768985Y-96871139D01*
X141705676Y-96830314D01*
X141685490Y-96811911D01*
X141662185Y-96783626D01*
X141658822Y-96754176D01*
X141670839Y-96707471D01*
X141678921Y-96683865D01*
X141712496Y-96630459D01*
X141762379Y-96606360D01*
X141833693Y-96608450D01*
G37*
G36*
X149678916Y-98895782D02*
G01*
X149683522Y-98898212D01*
X149712594Y-98919375D01*
X149722084Y-98946208D01*
X149712214Y-98986711D01*
X149683210Y-99048880D01*
X149658550Y-99097354D01*
X149590229Y-99062499D01*
X149556258Y-99043140D01*
X149532375Y-99018970D01*
X149531291Y-98991764D01*
X149539393Y-98969645D01*
X149556140Y-98946325D01*
X149564552Y-98935599D01*
X149571607Y-98902624D01*
X149571609Y-98902116D01*
X149583821Y-98874191D01*
X149619682Y-98872074D01*
X149678916Y-98895782D01*
G37*
G36*
X142611529Y-94321866D02*
G01*
X142667373Y-94344039D01*
X142746397Y-94382432D01*
X142710988Y-94472265D01*
X142697712Y-94505035D01*
X142671197Y-94566548D01*
X142649111Y-94613282D01*
X142643626Y-94623834D01*
X142626270Y-94651437D01*
X142606973Y-94660123D01*
X142576007Y-94650729D01*
X142523647Y-94624093D01*
X142450133Y-94585310D01*
X142502698Y-94462180D01*
X142506761Y-94452728D01*
X142534011Y-94392414D01*
X142557245Y-94345813D01*
X142571806Y-94322348D01*
X142577179Y-94319157D01*
X142611529Y-94321866D01*
G37*
G36*
X144765574Y-96935671D02*
G01*
X144810991Y-96948535D01*
X144858189Y-96968493D01*
X144895248Y-96990141D01*
X144910250Y-97008071D01*
X144910220Y-97008898D01*
X144901356Y-97036522D01*
X144881397Y-97079691D01*
X144857179Y-97124702D01*
X144835537Y-97157852D01*
X144820083Y-97173208D01*
X144799362Y-97177683D01*
X144766037Y-97167782D01*
X144710919Y-97142361D01*
X144633778Y-97104883D01*
X144669964Y-97019231D01*
X144693517Y-96970366D01*
X144717853Y-96941589D01*
X144746039Y-96933579D01*
X144765574Y-96935671D01*
G37*
G36*
X148270475Y-97789343D02*
G01*
X148311109Y-97801733D01*
X148361534Y-97820719D01*
X148410938Y-97841934D01*
X148448509Y-97861009D01*
X148463435Y-97873576D01*
X148461660Y-97880042D01*
X148451508Y-97911519D01*
X148435353Y-97959589D01*
X148407271Y-98042005D01*
X148299031Y-97985615D01*
X148296528Y-97984311D01*
X148242381Y-97956019D01*
X148202501Y-97935038D01*
X148185362Y-97925824D01*
X148184916Y-97915403D01*
X148195689Y-97883901D01*
X148214196Y-97843797D01*
X148234532Y-97807560D01*
X148250791Y-97787662D01*
X148270475Y-97789343D01*
G37*
G36*
X148809625Y-99279889D02*
G01*
X148846987Y-99293177D01*
X148889325Y-99310919D01*
X148923999Y-99327856D01*
X148938366Y-99338726D01*
X148932623Y-99355888D01*
X148915880Y-99396609D01*
X148891989Y-99451151D01*
X148862598Y-99507974D01*
X148828681Y-99547372D01*
X148795808Y-99553665D01*
X148762267Y-99527869D01*
X148757868Y-99521857D01*
X148749620Y-99496642D01*
X148751254Y-99456309D01*
X148762808Y-99391546D01*
X148774095Y-99338532D01*
X148784056Y-99295244D01*
X148789350Y-99276714D01*
X148789882Y-99276318D01*
X148809625Y-99279889D01*
G37*
G36*
X148944003Y-97748308D02*
G01*
X148982589Y-97763624D01*
X148998863Y-97772411D01*
X149016740Y-97792989D01*
X149018297Y-97824621D01*
X149003119Y-97873782D01*
X148970787Y-97946947D01*
X148958202Y-97973181D01*
X148939465Y-98009792D01*
X148930259Y-98024161D01*
X148902751Y-98018367D01*
X148863457Y-98001371D01*
X148829623Y-97980437D01*
X148815236Y-97963001D01*
X148820002Y-97940242D01*
X148836281Y-97896322D01*
X148859451Y-97844415D01*
X148884604Y-97794715D01*
X148906835Y-97757418D01*
X148921238Y-97742720D01*
X148944003Y-97748308D01*
G37*
G36*
X149170544Y-97848264D02*
G01*
X149196713Y-97856008D01*
X149236428Y-97874145D01*
X149286482Y-97900029D01*
X149246681Y-98001672D01*
X149228195Y-98049265D01*
X149208103Y-98101951D01*
X149196069Y-98134714D01*
X149186266Y-98154111D01*
X149168694Y-98155527D01*
X149132172Y-98138659D01*
X149128276Y-98136568D01*
X149093407Y-98109526D01*
X149079086Y-98082683D01*
X149082903Y-98056689D01*
X149096396Y-98008961D01*
X149115862Y-97954015D01*
X149137317Y-97902089D01*
X149156780Y-97863424D01*
X149170267Y-97848261D01*
X149170544Y-97848264D01*
G37*
G36*
X140719425Y-105132826D02*
G01*
X141005263Y-105137062D01*
X141005263Y-105265722D01*
X141005263Y-105394382D01*
X140855748Y-105394382D01*
X140706233Y-105394382D01*
X140706233Y-106018828D01*
X140706233Y-106643274D01*
X140565513Y-106643274D01*
X140424793Y-106643274D01*
X140424793Y-106018828D01*
X140424793Y-105394382D01*
X140275277Y-105394382D01*
X140125762Y-105394382D01*
X140125762Y-105273521D01*
X140125762Y-105152660D01*
X140279675Y-105140625D01*
X140305159Y-105138916D01*
X140389613Y-105135348D01*
X140494058Y-105133015D01*
X140607621Y-105132110D01*
X140719425Y-105132826D01*
G37*
G36*
X141372487Y-96013047D02*
G01*
X141410213Y-96032772D01*
X141451188Y-96057435D01*
X141484101Y-96080338D01*
X141497639Y-96094782D01*
X141493164Y-96111027D01*
X141477290Y-96151631D01*
X141453870Y-96205109D01*
X141409956Y-96301115D01*
X141335137Y-96263384D01*
X141310739Y-96250995D01*
X141272717Y-96231246D01*
X141255694Y-96221725D01*
X141255563Y-96221421D01*
X141261136Y-96202883D01*
X141276407Y-96163589D01*
X141297006Y-96113876D01*
X141318561Y-96064083D01*
X141336702Y-96024549D01*
X141347057Y-96005612D01*
X141349322Y-96004959D01*
X141372487Y-96013047D01*
G37*
G36*
X141922986Y-93988791D02*
G01*
X141930236Y-93992437D01*
X141966134Y-94010802D01*
X141987408Y-94027220D01*
X141994326Y-94048597D01*
X141987157Y-94081837D01*
X141966168Y-94133844D01*
X141931627Y-94211522D01*
X141908065Y-94259025D01*
X141883295Y-94297789D01*
X141865821Y-94312665D01*
X141846802Y-94307983D01*
X141809805Y-94290111D01*
X141770432Y-94265609D01*
X141740051Y-94241751D01*
X141730033Y-94225808D01*
X141731254Y-94222778D01*
X141742630Y-94193859D01*
X141762386Y-94143271D01*
X141787123Y-94079711D01*
X141838996Y-93946230D01*
X141922986Y-93988791D01*
G37*
G36*
X149439354Y-97967781D02*
G01*
X149475150Y-97989420D01*
X149505822Y-98013631D01*
X149518828Y-98032351D01*
X149517457Y-98040362D01*
X149506857Y-98075914D01*
X149489293Y-98126990D01*
X149469001Y-98181943D01*
X149450216Y-98229126D01*
X149437173Y-98256891D01*
X149433068Y-98263275D01*
X149423861Y-98268875D01*
X149404586Y-98262909D01*
X149364500Y-98243382D01*
X149310298Y-98216342D01*
X149352925Y-98091012D01*
X149356508Y-98080529D01*
X149377561Y-98021028D01*
X149394241Y-97977248D01*
X149403207Y-97958027D01*
X149410973Y-97956774D01*
X149439354Y-97967781D01*
G37*
G36*
X140984158Y-95844534D02*
G01*
X141021549Y-95860970D01*
X141063127Y-95888486D01*
X141096883Y-95918405D01*
X141110804Y-95942051D01*
X141106062Y-95964997D01*
X141087920Y-96011309D01*
X141062480Y-96061817D01*
X141036523Y-96101929D01*
X141023948Y-96110759D01*
X140995400Y-96108026D01*
X140946374Y-96086575D01*
X140923767Y-96075075D01*
X140885376Y-96054959D01*
X140867649Y-96044761D01*
X140867510Y-96044625D01*
X140870292Y-96025530D01*
X140886189Y-95987027D01*
X140909839Y-95939319D01*
X140935879Y-95892609D01*
X140958947Y-95857101D01*
X140973682Y-95842997D01*
X140984158Y-95844534D01*
G37*
G36*
X148125948Y-98134162D02*
G01*
X148147344Y-98144650D01*
X148191139Y-98165468D01*
X148247957Y-98192159D01*
X148295832Y-98214803D01*
X148335445Y-98236777D01*
X148352585Y-98255879D01*
X148352577Y-98279055D01*
X148340740Y-98313251D01*
X148324443Y-98343796D01*
X148305950Y-98358371D01*
X148288114Y-98353963D01*
X148245742Y-98337040D01*
X148192157Y-98312370D01*
X148138281Y-98285273D01*
X148095035Y-98261069D01*
X148073342Y-98245076D01*
X148070974Y-98237116D01*
X148076335Y-98206975D01*
X148091468Y-98170889D01*
X148110075Y-98142166D01*
X148125859Y-98134113D01*
X148125948Y-98134162D01*
G37*
G36*
X149039808Y-99414693D02*
G01*
X149066521Y-99425800D01*
X149105399Y-99444128D01*
X149142323Y-99462860D01*
X149163175Y-99475180D01*
X149159247Y-99492062D01*
X149144202Y-99532335D01*
X149121298Y-99587278D01*
X149096051Y-99641330D01*
X149074340Y-99680330D01*
X149061146Y-99695213D01*
X149042625Y-99687241D01*
X149010792Y-99664431D01*
X149001125Y-99656146D01*
X148984679Y-99635282D01*
X148984575Y-99608828D01*
X148999276Y-99563288D01*
X149004019Y-99549547D01*
X149019085Y-99495177D01*
X149025544Y-99453351D01*
X149028135Y-99428738D01*
X149035985Y-99413773D01*
X149039808Y-99414693D01*
G37*
G36*
X149680053Y-98087506D02*
G01*
X149719898Y-98099004D01*
X149757895Y-98111943D01*
X149779672Y-98121968D01*
X149780013Y-98122793D01*
X149776085Y-98145017D01*
X149763466Y-98190570D01*
X149744492Y-98250890D01*
X149740995Y-98261460D01*
X149721329Y-98319211D01*
X149706501Y-98360001D01*
X149699491Y-98375569D01*
X149696008Y-98374700D01*
X149669140Y-98365012D01*
X149625489Y-98347969D01*
X149555529Y-98319977D01*
X149599254Y-98203812D01*
X149600828Y-98199635D01*
X149622930Y-98142250D01*
X149639985Y-98100157D01*
X149648415Y-98082209D01*
X149652732Y-98081800D01*
X149680053Y-98087506D01*
G37*
G36*
X150009667Y-97504688D02*
G01*
X150045005Y-97517505D01*
X150094704Y-97539844D01*
X150184148Y-97582993D01*
X150122241Y-97731445D01*
X150118391Y-97740671D01*
X150089971Y-97807152D01*
X150069723Y-97847305D01*
X150053036Y-97866751D01*
X150035302Y-97871112D01*
X150011912Y-97866010D01*
X149995875Y-97861084D01*
X149942685Y-97840018D01*
X149903510Y-97817624D01*
X149888291Y-97799269D01*
X149892801Y-97781968D01*
X149906903Y-97740011D01*
X149927142Y-97683554D01*
X149949967Y-97622136D01*
X149971824Y-97565299D01*
X149989161Y-97522584D01*
X149998424Y-97503531D01*
X150009667Y-97504688D01*
G37*
G36*
X145221600Y-97145844D02*
G01*
X145250439Y-97156768D01*
X145294461Y-97174988D01*
X145341743Y-97195398D01*
X145380361Y-97212893D01*
X145398391Y-97222366D01*
X145396440Y-97235990D01*
X145384569Y-97274257D01*
X145365212Y-97327625D01*
X145362549Y-97334526D01*
X145338425Y-97389069D01*
X145318457Y-97415028D01*
X145298871Y-97417518D01*
X145251585Y-97399696D01*
X145182427Y-97370843D01*
X145137462Y-97347921D01*
X145121396Y-97333167D01*
X145124558Y-97321386D01*
X145139385Y-97286419D01*
X145161479Y-97240517D01*
X145185395Y-97194427D01*
X145205688Y-97158892D01*
X145216913Y-97144659D01*
X145221600Y-97145844D01*
G37*
G36*
X148830260Y-99933043D02*
G01*
X148865293Y-99945276D01*
X148912600Y-99969882D01*
X148922966Y-99976859D01*
X148941915Y-99995577D01*
X148943293Y-100020521D01*
X148929450Y-100064947D01*
X148925590Y-100075672D01*
X148904583Y-100128973D01*
X148886069Y-100169259D01*
X148872246Y-100191847D01*
X148858948Y-100205324D01*
X148839415Y-100200393D01*
X148801452Y-100185883D01*
X148758827Y-100167206D01*
X148724066Y-100149888D01*
X148709696Y-100139458D01*
X148714371Y-100122863D01*
X148728684Y-100081851D01*
X148749273Y-100026602D01*
X148769613Y-99976111D01*
X148787960Y-99943055D01*
X148806238Y-99930937D01*
X148830260Y-99933043D01*
G37*
G36*
X142255566Y-95269299D02*
G01*
X142319921Y-95297707D01*
X142335396Y-95305762D01*
X142377795Y-95325352D01*
X142403410Y-95333472D01*
X142424019Y-95341244D01*
X142457536Y-95364726D01*
X142487446Y-95393015D01*
X142500350Y-95414861D01*
X142499802Y-95418302D01*
X142487716Y-95446759D01*
X142464782Y-95487862D01*
X142458045Y-95498656D01*
X142437493Y-95524547D01*
X142413855Y-95535667D01*
X142380104Y-95531643D01*
X142329213Y-95512101D01*
X142254155Y-95476666D01*
X142194013Y-95442919D01*
X142159225Y-95407933D01*
X142151408Y-95367274D01*
X142166782Y-95313905D01*
X142180408Y-95288357D01*
X142210909Y-95265987D01*
X142255566Y-95269299D01*
G37*
G36*
X142351043Y-94973221D02*
G01*
X142401210Y-94991812D01*
X142464916Y-95017902D01*
X142493961Y-95030408D01*
X142552227Y-95057591D01*
X142586112Y-95078870D01*
X142601883Y-95098888D01*
X142605807Y-95122290D01*
X142599834Y-95158775D01*
X142578574Y-95205842D01*
X142558547Y-95232309D01*
X142545589Y-95244936D01*
X142527361Y-95239670D01*
X142486394Y-95222282D01*
X142432889Y-95197050D01*
X142375758Y-95168454D01*
X142323915Y-95140974D01*
X142286273Y-95119091D01*
X142271745Y-95107285D01*
X142272148Y-95103063D01*
X142279817Y-95071718D01*
X142293405Y-95027983D01*
X142307868Y-94987305D01*
X142318162Y-94965132D01*
X142322120Y-94964899D01*
X142351043Y-94973221D01*
G37*
G36*
X142342149Y-94176111D02*
G01*
X142373466Y-94190417D01*
X142419004Y-94215527D01*
X142424872Y-94218945D01*
X142459224Y-94239201D01*
X142479543Y-94256692D01*
X142485958Y-94278479D01*
X142478594Y-94311619D01*
X142457578Y-94363171D01*
X142423037Y-94440193D01*
X142399776Y-94487948D01*
X142376828Y-94526534D01*
X142362066Y-94541335D01*
X142352730Y-94540536D01*
X142312971Y-94528471D01*
X142269089Y-94507140D01*
X142233588Y-94483319D01*
X142218975Y-94463786D01*
X142220969Y-94453926D01*
X142233307Y-94416337D01*
X142253521Y-94361894D01*
X142277649Y-94300558D01*
X142301730Y-94242289D01*
X142321804Y-94197046D01*
X142333908Y-94174791D01*
X142342149Y-94176111D01*
G37*
G36*
X149764345Y-97377061D02*
G01*
X149796436Y-97393791D01*
X149843111Y-97419409D01*
X149886825Y-97446381D01*
X149912376Y-97471665D01*
X149913437Y-97494167D01*
X149906992Y-97509812D01*
X149888975Y-97554673D01*
X149867120Y-97609923D01*
X149854324Y-97641785D01*
X149831907Y-97694607D01*
X149815528Y-97729501D01*
X149796226Y-97750525D01*
X149759628Y-97749825D01*
X149751821Y-97747227D01*
X149697190Y-97721428D01*
X149657372Y-97690025D01*
X149641967Y-97660319D01*
X149646754Y-97639835D01*
X149661354Y-97596544D01*
X149682217Y-97540597D01*
X149705714Y-97481149D01*
X149728218Y-97427352D01*
X149746099Y-97388361D01*
X149755728Y-97373330D01*
X149764345Y-97377061D01*
G37*
G36*
X141389239Y-93731947D02*
G01*
X141436613Y-93753709D01*
X141463765Y-93768170D01*
X141500837Y-93793626D01*
X141515374Y-93812582D01*
X141515103Y-93815236D01*
X141505939Y-93845414D01*
X141486376Y-93896337D01*
X141459985Y-93958592D01*
X141430545Y-94019534D01*
X141399843Y-94067414D01*
X141376432Y-94083929D01*
X141361117Y-94080676D01*
X141324158Y-94065547D01*
X141282337Y-94043996D01*
X141248111Y-94022649D01*
X141233934Y-94008131D01*
X141234323Y-94006105D01*
X141243330Y-93980601D01*
X141261252Y-93934902D01*
X141284070Y-93878791D01*
X141307764Y-93822049D01*
X141328315Y-93774460D01*
X141341705Y-93745807D01*
X141348801Y-93734161D01*
X141363232Y-93725703D01*
X141389239Y-93731947D01*
G37*
G36*
X141637547Y-93843892D02*
G01*
X141676027Y-93863423D01*
X141715918Y-93889330D01*
X141746211Y-93914341D01*
X141755901Y-93931184D01*
X141754622Y-93934212D01*
X141741131Y-93965092D01*
X141718293Y-94016681D01*
X141690258Y-94079597D01*
X141682638Y-94096512D01*
X141656269Y-94152843D01*
X141636237Y-94192274D01*
X141626390Y-94207125D01*
X141621403Y-94205592D01*
X141592722Y-94192749D01*
X141548931Y-94171117D01*
X141508305Y-94147621D01*
X141488517Y-94125088D01*
X141489803Y-94099022D01*
X141491616Y-94093588D01*
X141507633Y-94053026D01*
X141531177Y-93999595D01*
X141557941Y-93942323D01*
X141583618Y-93890237D01*
X141603900Y-93852364D01*
X141614478Y-93837734D01*
X141637547Y-93843892D01*
G37*
G36*
X142093472Y-94071702D02*
G01*
X142122801Y-94083969D01*
X142167764Y-94105889D01*
X142195029Y-94119780D01*
X142232991Y-94138911D01*
X142249795Y-94147063D01*
X142249185Y-94150919D01*
X142238538Y-94179139D01*
X142217689Y-94228642D01*
X142189642Y-94292180D01*
X142175487Y-94322687D01*
X142145787Y-94380649D01*
X142121227Y-94420760D01*
X142106052Y-94435729D01*
X142095929Y-94434040D01*
X142060563Y-94418665D01*
X142019998Y-94393837D01*
X141986596Y-94367666D01*
X141972715Y-94348258D01*
X141973982Y-94342707D01*
X141985241Y-94311097D01*
X142004890Y-94261110D01*
X142028933Y-94202412D01*
X142053373Y-94144668D01*
X142074215Y-94097545D01*
X142087462Y-94070709D01*
X142093472Y-94071702D01*
G37*
G36*
X144682489Y-105591530D02*
G01*
X144683399Y-106054008D01*
X144776819Y-105790158D01*
X144785585Y-105765502D01*
X144826755Y-105651718D01*
X144870595Y-105533244D01*
X144912387Y-105422728D01*
X144947412Y-105332817D01*
X145024585Y-105139327D01*
X145178498Y-105134245D01*
X145332410Y-105129162D01*
X145332410Y-105886218D01*
X145332410Y-106643274D01*
X145191977Y-106643274D01*
X145051544Y-106643274D01*
X145046860Y-106174019D01*
X145042175Y-105704764D01*
X144898462Y-106090466D01*
X144877656Y-106146176D01*
X144835235Y-106258970D01*
X144795847Y-106362707D01*
X144761782Y-106451401D01*
X144735332Y-106519068D01*
X144718790Y-106559722D01*
X144682829Y-106643274D01*
X144541295Y-106643274D01*
X144399761Y-106643274D01*
X144404347Y-105891301D01*
X144408934Y-105139327D01*
X144545257Y-105134190D01*
X144681579Y-105129052D01*
X144682489Y-105591530D01*
G37*
G36*
X145696458Y-97343257D02*
G01*
X145737381Y-97360037D01*
X145795034Y-97384982D01*
X145861279Y-97414431D01*
X145927979Y-97444720D01*
X145986995Y-97472189D01*
X146030192Y-97493175D01*
X146049430Y-97504015D01*
X146046552Y-97517524D01*
X146032518Y-97555100D01*
X146010334Y-97607508D01*
X145991155Y-97651149D01*
X145962561Y-97717053D01*
X145940644Y-97768522D01*
X145935701Y-97779794D01*
X145915748Y-97816123D01*
X145900586Y-97830874D01*
X145883920Y-97825614D01*
X145840993Y-97808258D01*
X145779331Y-97781643D01*
X145705960Y-97748735D01*
X145658464Y-97727308D01*
X145594287Y-97697126D01*
X145555818Y-97671587D01*
X145540405Y-97643183D01*
X145545396Y-97604403D01*
X145568138Y-97547738D01*
X145605978Y-97465677D01*
X145613764Y-97448971D01*
X145642453Y-97392541D01*
X145666330Y-97353032D01*
X145680868Y-97338150D01*
X145696458Y-97343257D01*
G37*
G36*
X142103586Y-95567666D02*
G01*
X142151857Y-95585520D01*
X142210180Y-95611016D01*
X142258362Y-95632784D01*
X142344399Y-95669236D01*
X142423068Y-95700128D01*
X142471139Y-95718983D01*
X142511853Y-95740868D01*
X142534903Y-95766057D01*
X142549490Y-95801961D01*
X142551333Y-95808382D01*
X142557515Y-95873224D01*
X142543646Y-95931274D01*
X142512508Y-95969898D01*
X142485122Y-95982066D01*
X142426498Y-95983745D01*
X142368751Y-95960776D01*
X142321795Y-95918144D01*
X142295540Y-95860830D01*
X142293946Y-95853870D01*
X142282245Y-95828535D01*
X142257466Y-95805380D01*
X142213024Y-95779462D01*
X142142337Y-95745841D01*
X142111887Y-95731927D01*
X142052844Y-95704537D01*
X142010678Y-95684398D01*
X141992989Y-95675110D01*
X141991585Y-95665678D01*
X142004494Y-95637313D01*
X142028837Y-95602868D01*
X142056071Y-95573801D01*
X142077650Y-95561571D01*
X142103586Y-95567666D01*
G37*
G36*
X140595700Y-94529605D02*
G01*
X140650103Y-94556356D01*
X140690449Y-94597172D01*
X140706233Y-94643628D01*
X140708688Y-94654631D01*
X140729267Y-94677871D01*
X140774419Y-94706047D01*
X140848558Y-94742218D01*
X140873042Y-94753362D01*
X140941580Y-94784074D01*
X140999078Y-94809176D01*
X141035093Y-94824086D01*
X141051377Y-94831120D01*
X141070847Y-94851686D01*
X141067255Y-94888904D01*
X141054990Y-94925691D01*
X141037667Y-94958047D01*
X141032030Y-94963773D01*
X141016732Y-94969976D01*
X140992253Y-94966786D01*
X140953132Y-94952408D01*
X140893905Y-94925044D01*
X140809112Y-94882900D01*
X140795335Y-94876027D01*
X140715408Y-94840755D01*
X140648072Y-94821774D01*
X140579670Y-94815044D01*
X140506210Y-94807533D01*
X140448731Y-94784119D01*
X140416966Y-94742097D01*
X140407203Y-94678530D01*
X140410013Y-94645647D01*
X140436658Y-94581464D01*
X140487269Y-94539060D01*
X140556718Y-94523745D01*
X140595700Y-94529605D01*
G37*
G36*
X140751668Y-96142661D02*
G01*
X140776180Y-96153947D01*
X140826282Y-96177626D01*
X140897252Y-96211451D01*
X140984367Y-96253171D01*
X141082904Y-96300540D01*
X141168111Y-96341324D01*
X141260024Y-96385681D01*
X141325890Y-96420248D01*
X141368618Y-96448897D01*
X141391113Y-96475503D01*
X141396285Y-96503937D01*
X141387039Y-96538074D01*
X141366284Y-96581786D01*
X141336927Y-96638946D01*
X141310347Y-96687551D01*
X141284876Y-96725539D01*
X141268422Y-96740089D01*
X141259875Y-96737881D01*
X141223290Y-96723530D01*
X141164723Y-96698230D01*
X141090182Y-96664795D01*
X141005679Y-96626040D01*
X140917224Y-96584778D01*
X140830826Y-96543823D01*
X140752496Y-96505988D01*
X140688245Y-96474087D01*
X140644082Y-96450935D01*
X140626018Y-96439344D01*
X140625693Y-96437630D01*
X140631893Y-96412911D01*
X140648170Y-96367436D01*
X140670788Y-96310158D01*
X140696016Y-96250028D01*
X140720119Y-96195995D01*
X140739365Y-96157011D01*
X140750020Y-96142028D01*
X140751668Y-96142661D01*
G37*
G36*
X149000233Y-97141714D02*
G01*
X149024591Y-97152562D01*
X149028187Y-97154389D01*
X149072168Y-97174765D01*
X149135011Y-97201893D01*
X149204363Y-97230422D01*
X149204876Y-97230627D01*
X149288715Y-97265318D01*
X149383716Y-97306228D01*
X149469412Y-97344545D01*
X149604683Y-97406663D01*
X149576681Y-97477946D01*
X149568664Y-97497318D01*
X149550340Y-97534238D01*
X149538156Y-97548606D01*
X149527608Y-97544500D01*
X149489730Y-97527106D01*
X149429753Y-97498477D01*
X149353115Y-97461218D01*
X149265256Y-97417932D01*
X149002881Y-97287882D01*
X148887071Y-97331443D01*
X148828321Y-97355257D01*
X148746405Y-97392489D01*
X148677135Y-97428091D01*
X148632523Y-97451620D01*
X148592694Y-97468914D01*
X148573880Y-97472048D01*
X148568864Y-97453945D01*
X148577368Y-97415172D01*
X148598344Y-97371187D01*
X148626804Y-97334913D01*
X148641611Y-97323096D01*
X148687148Y-97292258D01*
X148749656Y-97253639D01*
X148820159Y-97212901D01*
X148839931Y-97201886D01*
X148904375Y-97166899D01*
X148947594Y-97146678D01*
X148977057Y-97139018D01*
X149000233Y-97141714D01*
G37*
G36*
X140348178Y-95177678D02*
G01*
X140395230Y-95224467D01*
X140419519Y-95294218D01*
X140423102Y-95341193D01*
X140414281Y-95375589D01*
X140387570Y-95405217D01*
X140378494Y-95412932D01*
X140316193Y-95456210D01*
X140258901Y-95480915D01*
X140215579Y-95482994D01*
X140213582Y-95482465D01*
X140200173Y-95484990D01*
X140184378Y-95500620D01*
X140164019Y-95533249D01*
X140136914Y-95586771D01*
X140100885Y-95665081D01*
X140053751Y-95772073D01*
X140032005Y-95821823D01*
X139987691Y-95920683D01*
X139952972Y-95991616D01*
X139925124Y-96037865D01*
X139901425Y-96062674D01*
X139879149Y-96069285D01*
X139855573Y-96060941D01*
X139827973Y-96040885D01*
X139790137Y-96010103D01*
X139845799Y-95895767D01*
X139854801Y-95877021D01*
X139886297Y-95809456D01*
X139925997Y-95722350D01*
X139969723Y-95624919D01*
X140013297Y-95526377D01*
X140053989Y-95433741D01*
X140094093Y-95343624D01*
X140124507Y-95278035D01*
X140147658Y-95232684D01*
X140165974Y-95203283D01*
X140181882Y-95185542D01*
X140197809Y-95175172D01*
X140216184Y-95167884D01*
X140284950Y-95157944D01*
X140348178Y-95177678D01*
G37*
G36*
X147599686Y-98161281D02*
G01*
X147653933Y-98197989D01*
X147685653Y-98257079D01*
X147692449Y-98276734D01*
X147708729Y-98299598D01*
X147738872Y-98322071D01*
X147789172Y-98348567D01*
X147865925Y-98383501D01*
X147949152Y-98420484D01*
X148061075Y-98471584D01*
X148145036Y-98512243D01*
X148203956Y-98544090D01*
X148240758Y-98568753D01*
X148258363Y-98587862D01*
X148259691Y-98603045D01*
X148251532Y-98625642D01*
X148239280Y-98670423D01*
X148238960Y-98671851D01*
X148231308Y-98690398D01*
X148216253Y-98699632D01*
X148189856Y-98698345D01*
X148148178Y-98685326D01*
X148087282Y-98659367D01*
X148003229Y-98619257D01*
X147892081Y-98563786D01*
X147840734Y-98538065D01*
X147755118Y-98496650D01*
X147691377Y-98468817D01*
X147643474Y-98452322D01*
X147605373Y-98444919D01*
X147571040Y-98444363D01*
X147523766Y-98444075D01*
X147483177Y-98429929D01*
X147441021Y-98394065D01*
X147406809Y-98355057D01*
X147393540Y-98320363D01*
X147396479Y-98275221D01*
X147396890Y-98272737D01*
X147416470Y-98209840D01*
X147453909Y-98172699D01*
X147516870Y-98153571D01*
X147530921Y-98151868D01*
X147599686Y-98161281D01*
G37*
G36*
X140904133Y-93704052D02*
G01*
X140962907Y-93724876D01*
X141007466Y-93767421D01*
X141022294Y-93827268D01*
X141020206Y-93854417D01*
X140995658Y-93913921D01*
X140940832Y-93957790D01*
X140929411Y-93966186D01*
X140899090Y-94004174D01*
X140873271Y-94055338D01*
X140843755Y-94132623D01*
X140902522Y-94216087D01*
X140934487Y-94257594D01*
X140971654Y-94291839D01*
X141020439Y-94319931D01*
X141091964Y-94349713D01*
X141107214Y-94355625D01*
X141168343Y-94380556D01*
X141214494Y-94401310D01*
X141236652Y-94413888D01*
X141238564Y-94417191D01*
X141235101Y-94444691D01*
X141216173Y-94484618D01*
X141210123Y-94494309D01*
X141186159Y-94527805D01*
X141171075Y-94541335D01*
X141170748Y-94541317D01*
X141149267Y-94533785D01*
X141105505Y-94515243D01*
X141048532Y-94489525D01*
X140988784Y-94463191D01*
X140919458Y-94435312D01*
X140865389Y-94416380D01*
X140847540Y-94410514D01*
X140809387Y-94393377D01*
X140794183Y-94378843D01*
X140794163Y-94378318D01*
X140787387Y-94353438D01*
X140770789Y-94306311D01*
X140747790Y-94246675D01*
X140701397Y-94130710D01*
X140737582Y-94030141D01*
X140761153Y-93944780D01*
X140764248Y-93858605D01*
X140761110Y-93816514D01*
X140770989Y-93778095D01*
X140802007Y-93740361D01*
X140823342Y-93720790D01*
X140860127Y-93701911D01*
X140904133Y-93704052D01*
G37*
G36*
X151594933Y-105600325D02*
G01*
X151595406Y-106071598D01*
X151764100Y-105623053D01*
X151765337Y-105619764D01*
X151810424Y-105500819D01*
X151852202Y-105392284D01*
X151888884Y-105298673D01*
X151918683Y-105224499D01*
X151939809Y-105174277D01*
X151950476Y-105152520D01*
X151969227Y-105142399D01*
X152022874Y-105133561D01*
X152106725Y-105130532D01*
X152245291Y-105130532D01*
X152245291Y-105859080D01*
X152245342Y-105930351D01*
X152245807Y-106083740D01*
X152246714Y-106225037D01*
X152248008Y-106350392D01*
X152249634Y-106455959D01*
X152251540Y-106537890D01*
X152253669Y-106592336D01*
X152255968Y-106615451D01*
X152257027Y-106618532D01*
X152255485Y-106631340D01*
X152237283Y-106638852D01*
X152196257Y-106642389D01*
X152126242Y-106643274D01*
X151985838Y-106643274D01*
X151974844Y-106588306D01*
X151973207Y-106575693D01*
X151970129Y-106527099D01*
X151967412Y-106452070D01*
X151965208Y-106356426D01*
X151963665Y-106245986D01*
X151962934Y-106126567D01*
X151962017Y-105719798D01*
X151842316Y-106054008D01*
X151802007Y-106165362D01*
X151761660Y-106274689D01*
X151724302Y-106373928D01*
X151692832Y-106455381D01*
X151670147Y-106511349D01*
X151617679Y-106634479D01*
X151469747Y-106634479D01*
X151321815Y-106634479D01*
X151321815Y-105886903D01*
X151321815Y-105139327D01*
X151458137Y-105134190D01*
X151594460Y-105129052D01*
X151594933Y-105600325D01*
G37*
G36*
X141449318Y-94426272D02*
G01*
X141484525Y-94441209D01*
X141544569Y-94467724D01*
X141624398Y-94503552D01*
X141718959Y-94546434D01*
X141823200Y-94594105D01*
X141865753Y-94613608D01*
X141967087Y-94659748D01*
X142056941Y-94700244D01*
X142130204Y-94732815D01*
X142181762Y-94755182D01*
X142206502Y-94765064D01*
X142223185Y-94772516D01*
X142232887Y-94787369D01*
X142228413Y-94797643D01*
X142211176Y-94836483D01*
X142183006Y-94899665D01*
X142145936Y-94982633D01*
X142102001Y-95080830D01*
X142053236Y-95189700D01*
X142017864Y-95268109D01*
X141971873Y-95368406D01*
X141931736Y-95454037D01*
X141899543Y-95520623D01*
X141877383Y-95563786D01*
X141867346Y-95579147D01*
X141852106Y-95573914D01*
X141809281Y-95555697D01*
X141744632Y-95526822D01*
X141663496Y-95489794D01*
X141571213Y-95447120D01*
X141473118Y-95401305D01*
X141374552Y-95354857D01*
X141280851Y-95310280D01*
X141197354Y-95270080D01*
X141129398Y-95236765D01*
X141082322Y-95212839D01*
X141061464Y-95200810D01*
X141064240Y-95191388D01*
X141079488Y-95154047D01*
X141106186Y-95092428D01*
X141142399Y-95010921D01*
X141186191Y-94913914D01*
X141235629Y-94805795D01*
X141261013Y-94750798D01*
X141314900Y-94635912D01*
X141357218Y-94549176D01*
X141389591Y-94487605D01*
X141413643Y-94448215D01*
X141430998Y-94428018D01*
X141443279Y-94424031D01*
X141449318Y-94426272D01*
G37*
G36*
X144543216Y-93955315D02*
G01*
X144636163Y-93973230D01*
X144754272Y-94001322D01*
X144901563Y-94040313D01*
X144982353Y-94062846D01*
X145086997Y-94094431D01*
X145165374Y-94122673D01*
X145222475Y-94150142D01*
X145263289Y-94179403D01*
X145292807Y-94213025D01*
X145316018Y-94253574D01*
X145329626Y-94286811D01*
X145345650Y-94379427D01*
X145335481Y-94487852D01*
X145298946Y-94615730D01*
X145283153Y-94661426D01*
X145258264Y-94736308D01*
X145229648Y-94824501D01*
X145200871Y-94915123D01*
X145199004Y-94921062D01*
X145173608Y-94999239D01*
X145151416Y-95063043D01*
X145134759Y-95106043D01*
X145125967Y-95121806D01*
X145125926Y-95121806D01*
X145104130Y-95117221D01*
X145053439Y-95104509D01*
X144978798Y-95085019D01*
X144885151Y-95060105D01*
X144777444Y-95031118D01*
X144660622Y-94999410D01*
X144539628Y-94966332D01*
X144419408Y-94933237D01*
X144304907Y-94901476D01*
X144201069Y-94872401D01*
X144112839Y-94847363D01*
X144045162Y-94827715D01*
X144002982Y-94814809D01*
X144001109Y-94813815D01*
X143994412Y-94789443D01*
X143997601Y-94738905D01*
X144009124Y-94668340D01*
X144027430Y-94583890D01*
X144050967Y-94491692D01*
X144078183Y-94397888D01*
X144107528Y-94308617D01*
X144137448Y-94230018D01*
X144166392Y-94168232D01*
X144200573Y-94112201D01*
X144264331Y-94033614D01*
X144331806Y-93977572D01*
X144396883Y-93949870D01*
X144416714Y-93947137D01*
X144471407Y-93946858D01*
X144543216Y-93955315D01*
G37*
G36*
X138853686Y-105145713D02*
G01*
X138885502Y-105147126D01*
X138949782Y-105150695D01*
X138995525Y-105154251D01*
X139014420Y-105157201D01*
X139013963Y-105163624D01*
X139002493Y-105193648D01*
X138980946Y-105238765D01*
X138976873Y-105246911D01*
X138954474Y-105293974D01*
X138921444Y-105365423D01*
X138880548Y-105455195D01*
X138834554Y-105557227D01*
X138786229Y-105665455D01*
X138630610Y-106015682D01*
X138630610Y-106317751D01*
X138630194Y-106397764D01*
X138628608Y-106488047D01*
X138626045Y-106561092D01*
X138622729Y-106610919D01*
X138618883Y-106631548D01*
X138618205Y-106632090D01*
X138593406Y-106637746D01*
X138544178Y-106641753D01*
X138480409Y-106643274D01*
X138353661Y-106643274D01*
X138340703Y-106322256D01*
X138327746Y-106001238D01*
X138178198Y-105658233D01*
X138167111Y-105632823D01*
X138120814Y-105527106D01*
X138077821Y-105429528D01*
X138040808Y-105346122D01*
X138012449Y-105282922D01*
X137995420Y-105245961D01*
X137986917Y-105227762D01*
X137969231Y-105185855D01*
X137962189Y-105162408D01*
X137965441Y-105159491D01*
X137994581Y-105153683D01*
X138047454Y-105149676D01*
X138116101Y-105148203D01*
X138270014Y-105148283D01*
X138375172Y-105437354D01*
X138405219Y-105518696D01*
X138436484Y-105600405D01*
X138462164Y-105664310D01*
X138480195Y-105705294D01*
X138488513Y-105718243D01*
X138495822Y-105702726D01*
X138512462Y-105659990D01*
X138535497Y-105597225D01*
X138562300Y-105521439D01*
X138583133Y-105461755D01*
X138614259Y-105373256D01*
X138642374Y-105294032D01*
X138663240Y-105236072D01*
X138698577Y-105139327D01*
X138853686Y-105145713D01*
G37*
G36*
X148660912Y-98024973D02*
G01*
X148686922Y-98035946D01*
X148738398Y-98059453D01*
X148810483Y-98093223D01*
X148898316Y-98134986D01*
X148997040Y-98182471D01*
X149024757Y-98195862D01*
X149120618Y-98241986D01*
X149203981Y-98281808D01*
X149270060Y-98313059D01*
X149314068Y-98333473D01*
X149331219Y-98340781D01*
X149338341Y-98343252D01*
X149371560Y-98357405D01*
X149425081Y-98381311D01*
X149491619Y-98411746D01*
X149510473Y-98420468D01*
X149574384Y-98450811D01*
X149612345Y-98471862D01*
X149629316Y-98487862D01*
X149630258Y-98503055D01*
X149620129Y-98521683D01*
X149606110Y-98547501D01*
X149579810Y-98600468D01*
X149544473Y-98674065D01*
X149502915Y-98762427D01*
X149457949Y-98859687D01*
X149418632Y-98945085D01*
X149371928Y-99045649D01*
X149329291Y-99136558D01*
X149294221Y-99210356D01*
X149270218Y-99259587D01*
X149219575Y-99360457D01*
X149127343Y-99319101D01*
X149110409Y-99311398D01*
X149054611Y-99285505D01*
X148975881Y-99248568D01*
X148880160Y-99203388D01*
X148773387Y-99152765D01*
X148661502Y-99099498D01*
X148595629Y-99068212D01*
X148494918Y-99020959D01*
X148407214Y-98980517D01*
X148337186Y-98949005D01*
X148289502Y-98928544D01*
X148268834Y-98921252D01*
X148260249Y-98917840D01*
X148255463Y-98894683D01*
X148257670Y-98887554D01*
X148272228Y-98851142D01*
X148297986Y-98791517D01*
X148332615Y-98713705D01*
X148373783Y-98622734D01*
X148419160Y-98523631D01*
X148466415Y-98421422D01*
X148513219Y-98321134D01*
X148557240Y-98227794D01*
X148596149Y-98146429D01*
X148627614Y-98082066D01*
X148649306Y-98039732D01*
X148658894Y-98024454D01*
X148660912Y-98024973D01*
G37*
G36*
X147228842Y-95016098D02*
G01*
X147309366Y-95044925D01*
X147412954Y-95091351D01*
X147496621Y-95132605D01*
X147645891Y-95217422D01*
X147761079Y-95301163D01*
X147842867Y-95384836D01*
X147891932Y-95469448D01*
X147908956Y-95556009D01*
X147894617Y-95645527D01*
X147849597Y-95739010D01*
X147748402Y-95902035D01*
X147616568Y-96120582D01*
X147483842Y-96348154D01*
X147343426Y-96596267D01*
X147307168Y-96660938D01*
X147222102Y-96810288D01*
X147149913Y-96932571D01*
X147088389Y-97030900D01*
X147035319Y-97108387D01*
X146988493Y-97168147D01*
X146945698Y-97213291D01*
X146904725Y-97246933D01*
X146863363Y-97272187D01*
X146813562Y-97295578D01*
X146744333Y-97315025D01*
X146662846Y-97320067D01*
X146622308Y-97318026D01*
X146512224Y-97295900D01*
X146405352Y-97253111D01*
X146309665Y-97194214D01*
X146233132Y-97123762D01*
X146183723Y-97046311D01*
X146179873Y-97036971D01*
X146166942Y-97001111D01*
X146159561Y-96966347D01*
X146158855Y-96928538D01*
X146165950Y-96883544D01*
X146181971Y-96827224D01*
X146208045Y-96755438D01*
X146245296Y-96664045D01*
X146294850Y-96548906D01*
X146357834Y-96405878D01*
X146380080Y-96355818D01*
X146434160Y-96235893D01*
X146492704Y-96108657D01*
X146558530Y-95968070D01*
X146634456Y-95808096D01*
X146723299Y-95622694D01*
X146743012Y-95580901D01*
X146789246Y-95478209D01*
X146834523Y-95372338D01*
X146871366Y-95280567D01*
X146897288Y-95213472D01*
X146924390Y-95149020D01*
X146947894Y-95105439D01*
X146972609Y-95075801D01*
X147003342Y-95053184D01*
X147044904Y-95030662D01*
X147058388Y-95024120D01*
X147110081Y-95006805D01*
X147164657Y-95003761D01*
X147228842Y-95016098D01*
G37*
G36*
X143098477Y-105721415D02*
G01*
X143098473Y-105738864D01*
X143097851Y-105923489D01*
X143096124Y-106074955D01*
X143093233Y-106195110D01*
X143089118Y-106285800D01*
X143083719Y-106348874D01*
X143076976Y-106386178D01*
X143065174Y-106415999D01*
X143022196Y-106483870D01*
X142962787Y-106550364D01*
X142896936Y-106605116D01*
X142834626Y-106637759D01*
X142825018Y-106640571D01*
X142753114Y-106653161D01*
X142665477Y-106658627D01*
X142574679Y-106657100D01*
X142493292Y-106648710D01*
X142433888Y-106633588D01*
X142351714Y-106585224D01*
X142273884Y-106504185D01*
X142218933Y-106401657D01*
X142218036Y-106399248D01*
X142208524Y-106371227D01*
X142200949Y-106341345D01*
X142195090Y-106305439D01*
X142190731Y-106259342D01*
X142187653Y-106198890D01*
X142185638Y-106119918D01*
X142184469Y-106018262D01*
X142183927Y-105889756D01*
X142183795Y-105730235D01*
X142183795Y-105152725D01*
X142249758Y-105141822D01*
X142263532Y-105139659D01*
X142339652Y-105131809D01*
X142404387Y-105131588D01*
X142450006Y-105138617D01*
X142468780Y-105152520D01*
X142469294Y-105161440D01*
X142470167Y-105202161D01*
X142470993Y-105271186D01*
X142471740Y-105364157D01*
X142472375Y-105476715D01*
X142472865Y-105604503D01*
X142473178Y-105743163D01*
X142474031Y-106311818D01*
X142531476Y-106363211D01*
X142542774Y-106372691D01*
X142609697Y-106407841D01*
X142677690Y-106413533D01*
X142738995Y-106390492D01*
X142785851Y-106339443D01*
X142790212Y-106327767D01*
X142796494Y-106291974D01*
X142801888Y-106233228D01*
X142806516Y-106149082D01*
X142810501Y-106037091D01*
X142813967Y-105894812D01*
X142817036Y-105719798D01*
X142825831Y-105139327D01*
X142962154Y-105134190D01*
X143098477Y-105129052D01*
X143098477Y-105721415D01*
G37*
G36*
X146972451Y-97837001D02*
G01*
X147013300Y-97878742D01*
X147031500Y-97934268D01*
X147020787Y-97996759D01*
X147017358Y-98005045D01*
X147005397Y-98043821D01*
X147001343Y-98085772D01*
X147006092Y-98136850D01*
X147020539Y-98203004D01*
X147045579Y-98290186D01*
X147082107Y-98404345D01*
X147163634Y-98652604D01*
X147402347Y-98761800D01*
X147454144Y-98785415D01*
X147538130Y-98822800D01*
X147599515Y-98847805D01*
X147644461Y-98862199D01*
X147679131Y-98867752D01*
X147709687Y-98866234D01*
X147742291Y-98859413D01*
X147755525Y-98856793D01*
X147818153Y-98861939D01*
X147872023Y-98891637D01*
X147910614Y-98938548D01*
X147927400Y-98995334D01*
X147915859Y-99054657D01*
X147887732Y-99094967D01*
X147847784Y-99128029D01*
X147797675Y-99143673D01*
X147734063Y-99139680D01*
X147677006Y-99114228D01*
X147635741Y-99071814D01*
X147619505Y-99016933D01*
X147619193Y-99012935D01*
X147610784Y-98995916D01*
X147587548Y-98976768D01*
X147544978Y-98952880D01*
X147478566Y-98921643D01*
X147383803Y-98880446D01*
X147355276Y-98868324D01*
X147267882Y-98831556D01*
X147190083Y-98799345D01*
X147129454Y-98774807D01*
X147093568Y-98761057D01*
X147089899Y-98759726D01*
X147053578Y-98739591D01*
X147038643Y-98718115D01*
X147037674Y-98709845D01*
X147027890Y-98669147D01*
X147009338Y-98604694D01*
X146984204Y-98523130D01*
X146954675Y-98431101D01*
X146922939Y-98335254D01*
X146891182Y-98242233D01*
X146861592Y-98158684D01*
X146836354Y-98091254D01*
X146817657Y-98046587D01*
X146802326Y-98013088D01*
X146785689Y-97966524D01*
X146783198Y-97930292D01*
X146792734Y-97891171D01*
X146816706Y-97844828D01*
X146857785Y-97819341D01*
X146915220Y-97815865D01*
X146972451Y-97837001D01*
G37*
G36*
X146012000Y-94373649D02*
G01*
X146116654Y-94404816D01*
X146229454Y-94448273D01*
X146343452Y-94501043D01*
X146451698Y-94560151D01*
X146547244Y-94622620D01*
X146623140Y-94685476D01*
X146640741Y-94702944D01*
X146683815Y-94751033D01*
X146714138Y-94797956D01*
X146731184Y-94847712D01*
X146734426Y-94904298D01*
X146723337Y-94971713D01*
X146697393Y-95053956D01*
X146656064Y-95155025D01*
X146598826Y-95278917D01*
X146525152Y-95429632D01*
X146501722Y-95477095D01*
X146360111Y-95772783D01*
X146210084Y-96100507D01*
X146052383Y-96458648D01*
X146011332Y-96550104D01*
X145953561Y-96663785D01*
X145899076Y-96749510D01*
X145844924Y-96811060D01*
X145788150Y-96852219D01*
X145725800Y-96876768D01*
X145625121Y-96893655D01*
X145502639Y-96889307D01*
X145368637Y-96858691D01*
X145218075Y-96801054D01*
X145112535Y-96754112D01*
X145218191Y-96714335D01*
X145222634Y-96712657D01*
X145419901Y-96626473D01*
X145602312Y-96524205D01*
X145763149Y-96410078D01*
X145895690Y-96288317D01*
X145978848Y-96187710D01*
X146051935Y-96075618D01*
X146108921Y-95962075D01*
X146145943Y-95854800D01*
X146159142Y-95761514D01*
X146154832Y-95706169D01*
X146127642Y-95603126D01*
X146080357Y-95507242D01*
X146018720Y-95431994D01*
X145996614Y-95412540D01*
X145939809Y-95369226D01*
X145879748Y-95336049D01*
X145805927Y-95307855D01*
X145707837Y-95279489D01*
X145703417Y-95278315D01*
X145622779Y-95256461D01*
X145542785Y-95234116D01*
X145480140Y-95215942D01*
X145390404Y-95188994D01*
X145422076Y-95098232D01*
X145424208Y-95092077D01*
X145442852Y-95036387D01*
X145468357Y-94958136D01*
X145497641Y-94866844D01*
X145527625Y-94772031D01*
X145534821Y-94749352D01*
X145578698Y-94624468D01*
X145622020Y-94529369D01*
X145668327Y-94459659D01*
X145721162Y-94410946D01*
X145784066Y-94378834D01*
X145860581Y-94358931D01*
X145922443Y-94357747D01*
X146012000Y-94373649D01*
G37*
G36*
X151119529Y-106646180D02*
G01*
X150816101Y-106640213D01*
X150699800Y-106637066D01*
X150598057Y-106631180D01*
X150520028Y-106621224D01*
X150459673Y-106605579D01*
X150410953Y-106582625D01*
X150367830Y-106550743D01*
X150324264Y-106508313D01*
X150296166Y-106475898D01*
X150271813Y-106438316D01*
X150253398Y-106393967D01*
X150240122Y-106338118D01*
X150231187Y-106266037D01*
X150225794Y-106172991D01*
X150223144Y-106054249D01*
X150222438Y-105905077D01*
X150223084Y-105775873D01*
X150225312Y-105684958D01*
X150505831Y-105684958D01*
X150505861Y-105784282D01*
X150507314Y-105913912D01*
X150509156Y-106037241D01*
X150511098Y-106131451D01*
X150513695Y-106200216D01*
X150517525Y-106248421D01*
X150523160Y-106280953D01*
X150531176Y-106302699D01*
X150542147Y-106318544D01*
X150556648Y-106333376D01*
X150585388Y-106353594D01*
X150649255Y-106377608D01*
X150722172Y-106388998D01*
X150788585Y-106384345D01*
X150799017Y-106379161D01*
X150812026Y-106360343D01*
X150821976Y-106325472D01*
X150829117Y-106271366D01*
X150833700Y-106194844D01*
X150835975Y-106092722D01*
X150836191Y-105961819D01*
X150834600Y-105798953D01*
X150829294Y-105403177D01*
X150758934Y-105397387D01*
X150729821Y-105396003D01*
X150642123Y-105405829D01*
X150573176Y-105435967D01*
X150529404Y-105483994D01*
X150524932Y-105493623D01*
X150516774Y-105520272D01*
X150511038Y-105557808D01*
X150507473Y-105611085D01*
X150505831Y-105684958D01*
X150225312Y-105684958D01*
X150226521Y-105635598D01*
X150234062Y-105522994D01*
X150246973Y-105433843D01*
X150266521Y-105363926D01*
X150293972Y-105309023D01*
X150330592Y-105264918D01*
X150377648Y-105227391D01*
X150436405Y-105192224D01*
X150465923Y-105176607D01*
X150498576Y-105162055D01*
X150533243Y-105151795D01*
X150576555Y-105144830D01*
X150635144Y-105140160D01*
X150715641Y-105136784D01*
X150824680Y-105133704D01*
X151119529Y-105126032D01*
X151119529Y-105886106D01*
X151119529Y-105961819D01*
X151119529Y-106646180D01*
G37*
G36*
X140770237Y-95420838D02*
G01*
X140789747Y-95428060D01*
X140836698Y-95448077D01*
X140906672Y-95478880D01*
X140995250Y-95518462D01*
X141098015Y-95564817D01*
X141210548Y-95615938D01*
X141328431Y-95669818D01*
X141447247Y-95724449D01*
X141562577Y-95777826D01*
X141670003Y-95827941D01*
X141765108Y-95872786D01*
X141900507Y-95937091D01*
X141966834Y-96125968D01*
X142033161Y-96314845D01*
X142148055Y-96370493D01*
X142208871Y-96400253D01*
X142266863Y-96431037D01*
X142300920Y-96455241D01*
X142315593Y-96477679D01*
X142315435Y-96503166D01*
X142304995Y-96536518D01*
X142300719Y-96548080D01*
X142285585Y-96584635D01*
X142276657Y-96599369D01*
X142270203Y-96596515D01*
X142241068Y-96579790D01*
X142197712Y-96553075D01*
X142157932Y-96529461D01*
X142088750Y-96491834D01*
X142019260Y-96457068D01*
X141914143Y-96407355D01*
X141842286Y-96220988D01*
X141770430Y-96034622D01*
X141506579Y-95916058D01*
X141485053Y-95906375D01*
X141365930Y-95852533D01*
X141236028Y-95793474D01*
X141109649Y-95735713D01*
X141001097Y-95685766D01*
X140759466Y-95574039D01*
X140619704Y-95658529D01*
X140588639Y-95677534D01*
X140529900Y-95716472D01*
X140491517Y-95749408D01*
X140465803Y-95783753D01*
X140445075Y-95826916D01*
X140423914Y-95892604D01*
X140419433Y-95979583D01*
X140420659Y-95990654D01*
X140415122Y-96064157D01*
X140388393Y-96124675D01*
X140345791Y-96166659D01*
X140292633Y-96184561D01*
X140234237Y-96172832D01*
X140228965Y-96170179D01*
X140179891Y-96127296D01*
X140156359Y-96069819D01*
X140158254Y-96006479D01*
X140185461Y-95946011D01*
X140237865Y-95897147D01*
X140263359Y-95877990D01*
X140304571Y-95827133D01*
X140343791Y-95749044D01*
X140363011Y-95705210D01*
X140382872Y-95668650D01*
X140407366Y-95638909D01*
X140442912Y-95609817D01*
X140495930Y-95575205D01*
X140572839Y-95528903D01*
X140644368Y-95487040D01*
X140705556Y-95452630D01*
X140749661Y-95429378D01*
X140770193Y-95420837D01*
X140770237Y-95420838D01*
G37*
G36*
X148953803Y-105450748D02*
G01*
X148962973Y-105520204D01*
X148969360Y-105613226D01*
X148973063Y-105723291D01*
X148974182Y-105843879D01*
X148972817Y-105968467D01*
X148969066Y-106090534D01*
X148963030Y-106203558D01*
X148954807Y-106301019D01*
X148944497Y-106376393D01*
X148932200Y-106423159D01*
X148885845Y-106505571D01*
X148823610Y-106567923D01*
X148736081Y-106619045D01*
X148732759Y-106620600D01*
X148669259Y-106644695D01*
X148601563Y-106657105D01*
X148514433Y-106660693D01*
X148432242Y-106657655D01*
X148319837Y-106637996D01*
X148230928Y-106597952D01*
X148160780Y-106535051D01*
X148104658Y-106446822D01*
X148058865Y-106354927D01*
X148059251Y-105896642D01*
X148059632Y-105762683D01*
X148061159Y-105637550D01*
X148064592Y-105539039D01*
X148068910Y-105485032D01*
X148340305Y-105485032D01*
X148340305Y-105869518D01*
X148340475Y-105959046D01*
X148341752Y-106077778D01*
X148344831Y-106169018D01*
X148350362Y-106237505D01*
X148358992Y-106287979D01*
X148371369Y-106325180D01*
X148388144Y-106353847D01*
X148409963Y-106378722D01*
X148434936Y-106396787D01*
X148493525Y-106412934D01*
X148558269Y-106408812D01*
X148616557Y-106386078D01*
X148655776Y-106346393D01*
X148656252Y-106345414D01*
X148662570Y-106312861D01*
X148667652Y-106247703D01*
X148671401Y-106152335D01*
X148673721Y-106029150D01*
X148674516Y-105880541D01*
X148674516Y-105449706D01*
X148628168Y-105413249D01*
X148587057Y-105390287D01*
X148506602Y-105376792D01*
X148465379Y-105379127D01*
X148423706Y-105394387D01*
X148385844Y-105430912D01*
X148340305Y-105485032D01*
X148068910Y-105485032D01*
X148070705Y-105462573D01*
X148080274Y-105403577D01*
X148094072Y-105357474D01*
X148112875Y-105319687D01*
X148137457Y-105285640D01*
X148168594Y-105250756D01*
X148214252Y-105208217D01*
X148296280Y-105158553D01*
X148394415Y-105130729D01*
X148516205Y-105121948D01*
X148536589Y-105121974D01*
X148608343Y-105124045D01*
X148659640Y-105131159D01*
X148702434Y-105145812D01*
X148748677Y-105170502D01*
X148832457Y-105232146D01*
X148899616Y-105315954D01*
X148947421Y-105424593D01*
X148953549Y-105449706D01*
X148953803Y-105450748D01*
G37*
G36*
X141730947Y-105137319D02*
G01*
X141806987Y-105165388D01*
X141896457Y-105223081D01*
X141958784Y-105301543D01*
X141995343Y-105402720D01*
X142007509Y-105528557D01*
X142005733Y-105592972D01*
X141991825Y-105685576D01*
X141960603Y-105762157D01*
X141907897Y-105828980D01*
X141829536Y-105892311D01*
X141721347Y-105958418D01*
X141677999Y-105983516D01*
X141602782Y-106030790D01*
X141537736Y-106076060D01*
X141493387Y-106112223D01*
X141479930Y-106125368D01*
X141445958Y-106165377D01*
X141430857Y-106204462D01*
X141427424Y-106258607D01*
X141434538Y-106326430D01*
X141456539Y-106370846D01*
X141493793Y-106400002D01*
X141556822Y-106422997D01*
X141619376Y-106421037D01*
X141673682Y-106396479D01*
X141711966Y-106351680D01*
X141726455Y-106288999D01*
X141728219Y-106245203D01*
X141738444Y-106212840D01*
X141763814Y-106195033D01*
X141810993Y-106187494D01*
X141886647Y-106185934D01*
X142025485Y-106185934D01*
X142025485Y-106262464D01*
X142012107Y-106372694D01*
X141968864Y-106476567D01*
X141898323Y-106560820D01*
X141803153Y-106622340D01*
X141686025Y-106658016D01*
X141639357Y-106663232D01*
X141551356Y-106663347D01*
X141460325Y-106654247D01*
X141378894Y-106637435D01*
X141319696Y-106614415D01*
X141279377Y-106586436D01*
X141210250Y-106508258D01*
X141164594Y-106407445D01*
X141143707Y-106287506D01*
X141148883Y-106151950D01*
X141152789Y-106126569D01*
X141172463Y-106055705D01*
X141206953Y-105993584D01*
X141260785Y-105934924D01*
X141338486Y-105874439D01*
X141444586Y-105806847D01*
X141513269Y-105764781D01*
X141600110Y-105706544D01*
X141661064Y-105656561D01*
X141699916Y-105610941D01*
X141720451Y-105565796D01*
X141726455Y-105517235D01*
X141722204Y-105470648D01*
X141696911Y-105417044D01*
X141646709Y-105386490D01*
X141569142Y-105376792D01*
X141504374Y-105384007D01*
X141459039Y-105410474D01*
X141434682Y-105460664D01*
X141427424Y-105539017D01*
X141427424Y-105623053D01*
X141286704Y-105623053D01*
X141145984Y-105623053D01*
X141145984Y-105501911D01*
X141147169Y-105444478D01*
X141154294Y-105391564D01*
X141171569Y-105346824D01*
X141203151Y-105295228D01*
X141275400Y-105215770D01*
X141371451Y-105156797D01*
X141483435Y-105122855D01*
X141605288Y-105115758D01*
X141730947Y-105137319D01*
G37*
G36*
X147865374Y-105872600D02*
G01*
X147865289Y-105962622D01*
X147864736Y-106115764D01*
X147863719Y-106255860D01*
X147862293Y-106379222D01*
X147860516Y-106482161D01*
X147858444Y-106560988D01*
X147856136Y-106612013D01*
X147853648Y-106631548D01*
X147846180Y-106635025D01*
X147810235Y-106640345D01*
X147756840Y-106642814D01*
X147697976Y-106642380D01*
X147645622Y-106638992D01*
X147611757Y-106632597D01*
X147603124Y-106626627D01*
X147594926Y-106609837D01*
X147589391Y-106578062D01*
X147586037Y-106526256D01*
X147584379Y-106449372D01*
X147583934Y-106342362D01*
X147583934Y-106062803D01*
X147514759Y-106062803D01*
X147479401Y-106064484D01*
X147448549Y-106075739D01*
X147433312Y-106102381D01*
X147430254Y-106111839D01*
X147415948Y-106154264D01*
X147393444Y-106219859D01*
X147365148Y-106301638D01*
X147333461Y-106392616D01*
X147245884Y-106643274D01*
X147096381Y-106643274D01*
X146946879Y-106643274D01*
X146957619Y-106600481D01*
X146962440Y-106584850D01*
X146979209Y-106537276D01*
X147004960Y-106467742D01*
X147037232Y-106382857D01*
X147073562Y-106289233D01*
X147178765Y-106020778D01*
X147117578Y-105964733D01*
X147087773Y-105935196D01*
X147039674Y-105870139D01*
X147008460Y-105794103D01*
X146991524Y-105699416D01*
X146987045Y-105596471D01*
X147267313Y-105596471D01*
X147273209Y-105678464D01*
X147295430Y-105746655D01*
X147336149Y-105793996D01*
X147360275Y-105803629D01*
X147411290Y-105812389D01*
X147473996Y-105815984D01*
X147583934Y-105816543D01*
X147583934Y-105605463D01*
X147583934Y-105394382D01*
X147477041Y-105394382D01*
X147434595Y-105395069D01*
X147386613Y-105400940D01*
X147352379Y-105416425D01*
X147318730Y-105445799D01*
X147305156Y-105459942D01*
X147280890Y-105494206D01*
X147269897Y-105534964D01*
X147267313Y-105596471D01*
X146987045Y-105596471D01*
X146986259Y-105578407D01*
X146986494Y-105541942D01*
X146993232Y-105432960D01*
X147011433Y-105350125D01*
X147044060Y-105287056D01*
X147094078Y-105237370D01*
X147164451Y-105194685D01*
X147194196Y-105180047D01*
X147229212Y-105165411D01*
X147266015Y-105154948D01*
X147311281Y-105147658D01*
X147371686Y-105142543D01*
X147453908Y-105138605D01*
X147564624Y-105134845D01*
X147865374Y-105125379D01*
X147865374Y-105605463D01*
X147865374Y-105872600D01*
G37*
G36*
X139956520Y-105886903D02*
G01*
X139958657Y-106634479D01*
X139828281Y-106639705D01*
X139755565Y-106640493D01*
X139705599Y-106634909D01*
X139682318Y-106622115D01*
X139679813Y-106614324D01*
X139676049Y-106575094D01*
X139674468Y-106510421D01*
X139675162Y-106426882D01*
X139678222Y-106331051D01*
X139689715Y-106062803D01*
X139619860Y-106062803D01*
X139600485Y-106062924D01*
X139569969Y-106066662D01*
X139549785Y-106081254D01*
X139532569Y-106114136D01*
X139510958Y-106172741D01*
X139505674Y-106187608D01*
X139478537Y-106263724D01*
X139447890Y-106349397D01*
X139416799Y-106436089D01*
X139388329Y-106515261D01*
X139365546Y-106578374D01*
X139351513Y-106616889D01*
X139347841Y-106625498D01*
X139335392Y-106639442D01*
X139311028Y-106646589D01*
X139267020Y-106648399D01*
X139195643Y-106646332D01*
X139173886Y-106645263D01*
X139112108Y-106639792D01*
X139068982Y-106632213D01*
X139052770Y-106623827D01*
X139057529Y-106606293D01*
X139072939Y-106560461D01*
X139097085Y-106492338D01*
X139127979Y-106407518D01*
X139163637Y-106311593D01*
X139274503Y-106016127D01*
X139201385Y-105952522D01*
X139164352Y-105915474D01*
X139125223Y-105855784D01*
X139099704Y-105781527D01*
X139085760Y-105686102D01*
X139081358Y-105562909D01*
X139081378Y-105561046D01*
X139370275Y-105561046D01*
X139372672Y-105628255D01*
X139375839Y-105673142D01*
X139383739Y-105725788D01*
X139397571Y-105759238D01*
X139420407Y-105783480D01*
X139440269Y-105794947D01*
X139489105Y-105809288D01*
X139547682Y-105816901D01*
X139605042Y-105817304D01*
X139650224Y-105810017D01*
X139672267Y-105794556D01*
X139674317Y-105776956D01*
X139675346Y-105729450D01*
X139674599Y-105661546D01*
X139672081Y-105581511D01*
X139664286Y-105390453D01*
X139558160Y-105398130D01*
X139530214Y-105400462D01*
X139476077Y-105409406D01*
X139439812Y-105426285D01*
X139408902Y-105455950D01*
X139386367Y-105485876D01*
X139374039Y-105517394D01*
X139370275Y-105561046D01*
X139081378Y-105561046D01*
X139081842Y-105517191D01*
X139089038Y-105425769D01*
X139107247Y-105356071D01*
X139139556Y-105298998D01*
X139189053Y-105245450D01*
X139223748Y-105217468D01*
X139277579Y-105188175D01*
X139344911Y-105167074D01*
X139431116Y-105153032D01*
X139541566Y-105144916D01*
X139681633Y-105141595D01*
X139954383Y-105139327D01*
X139956070Y-105729450D01*
X139956520Y-105886903D01*
G37*
G36*
X144187590Y-106643274D02*
G01*
X143917891Y-106643274D01*
X143914588Y-106643274D01*
X143786128Y-106641615D01*
X143686034Y-106635867D01*
X143607746Y-106624690D01*
X143544706Y-106606741D01*
X143490354Y-106580680D01*
X143438130Y-106545165D01*
X143424911Y-106534101D01*
X143378294Y-106483427D01*
X143340177Y-106426778D01*
X143328291Y-106402954D01*
X143318538Y-106377009D01*
X143311204Y-106345391D01*
X143305845Y-106303183D01*
X143302016Y-106245466D01*
X143299272Y-106167323D01*
X143297169Y-106063836D01*
X143295262Y-105930087D01*
X143294747Y-105886903D01*
X143573407Y-105886903D01*
X143573699Y-105964268D01*
X143576120Y-106087132D01*
X143581540Y-106181275D01*
X143590613Y-106250895D01*
X143603993Y-106300189D01*
X143622335Y-106333358D01*
X143646292Y-106354599D01*
X143656467Y-106359630D01*
X143705040Y-106372620D01*
X143767587Y-106380798D01*
X143828208Y-106382612D01*
X143871004Y-106376512D01*
X143881453Y-106371922D01*
X143890132Y-106363901D01*
X143896591Y-106348713D01*
X143901095Y-106322354D01*
X143903907Y-106280825D01*
X143905291Y-106220123D01*
X143905509Y-106136247D01*
X143904826Y-106025196D01*
X143903504Y-105882968D01*
X143898823Y-105403177D01*
X143828463Y-105397387D01*
X143823930Y-105397064D01*
X143756136Y-105399507D01*
X143690777Y-105411695D01*
X143664075Y-105421017D01*
X143633577Y-105438619D01*
X143610717Y-105465291D01*
X143594422Y-105505383D01*
X143583617Y-105563242D01*
X143577229Y-105643216D01*
X143574184Y-105749654D01*
X143573407Y-105886903D01*
X143294747Y-105886903D01*
X143293903Y-105816057D01*
X143293173Y-105706914D01*
X143293729Y-105623406D01*
X143295885Y-105560327D01*
X143299955Y-105512469D01*
X143306254Y-105474626D01*
X143315096Y-105441588D01*
X143326797Y-105408151D01*
X143336155Y-105385092D01*
X143398553Y-105284148D01*
X143485305Y-105207397D01*
X143593142Y-105157910D01*
X143637668Y-105148396D01*
X143707726Y-105139775D01*
X143791479Y-105133639D01*
X143881963Y-105130051D01*
X143972213Y-105129073D01*
X144055264Y-105130768D01*
X144124151Y-105135199D01*
X144171909Y-105142428D01*
X144191574Y-105152520D01*
X144192206Y-105158886D01*
X144193278Y-105196313D01*
X144194027Y-105263299D01*
X144194447Y-105356050D01*
X144194532Y-105470776D01*
X144194277Y-105603686D01*
X144193676Y-105750988D01*
X144192722Y-105908891D01*
X144191133Y-106136247D01*
X144187590Y-106643274D01*
G37*
G36*
X150045653Y-106045332D02*
G01*
X150043188Y-106155447D01*
X150039284Y-106250684D01*
X150033931Y-106324563D01*
X150027119Y-106370605D01*
X150007631Y-106423298D01*
X149955864Y-106505485D01*
X149886681Y-106577846D01*
X149810054Y-106628531D01*
X149778137Y-106641441D01*
X149729082Y-106652993D01*
X149666207Y-106657722D01*
X149578961Y-106656924D01*
X149539301Y-106655519D01*
X149471035Y-106650748D01*
X149421658Y-106641556D01*
X149379918Y-106625290D01*
X149334566Y-106599299D01*
X149259158Y-106538188D01*
X149195287Y-106449784D01*
X149140651Y-106353039D01*
X149135100Y-105934950D01*
X149134083Y-105848163D01*
X149133679Y-105771981D01*
X149419647Y-105771981D01*
X149421726Y-105916797D01*
X149422587Y-105956152D01*
X149426538Y-106085431D01*
X149432220Y-106185159D01*
X149440527Y-106259792D01*
X149452352Y-106313786D01*
X149468588Y-106351597D01*
X149490127Y-106377681D01*
X149517863Y-106396493D01*
X149564275Y-106411378D01*
X149631122Y-106410841D01*
X149688399Y-106388920D01*
X149688763Y-106388664D01*
X149712521Y-106368966D01*
X149730909Y-106344428D01*
X149744520Y-106310720D01*
X149753946Y-106263510D01*
X149759780Y-106198467D01*
X149762611Y-106111259D01*
X149763034Y-105997555D01*
X149761640Y-105853024D01*
X149761116Y-105813108D01*
X149759366Y-105692030D01*
X149757427Y-105600286D01*
X149754816Y-105533315D01*
X149751050Y-105486555D01*
X149745646Y-105455444D01*
X149738121Y-105435420D01*
X149727992Y-105421923D01*
X149714776Y-105410390D01*
X149679722Y-105391255D01*
X149613697Y-105377876D01*
X149544353Y-105381906D01*
X149488075Y-105403821D01*
X149486724Y-105404781D01*
X149463355Y-105427277D01*
X149445587Y-105459649D01*
X149432876Y-105506101D01*
X149424678Y-105570838D01*
X149420450Y-105658063D01*
X149419647Y-105771981D01*
X149133679Y-105771981D01*
X149133437Y-105726267D01*
X149134339Y-105631368D01*
X149137015Y-105558333D01*
X149141694Y-105502030D01*
X149148603Y-105457329D01*
X149157970Y-105419097D01*
X149165309Y-105396291D01*
X149218602Y-105294342D01*
X149296427Y-105213198D01*
X149394159Y-105155005D01*
X149507169Y-105121910D01*
X149630831Y-105116058D01*
X149760517Y-105139596D01*
X149764878Y-105140940D01*
X149845828Y-105181697D01*
X149922874Y-105246445D01*
X149986109Y-105325162D01*
X150025627Y-105407824D01*
X150030784Y-105434994D01*
X150036743Y-105498328D01*
X150041323Y-105585656D01*
X150044514Y-105690499D01*
X150046306Y-105806379D01*
X150046689Y-105926816D01*
X150046071Y-105997555D01*
X150045653Y-106045332D01*
G37*
G36*
X146214155Y-97701470D02*
G01*
X146221166Y-97709014D01*
X146271851Y-97743038D01*
X146338492Y-97768123D01*
X146405172Y-97777900D01*
X146433904Y-97779313D01*
X146451390Y-97790198D01*
X146448564Y-97818851D01*
X146447564Y-97827302D01*
X146453387Y-97873296D01*
X146472676Y-97949932D01*
X146505533Y-98057537D01*
X146552063Y-98196441D01*
X146612369Y-98366969D01*
X146686555Y-98569452D01*
X146708608Y-98629389D01*
X146741730Y-98721575D01*
X146769657Y-98801932D01*
X146789967Y-98863435D01*
X146800238Y-98899063D01*
X146800726Y-98901236D01*
X146815503Y-98944031D01*
X146833313Y-98969166D01*
X146852566Y-98979307D01*
X146900692Y-99002596D01*
X146971638Y-99036016D01*
X147060389Y-99077277D01*
X147161932Y-99124090D01*
X147271253Y-99174167D01*
X147383339Y-99225218D01*
X147493177Y-99274954D01*
X147595752Y-99321087D01*
X147686052Y-99361328D01*
X147759062Y-99393387D01*
X147809770Y-99414976D01*
X147851812Y-99432610D01*
X147911116Y-99460669D01*
X147951785Y-99487609D01*
X147983313Y-99520413D01*
X148015199Y-99566068D01*
X148034706Y-99594791D01*
X148066440Y-99632677D01*
X148105290Y-99664979D01*
X148159649Y-99698208D01*
X148237909Y-99738877D01*
X148289086Y-99765117D01*
X148347145Y-99796735D01*
X148386614Y-99820567D01*
X148400954Y-99832842D01*
X148400758Y-99834629D01*
X148395800Y-99862215D01*
X148386626Y-99906307D01*
X148373215Y-99967885D01*
X148215459Y-99891058D01*
X148153787Y-99859690D01*
X148081901Y-99816425D01*
X148024191Y-99770111D01*
X147969110Y-99712373D01*
X147967062Y-99710020D01*
X147942980Y-99682959D01*
X147919630Y-99659371D01*
X147893379Y-99637238D01*
X147860596Y-99614541D01*
X147817646Y-99589260D01*
X147760898Y-99559378D01*
X147686717Y-99522874D01*
X147591472Y-99477730D01*
X147471530Y-99421927D01*
X147323257Y-99353447D01*
X147213679Y-99302829D01*
X147090560Y-99245781D01*
X146980364Y-99194533D01*
X146886899Y-99150863D01*
X146813974Y-99116553D01*
X146765395Y-99093381D01*
X146744970Y-99083128D01*
X146738049Y-99072533D01*
X146719847Y-99032286D01*
X146693499Y-98966753D01*
X146660833Y-98880666D01*
X146623674Y-98778755D01*
X146583849Y-98665752D01*
X146542591Y-98546755D01*
X146487979Y-98389518D01*
X146442913Y-98260535D01*
X146406193Y-98156785D01*
X146376620Y-98075248D01*
X146352996Y-98012906D01*
X146334122Y-97966738D01*
X146318799Y-97933725D01*
X146305828Y-97910847D01*
X146294010Y-97895085D01*
X146282146Y-97883418D01*
X146269037Y-97872828D01*
X146266789Y-97871092D01*
X146217438Y-97840319D01*
X146169916Y-97820800D01*
X146137360Y-97806534D01*
X146131782Y-97782891D01*
X146139930Y-97758675D01*
X146152328Y-97714701D01*
X146164494Y-97682957D01*
X146184697Y-97675450D01*
X146214155Y-97701470D01*
G37*
G36*
X140803858Y-92850380D02*
G01*
X140814236Y-92856362D01*
X140853767Y-92875956D01*
X140918837Y-92906888D01*
X141005575Y-92947356D01*
X141110107Y-92995557D01*
X141228561Y-93049687D01*
X141357064Y-93107944D01*
X141393030Y-93124192D01*
X141542945Y-93192000D01*
X141697837Y-93262183D01*
X141850297Y-93331374D01*
X141992914Y-93396208D01*
X142118276Y-93453321D01*
X142218975Y-93499347D01*
X142268130Y-93521848D01*
X142379645Y-93572790D01*
X142512722Y-93633482D01*
X142660572Y-93700831D01*
X142816405Y-93771745D01*
X142973431Y-93843131D01*
X143124862Y-93911898D01*
X143136494Y-93917178D01*
X143324517Y-94002698D01*
X143482850Y-94075143D01*
X143613822Y-94135652D01*
X143719761Y-94185365D01*
X143802996Y-94225422D01*
X143865856Y-94256964D01*
X143910670Y-94281130D01*
X143939766Y-94299060D01*
X143955474Y-94311894D01*
X143960121Y-94320772D01*
X143956866Y-94342295D01*
X143946046Y-94384625D01*
X143931522Y-94431652D01*
X143917358Y-94470431D01*
X143907618Y-94488014D01*
X143893268Y-94484105D01*
X143849577Y-94466927D01*
X143779937Y-94437508D01*
X143687547Y-94397279D01*
X143575606Y-94347668D01*
X143447313Y-94290103D01*
X143305870Y-94226013D01*
X143154474Y-94156828D01*
X142996326Y-94083976D01*
X142834626Y-94008885D01*
X142807966Y-93996511D01*
X142738794Y-93964626D01*
X142647651Y-93922792D01*
X142540989Y-93873966D01*
X142425262Y-93821105D01*
X142306925Y-93767164D01*
X142236624Y-93735138D01*
X142122287Y-93682984D01*
X142016031Y-93634437D01*
X141923842Y-93592236D01*
X141851706Y-93559118D01*
X141805610Y-93537823D01*
X141763741Y-93518337D01*
X141575293Y-93430870D01*
X141415878Y-93357375D01*
X141283228Y-93296880D01*
X141175078Y-93248415D01*
X141089162Y-93211010D01*
X141023214Y-93183695D01*
X140974967Y-93165498D01*
X140942155Y-93155451D01*
X140922513Y-93152582D01*
X140913774Y-93155920D01*
X140881475Y-93209258D01*
X140831923Y-93300339D01*
X140769823Y-93421848D01*
X140695701Y-93572684D01*
X140610082Y-93751750D01*
X140513489Y-93957945D01*
X140406448Y-94190171D01*
X140289483Y-94447328D01*
X140163120Y-94728318D01*
X140104027Y-94860065D01*
X140027987Y-95028890D01*
X139948247Y-95205297D01*
X139869304Y-95379352D01*
X139795658Y-95541125D01*
X139731805Y-95680683D01*
X139725730Y-95693920D01*
X139673049Y-95809211D01*
X139625733Y-95913627D01*
X139585662Y-96002955D01*
X139554714Y-96072984D01*
X139534767Y-96119502D01*
X139527701Y-96138297D01*
X139533171Y-96141952D01*
X139566595Y-96158987D01*
X139628366Y-96188712D01*
X139716127Y-96230039D01*
X139827520Y-96281882D01*
X139960188Y-96343153D01*
X140111773Y-96412765D01*
X140279919Y-96489631D01*
X140462268Y-96572662D01*
X140656463Y-96660773D01*
X140860146Y-96752875D01*
X142192590Y-97354381D01*
X142205348Y-97456203D01*
X142211151Y-97499529D01*
X142220191Y-97558335D01*
X142227670Y-97597603D01*
X142231902Y-97622738D01*
X142229187Y-97637180D01*
X142218128Y-97633393D01*
X142176911Y-97616234D01*
X142107679Y-97586172D01*
X142012725Y-97544239D01*
X141894345Y-97491462D01*
X141754832Y-97428873D01*
X141596480Y-97357502D01*
X141421583Y-97278378D01*
X141232436Y-97192531D01*
X141031333Y-97100991D01*
X140820568Y-97004789D01*
X140759007Y-96976657D01*
X140584598Y-96897009D01*
X140405316Y-96815202D01*
X140227303Y-96734038D01*
X140056704Y-96656314D01*
X139899664Y-96584830D01*
X139762325Y-96522387D01*
X139650831Y-96471783D01*
X139649158Y-96471025D01*
X139535070Y-96419235D01*
X139431902Y-96372260D01*
X139343881Y-96332036D01*
X139275234Y-96300498D01*
X139230189Y-96279583D01*
X139212972Y-96271226D01*
X139212074Y-96265451D01*
X139224813Y-96243421D01*
X139228771Y-96236278D01*
X139246432Y-96199849D01*
X139276860Y-96134933D01*
X139319014Y-96043827D01*
X139371852Y-95928828D01*
X139434333Y-95792232D01*
X139505413Y-95636336D01*
X139584051Y-95463437D01*
X139669206Y-95275830D01*
X139759834Y-95075813D01*
X139854895Y-94865682D01*
X139953345Y-94647734D01*
X140054143Y-94424265D01*
X140156248Y-94197572D01*
X140258616Y-93969951D01*
X140360207Y-93743700D01*
X140459977Y-93521114D01*
X140468209Y-93502734D01*
X140517635Y-93392477D01*
X140565218Y-93286491D01*
X140607826Y-93191738D01*
X140642330Y-93115179D01*
X140665601Y-93063773D01*
X140693566Y-93001437D01*
X140721263Y-92938035D01*
X140740447Y-92892270D01*
X140740828Y-92891319D01*
X140761477Y-92848936D01*
X140780422Y-92836654D01*
X140803858Y-92850380D01*
G37*
G36*
X151345872Y-98349576D02*
G01*
X151293948Y-98464085D01*
X151191972Y-98689025D01*
X151137009Y-98810325D01*
X151102024Y-98887535D01*
X151022384Y-99063439D01*
X150951333Y-99220562D01*
X150887149Y-99362728D01*
X150828114Y-99493763D01*
X150772508Y-99617491D01*
X150745794Y-99677089D01*
X150718610Y-99737737D01*
X150664700Y-99858326D01*
X150609058Y-99983083D01*
X150549965Y-100115832D01*
X150485700Y-100260398D01*
X150444982Y-100352073D01*
X150414543Y-100420606D01*
X150412525Y-100425150D01*
X150343807Y-100578915D01*
X150278912Y-100722314D01*
X150219312Y-100852226D01*
X150166475Y-100965527D01*
X150121873Y-101059094D01*
X150086975Y-101129806D01*
X150063253Y-101174538D01*
X150052177Y-101190170D01*
X150035080Y-101184697D01*
X149988509Y-101165895D01*
X149916289Y-101135132D01*
X149821768Y-101093891D01*
X149708295Y-101043656D01*
X149579218Y-100985910D01*
X149437887Y-100922138D01*
X149287650Y-100853822D01*
X149131856Y-100782446D01*
X148989699Y-100717107D01*
X148795872Y-100628208D01*
X148630256Y-100552575D01*
X148490614Y-100489261D01*
X148374708Y-100437318D01*
X148280301Y-100395800D01*
X148205156Y-100363760D01*
X148147035Y-100340251D01*
X148103700Y-100324325D01*
X148072915Y-100315036D01*
X148052443Y-100311436D01*
X148040045Y-100312579D01*
X148033485Y-100317517D01*
X148016265Y-100345318D01*
X147987707Y-100393767D01*
X147954404Y-100451733D01*
X147867220Y-100587119D01*
X147750431Y-100727632D01*
X147624217Y-100841210D01*
X147600868Y-100858456D01*
X147490778Y-100927137D01*
X147377615Y-100974824D01*
X147255793Y-101002391D01*
X147119724Y-101010714D01*
X146963821Y-101000668D01*
X146782497Y-100973131D01*
X146767520Y-100970354D01*
X146666174Y-100950409D01*
X146567798Y-100929288D01*
X146482964Y-100909347D01*
X146422242Y-100892937D01*
X146308657Y-100858063D01*
X146361427Y-100901938D01*
X146402801Y-100935280D01*
X146544352Y-101036465D01*
X146697104Y-101128878D01*
X146854012Y-101209131D01*
X147008033Y-101273841D01*
X147152121Y-101319619D01*
X147279232Y-101343082D01*
X147387896Y-101353525D01*
X147397907Y-101478628D01*
X147398536Y-101486934D01*
X147402017Y-101540349D01*
X147402642Y-101550961D01*
X147406891Y-101623128D01*
X147412908Y-101730660D01*
X147419817Y-101858336D01*
X147427368Y-102001546D01*
X147435310Y-102155679D01*
X147443394Y-102316128D01*
X147451306Y-102474789D01*
X147466473Y-102777381D01*
X147480086Y-103046733D01*
X147492215Y-103284127D01*
X147502928Y-103490843D01*
X147512293Y-103668164D01*
X147520378Y-103817371D01*
X147527250Y-103939744D01*
X147532979Y-104036567D01*
X147537631Y-104109119D01*
X147541276Y-104158683D01*
X147551755Y-104286211D01*
X146547623Y-104286211D01*
X146483041Y-104286207D01*
X146279114Y-104286122D01*
X146106931Y-104285858D01*
X145963822Y-104285335D01*
X145847117Y-104284470D01*
X145754145Y-104283181D01*
X145682235Y-104281388D01*
X145628717Y-104279007D01*
X145590919Y-104275957D01*
X145566172Y-104272156D01*
X145551804Y-104267522D01*
X145545144Y-104261973D01*
X145543523Y-104255428D01*
X145543695Y-104250358D01*
X145546510Y-104213234D01*
X145552247Y-104150649D01*
X145560211Y-104069926D01*
X145569713Y-103978385D01*
X145572864Y-103948690D01*
X145604686Y-103645191D01*
X145632323Y-103374407D01*
X145655973Y-103134331D01*
X145675832Y-102922960D01*
X145687781Y-102787314D01*
X146144477Y-102787314D01*
X146145301Y-102966959D01*
X146146306Y-103082549D01*
X146147946Y-103230654D01*
X146150042Y-103344437D01*
X146152971Y-103424416D01*
X146157112Y-103471109D01*
X146162841Y-103485034D01*
X146170535Y-103466711D01*
X146180572Y-103416657D01*
X146193329Y-103335390D01*
X146209184Y-103223430D01*
X146228513Y-103081294D01*
X146231583Y-103058234D01*
X146257200Y-102836168D01*
X146278282Y-102593231D01*
X146295186Y-102324710D01*
X146308268Y-102025892D01*
X146310092Y-101976930D01*
X146314405Y-101873051D01*
X146318923Y-101777617D01*
X146323207Y-101699534D01*
X146326821Y-101647707D01*
X146335306Y-101550961D01*
X146299590Y-101638912D01*
X146299519Y-101639086D01*
X146267515Y-101730096D01*
X146234657Y-101844408D01*
X146203802Y-101970364D01*
X146177806Y-102096309D01*
X146159523Y-102210587D01*
X146154471Y-102268129D01*
X146150125Y-102360272D01*
X146146961Y-102480099D01*
X146145055Y-102623737D01*
X146144477Y-102787314D01*
X145687781Y-102787314D01*
X145692099Y-102738288D01*
X145697197Y-102673907D01*
X145704400Y-102572356D01*
X145712121Y-102453768D01*
X145720139Y-102322491D01*
X145728229Y-102182869D01*
X145736170Y-102039248D01*
X145743737Y-101895974D01*
X145750709Y-101757393D01*
X145756861Y-101627851D01*
X145761972Y-101511694D01*
X145765818Y-101413267D01*
X145768176Y-101336917D01*
X145768823Y-101286988D01*
X145767537Y-101267828D01*
X145766929Y-101267947D01*
X145760596Y-101287517D01*
X145749951Y-101334385D01*
X145736322Y-101402347D01*
X145721037Y-101485200D01*
X145700676Y-101600790D01*
X145674129Y-101753409D01*
X145644045Y-101927912D01*
X145611157Y-102119951D01*
X145576197Y-102325174D01*
X145539895Y-102539231D01*
X145502984Y-102757773D01*
X145466196Y-102976448D01*
X145430262Y-103190906D01*
X145395914Y-103396797D01*
X145363884Y-103589772D01*
X145334903Y-103765478D01*
X145309704Y-103919567D01*
X145289017Y-104047688D01*
X145273575Y-104145490D01*
X145253141Y-104277416D01*
X144272554Y-104281961D01*
X144148566Y-104282483D01*
X143973558Y-104283036D01*
X143811652Y-104283329D01*
X143666001Y-104283370D01*
X143539759Y-104283164D01*
X143436081Y-104282718D01*
X143358120Y-104282039D01*
X143309031Y-104281132D01*
X143291967Y-104280004D01*
X143293928Y-104266691D01*
X143301848Y-104220946D01*
X143315373Y-104145467D01*
X143333997Y-104042966D01*
X143357214Y-103916157D01*
X143384518Y-103767751D01*
X143415404Y-103600461D01*
X143449364Y-103416998D01*
X143485894Y-103220075D01*
X143524487Y-103012405D01*
X143564637Y-102796699D01*
X143605838Y-102575669D01*
X143647584Y-102352029D01*
X143689369Y-102128489D01*
X143730687Y-101907763D01*
X143771032Y-101692563D01*
X143809898Y-101485600D01*
X143846780Y-101289588D01*
X143881170Y-101107237D01*
X143912564Y-100941262D01*
X143940454Y-100794373D01*
X143964336Y-100669282D01*
X143983702Y-100568704D01*
X143998048Y-100495348D01*
X144036454Y-100301646D01*
X143843113Y-100006434D01*
X146077518Y-100006434D01*
X146091564Y-99998825D01*
X146121502Y-99970356D01*
X146161140Y-99927739D01*
X146204380Y-99877791D01*
X146245125Y-99827327D01*
X146277275Y-99783164D01*
X146292845Y-99758763D01*
X146333181Y-99688329D01*
X146366024Y-99622047D01*
X146402016Y-99540085D01*
X146284976Y-99487688D01*
X146167937Y-99435291D01*
X146155098Y-99583072D01*
X146155051Y-99583615D01*
X146143810Y-99676523D01*
X146126755Y-99778049D01*
X146107558Y-99866313D01*
X146102992Y-99884340D01*
X146088476Y-99944976D01*
X146079382Y-99988487D01*
X146077518Y-100006434D01*
X143843113Y-100006434D01*
X143823471Y-99976442D01*
X143752934Y-99868543D01*
X143662371Y-99729619D01*
X143567332Y-99583493D01*
X143475520Y-99442013D01*
X143394642Y-99317028D01*
X143364239Y-99270004D01*
X143292438Y-99159207D01*
X143207880Y-99028986D01*
X143114874Y-98885964D01*
X143017728Y-98736764D01*
X142920750Y-98588009D01*
X142828248Y-98446321D01*
X142784888Y-98379868D01*
X142672506Y-98206508D01*
X142578091Y-98058853D01*
X142500182Y-97934465D01*
X142437318Y-97830905D01*
X142388040Y-97745734D01*
X142350886Y-97676514D01*
X142324396Y-97620807D01*
X142307109Y-97576172D01*
X142296038Y-97537210D01*
X142286270Y-97475313D01*
X142286057Y-97407610D01*
X142296330Y-97330458D01*
X142318021Y-97240219D01*
X142352063Y-97133250D01*
X142399386Y-97005912D01*
X142460923Y-96854564D01*
X142537605Y-96675565D01*
X142541279Y-96667135D01*
X142650297Y-96416984D01*
X142746228Y-96196942D01*
X142830032Y-96004944D01*
X142902669Y-95838923D01*
X142965098Y-95696812D01*
X143018281Y-95576547D01*
X143063175Y-95476060D01*
X143100742Y-95393285D01*
X143131940Y-95326156D01*
X143157731Y-95272608D01*
X143179073Y-95230573D01*
X143196927Y-95197986D01*
X143212252Y-95172781D01*
X143226008Y-95152891D01*
X143239155Y-95136250D01*
X143252653Y-95120792D01*
X143267462Y-95104451D01*
X143270276Y-95101360D01*
X143328251Y-95047937D01*
X143392413Y-95010015D01*
X143466379Y-94987614D01*
X143553768Y-94980754D01*
X143658197Y-94989457D01*
X143783284Y-95013740D01*
X143932647Y-95053626D01*
X144109903Y-95109134D01*
X144148985Y-95121985D01*
X144294041Y-95169368D01*
X144414275Y-95207833D01*
X144516541Y-95239312D01*
X144607691Y-95265738D01*
X144694579Y-95289042D01*
X144784057Y-95311157D01*
X144882980Y-95334014D01*
X144998200Y-95359546D01*
X145167851Y-95396839D01*
X145334705Y-95434236D01*
X145472368Y-95466522D01*
X145583641Y-95494871D01*
X145671326Y-95520458D01*
X145738228Y-95544460D01*
X145787148Y-95568050D01*
X145820888Y-95592405D01*
X145842252Y-95618699D01*
X145854042Y-95648108D01*
X145859061Y-95681807D01*
X145860111Y-95720972D01*
X145860107Y-95722364D01*
X145844833Y-95813663D01*
X145803168Y-95914526D01*
X145739799Y-96018290D01*
X145659415Y-96118294D01*
X145566706Y-96207877D01*
X145466359Y-96280378D01*
X145406194Y-96313742D01*
X145245459Y-96382006D01*
X145073130Y-96430168D01*
X144903888Y-96453702D01*
X144785906Y-96455800D01*
X144596064Y-96435706D01*
X144423726Y-96386018D01*
X144269902Y-96307183D01*
X144135608Y-96199650D01*
X144021855Y-96063865D01*
X144021411Y-96063221D01*
X143987193Y-96014288D01*
X143961847Y-95979419D01*
X143950830Y-95966128D01*
X143949692Y-95968566D01*
X143949935Y-95995379D01*
X143954092Y-96044686D01*
X143961198Y-96107585D01*
X143970286Y-96175173D01*
X143980391Y-96238548D01*
X144004266Y-96338998D01*
X144041667Y-96424500D01*
X144095764Y-96496296D01*
X144098222Y-96498958D01*
X144123274Y-96534597D01*
X144120141Y-96554502D01*
X144109308Y-96567757D01*
X144101108Y-96602920D01*
X144100457Y-96615177D01*
X144093516Y-96628207D01*
X144073039Y-96634098D01*
X144031851Y-96634257D01*
X143962777Y-96630094D01*
X143931279Y-96627502D01*
X143822453Y-96609137D01*
X143730388Y-96575598D01*
X143687842Y-96556067D01*
X143648325Y-96540004D01*
X143631017Y-96535895D01*
X143637453Y-96547916D01*
X143662539Y-96578782D01*
X143700699Y-96620977D01*
X143726096Y-96646139D01*
X143820625Y-96718266D01*
X143926348Y-96773179D01*
X144030126Y-96803595D01*
X144050879Y-96807440D01*
X144088944Y-96821500D01*
X144097542Y-96841748D01*
X144088991Y-96862516D01*
X144062346Y-96888847D01*
X144015061Y-96915013D01*
X143943626Y-96942534D01*
X143844532Y-96972931D01*
X143714269Y-97007723D01*
X143637079Y-97027423D01*
X143554971Y-97049179D01*
X143500769Y-97066110D01*
X143475479Y-97079467D01*
X143480109Y-97090500D01*
X143515668Y-97100460D01*
X143583164Y-97110596D01*
X143683604Y-97122159D01*
X143817997Y-97136399D01*
X143961885Y-97154057D01*
X144145339Y-97186660D01*
X144308578Y-97230342D01*
X144460107Y-97287990D01*
X144608432Y-97362488D01*
X144762057Y-97456723D01*
X144827452Y-97501586D01*
X144961502Y-97601476D01*
X145104613Y-97716693D01*
X145247910Y-97839746D01*
X145382518Y-97963141D01*
X145499564Y-98079387D01*
X145499715Y-98079545D01*
X145629767Y-98226620D01*
X145751880Y-98385825D01*
X145861963Y-98550577D01*
X145955928Y-98714296D01*
X146029686Y-98870398D01*
X146079147Y-99012300D01*
X146109302Y-99123538D01*
X147033313Y-99540085D01*
X147413896Y-99711653D01*
X147457350Y-99731243D01*
X147667569Y-99826031D01*
X147874284Y-99919265D01*
X148074321Y-100009514D01*
X148264504Y-100095343D01*
X148441661Y-100175319D01*
X148602616Y-100248009D01*
X148744195Y-100311980D01*
X148863223Y-100365798D01*
X148956525Y-100408029D01*
X149020928Y-100437242D01*
X149023580Y-100438447D01*
X149118955Y-100481442D01*
X149203342Y-100518840D01*
X149271495Y-100548366D01*
X149318170Y-100567749D01*
X149338123Y-100574715D01*
X149338263Y-100574712D01*
X149341635Y-100573226D01*
X149346481Y-100567801D01*
X149353610Y-100556678D01*
X149363829Y-100538098D01*
X149377949Y-100510300D01*
X149382864Y-100500179D01*
X149641967Y-100500179D01*
X149646493Y-100524419D01*
X149671857Y-100559125D01*
X149723166Y-100595324D01*
X149804531Y-100636463D01*
X149851171Y-100656210D01*
X149915686Y-100679211D01*
X149965454Y-100692144D01*
X149978165Y-100694116D01*
X150007244Y-100695188D01*
X150028459Y-100683943D01*
X150049587Y-100653953D01*
X150078403Y-100598792D01*
X150102532Y-100547901D01*
X150130994Y-100480002D01*
X150149673Y-100425903D01*
X150154145Y-100407420D01*
X150156186Y-100352073D01*
X150134537Y-100306342D01*
X150085531Y-100265071D01*
X150005502Y-100223102D01*
X149951528Y-100199224D01*
X149882690Y-100172790D01*
X149834874Y-100162071D01*
X149802105Y-100166028D01*
X149778407Y-100183621D01*
X149777296Y-100184922D01*
X149754464Y-100220741D01*
X149725817Y-100276998D01*
X149695799Y-100343382D01*
X149668855Y-100409581D01*
X149649430Y-100465284D01*
X149641967Y-100500179D01*
X149382864Y-100500179D01*
X149396778Y-100471525D01*
X149421124Y-100420015D01*
X149451797Y-100354008D01*
X149489606Y-100271746D01*
X149535359Y-100171470D01*
X149589866Y-100051419D01*
X149653934Y-99909834D01*
X149720480Y-99762440D01*
X149976178Y-99762440D01*
X149976955Y-99775584D01*
X149991172Y-99814539D01*
X150026576Y-99851383D01*
X150087458Y-99889750D01*
X150178113Y-99933270D01*
X150223684Y-99952079D01*
X150274865Y-99969808D01*
X150306774Y-99976654D01*
X150309045Y-99976493D01*
X150337885Y-99958762D01*
X150373879Y-99917462D01*
X150411510Y-99860806D01*
X150445261Y-99797007D01*
X150469613Y-99734278D01*
X150469926Y-99733229D01*
X150481144Y-99677089D01*
X150475660Y-99630215D01*
X150450035Y-99588868D01*
X150400830Y-99549310D01*
X150324609Y-99507802D01*
X150217932Y-99460605D01*
X150202596Y-99454302D01*
X150165652Y-99442536D01*
X150142318Y-99447035D01*
X150118385Y-99468999D01*
X150118111Y-99469294D01*
X150081510Y-99517930D01*
X150043580Y-99582779D01*
X150009758Y-99652625D01*
X149985479Y-99716250D01*
X149976178Y-99762440D01*
X149720480Y-99762440D01*
X149728374Y-99744956D01*
X149813994Y-99555025D01*
X149911603Y-99338281D01*
X150022009Y-99092966D01*
X150084593Y-98953859D01*
X150338618Y-98953859D01*
X150338892Y-98983740D01*
X150345932Y-99007260D01*
X150366028Y-99027694D01*
X150405388Y-99051172D01*
X150470217Y-99083824D01*
X150491408Y-99094162D01*
X150586150Y-99136385D01*
X150655158Y-99158909D01*
X150700882Y-99162344D01*
X150725768Y-99147297D01*
X150729522Y-99141241D01*
X150760227Y-99082779D01*
X150790794Y-99011563D01*
X150818207Y-98936485D01*
X150839448Y-98866441D01*
X150851501Y-98810325D01*
X150851350Y-98777032D01*
X150839833Y-98764079D01*
X150800421Y-98739574D01*
X150742542Y-98711936D01*
X150675434Y-98684808D01*
X150608332Y-98661829D01*
X150550471Y-98646641D01*
X150511087Y-98642885D01*
X150487343Y-98648878D01*
X150462203Y-98667689D01*
X150435507Y-98705528D01*
X150401375Y-98769163D01*
X150399286Y-98773333D01*
X150369299Y-98841608D01*
X150347548Y-98906278D01*
X150338618Y-98953859D01*
X150084593Y-98953859D01*
X150146022Y-98817319D01*
X150215450Y-98662736D01*
X150297362Y-98479701D01*
X150374052Y-98307617D01*
X150414634Y-98216136D01*
X150668815Y-98216136D01*
X150668850Y-98250192D01*
X150682253Y-98279132D01*
X150713742Y-98307752D01*
X150768037Y-98340851D01*
X150849856Y-98383226D01*
X150864754Y-98390595D01*
X150925605Y-98418938D01*
X150974049Y-98438822D01*
X151000703Y-98446321D01*
X151015760Y-98443178D01*
X151054136Y-98414663D01*
X151094263Y-98362464D01*
X151131815Y-98293956D01*
X151162465Y-98216514D01*
X151181886Y-98137510D01*
X151184405Y-98119355D01*
X151184189Y-98082705D01*
X151170948Y-98053145D01*
X151139753Y-98025683D01*
X151085677Y-97995326D01*
X151003791Y-97957081D01*
X150942522Y-97930328D01*
X150886315Y-97909744D01*
X150848462Y-97903726D01*
X150821721Y-97911380D01*
X150798845Y-97931813D01*
X150788133Y-97945325D01*
X150753530Y-98001240D01*
X150718073Y-98071953D01*
X150688410Y-98143417D01*
X150671187Y-98201585D01*
X150668815Y-98216136D01*
X150414634Y-98216136D01*
X150444361Y-98149123D01*
X150507129Y-98006857D01*
X150561197Y-97883456D01*
X150605407Y-97781559D01*
X150638598Y-97703802D01*
X150659612Y-97652825D01*
X150667288Y-97631264D01*
X150667944Y-97624118D01*
X150666927Y-97617059D01*
X150662065Y-97609162D01*
X150651200Y-97599349D01*
X150632178Y-97586539D01*
X150602840Y-97569652D01*
X150561031Y-97547607D01*
X150504595Y-97519324D01*
X150431375Y-97483723D01*
X150339215Y-97439725D01*
X150225958Y-97386247D01*
X150089448Y-97322212D01*
X149927529Y-97246537D01*
X149738044Y-97158143D01*
X149518837Y-97055950D01*
X149404533Y-97002682D01*
X149273603Y-96941710D01*
X149152863Y-96885530D01*
X149046653Y-96836159D01*
X148959309Y-96795614D01*
X148895171Y-96765910D01*
X148858576Y-96749063D01*
X148769991Y-96708680D01*
X148665085Y-96833448D01*
X148631162Y-96873348D01*
X148570567Y-96943599D01*
X148497676Y-97027323D01*
X148418813Y-97117261D01*
X148340305Y-97206154D01*
X148283683Y-97270177D01*
X148201069Y-97364113D01*
X148121208Y-97455463D01*
X148050988Y-97536337D01*
X147997299Y-97598849D01*
X147921463Y-97682583D01*
X147850480Y-97745738D01*
X147782951Y-97785845D01*
X147711959Y-97806945D01*
X147630585Y-97813080D01*
X147521773Y-97801913D01*
X147422565Y-97763288D01*
X147331173Y-97693489D01*
X147312800Y-97674474D01*
X147263729Y-97610586D01*
X147221122Y-97538113D01*
X147191038Y-97468288D01*
X147179535Y-97412342D01*
X147181036Y-97389993D01*
X147187889Y-97360226D01*
X147202060Y-97322850D01*
X147225468Y-97274181D01*
X147260030Y-97210532D01*
X147307662Y-97128218D01*
X147370283Y-97023554D01*
X147449810Y-96892855D01*
X147483648Y-96837334D01*
X147549232Y-96728778D01*
X147610593Y-96626042D01*
X147664166Y-96535154D01*
X147706383Y-96462140D01*
X147733680Y-96413030D01*
X147735063Y-96410425D01*
X147770386Y-96345890D01*
X147803679Y-96288226D01*
X147827907Y-96249637D01*
X147845140Y-96222627D01*
X147877057Y-96169196D01*
X147916918Y-96100281D01*
X147959862Y-96024186D01*
X148005508Y-95944677D01*
X148053351Y-95870913D01*
X148095663Y-95821263D01*
X148137359Y-95791292D01*
X148183354Y-95776561D01*
X148238562Y-95772637D01*
X148277656Y-95776325D01*
X148363278Y-95799788D01*
X148462085Y-95841268D01*
X148566401Y-95896526D01*
X148668551Y-95961321D01*
X148760858Y-96031410D01*
X148835648Y-96102553D01*
X148881644Y-96161944D01*
X148931712Y-96268769D01*
X148947744Y-96383165D01*
X148929249Y-96503027D01*
X148928967Y-96503920D01*
X148925868Y-96510575D01*
X148922901Y-96516265D01*
X148922058Y-96521965D01*
X148925331Y-96528647D01*
X148934712Y-96537284D01*
X148952193Y-96548849D01*
X148979766Y-96564316D01*
X149019424Y-96584657D01*
X149073158Y-96610847D01*
X149142961Y-96643857D01*
X149230824Y-96684661D01*
X149338739Y-96734233D01*
X149468699Y-96793545D01*
X149622695Y-96863570D01*
X149802720Y-96945282D01*
X150010765Y-97039654D01*
X150248823Y-97147659D01*
X150402855Y-97217579D01*
X150590140Y-97302643D01*
X150767913Y-97383440D01*
X150933357Y-97458688D01*
X151083657Y-97527103D01*
X151215997Y-97587404D01*
X151327560Y-97638308D01*
X151415531Y-97678531D01*
X151477094Y-97706793D01*
X151509432Y-97721809D01*
X151609099Y-97769105D01*
X151450271Y-98119355D01*
X151345872Y-98349576D01*
G37*
%TD*%
%LPC*%
D11*
%TO.C,J4*%
X104100000Y-82800000D03*
D12*
X104100000Y-85340000D03*
X104100000Y-87880000D03*
X104100000Y-90420000D03*
X104100000Y-92960000D03*
X104100000Y-95500000D03*
X104100000Y-98040000D03*
X104100000Y-100580000D03*
X104100000Y-103120000D03*
X104100000Y-105660000D03*
X104100000Y-108200000D03*
X104100000Y-110740000D03*
X104100000Y-113280000D03*
X104100000Y-115820000D03*
%TD*%
D11*
%TO.C,J3*%
X134880000Y-118900000D03*
D12*
X137420000Y-118900000D03*
X139960000Y-118900000D03*
X142500000Y-118900000D03*
%TD*%
D13*
%TO.C,MK1*%
X148960000Y-122706500D03*
%TD*%
D14*
%TO.C,U12*%
X185500002Y-109450062D03*
X185500002Y-114550138D03*
%TD*%
D15*
%TO.C,J1*%
X177199962Y-78700009D03*
X169199962Y-78700009D03*
%TD*%
D11*
%TO.C,J6*%
X185100000Y-95600000D03*
D12*
X185100000Y-98140000D03*
X185100000Y-100680000D03*
X185100000Y-103220000D03*
%TD*%
D11*
%TO.C,J2*%
X116370000Y-120070000D03*
D12*
X113830000Y-120070000D03*
%TD*%
D16*
%TO.C,SW1*%
X174745000Y-122880000D03*
X176695000Y-122880000D03*
%TD*%
D17*
%TO.C,TP1*%
X116293300Y-98006700D03*
%TD*%
D16*
%TO.C,SW3*%
X168545000Y-122880000D03*
X170495000Y-122880000D03*
%TD*%
D18*
%TO.C,U4*%
X121829855Y-118402477D03*
X127609891Y-118402477D03*
D19*
X120400086Y-117842659D03*
D20*
X120400086Y-122022492D03*
D19*
X129039914Y-117842659D03*
D20*
X129039914Y-122022492D03*
%TD*%
D11*
%TO.C,J5*%
X156650000Y-121950000D03*
D12*
X159190000Y-121950000D03*
%TD*%
D11*
%TO.C,SW2*%
X185150000Y-85110000D03*
D12*
X185150000Y-87650000D03*
%TD*%
%LPD*%
M02*
