%TF.GenerationSoftware,KiCad,Pcbnew,9.0.7*%
%TF.CreationDate,2026-03-28T15:03:12+01:00*%
%TF.ProjectId,LoRa-device,4c6f5261-2d64-4657-9669-63652e6b6963,rev?*%
%TF.SameCoordinates,Original*%
%TF.FileFunction,Legend,Top*%
%TF.FilePolarity,Positive*%
%FSLAX46Y46*%
G04 Gerber Fmt 4.6, Leading zero omitted, Abs format (unit mm)*
G04 Created by KiCad (PCBNEW 9.0.7) date 2026-03-28 15:03:12*
%MOMM*%
%LPD*%
G01*
G04 APERTURE LIST*
G04 Aperture macros list*
%AMRoundRect*
0 Rectangle with rounded corners*
0 $1 Rounding radius*
0 $2 $3 $4 $5 $6 $7 $8 $9 X,Y pos of 4 corners*
0 Add a 4 corners polygon primitive as box body*
4,1,4,$2,$3,$4,$5,$6,$7,$8,$9,$2,$3,0*
0 Add four circle primitives for the rounded corners*
1,1,$1+$1,$2,$3*
1,1,$1+$1,$4,$5*
1,1,$1+$1,$6,$7*
1,1,$1+$1,$8,$9*
0 Add four rect primitives between the rounded corners*
20,1,$1+$1,$2,$3,$4,$5,0*
20,1,$1+$1,$4,$5,$6,$7,0*
20,1,$1+$1,$6,$7,$8,$9,0*
20,1,$1+$1,$8,$9,$2,$3,0*%
%AMFreePoly0*
4,1,64,0.235711,1.439036,0.382774,1.378120,0.515127,1.289684,0.627684,1.177127,0.716120,1.044774,0.777036,0.897711,0.808090,0.741590,0.808090,0.582410,0.777036,0.426289,0.716120,0.279226,0.627684,0.146873,0.515127,0.034316,0.382774,-0.054120,0.235711,-0.115036,0.079590,-0.146090,0.031746,-0.146090,0.029264,-0.147118,-0.029264,-0.147118,-0.031746,-0.146090,-0.079590,-0.146090,
-0.235711,-0.115036,-0.382774,-0.054120,-0.515127,0.034316,-0.627684,0.146873,-0.716120,0.279226,-0.777036,0.426289,-0.808090,0.582410,-0.808090,0.729406,-0.512000,0.729406,-0.512000,0.594594,-0.477108,0.464375,-0.409702,0.347625,-0.314375,0.252298,-0.197625,0.184892,-0.067406,0.150000,0.067406,0.150000,0.197625,0.184892,0.314375,0.252298,0.409702,0.347625,0.477108,0.464375,
0.512000,0.594594,0.512000,0.729406,0.477108,0.859625,0.409702,0.976375,0.314375,1.071702,0.197625,1.139108,0.067406,1.174000,-0.067406,1.174000,-0.197625,1.139108,-0.314375,1.071702,-0.409702,0.976375,-0.477108,0.859625,-0.512000,0.729406,-0.808090,0.729406,-0.808090,0.741590,-0.777036,0.897711,-0.716120,1.044774,-0.627684,1.177127,-0.515127,1.289684,-0.382774,1.378120,
-0.235711,1.439036,-0.079590,1.470090,0.079590,1.470090,0.235711,1.439036,0.235711,1.439036,$1*%
%AMFreePoly1*
4,1,23,0.550000,-0.750000,0.000000,-0.750000,0.000000,-0.745722,-0.065263,-0.745722,-0.191342,-0.711940,-0.304381,-0.646677,-0.396677,-0.554381,-0.461940,-0.441342,-0.495722,-0.315263,-0.495722,-0.250000,-0.500000,-0.250000,-0.500000,0.250000,-0.495722,0.250000,-0.495722,0.315263,-0.461940,0.441342,-0.396677,0.554381,-0.304381,0.646677,-0.191342,0.711940,-0.065263,0.745722,0.000000,0.745722,
0.000000,0.750000,0.550000,0.750000,0.550000,-0.750000,0.550000,-0.750000,$1*%
%AMFreePoly2*
4,1,23,0.000000,0.745722,0.065263,0.745722,0.191342,0.711940,0.304381,0.646677,0.396677,0.554381,0.461940,0.441342,0.495722,0.315263,0.495722,0.250000,0.500000,0.250000,0.500000,-0.250000,0.495722,-0.250000,0.495722,-0.315263,0.461940,-0.441342,0.396677,-0.554381,0.304381,-0.646677,0.191342,-0.711940,0.065263,-0.745722,0.000000,-0.745722,0.000000,-0.750000,-0.550000,-0.750000,
-0.550000,0.750000,0.000000,0.750000,0.000000,0.745722,0.000000,0.745722,$1*%
G04 Aperture macros list end*
%ADD10C,0.200000*%
%ADD11C,0.100000*%
%ADD12C,0.150000*%
%ADD13C,0.120000*%
%ADD14C,0.059995*%
%ADD15C,0.127000*%
%ADD16C,0.254001*%
%ADD17C,0.151994*%
%ADD18C,0.400000*%
%ADD19RoundRect,0.140000X-0.219203X-0.021213X-0.021213X-0.219203X0.219203X0.021213X0.021213X0.219203X0*%
%ADD20R,1.700000X1.700000*%
%ADD21C,1.700000*%
%ADD22RoundRect,0.140000X0.170000X-0.140000X0.170000X0.140000X-0.170000X0.140000X-0.170000X-0.140000X0*%
%ADD23RoundRect,0.135000X-0.226274X-0.035355X-0.035355X-0.226274X0.226274X0.035355X0.035355X0.226274X0*%
%ADD24RoundRect,0.140000X-0.140000X-0.170000X0.140000X-0.170000X0.140000X0.170000X-0.140000X0.170000X0*%
%ADD25RoundRect,0.140000X-0.021213X0.219203X-0.219203X0.021213X0.021213X-0.219203X0.219203X-0.021213X0*%
%ADD26RoundRect,0.135000X-0.185000X0.135000X-0.185000X-0.135000X0.185000X-0.135000X0.185000X0.135000X0*%
%ADD27RoundRect,0.135000X-0.135000X-0.185000X0.135000X-0.185000X0.135000X0.185000X-0.135000X0.185000X0*%
%ADD28R,0.600000X1.100000*%
%ADD29RoundRect,0.140000X-0.170000X0.140000X-0.170000X-0.140000X0.170000X-0.140000X0.170000X0.140000X0*%
%ADD30RoundRect,0.159000X-0.159000X-0.189000X0.159000X-0.189000X0.159000X0.189000X-0.159000X0.189000X0*%
%ADD31RoundRect,0.159000X0.159000X0.189000X-0.159000X0.189000X-0.159000X-0.189000X0.159000X-0.189000X0*%
%ADD32RoundRect,0.135000X0.135000X0.185000X-0.135000X0.185000X-0.135000X-0.185000X0.135000X-0.185000X0*%
%ADD33RoundRect,0.135000X0.185000X-0.135000X0.185000X0.135000X-0.185000X0.135000X-0.185000X-0.135000X0*%
%ADD34RoundRect,0.287778X-0.714222X0.489222X-0.714222X-0.489222X0.714222X-0.489222X0.714222X0.489222X0*%
%ADD35C,0.500000*%
%ADD36RoundRect,0.130500X-0.169500X-0.130500X0.169500X-0.130500X0.169500X0.130500X-0.169500X0.130500X0*%
%ADD37FreePoly0,90.000000*%
%ADD38RoundRect,0.218750X0.256250X-0.218750X0.256250X0.218750X-0.256250X0.218750X-0.256250X-0.218750X0*%
%ADD39RoundRect,0.244000X-0.269000X0.244000X-0.269000X-0.244000X0.269000X-0.244000X0.269000X0.244000X0*%
%ADD40R,4.800000X1.200000*%
%ADD41RoundRect,0.159000X0.246073X0.021213X0.021213X0.246073X-0.246073X-0.021213X-0.021213X-0.246073X0*%
%ADD42RoundRect,0.140000X0.140000X0.170000X-0.140000X0.170000X-0.140000X-0.170000X0.140000X-0.170000X0*%
%ADD43R,1.500000X2.000000*%
%ADD44RoundRect,0.159000X-0.189000X0.159000X-0.189000X-0.159000X0.189000X-0.159000X0.189000X0.159000X0*%
%ADD45RoundRect,0.159000X0.189000X-0.159000X0.189000X0.159000X-0.189000X0.159000X-0.189000X-0.159000X0*%
%ADD46C,1.000000*%
%ADD47R,0.600000X1.300000*%
%ADD48R,1.200000X1.400000*%
%ADD49R,1.200000X2.000000*%
%ADD50RoundRect,0.150000X0.150000X-0.512500X0.150000X0.512500X-0.150000X0.512500X-0.150000X-0.512500X0*%
%ADD51RoundRect,0.093750X0.093750X-0.156250X0.093750X0.156250X-0.093750X0.156250X-0.093750X-0.156250X0*%
%ADD52RoundRect,0.075000X0.075000X-0.250000X0.075000X0.250000X-0.075000X0.250000X-0.075000X-0.250000X0*%
%ADD53R,0.800000X1.700000*%
%ADD54RoundRect,0.150000X0.512500X0.150000X-0.512500X0.150000X-0.512500X-0.150000X0.512500X-0.150000X0*%
%ADD55RoundRect,0.218750X-0.256250X0.218750X-0.256250X-0.218750X0.256250X-0.218750X0.256250X0.218750X0*%
%ADD56RoundRect,0.244000X0.269000X-0.244000X0.269000X0.244000X-0.269000X0.244000X-0.269000X-0.244000X0*%
%ADD57RoundRect,0.250000X-0.250000X0.275000X-0.250000X-0.275000X0.250000X-0.275000X0.250000X0.275000X0*%
%ADD58RoundRect,0.250000X-0.275000X0.850000X-0.275000X-0.850000X0.275000X-0.850000X0.275000X0.850000X0*%
%ADD59C,0.900000*%
%ADD60RoundRect,0.135000X-0.315000X-0.365000X0.315000X-0.365000X0.315000X0.365000X-0.315000X0.365000X0*%
%ADD61RoundRect,0.082500X-0.767500X-0.192500X0.767500X-0.192500X0.767500X0.192500X-0.767500X0.192500X0*%
%ADD62R,1.000000X1.000000*%
%ADD63RoundRect,0.220000X-0.255000X0.220000X-0.255000X-0.220000X0.255000X-0.220000X0.255000X0.220000X0*%
%ADD64RoundRect,0.140000X0.021213X-0.219203X0.219203X-0.021213X-0.021213X0.219203X-0.219203X0.021213X0*%
%ADD65RoundRect,0.250001X0.999999X-0.499999X0.999999X0.499999X-0.999999X0.499999X-0.999999X-0.499999X0*%
%ADD66RoundRect,0.147500X0.172500X-0.147500X0.172500X0.147500X-0.172500X0.147500X-0.172500X-0.147500X0*%
%ADD67RoundRect,0.250000X-0.325000X-0.250000X0.325000X-0.250000X0.325000X0.250000X-0.325000X0.250000X0*%
%ADD68RoundRect,0.050000X-0.050000X0.350000X-0.050000X-0.350000X0.050000X-0.350000X0.050000X0.350000X0*%
%ADD69RoundRect,0.050000X-0.350000X0.050000X-0.350000X-0.050000X0.350000X-0.050000X0.350000X0.050000X0*%
%ADD70R,4.000000X4.000000*%
%ADD71RoundRect,0.062500X0.062500X-0.350000X0.062500X0.350000X-0.062500X0.350000X-0.062500X-0.350000X0*%
%ADD72RoundRect,0.062500X0.350000X-0.062500X0.350000X0.062500X-0.350000X0.062500X-0.350000X-0.062500X0*%
%ADD73R,1.230000X1.230000*%
%ADD74C,0.649987*%
%ADD75O,0.900000X2.100000*%
%ADD76O,0.900000X1.800000*%
%ADD77R,0.600000X1.150013*%
%ADD78R,0.300000X1.150013*%
%ADD79RoundRect,0.075000X-0.437500X-0.075000X0.437500X-0.075000X0.437500X0.075000X-0.437500X0.075000X0*%
%ADD80RoundRect,0.075000X-0.075000X-0.437500X0.075000X-0.437500X0.075000X0.437500X-0.075000X0.437500X0*%
%ADD81R,4.250000X4.250000*%
%ADD82RoundRect,0.050000X0.100000X-0.285000X0.100000X0.285000X-0.100000X0.285000X-0.100000X-0.285000X0*%
%ADD83RoundRect,0.147500X-0.017678X0.226274X-0.226274X0.017678X0.017678X-0.226274X0.226274X-0.017678X0*%
%ADD84FreePoly1,90.000000*%
%ADD85R,1.500000X1.000000*%
%ADD86FreePoly2,90.000000*%
%ADD87RoundRect,0.162500X0.650000X0.162500X-0.650000X0.162500X-0.650000X-0.162500X0.650000X-0.162500X0*%
%ADD88R,1.800000X1.000000*%
G04 APERTURE END LIST*
D10*
X102400000Y-80250000D02*
X105800000Y-80250000D01*
X105800000Y-118350000D01*
X102400000Y-118350000D01*
X102400000Y-80250000D01*
X183360000Y-93200000D02*
X186760000Y-93200000D01*
X186760000Y-105300000D01*
X183360000Y-105300000D01*
X183360000Y-93200000D01*
D11*
X183056895Y-90047544D02*
X182256895Y-90047544D01*
X182256895Y-90047544D02*
X182256895Y-89780877D01*
X182256895Y-89780877D02*
X182294990Y-89714211D01*
X182294990Y-89714211D02*
X182333085Y-89680877D01*
X182333085Y-89680877D02*
X182409276Y-89647544D01*
X182409276Y-89647544D02*
X182523561Y-89647544D01*
X182523561Y-89647544D02*
X182599752Y-89680877D01*
X182599752Y-89680877D02*
X182637847Y-89714211D01*
X182637847Y-89714211D02*
X182675942Y-89780877D01*
X182675942Y-89780877D02*
X182675942Y-90047544D01*
X182256895Y-89214211D02*
X182256895Y-89080877D01*
X182256895Y-89080877D02*
X182294990Y-89014211D01*
X182294990Y-89014211D02*
X182371180Y-88947544D01*
X182371180Y-88947544D02*
X182523561Y-88914211D01*
X182523561Y-88914211D02*
X182790228Y-88914211D01*
X182790228Y-88914211D02*
X182942609Y-88947544D01*
X182942609Y-88947544D02*
X183018800Y-89014211D01*
X183018800Y-89014211D02*
X183056895Y-89080877D01*
X183056895Y-89080877D02*
X183056895Y-89214211D01*
X183056895Y-89214211D02*
X183018800Y-89280877D01*
X183018800Y-89280877D02*
X182942609Y-89347544D01*
X182942609Y-89347544D02*
X182790228Y-89380877D01*
X182790228Y-89380877D02*
X182523561Y-89380877D01*
X182523561Y-89380877D02*
X182371180Y-89347544D01*
X182371180Y-89347544D02*
X182294990Y-89280877D01*
X182294990Y-89280877D02*
X182256895Y-89214211D01*
X182256895Y-88680878D02*
X183056895Y-88514211D01*
X183056895Y-88514211D02*
X182485466Y-88380878D01*
X182485466Y-88380878D02*
X183056895Y-88247544D01*
X183056895Y-88247544D02*
X182256895Y-88080878D01*
X182637847Y-87814211D02*
X182637847Y-87580878D01*
X183056895Y-87480878D02*
X183056895Y-87814211D01*
X183056895Y-87814211D02*
X182256895Y-87814211D01*
X182256895Y-87814211D02*
X182256895Y-87480878D01*
X183056895Y-86780878D02*
X182675942Y-87014211D01*
X183056895Y-87180878D02*
X182256895Y-87180878D01*
X182256895Y-87180878D02*
X182256895Y-86914211D01*
X182256895Y-86914211D02*
X182294990Y-86847545D01*
X182294990Y-86847545D02*
X182333085Y-86814211D01*
X182333085Y-86814211D02*
X182409276Y-86780878D01*
X182409276Y-86780878D02*
X182523561Y-86780878D01*
X182523561Y-86780878D02*
X182599752Y-86814211D01*
X182599752Y-86814211D02*
X182637847Y-86847545D01*
X182637847Y-86847545D02*
X182675942Y-86914211D01*
X182675942Y-86914211D02*
X182675942Y-87180878D01*
X183018800Y-85980878D02*
X183056895Y-85880878D01*
X183056895Y-85880878D02*
X183056895Y-85714212D01*
X183056895Y-85714212D02*
X183018800Y-85647545D01*
X183018800Y-85647545D02*
X182980704Y-85614212D01*
X182980704Y-85614212D02*
X182904514Y-85580878D01*
X182904514Y-85580878D02*
X182828323Y-85580878D01*
X182828323Y-85580878D02*
X182752133Y-85614212D01*
X182752133Y-85614212D02*
X182714038Y-85647545D01*
X182714038Y-85647545D02*
X182675942Y-85714212D01*
X182675942Y-85714212D02*
X182637847Y-85847545D01*
X182637847Y-85847545D02*
X182599752Y-85914212D01*
X182599752Y-85914212D02*
X182561657Y-85947545D01*
X182561657Y-85947545D02*
X182485466Y-85980878D01*
X182485466Y-85980878D02*
X182409276Y-85980878D01*
X182409276Y-85980878D02*
X182333085Y-85947545D01*
X182333085Y-85947545D02*
X182294990Y-85914212D01*
X182294990Y-85914212D02*
X182256895Y-85847545D01*
X182256895Y-85847545D02*
X182256895Y-85680878D01*
X182256895Y-85680878D02*
X182294990Y-85580878D01*
X182256895Y-85347545D02*
X183056895Y-85180878D01*
X183056895Y-85180878D02*
X182485466Y-85047545D01*
X182485466Y-85047545D02*
X183056895Y-84914211D01*
X183056895Y-84914211D02*
X182256895Y-84747545D01*
X183056895Y-84480878D02*
X182256895Y-84480878D01*
X182256895Y-84247545D02*
X182256895Y-83847545D01*
X183056895Y-84047545D02*
X182256895Y-84047545D01*
X182980704Y-83214212D02*
X183018800Y-83247545D01*
X183018800Y-83247545D02*
X183056895Y-83347545D01*
X183056895Y-83347545D02*
X183056895Y-83414212D01*
X183056895Y-83414212D02*
X183018800Y-83514212D01*
X183018800Y-83514212D02*
X182942609Y-83580879D01*
X182942609Y-83580879D02*
X182866419Y-83614212D01*
X182866419Y-83614212D02*
X182714038Y-83647545D01*
X182714038Y-83647545D02*
X182599752Y-83647545D01*
X182599752Y-83647545D02*
X182447371Y-83614212D01*
X182447371Y-83614212D02*
X182371180Y-83580879D01*
X182371180Y-83580879D02*
X182294990Y-83514212D01*
X182294990Y-83514212D02*
X182256895Y-83414212D01*
X182256895Y-83414212D02*
X182256895Y-83347545D01*
X182256895Y-83347545D02*
X182294990Y-83247545D01*
X182294990Y-83247545D02*
X182333085Y-83214212D01*
X183056895Y-82914212D02*
X182256895Y-82914212D01*
X182637847Y-82914212D02*
X182637847Y-82514212D01*
X183056895Y-82514212D02*
X182256895Y-82514212D01*
D12*
X113115826Y-122847200D02*
X114258684Y-122847200D01*
X113687255Y-123418628D02*
X113687255Y-122275771D01*
X116115826Y-122847200D02*
X117258684Y-122847200D01*
D11*
X112442931Y-117547847D02*
X112557217Y-117585942D01*
X112557217Y-117585942D02*
X112595312Y-117624038D01*
X112595312Y-117624038D02*
X112633408Y-117700228D01*
X112633408Y-117700228D02*
X112633408Y-117814514D01*
X112633408Y-117814514D02*
X112595312Y-117890704D01*
X112595312Y-117890704D02*
X112557217Y-117928800D01*
X112557217Y-117928800D02*
X112481027Y-117966895D01*
X112481027Y-117966895D02*
X112176265Y-117966895D01*
X112176265Y-117966895D02*
X112176265Y-117166895D01*
X112176265Y-117166895D02*
X112442931Y-117166895D01*
X112442931Y-117166895D02*
X112519122Y-117204990D01*
X112519122Y-117204990D02*
X112557217Y-117243085D01*
X112557217Y-117243085D02*
X112595312Y-117319276D01*
X112595312Y-117319276D02*
X112595312Y-117395466D01*
X112595312Y-117395466D02*
X112557217Y-117471657D01*
X112557217Y-117471657D02*
X112519122Y-117509752D01*
X112519122Y-117509752D02*
X112442931Y-117547847D01*
X112442931Y-117547847D02*
X112176265Y-117547847D01*
X112938169Y-117738323D02*
X113319122Y-117738323D01*
X112861979Y-117966895D02*
X113128646Y-117166895D01*
X113128646Y-117166895D02*
X113395312Y-117966895D01*
X113547693Y-117166895D02*
X114004836Y-117166895D01*
X113776264Y-117966895D02*
X113776264Y-117166895D01*
X114157217Y-117166895D02*
X114614360Y-117166895D01*
X114385788Y-117966895D02*
X114385788Y-117166895D01*
X114881027Y-117547847D02*
X115147693Y-117547847D01*
X115261979Y-117966895D02*
X114881027Y-117966895D01*
X114881027Y-117966895D02*
X114881027Y-117166895D01*
X114881027Y-117166895D02*
X115261979Y-117166895D01*
X116061980Y-117966895D02*
X115795313Y-117585942D01*
X115604837Y-117966895D02*
X115604837Y-117166895D01*
X115604837Y-117166895D02*
X115909599Y-117166895D01*
X115909599Y-117166895D02*
X115985789Y-117204990D01*
X115985789Y-117204990D02*
X116023884Y-117243085D01*
X116023884Y-117243085D02*
X116061980Y-117319276D01*
X116061980Y-117319276D02*
X116061980Y-117433561D01*
X116061980Y-117433561D02*
X116023884Y-117509752D01*
X116023884Y-117509752D02*
X115985789Y-117547847D01*
X115985789Y-117547847D02*
X115909599Y-117585942D01*
X115909599Y-117585942D02*
X115604837Y-117585942D01*
X116557218Y-117585942D02*
X116557218Y-117966895D01*
X116290551Y-117166895D02*
X116557218Y-117585942D01*
X116557218Y-117585942D02*
X116823884Y-117166895D01*
X107493104Y-82727693D02*
X106693104Y-82944360D01*
X106693104Y-82944360D02*
X107493104Y-83161027D01*
X106731200Y-83656265D02*
X106693104Y-83594360D01*
X106693104Y-83594360D02*
X106693104Y-83470551D01*
X106693104Y-83470551D02*
X106731200Y-83408646D01*
X106731200Y-83408646D02*
X106769295Y-83377693D01*
X106769295Y-83377693D02*
X106845485Y-83346741D01*
X106845485Y-83346741D02*
X107074057Y-83346741D01*
X107074057Y-83346741D02*
X107150247Y-83377693D01*
X107150247Y-83377693D02*
X107188342Y-83408646D01*
X107188342Y-83408646D02*
X107226438Y-83470551D01*
X107226438Y-83470551D02*
X107226438Y-83594360D01*
X107226438Y-83594360D02*
X107188342Y-83656265D01*
X106731200Y-84213408D02*
X106693104Y-84151503D01*
X106693104Y-84151503D02*
X106693104Y-84027694D01*
X106693104Y-84027694D02*
X106731200Y-83965789D01*
X106731200Y-83965789D02*
X106769295Y-83934836D01*
X106769295Y-83934836D02*
X106845485Y-83903884D01*
X106845485Y-83903884D02*
X107074057Y-83903884D01*
X107074057Y-83903884D02*
X107150247Y-83934836D01*
X107150247Y-83934836D02*
X107188342Y-83965789D01*
X107188342Y-83965789D02*
X107226438Y-84027694D01*
X107226438Y-84027694D02*
X107226438Y-84151503D01*
X107226438Y-84151503D02*
X107188342Y-84213408D01*
X107455009Y-85327694D02*
X107493104Y-85265789D01*
X107493104Y-85265789D02*
X107493104Y-85172932D01*
X107493104Y-85172932D02*
X107455009Y-85080075D01*
X107455009Y-85080075D02*
X107378819Y-85018170D01*
X107378819Y-85018170D02*
X107302628Y-84987217D01*
X107302628Y-84987217D02*
X107150247Y-84956265D01*
X107150247Y-84956265D02*
X107035961Y-84956265D01*
X107035961Y-84956265D02*
X106883580Y-84987217D01*
X106883580Y-84987217D02*
X106807390Y-85018170D01*
X106807390Y-85018170D02*
X106731200Y-85080075D01*
X106731200Y-85080075D02*
X106693104Y-85172932D01*
X106693104Y-85172932D02*
X106693104Y-85234836D01*
X106693104Y-85234836D02*
X106731200Y-85327694D01*
X106731200Y-85327694D02*
X106769295Y-85358646D01*
X106769295Y-85358646D02*
X107035961Y-85358646D01*
X107035961Y-85358646D02*
X107035961Y-85234836D01*
X106693104Y-85637217D02*
X107493104Y-85637217D01*
X107493104Y-85637217D02*
X106693104Y-86008646D01*
X106693104Y-86008646D02*
X107493104Y-86008646D01*
X106693104Y-86318169D02*
X107493104Y-86318169D01*
X107493104Y-86318169D02*
X107493104Y-86472931D01*
X107493104Y-86472931D02*
X107455009Y-86565788D01*
X107455009Y-86565788D02*
X107378819Y-86627693D01*
X107378819Y-86627693D02*
X107302628Y-86658646D01*
X107302628Y-86658646D02*
X107150247Y-86689598D01*
X107150247Y-86689598D02*
X107035961Y-86689598D01*
X107035961Y-86689598D02*
X106883580Y-86658646D01*
X106883580Y-86658646D02*
X106807390Y-86627693D01*
X106807390Y-86627693D02*
X106731200Y-86565788D01*
X106731200Y-86565788D02*
X106693104Y-86472931D01*
X106693104Y-86472931D02*
X106693104Y-86318169D01*
X106769295Y-88330074D02*
X106731200Y-88299122D01*
X106731200Y-88299122D02*
X106693104Y-88206264D01*
X106693104Y-88206264D02*
X106693104Y-88144360D01*
X106693104Y-88144360D02*
X106731200Y-88051503D01*
X106731200Y-88051503D02*
X106807390Y-87989598D01*
X106807390Y-87989598D02*
X106883580Y-87958645D01*
X106883580Y-87958645D02*
X107035961Y-87927693D01*
X107035961Y-87927693D02*
X107150247Y-87927693D01*
X107150247Y-87927693D02*
X107302628Y-87958645D01*
X107302628Y-87958645D02*
X107378819Y-87989598D01*
X107378819Y-87989598D02*
X107455009Y-88051503D01*
X107455009Y-88051503D02*
X107493104Y-88144360D01*
X107493104Y-88144360D02*
X107493104Y-88206264D01*
X107493104Y-88206264D02*
X107455009Y-88299122D01*
X107455009Y-88299122D02*
X107416914Y-88330074D01*
X106731200Y-88577693D02*
X106693104Y-88670550D01*
X106693104Y-88670550D02*
X106693104Y-88825312D01*
X106693104Y-88825312D02*
X106731200Y-88887217D01*
X106731200Y-88887217D02*
X106769295Y-88918169D01*
X106769295Y-88918169D02*
X106845485Y-88949122D01*
X106845485Y-88949122D02*
X106921676Y-88949122D01*
X106921676Y-88949122D02*
X106997866Y-88918169D01*
X106997866Y-88918169D02*
X107035961Y-88887217D01*
X107035961Y-88887217D02*
X107074057Y-88825312D01*
X107074057Y-88825312D02*
X107112152Y-88701503D01*
X107112152Y-88701503D02*
X107150247Y-88639598D01*
X107150247Y-88639598D02*
X107188342Y-88608645D01*
X107188342Y-88608645D02*
X107264533Y-88577693D01*
X107264533Y-88577693D02*
X107340723Y-88577693D01*
X107340723Y-88577693D02*
X107416914Y-88608645D01*
X107416914Y-88608645D02*
X107455009Y-88639598D01*
X107455009Y-88639598D02*
X107493104Y-88701503D01*
X107493104Y-88701503D02*
X107493104Y-88856264D01*
X107493104Y-88856264D02*
X107455009Y-88949122D01*
X106693104Y-90589598D02*
X107074057Y-90372931D01*
X106693104Y-90218169D02*
X107493104Y-90218169D01*
X107493104Y-90218169D02*
X107493104Y-90465788D01*
X107493104Y-90465788D02*
X107455009Y-90527693D01*
X107455009Y-90527693D02*
X107416914Y-90558646D01*
X107416914Y-90558646D02*
X107340723Y-90589598D01*
X107340723Y-90589598D02*
X107226438Y-90589598D01*
X107226438Y-90589598D02*
X107150247Y-90558646D01*
X107150247Y-90558646D02*
X107112152Y-90527693D01*
X107112152Y-90527693D02*
X107074057Y-90465788D01*
X107074057Y-90465788D02*
X107074057Y-90218169D01*
X106731200Y-90837217D02*
X106693104Y-90930074D01*
X106693104Y-90930074D02*
X106693104Y-91084836D01*
X106693104Y-91084836D02*
X106731200Y-91146741D01*
X106731200Y-91146741D02*
X106769295Y-91177693D01*
X106769295Y-91177693D02*
X106845485Y-91208646D01*
X106845485Y-91208646D02*
X106921676Y-91208646D01*
X106921676Y-91208646D02*
X106997866Y-91177693D01*
X106997866Y-91177693D02*
X107035961Y-91146741D01*
X107035961Y-91146741D02*
X107074057Y-91084836D01*
X107074057Y-91084836D02*
X107112152Y-90961027D01*
X107112152Y-90961027D02*
X107150247Y-90899122D01*
X107150247Y-90899122D02*
X107188342Y-90868169D01*
X107188342Y-90868169D02*
X107264533Y-90837217D01*
X107264533Y-90837217D02*
X107340723Y-90837217D01*
X107340723Y-90837217D02*
X107416914Y-90868169D01*
X107416914Y-90868169D02*
X107455009Y-90899122D01*
X107455009Y-90899122D02*
X107493104Y-90961027D01*
X107493104Y-90961027D02*
X107493104Y-91115788D01*
X107493104Y-91115788D02*
X107455009Y-91208646D01*
X107493104Y-91394360D02*
X107493104Y-91765789D01*
X106693104Y-91580075D02*
X107493104Y-91580075D01*
X106693104Y-92477693D02*
X107493104Y-92477693D01*
X107493104Y-92477693D02*
X107493104Y-92632455D01*
X107493104Y-92632455D02*
X107455009Y-92725312D01*
X107455009Y-92725312D02*
X107378819Y-92787217D01*
X107378819Y-92787217D02*
X107302628Y-92818170D01*
X107302628Y-92818170D02*
X107150247Y-92849122D01*
X107150247Y-92849122D02*
X107035961Y-92849122D01*
X107035961Y-92849122D02*
X106883580Y-92818170D01*
X106883580Y-92818170D02*
X106807390Y-92787217D01*
X106807390Y-92787217D02*
X106731200Y-92725312D01*
X106731200Y-92725312D02*
X106693104Y-92632455D01*
X106693104Y-92632455D02*
X106693104Y-92477693D01*
X106769295Y-93499122D02*
X106731200Y-93468170D01*
X106731200Y-93468170D02*
X106693104Y-93375312D01*
X106693104Y-93375312D02*
X106693104Y-93313408D01*
X106693104Y-93313408D02*
X106731200Y-93220551D01*
X106731200Y-93220551D02*
X106807390Y-93158646D01*
X106807390Y-93158646D02*
X106883580Y-93127693D01*
X106883580Y-93127693D02*
X107035961Y-93096741D01*
X107035961Y-93096741D02*
X107150247Y-93096741D01*
X107150247Y-93096741D02*
X107302628Y-93127693D01*
X107302628Y-93127693D02*
X107378819Y-93158646D01*
X107378819Y-93158646D02*
X107455009Y-93220551D01*
X107455009Y-93220551D02*
X107493104Y-93313408D01*
X107493104Y-93313408D02*
X107493104Y-93375312D01*
X107493104Y-93375312D02*
X107455009Y-93468170D01*
X107455009Y-93468170D02*
X107416914Y-93499122D01*
X106693104Y-94272931D02*
X107493104Y-94272931D01*
X107493104Y-94272931D02*
X106921676Y-94489598D01*
X106921676Y-94489598D02*
X107493104Y-94706265D01*
X107493104Y-94706265D02*
X106693104Y-94706265D01*
X107493104Y-95139598D02*
X107493104Y-95263407D01*
X107493104Y-95263407D02*
X107455009Y-95325312D01*
X107455009Y-95325312D02*
X107378819Y-95387217D01*
X107378819Y-95387217D02*
X107226438Y-95418169D01*
X107226438Y-95418169D02*
X106959771Y-95418169D01*
X106959771Y-95418169D02*
X106807390Y-95387217D01*
X106807390Y-95387217D02*
X106731200Y-95325312D01*
X106731200Y-95325312D02*
X106693104Y-95263407D01*
X106693104Y-95263407D02*
X106693104Y-95139598D01*
X106693104Y-95139598D02*
X106731200Y-95077693D01*
X106731200Y-95077693D02*
X106807390Y-95015788D01*
X106807390Y-95015788D02*
X106959771Y-94984836D01*
X106959771Y-94984836D02*
X107226438Y-94984836D01*
X107226438Y-94984836D02*
X107378819Y-95015788D01*
X107378819Y-95015788D02*
X107455009Y-95077693D01*
X107455009Y-95077693D02*
X107493104Y-95139598D01*
X106731200Y-95665788D02*
X106693104Y-95758645D01*
X106693104Y-95758645D02*
X106693104Y-95913407D01*
X106693104Y-95913407D02*
X106731200Y-95975312D01*
X106731200Y-95975312D02*
X106769295Y-96006264D01*
X106769295Y-96006264D02*
X106845485Y-96037217D01*
X106845485Y-96037217D02*
X106921676Y-96037217D01*
X106921676Y-96037217D02*
X106997866Y-96006264D01*
X106997866Y-96006264D02*
X107035961Y-95975312D01*
X107035961Y-95975312D02*
X107074057Y-95913407D01*
X107074057Y-95913407D02*
X107112152Y-95789598D01*
X107112152Y-95789598D02*
X107150247Y-95727693D01*
X107150247Y-95727693D02*
X107188342Y-95696740D01*
X107188342Y-95696740D02*
X107264533Y-95665788D01*
X107264533Y-95665788D02*
X107340723Y-95665788D01*
X107340723Y-95665788D02*
X107416914Y-95696740D01*
X107416914Y-95696740D02*
X107455009Y-95727693D01*
X107455009Y-95727693D02*
X107493104Y-95789598D01*
X107493104Y-95789598D02*
X107493104Y-95944359D01*
X107493104Y-95944359D02*
X107455009Y-96037217D01*
X106693104Y-96315788D02*
X107493104Y-96315788D01*
X106731200Y-97089598D02*
X106693104Y-97182455D01*
X106693104Y-97182455D02*
X106693104Y-97337217D01*
X106693104Y-97337217D02*
X106731200Y-97399122D01*
X106731200Y-97399122D02*
X106769295Y-97430074D01*
X106769295Y-97430074D02*
X106845485Y-97461027D01*
X106845485Y-97461027D02*
X106921676Y-97461027D01*
X106921676Y-97461027D02*
X106997866Y-97430074D01*
X106997866Y-97430074D02*
X107035961Y-97399122D01*
X107035961Y-97399122D02*
X107074057Y-97337217D01*
X107074057Y-97337217D02*
X107112152Y-97213408D01*
X107112152Y-97213408D02*
X107150247Y-97151503D01*
X107150247Y-97151503D02*
X107188342Y-97120550D01*
X107188342Y-97120550D02*
X107264533Y-97089598D01*
X107264533Y-97089598D02*
X107340723Y-97089598D01*
X107340723Y-97089598D02*
X107416914Y-97120550D01*
X107416914Y-97120550D02*
X107455009Y-97151503D01*
X107455009Y-97151503D02*
X107493104Y-97213408D01*
X107493104Y-97213408D02*
X107493104Y-97368169D01*
X107493104Y-97368169D02*
X107455009Y-97461027D01*
X106769295Y-98111027D02*
X106731200Y-98080075D01*
X106731200Y-98080075D02*
X106693104Y-97987217D01*
X106693104Y-97987217D02*
X106693104Y-97925313D01*
X106693104Y-97925313D02*
X106731200Y-97832456D01*
X106731200Y-97832456D02*
X106807390Y-97770551D01*
X106807390Y-97770551D02*
X106883580Y-97739598D01*
X106883580Y-97739598D02*
X107035961Y-97708646D01*
X107035961Y-97708646D02*
X107150247Y-97708646D01*
X107150247Y-97708646D02*
X107302628Y-97739598D01*
X107302628Y-97739598D02*
X107378819Y-97770551D01*
X107378819Y-97770551D02*
X107455009Y-97832456D01*
X107455009Y-97832456D02*
X107493104Y-97925313D01*
X107493104Y-97925313D02*
X107493104Y-97987217D01*
X107493104Y-97987217D02*
X107455009Y-98080075D01*
X107455009Y-98080075D02*
X107416914Y-98111027D01*
X106693104Y-98389598D02*
X107493104Y-98389598D01*
X106693104Y-98761027D02*
X107150247Y-98482456D01*
X107493104Y-98761027D02*
X107035961Y-98389598D01*
X106693104Y-99844360D02*
X106693104Y-99534836D01*
X106693104Y-99534836D02*
X107493104Y-99534836D01*
X107112152Y-100061026D02*
X107112152Y-100277693D01*
X106693104Y-100370550D02*
X106693104Y-100061026D01*
X106693104Y-100061026D02*
X107493104Y-100061026D01*
X107493104Y-100061026D02*
X107493104Y-100370550D01*
X106693104Y-100649121D02*
X107493104Y-100649121D01*
X107493104Y-100649121D02*
X107493104Y-100803883D01*
X107493104Y-100803883D02*
X107455009Y-100896740D01*
X107455009Y-100896740D02*
X107378819Y-100958645D01*
X107378819Y-100958645D02*
X107302628Y-100989598D01*
X107302628Y-100989598D02*
X107150247Y-101020550D01*
X107150247Y-101020550D02*
X107035961Y-101020550D01*
X107035961Y-101020550D02*
X106883580Y-100989598D01*
X106883580Y-100989598D02*
X106807390Y-100958645D01*
X106807390Y-100958645D02*
X106731200Y-100896740D01*
X106731200Y-100896740D02*
X106693104Y-100803883D01*
X106693104Y-100803883D02*
X106693104Y-100649121D01*
X106693104Y-101794359D02*
X107493104Y-101794359D01*
X107493104Y-101794359D02*
X106921676Y-102011026D01*
X106921676Y-102011026D02*
X107493104Y-102227693D01*
X107493104Y-102227693D02*
X106693104Y-102227693D01*
X106693104Y-102537216D02*
X107493104Y-102537216D01*
X106731200Y-102815788D02*
X106693104Y-102908645D01*
X106693104Y-102908645D02*
X106693104Y-103063407D01*
X106693104Y-103063407D02*
X106731200Y-103125312D01*
X106731200Y-103125312D02*
X106769295Y-103156264D01*
X106769295Y-103156264D02*
X106845485Y-103187217D01*
X106845485Y-103187217D02*
X106921676Y-103187217D01*
X106921676Y-103187217D02*
X106997866Y-103156264D01*
X106997866Y-103156264D02*
X107035961Y-103125312D01*
X107035961Y-103125312D02*
X107074057Y-103063407D01*
X107074057Y-103063407D02*
X107112152Y-102939598D01*
X107112152Y-102939598D02*
X107150247Y-102877693D01*
X107150247Y-102877693D02*
X107188342Y-102846740D01*
X107188342Y-102846740D02*
X107264533Y-102815788D01*
X107264533Y-102815788D02*
X107340723Y-102815788D01*
X107340723Y-102815788D02*
X107416914Y-102846740D01*
X107416914Y-102846740D02*
X107455009Y-102877693D01*
X107455009Y-102877693D02*
X107493104Y-102939598D01*
X107493104Y-102939598D02*
X107493104Y-103094359D01*
X107493104Y-103094359D02*
X107455009Y-103187217D01*
X107493104Y-103589598D02*
X107493104Y-103713407D01*
X107493104Y-103713407D02*
X107455009Y-103775312D01*
X107455009Y-103775312D02*
X107378819Y-103837217D01*
X107378819Y-103837217D02*
X107226438Y-103868169D01*
X107226438Y-103868169D02*
X106959771Y-103868169D01*
X106959771Y-103868169D02*
X106807390Y-103837217D01*
X106807390Y-103837217D02*
X106731200Y-103775312D01*
X106731200Y-103775312D02*
X106693104Y-103713407D01*
X106693104Y-103713407D02*
X106693104Y-103589598D01*
X106693104Y-103589598D02*
X106731200Y-103527693D01*
X106731200Y-103527693D02*
X106807390Y-103465788D01*
X106807390Y-103465788D02*
X106959771Y-103434836D01*
X106959771Y-103434836D02*
X107226438Y-103434836D01*
X107226438Y-103434836D02*
X107378819Y-103465788D01*
X107378819Y-103465788D02*
X107455009Y-103527693D01*
X107455009Y-103527693D02*
X107493104Y-103589598D01*
X107493104Y-104549121D02*
X107493104Y-104920550D01*
X106693104Y-104734836D02*
X107493104Y-104734836D01*
X106616914Y-104982455D02*
X106616914Y-105477693D01*
X106769295Y-106003883D02*
X106731200Y-105972931D01*
X106731200Y-105972931D02*
X106693104Y-105880073D01*
X106693104Y-105880073D02*
X106693104Y-105818169D01*
X106693104Y-105818169D02*
X106731200Y-105725312D01*
X106731200Y-105725312D02*
X106807390Y-105663407D01*
X106807390Y-105663407D02*
X106883580Y-105632454D01*
X106883580Y-105632454D02*
X107035961Y-105601502D01*
X107035961Y-105601502D02*
X107150247Y-105601502D01*
X107150247Y-105601502D02*
X107302628Y-105632454D01*
X107302628Y-105632454D02*
X107378819Y-105663407D01*
X107378819Y-105663407D02*
X107455009Y-105725312D01*
X107455009Y-105725312D02*
X107493104Y-105818169D01*
X107493104Y-105818169D02*
X107493104Y-105880073D01*
X107493104Y-105880073D02*
X107455009Y-105972931D01*
X107455009Y-105972931D02*
X107416914Y-106003883D01*
X106693104Y-106591978D02*
X106693104Y-106282454D01*
X106693104Y-106282454D02*
X107493104Y-106282454D01*
X106693104Y-106808644D02*
X107493104Y-106808644D01*
X106693104Y-107180073D02*
X107150247Y-106901502D01*
X107493104Y-107180073D02*
X107035961Y-106808644D01*
X107493104Y-107861025D02*
X107493104Y-108232454D01*
X106693104Y-108046740D02*
X107493104Y-108046740D01*
X106616914Y-108294359D02*
X106616914Y-108789597D01*
X106769295Y-109315787D02*
X106731200Y-109284835D01*
X106731200Y-109284835D02*
X106693104Y-109191977D01*
X106693104Y-109191977D02*
X106693104Y-109130073D01*
X106693104Y-109130073D02*
X106731200Y-109037216D01*
X106731200Y-109037216D02*
X106807390Y-108975311D01*
X106807390Y-108975311D02*
X106883580Y-108944358D01*
X106883580Y-108944358D02*
X107035961Y-108913406D01*
X107035961Y-108913406D02*
X107150247Y-108913406D01*
X107150247Y-108913406D02*
X107302628Y-108944358D01*
X107302628Y-108944358D02*
X107378819Y-108975311D01*
X107378819Y-108975311D02*
X107455009Y-109037216D01*
X107455009Y-109037216D02*
X107493104Y-109130073D01*
X107493104Y-109130073D02*
X107493104Y-109191977D01*
X107493104Y-109191977D02*
X107455009Y-109284835D01*
X107455009Y-109284835D02*
X107416914Y-109315787D01*
X106731200Y-109563406D02*
X106693104Y-109656263D01*
X106693104Y-109656263D02*
X106693104Y-109811025D01*
X106693104Y-109811025D02*
X106731200Y-109872930D01*
X106731200Y-109872930D02*
X106769295Y-109903882D01*
X106769295Y-109903882D02*
X106845485Y-109934835D01*
X106845485Y-109934835D02*
X106921676Y-109934835D01*
X106921676Y-109934835D02*
X106997866Y-109903882D01*
X106997866Y-109903882D02*
X107035961Y-109872930D01*
X107035961Y-109872930D02*
X107074057Y-109811025D01*
X107074057Y-109811025D02*
X107112152Y-109687216D01*
X107112152Y-109687216D02*
X107150247Y-109625311D01*
X107150247Y-109625311D02*
X107188342Y-109594358D01*
X107188342Y-109594358D02*
X107264533Y-109563406D01*
X107264533Y-109563406D02*
X107340723Y-109563406D01*
X107340723Y-109563406D02*
X107416914Y-109594358D01*
X107416914Y-109594358D02*
X107455009Y-109625311D01*
X107455009Y-109625311D02*
X107493104Y-109687216D01*
X107493104Y-109687216D02*
X107493104Y-109841977D01*
X107493104Y-109841977D02*
X107455009Y-109934835D01*
X107493104Y-110615787D02*
X107493104Y-110987216D01*
X106693104Y-110801502D02*
X107493104Y-110801502D01*
X106616914Y-111049121D02*
X106616914Y-111544359D01*
X106693104Y-111699120D02*
X107493104Y-111699120D01*
X107493104Y-111699120D02*
X107493104Y-111853882D01*
X107493104Y-111853882D02*
X107455009Y-111946739D01*
X107455009Y-111946739D02*
X107378819Y-112008644D01*
X107378819Y-112008644D02*
X107302628Y-112039597D01*
X107302628Y-112039597D02*
X107150247Y-112070549D01*
X107150247Y-112070549D02*
X107035961Y-112070549D01*
X107035961Y-112070549D02*
X106883580Y-112039597D01*
X106883580Y-112039597D02*
X106807390Y-112008644D01*
X106807390Y-112008644D02*
X106731200Y-111946739D01*
X106731200Y-111946739D02*
X106693104Y-111853882D01*
X106693104Y-111853882D02*
X106693104Y-111699120D01*
X106693104Y-112349120D02*
X107493104Y-112349120D01*
X106693104Y-112658644D02*
X107493104Y-112658644D01*
X107493104Y-112658644D02*
X106693104Y-113030073D01*
X106693104Y-113030073D02*
X107493104Y-113030073D01*
X107493104Y-113741977D02*
X107493104Y-114113406D01*
X106693104Y-113927692D02*
X107493104Y-113927692D01*
X106616914Y-114175311D02*
X106616914Y-114670549D01*
X106693104Y-114825310D02*
X107493104Y-114825310D01*
X107493104Y-114825310D02*
X107493104Y-114980072D01*
X107493104Y-114980072D02*
X107455009Y-115072929D01*
X107455009Y-115072929D02*
X107378819Y-115134834D01*
X107378819Y-115134834D02*
X107302628Y-115165787D01*
X107302628Y-115165787D02*
X107150247Y-115196739D01*
X107150247Y-115196739D02*
X107035961Y-115196739D01*
X107035961Y-115196739D02*
X106883580Y-115165787D01*
X106883580Y-115165787D02*
X106807390Y-115134834D01*
X106807390Y-115134834D02*
X106731200Y-115072929D01*
X106731200Y-115072929D02*
X106693104Y-114980072D01*
X106693104Y-114980072D02*
X106693104Y-114825310D01*
X107493104Y-115599120D02*
X107493104Y-115722929D01*
X107493104Y-115722929D02*
X107455009Y-115784834D01*
X107455009Y-115784834D02*
X107378819Y-115846739D01*
X107378819Y-115846739D02*
X107226438Y-115877691D01*
X107226438Y-115877691D02*
X106959771Y-115877691D01*
X106959771Y-115877691D02*
X106807390Y-115846739D01*
X106807390Y-115846739D02*
X106731200Y-115784834D01*
X106731200Y-115784834D02*
X106693104Y-115722929D01*
X106693104Y-115722929D02*
X106693104Y-115599120D01*
X106693104Y-115599120D02*
X106731200Y-115537215D01*
X106731200Y-115537215D02*
X106807390Y-115475310D01*
X106807390Y-115475310D02*
X106959771Y-115444358D01*
X106959771Y-115444358D02*
X107226438Y-115444358D01*
X107226438Y-115444358D02*
X107378819Y-115475310D01*
X107378819Y-115475310D02*
X107455009Y-115537215D01*
X107455009Y-115537215D02*
X107493104Y-115599120D01*
X107493104Y-116558643D02*
X107493104Y-116930072D01*
X106693104Y-116744358D02*
X107493104Y-116744358D01*
X106616914Y-116991977D02*
X106616914Y-117487215D01*
X106693104Y-117641976D02*
X107493104Y-117641976D01*
X106693104Y-118322929D02*
X107074057Y-118106262D01*
X106693104Y-117951500D02*
X107493104Y-117951500D01*
X107493104Y-117951500D02*
X107493104Y-118199119D01*
X107493104Y-118199119D02*
X107455009Y-118261024D01*
X107455009Y-118261024D02*
X107416914Y-118291977D01*
X107416914Y-118291977D02*
X107340723Y-118322929D01*
X107340723Y-118322929D02*
X107226438Y-118322929D01*
X107226438Y-118322929D02*
X107150247Y-118291977D01*
X107150247Y-118291977D02*
X107112152Y-118261024D01*
X107112152Y-118261024D02*
X107074057Y-118199119D01*
X107074057Y-118199119D02*
X107074057Y-117951500D01*
X106616914Y-119034834D02*
X106655009Y-118972929D01*
X106655009Y-118972929D02*
X106731200Y-118911024D01*
X106731200Y-118911024D02*
X106845485Y-118818167D01*
X106845485Y-118818167D02*
X106883580Y-118756262D01*
X106883580Y-118756262D02*
X106883580Y-118694358D01*
X106693104Y-118725310D02*
X106731200Y-118663405D01*
X106731200Y-118663405D02*
X106807390Y-118601500D01*
X106807390Y-118601500D02*
X106959771Y-118570548D01*
X106959771Y-118570548D02*
X107226438Y-118570548D01*
X107226438Y-118570548D02*
X107378819Y-118601500D01*
X107378819Y-118601500D02*
X107455009Y-118663405D01*
X107455009Y-118663405D02*
X107493104Y-118725310D01*
X107493104Y-118725310D02*
X107493104Y-118849119D01*
X107493104Y-118849119D02*
X107455009Y-118911024D01*
X107455009Y-118911024D02*
X107378819Y-118972929D01*
X107378819Y-118972929D02*
X107226438Y-119003881D01*
X107226438Y-119003881D02*
X106959771Y-119003881D01*
X106959771Y-119003881D02*
X106807390Y-118972929D01*
X106807390Y-118972929D02*
X106731200Y-118911024D01*
X106731200Y-118911024D02*
X106693104Y-118849119D01*
X106693104Y-118849119D02*
X106693104Y-118725310D01*
X165684990Y-86953258D02*
X165646895Y-87000877D01*
X165646895Y-87000877D02*
X165646895Y-87072306D01*
X165646895Y-87072306D02*
X165684990Y-87143734D01*
X165684990Y-87143734D02*
X165761180Y-87191353D01*
X165761180Y-87191353D02*
X165837371Y-87215163D01*
X165837371Y-87215163D02*
X165989752Y-87238972D01*
X165989752Y-87238972D02*
X166104038Y-87238972D01*
X166104038Y-87238972D02*
X166256419Y-87215163D01*
X166256419Y-87215163D02*
X166332609Y-87191353D01*
X166332609Y-87191353D02*
X166408800Y-87143734D01*
X166408800Y-87143734D02*
X166446895Y-87072306D01*
X166446895Y-87072306D02*
X166446895Y-87024687D01*
X166446895Y-87024687D02*
X166408800Y-86953258D01*
X166408800Y-86953258D02*
X166370704Y-86929449D01*
X166370704Y-86929449D02*
X166104038Y-86929449D01*
X166104038Y-86929449D02*
X166104038Y-87024687D01*
X166446895Y-86715163D02*
X165646895Y-86715163D01*
X165646895Y-86715163D02*
X165646895Y-86524687D01*
X165646895Y-86524687D02*
X165684990Y-86477068D01*
X165684990Y-86477068D02*
X165723085Y-86453258D01*
X165723085Y-86453258D02*
X165799276Y-86429449D01*
X165799276Y-86429449D02*
X165913561Y-86429449D01*
X165913561Y-86429449D02*
X165989752Y-86453258D01*
X165989752Y-86453258D02*
X166027847Y-86477068D01*
X166027847Y-86477068D02*
X166065942Y-86524687D01*
X166065942Y-86524687D02*
X166065942Y-86715163D01*
X166408800Y-86238972D02*
X166446895Y-86167544D01*
X166446895Y-86167544D02*
X166446895Y-86048496D01*
X166446895Y-86048496D02*
X166408800Y-86000877D01*
X166408800Y-86000877D02*
X166370704Y-85977068D01*
X166370704Y-85977068D02*
X166294514Y-85953258D01*
X166294514Y-85953258D02*
X166218323Y-85953258D01*
X166218323Y-85953258D02*
X166142133Y-85977068D01*
X166142133Y-85977068D02*
X166104038Y-86000877D01*
X166104038Y-86000877D02*
X166065942Y-86048496D01*
X166065942Y-86048496D02*
X166027847Y-86143734D01*
X166027847Y-86143734D02*
X165989752Y-86191353D01*
X165989752Y-86191353D02*
X165951657Y-86215163D01*
X165951657Y-86215163D02*
X165875466Y-86238972D01*
X165875466Y-86238972D02*
X165799276Y-86238972D01*
X165799276Y-86238972D02*
X165723085Y-86215163D01*
X165723085Y-86215163D02*
X165684990Y-86191353D01*
X165684990Y-86191353D02*
X165646895Y-86143734D01*
X165646895Y-86143734D02*
X165646895Y-86024687D01*
X165646895Y-86024687D02*
X165684990Y-85953258D01*
X166218323Y-85381830D02*
X166218323Y-85143735D01*
X166446895Y-85429449D02*
X165646895Y-85262783D01*
X165646895Y-85262783D02*
X166446895Y-85096116D01*
X166446895Y-84929450D02*
X165646895Y-84929450D01*
X165646895Y-84929450D02*
X166446895Y-84643736D01*
X166446895Y-84643736D02*
X165646895Y-84643736D01*
X165646895Y-84477068D02*
X165646895Y-84191354D01*
X166446895Y-84334211D02*
X165646895Y-84334211D01*
X141113408Y-91066895D02*
X140846741Y-90685942D01*
X140656265Y-91066895D02*
X140656265Y-90266895D01*
X140656265Y-90266895D02*
X140961027Y-90266895D01*
X140961027Y-90266895D02*
X141037217Y-90304990D01*
X141037217Y-90304990D02*
X141075312Y-90343085D01*
X141075312Y-90343085D02*
X141113408Y-90419276D01*
X141113408Y-90419276D02*
X141113408Y-90533561D01*
X141113408Y-90533561D02*
X141075312Y-90609752D01*
X141075312Y-90609752D02*
X141037217Y-90647847D01*
X141037217Y-90647847D02*
X140961027Y-90685942D01*
X140961027Y-90685942D02*
X140656265Y-90685942D01*
X141456265Y-90647847D02*
X141722931Y-90647847D01*
X141837217Y-91066895D02*
X141456265Y-91066895D01*
X141456265Y-91066895D02*
X141456265Y-90266895D01*
X141456265Y-90266895D02*
X141837217Y-90266895D01*
X142141979Y-91028800D02*
X142256265Y-91066895D01*
X142256265Y-91066895D02*
X142446741Y-91066895D01*
X142446741Y-91066895D02*
X142522932Y-91028800D01*
X142522932Y-91028800D02*
X142561027Y-90990704D01*
X142561027Y-90990704D02*
X142599122Y-90914514D01*
X142599122Y-90914514D02*
X142599122Y-90838323D01*
X142599122Y-90838323D02*
X142561027Y-90762133D01*
X142561027Y-90762133D02*
X142522932Y-90724038D01*
X142522932Y-90724038D02*
X142446741Y-90685942D01*
X142446741Y-90685942D02*
X142294360Y-90647847D01*
X142294360Y-90647847D02*
X142218170Y-90609752D01*
X142218170Y-90609752D02*
X142180075Y-90571657D01*
X142180075Y-90571657D02*
X142141979Y-90495466D01*
X142141979Y-90495466D02*
X142141979Y-90419276D01*
X142141979Y-90419276D02*
X142180075Y-90343085D01*
X142180075Y-90343085D02*
X142218170Y-90304990D01*
X142218170Y-90304990D02*
X142294360Y-90266895D01*
X142294360Y-90266895D02*
X142484837Y-90266895D01*
X142484837Y-90266895D02*
X142599122Y-90304990D01*
X142941980Y-90647847D02*
X143208646Y-90647847D01*
X143322932Y-91066895D02*
X142941980Y-91066895D01*
X142941980Y-91066895D02*
X142941980Y-90266895D01*
X142941980Y-90266895D02*
X143322932Y-90266895D01*
X143551504Y-90266895D02*
X144008647Y-90266895D01*
X143780075Y-91066895D02*
X143780075Y-90266895D01*
X144722931Y-90647847D02*
X144456265Y-90647847D01*
X144456265Y-91066895D02*
X144456265Y-90266895D01*
X144456265Y-90266895D02*
X144837217Y-90266895D01*
X145522931Y-91066895D02*
X145141979Y-91066895D01*
X145141979Y-91066895D02*
X145141979Y-90266895D01*
X145751502Y-90838323D02*
X146132455Y-90838323D01*
X145675312Y-91066895D02*
X145941979Y-90266895D01*
X145941979Y-90266895D02*
X146208645Y-91066895D01*
X146437216Y-91028800D02*
X146551502Y-91066895D01*
X146551502Y-91066895D02*
X146741978Y-91066895D01*
X146741978Y-91066895D02*
X146818169Y-91028800D01*
X146818169Y-91028800D02*
X146856264Y-90990704D01*
X146856264Y-90990704D02*
X146894359Y-90914514D01*
X146894359Y-90914514D02*
X146894359Y-90838323D01*
X146894359Y-90838323D02*
X146856264Y-90762133D01*
X146856264Y-90762133D02*
X146818169Y-90724038D01*
X146818169Y-90724038D02*
X146741978Y-90685942D01*
X146741978Y-90685942D02*
X146589597Y-90647847D01*
X146589597Y-90647847D02*
X146513407Y-90609752D01*
X146513407Y-90609752D02*
X146475312Y-90571657D01*
X146475312Y-90571657D02*
X146437216Y-90495466D01*
X146437216Y-90495466D02*
X146437216Y-90419276D01*
X146437216Y-90419276D02*
X146475312Y-90343085D01*
X146475312Y-90343085D02*
X146513407Y-90304990D01*
X146513407Y-90304990D02*
X146589597Y-90266895D01*
X146589597Y-90266895D02*
X146780074Y-90266895D01*
X146780074Y-90266895D02*
X146894359Y-90304990D01*
X147237217Y-91066895D02*
X147237217Y-90266895D01*
X147237217Y-90647847D02*
X147694360Y-90647847D01*
X147694360Y-91066895D02*
X147694360Y-90266895D01*
D12*
X103166666Y-118904819D02*
X103166666Y-119619104D01*
X103166666Y-119619104D02*
X103119047Y-119761961D01*
X103119047Y-119761961D02*
X103023809Y-119857200D01*
X103023809Y-119857200D02*
X102880952Y-119904819D01*
X102880952Y-119904819D02*
X102785714Y-119904819D01*
X104071428Y-119238152D02*
X104071428Y-119904819D01*
X103833333Y-118857200D02*
X103595238Y-119571485D01*
X103595238Y-119571485D02*
X104214285Y-119571485D01*
X119170442Y-111856280D02*
X119122823Y-111903900D01*
X119122823Y-111903900D02*
X118979966Y-111951519D01*
X118979966Y-111951519D02*
X118884728Y-111951519D01*
X118884728Y-111951519D02*
X118741871Y-111903900D01*
X118741871Y-111903900D02*
X118646633Y-111808661D01*
X118646633Y-111808661D02*
X118599014Y-111713423D01*
X118599014Y-111713423D02*
X118551395Y-111522947D01*
X118551395Y-111522947D02*
X118551395Y-111380090D01*
X118551395Y-111380090D02*
X118599014Y-111189614D01*
X118599014Y-111189614D02*
X118646633Y-111094376D01*
X118646633Y-111094376D02*
X118741871Y-110999138D01*
X118741871Y-110999138D02*
X118884728Y-110951519D01*
X118884728Y-110951519D02*
X118979966Y-110951519D01*
X118979966Y-110951519D02*
X119122823Y-110999138D01*
X119122823Y-110999138D02*
X119170442Y-111046757D01*
X120027585Y-111284852D02*
X120027585Y-111951519D01*
X119789490Y-110903900D02*
X119551395Y-111618185D01*
X119551395Y-111618185D02*
X120170442Y-111618185D01*
X120503776Y-111046757D02*
X120551395Y-110999138D01*
X120551395Y-110999138D02*
X120646633Y-110951519D01*
X120646633Y-110951519D02*
X120884728Y-110951519D01*
X120884728Y-110951519D02*
X120979966Y-110999138D01*
X120979966Y-110999138D02*
X121027585Y-111046757D01*
X121027585Y-111046757D02*
X121075204Y-111141995D01*
X121075204Y-111141995D02*
X121075204Y-111237233D01*
X121075204Y-111237233D02*
X121027585Y-111380090D01*
X121027585Y-111380090D02*
X120456157Y-111951519D01*
X120456157Y-111951519D02*
X121075204Y-111951519D01*
X131564819Y-123613333D02*
X132279104Y-123613333D01*
X132279104Y-123613333D02*
X132421961Y-123660952D01*
X132421961Y-123660952D02*
X132517200Y-123756190D01*
X132517200Y-123756190D02*
X132564819Y-123899047D01*
X132564819Y-123899047D02*
X132564819Y-123994285D01*
X131564819Y-123232380D02*
X131564819Y-122613333D01*
X131564819Y-122613333D02*
X131945771Y-122946666D01*
X131945771Y-122946666D02*
X131945771Y-122803809D01*
X131945771Y-122803809D02*
X131993390Y-122708571D01*
X131993390Y-122708571D02*
X132041009Y-122660952D01*
X132041009Y-122660952D02*
X132136247Y-122613333D01*
X132136247Y-122613333D02*
X132374342Y-122613333D01*
X132374342Y-122613333D02*
X132469580Y-122660952D01*
X132469580Y-122660952D02*
X132517200Y-122708571D01*
X132517200Y-122708571D02*
X132564819Y-122803809D01*
X132564819Y-122803809D02*
X132564819Y-123089523D01*
X132564819Y-123089523D02*
X132517200Y-123184761D01*
X132517200Y-123184761D02*
X132469580Y-123232380D01*
X181007142Y-92404819D02*
X180673809Y-91928628D01*
X180435714Y-92404819D02*
X180435714Y-91404819D01*
X180435714Y-91404819D02*
X180816666Y-91404819D01*
X180816666Y-91404819D02*
X180911904Y-91452438D01*
X180911904Y-91452438D02*
X180959523Y-91500057D01*
X180959523Y-91500057D02*
X181007142Y-91595295D01*
X181007142Y-91595295D02*
X181007142Y-91738152D01*
X181007142Y-91738152D02*
X180959523Y-91833390D01*
X180959523Y-91833390D02*
X180911904Y-91881009D01*
X180911904Y-91881009D02*
X180816666Y-91928628D01*
X180816666Y-91928628D02*
X180435714Y-91928628D01*
X181340476Y-91404819D02*
X181959523Y-91404819D01*
X181959523Y-91404819D02*
X181626190Y-91785771D01*
X181626190Y-91785771D02*
X181769047Y-91785771D01*
X181769047Y-91785771D02*
X181864285Y-91833390D01*
X181864285Y-91833390D02*
X181911904Y-91881009D01*
X181911904Y-91881009D02*
X181959523Y-91976247D01*
X181959523Y-91976247D02*
X181959523Y-92214342D01*
X181959523Y-92214342D02*
X181911904Y-92309580D01*
X181911904Y-92309580D02*
X181864285Y-92357200D01*
X181864285Y-92357200D02*
X181769047Y-92404819D01*
X181769047Y-92404819D02*
X181483333Y-92404819D01*
X181483333Y-92404819D02*
X181388095Y-92357200D01*
X181388095Y-92357200D02*
X181340476Y-92309580D01*
X182911904Y-92404819D02*
X182340476Y-92404819D01*
X182626190Y-92404819D02*
X182626190Y-91404819D01*
X182626190Y-91404819D02*
X182530952Y-91547676D01*
X182530952Y-91547676D02*
X182435714Y-91642914D01*
X182435714Y-91642914D02*
X182340476Y-91690533D01*
X152524781Y-92922004D02*
X153334304Y-92922004D01*
X153334304Y-92922004D02*
X153429542Y-92874385D01*
X153429542Y-92874385D02*
X153477162Y-92826766D01*
X153477162Y-92826766D02*
X153524781Y-92731528D01*
X153524781Y-92731528D02*
X153524781Y-92541052D01*
X153524781Y-92541052D02*
X153477162Y-92445814D01*
X153477162Y-92445814D02*
X153429542Y-92398195D01*
X153429542Y-92398195D02*
X153334304Y-92350576D01*
X153334304Y-92350576D02*
X152524781Y-92350576D01*
X152524781Y-91969623D02*
X152524781Y-91302957D01*
X152524781Y-91302957D02*
X153524781Y-91731528D01*
X146724819Y-123299523D02*
X145724819Y-123299523D01*
X145724819Y-123299523D02*
X146439104Y-122966190D01*
X146439104Y-122966190D02*
X145724819Y-122632857D01*
X145724819Y-122632857D02*
X146724819Y-122632857D01*
X146724819Y-122156666D02*
X145724819Y-122156666D01*
X146724819Y-121585238D02*
X146153390Y-122013809D01*
X145724819Y-121585238D02*
X146296247Y-122156666D01*
X146724819Y-120632857D02*
X146724819Y-121204285D01*
X146724819Y-120918571D02*
X145724819Y-120918571D01*
X145724819Y-120918571D02*
X145867676Y-121013809D01*
X145867676Y-121013809D02*
X145962914Y-121109047D01*
X145962914Y-121109047D02*
X146010533Y-121204285D01*
X185261805Y-106454919D02*
X185261805Y-107264442D01*
X185261805Y-107264442D02*
X185309424Y-107359680D01*
X185309424Y-107359680D02*
X185357043Y-107407300D01*
X185357043Y-107407300D02*
X185452281Y-107454919D01*
X185452281Y-107454919D02*
X185642757Y-107454919D01*
X185642757Y-107454919D02*
X185737995Y-107407300D01*
X185737995Y-107407300D02*
X185785614Y-107359680D01*
X185785614Y-107359680D02*
X185833233Y-107264442D01*
X185833233Y-107264442D02*
X185833233Y-106454919D01*
X186833233Y-107454919D02*
X186261805Y-107454919D01*
X186547519Y-107454919D02*
X186547519Y-106454919D01*
X186547519Y-106454919D02*
X186452281Y-106597776D01*
X186452281Y-106597776D02*
X186357043Y-106693014D01*
X186357043Y-106693014D02*
X186261805Y-106740633D01*
X187214186Y-106550157D02*
X187261805Y-106502538D01*
X187261805Y-106502538D02*
X187357043Y-106454919D01*
X187357043Y-106454919D02*
X187595138Y-106454919D01*
X187595138Y-106454919D02*
X187690376Y-106502538D01*
X187690376Y-106502538D02*
X187737995Y-106550157D01*
X187737995Y-106550157D02*
X187785614Y-106645395D01*
X187785614Y-106645395D02*
X187785614Y-106740633D01*
X187785614Y-106740633D02*
X187737995Y-106883490D01*
X187737995Y-106883490D02*
X187166567Y-107454919D01*
X187166567Y-107454919D02*
X187785614Y-107454919D01*
X145374819Y-104946666D02*
X144898628Y-105279999D01*
X145374819Y-105518094D02*
X144374819Y-105518094D01*
X144374819Y-105518094D02*
X144374819Y-105137142D01*
X144374819Y-105137142D02*
X144422438Y-105041904D01*
X144422438Y-105041904D02*
X144470057Y-104994285D01*
X144470057Y-104994285D02*
X144565295Y-104946666D01*
X144565295Y-104946666D02*
X144708152Y-104946666D01*
X144708152Y-104946666D02*
X144803390Y-104994285D01*
X144803390Y-104994285D02*
X144851009Y-105041904D01*
X144851009Y-105041904D02*
X144898628Y-105137142D01*
X144898628Y-105137142D02*
X144898628Y-105518094D01*
X145374819Y-103994285D02*
X145374819Y-104565713D01*
X145374819Y-104279999D02*
X144374819Y-104279999D01*
X144374819Y-104279999D02*
X144517676Y-104375237D01*
X144517676Y-104375237D02*
X144612914Y-104470475D01*
X144612914Y-104470475D02*
X144660533Y-104565713D01*
X159878095Y-97184819D02*
X159878095Y-97994342D01*
X159878095Y-97994342D02*
X159925714Y-98089580D01*
X159925714Y-98089580D02*
X159973333Y-98137200D01*
X159973333Y-98137200D02*
X160068571Y-98184819D01*
X160068571Y-98184819D02*
X160259047Y-98184819D01*
X160259047Y-98184819D02*
X160354285Y-98137200D01*
X160354285Y-98137200D02*
X160401904Y-98089580D01*
X160401904Y-98089580D02*
X160449523Y-97994342D01*
X160449523Y-97994342D02*
X160449523Y-97184819D01*
X161401904Y-97184819D02*
X160925714Y-97184819D01*
X160925714Y-97184819D02*
X160878095Y-97661009D01*
X160878095Y-97661009D02*
X160925714Y-97613390D01*
X160925714Y-97613390D02*
X161020952Y-97565771D01*
X161020952Y-97565771D02*
X161259047Y-97565771D01*
X161259047Y-97565771D02*
X161354285Y-97613390D01*
X161354285Y-97613390D02*
X161401904Y-97661009D01*
X161401904Y-97661009D02*
X161449523Y-97756247D01*
X161449523Y-97756247D02*
X161449523Y-97994342D01*
X161449523Y-97994342D02*
X161401904Y-98089580D01*
X161401904Y-98089580D02*
X161354285Y-98137200D01*
X161354285Y-98137200D02*
X161259047Y-98184819D01*
X161259047Y-98184819D02*
X161020952Y-98184819D01*
X161020952Y-98184819D02*
X160925714Y-98137200D01*
X160925714Y-98137200D02*
X160878095Y-98089580D01*
X176193333Y-96994819D02*
X175717143Y-96994819D01*
X175717143Y-96994819D02*
X175717143Y-95994819D01*
X177050476Y-96994819D02*
X176479048Y-96994819D01*
X176764762Y-96994819D02*
X176764762Y-95994819D01*
X176764762Y-95994819D02*
X176669524Y-96137676D01*
X176669524Y-96137676D02*
X176574286Y-96232914D01*
X176574286Y-96232914D02*
X176479048Y-96280533D01*
X174416679Y-90997018D02*
X174416679Y-91711303D01*
X174416679Y-91711303D02*
X174369060Y-91854160D01*
X174369060Y-91854160D02*
X174273822Y-91949399D01*
X174273822Y-91949399D02*
X174130965Y-91997018D01*
X174130965Y-91997018D02*
X174035727Y-91997018D01*
X175416679Y-91997018D02*
X174845251Y-91997018D01*
X175130965Y-91997018D02*
X175130965Y-90997018D01*
X175130965Y-90997018D02*
X175035727Y-91139875D01*
X175035727Y-91139875D02*
X174940489Y-91235113D01*
X174940489Y-91235113D02*
X174845251Y-91282732D01*
X186246666Y-106154819D02*
X186246666Y-106869104D01*
X186246666Y-106869104D02*
X186199047Y-107011961D01*
X186199047Y-107011961D02*
X186103809Y-107107200D01*
X186103809Y-107107200D02*
X185960952Y-107154819D01*
X185960952Y-107154819D02*
X185865714Y-107154819D01*
X187151428Y-106154819D02*
X186960952Y-106154819D01*
X186960952Y-106154819D02*
X186865714Y-106202438D01*
X186865714Y-106202438D02*
X186818095Y-106250057D01*
X186818095Y-106250057D02*
X186722857Y-106392914D01*
X186722857Y-106392914D02*
X186675238Y-106583390D01*
X186675238Y-106583390D02*
X186675238Y-106964342D01*
X186675238Y-106964342D02*
X186722857Y-107059580D01*
X186722857Y-107059580D02*
X186770476Y-107107200D01*
X186770476Y-107107200D02*
X186865714Y-107154819D01*
X186865714Y-107154819D02*
X187056190Y-107154819D01*
X187056190Y-107154819D02*
X187151428Y-107107200D01*
X187151428Y-107107200D02*
X187199047Y-107059580D01*
X187199047Y-107059580D02*
X187246666Y-106964342D01*
X187246666Y-106964342D02*
X187246666Y-106726247D01*
X187246666Y-106726247D02*
X187199047Y-106631009D01*
X187199047Y-106631009D02*
X187151428Y-106583390D01*
X187151428Y-106583390D02*
X187056190Y-106535771D01*
X187056190Y-106535771D02*
X186865714Y-106535771D01*
X186865714Y-106535771D02*
X186770476Y-106583390D01*
X186770476Y-106583390D02*
X186722857Y-106631009D01*
X186722857Y-106631009D02*
X186675238Y-106726247D01*
X109068119Y-108808604D02*
X109877642Y-108808604D01*
X109877642Y-108808604D02*
X109972880Y-108760985D01*
X109972880Y-108760985D02*
X110020500Y-108713366D01*
X110020500Y-108713366D02*
X110068119Y-108618128D01*
X110068119Y-108618128D02*
X110068119Y-108427652D01*
X110068119Y-108427652D02*
X110020500Y-108332414D01*
X110020500Y-108332414D02*
X109972880Y-108284795D01*
X109972880Y-108284795D02*
X109877642Y-108237176D01*
X109877642Y-108237176D02*
X109068119Y-108237176D01*
X110068119Y-107713366D02*
X110068119Y-107522890D01*
X110068119Y-107522890D02*
X110020500Y-107427652D01*
X110020500Y-107427652D02*
X109972880Y-107380033D01*
X109972880Y-107380033D02*
X109830023Y-107284795D01*
X109830023Y-107284795D02*
X109639547Y-107237176D01*
X109639547Y-107237176D02*
X109258595Y-107237176D01*
X109258595Y-107237176D02*
X109163357Y-107284795D01*
X109163357Y-107284795D02*
X109115738Y-107332414D01*
X109115738Y-107332414D02*
X109068119Y-107427652D01*
X109068119Y-107427652D02*
X109068119Y-107618128D01*
X109068119Y-107618128D02*
X109115738Y-107713366D01*
X109115738Y-107713366D02*
X109163357Y-107760985D01*
X109163357Y-107760985D02*
X109258595Y-107808604D01*
X109258595Y-107808604D02*
X109496690Y-107808604D01*
X109496690Y-107808604D02*
X109591928Y-107760985D01*
X109591928Y-107760985D02*
X109639547Y-107713366D01*
X109639547Y-107713366D02*
X109687166Y-107618128D01*
X109687166Y-107618128D02*
X109687166Y-107427652D01*
X109687166Y-107427652D02*
X109639547Y-107332414D01*
X109639547Y-107332414D02*
X109591928Y-107284795D01*
X109591928Y-107284795D02*
X109496690Y-107237176D01*
X126304819Y-113691904D02*
X127114342Y-113691904D01*
X127114342Y-113691904D02*
X127209580Y-113644285D01*
X127209580Y-113644285D02*
X127257200Y-113596666D01*
X127257200Y-113596666D02*
X127304819Y-113501428D01*
X127304819Y-113501428D02*
X127304819Y-113310952D01*
X127304819Y-113310952D02*
X127257200Y-113215714D01*
X127257200Y-113215714D02*
X127209580Y-113168095D01*
X127209580Y-113168095D02*
X127114342Y-113120476D01*
X127114342Y-113120476D02*
X126304819Y-113120476D01*
X126304819Y-112215714D02*
X126304819Y-112406190D01*
X126304819Y-112406190D02*
X126352438Y-112501428D01*
X126352438Y-112501428D02*
X126400057Y-112549047D01*
X126400057Y-112549047D02*
X126542914Y-112644285D01*
X126542914Y-112644285D02*
X126733390Y-112691904D01*
X126733390Y-112691904D02*
X127114342Y-112691904D01*
X127114342Y-112691904D02*
X127209580Y-112644285D01*
X127209580Y-112644285D02*
X127257200Y-112596666D01*
X127257200Y-112596666D02*
X127304819Y-112501428D01*
X127304819Y-112501428D02*
X127304819Y-112310952D01*
X127304819Y-112310952D02*
X127257200Y-112215714D01*
X127257200Y-112215714D02*
X127209580Y-112168095D01*
X127209580Y-112168095D02*
X127114342Y-112120476D01*
X127114342Y-112120476D02*
X126876247Y-112120476D01*
X126876247Y-112120476D02*
X126781009Y-112168095D01*
X126781009Y-112168095D02*
X126733390Y-112215714D01*
X126733390Y-112215714D02*
X126685771Y-112310952D01*
X126685771Y-112310952D02*
X126685771Y-112501428D01*
X126685771Y-112501428D02*
X126733390Y-112596666D01*
X126733390Y-112596666D02*
X126781009Y-112644285D01*
X126781009Y-112644285D02*
X126876247Y-112691904D01*
X170294819Y-92652857D02*
X169818628Y-92986190D01*
X170294819Y-93224285D02*
X169294819Y-93224285D01*
X169294819Y-93224285D02*
X169294819Y-92843333D01*
X169294819Y-92843333D02*
X169342438Y-92748095D01*
X169342438Y-92748095D02*
X169390057Y-92700476D01*
X169390057Y-92700476D02*
X169485295Y-92652857D01*
X169485295Y-92652857D02*
X169628152Y-92652857D01*
X169628152Y-92652857D02*
X169723390Y-92700476D01*
X169723390Y-92700476D02*
X169771009Y-92748095D01*
X169771009Y-92748095D02*
X169818628Y-92843333D01*
X169818628Y-92843333D02*
X169818628Y-93224285D01*
X170294819Y-91700476D02*
X170294819Y-92271904D01*
X170294819Y-91986190D02*
X169294819Y-91986190D01*
X169294819Y-91986190D02*
X169437676Y-92081428D01*
X169437676Y-92081428D02*
X169532914Y-92176666D01*
X169532914Y-92176666D02*
X169580533Y-92271904D01*
X169628152Y-90843333D02*
X170294819Y-90843333D01*
X169247200Y-91081428D02*
X169961485Y-91319523D01*
X169961485Y-91319523D02*
X169961485Y-90700476D01*
X150454832Y-91388081D02*
X151264355Y-91388081D01*
X151264355Y-91388081D02*
X151359593Y-91340462D01*
X151359593Y-91340462D02*
X151407213Y-91292843D01*
X151407213Y-91292843D02*
X151454832Y-91197605D01*
X151454832Y-91197605D02*
X151454832Y-91007129D01*
X151454832Y-91007129D02*
X151407213Y-90911891D01*
X151407213Y-90911891D02*
X151359593Y-90864272D01*
X151359593Y-90864272D02*
X151264355Y-90816653D01*
X151264355Y-90816653D02*
X150454832Y-90816653D01*
X151454832Y-89816653D02*
X151454832Y-90388081D01*
X151454832Y-90102367D02*
X150454832Y-90102367D01*
X150454832Y-90102367D02*
X150597689Y-90197605D01*
X150597689Y-90197605D02*
X150692927Y-90292843D01*
X150692927Y-90292843D02*
X150740546Y-90388081D01*
X151454832Y-88864272D02*
X151454832Y-89435700D01*
X151454832Y-89149986D02*
X150454832Y-89149986D01*
X150454832Y-89149986D02*
X150597689Y-89245224D01*
X150597689Y-89245224D02*
X150692927Y-89340462D01*
X150692927Y-89340462D02*
X150740546Y-89435700D01*
X116363895Y-109645219D02*
X116363895Y-110454742D01*
X116363895Y-110454742D02*
X116411514Y-110549980D01*
X116411514Y-110549980D02*
X116459133Y-110597600D01*
X116459133Y-110597600D02*
X116554371Y-110645219D01*
X116554371Y-110645219D02*
X116744847Y-110645219D01*
X116744847Y-110645219D02*
X116840085Y-110597600D01*
X116840085Y-110597600D02*
X116887704Y-110549980D01*
X116887704Y-110549980D02*
X116935323Y-110454742D01*
X116935323Y-110454742D02*
X116935323Y-109645219D01*
X117554371Y-110073790D02*
X117459133Y-110026171D01*
X117459133Y-110026171D02*
X117411514Y-109978552D01*
X117411514Y-109978552D02*
X117363895Y-109883314D01*
X117363895Y-109883314D02*
X117363895Y-109835695D01*
X117363895Y-109835695D02*
X117411514Y-109740457D01*
X117411514Y-109740457D02*
X117459133Y-109692838D01*
X117459133Y-109692838D02*
X117554371Y-109645219D01*
X117554371Y-109645219D02*
X117744847Y-109645219D01*
X117744847Y-109645219D02*
X117840085Y-109692838D01*
X117840085Y-109692838D02*
X117887704Y-109740457D01*
X117887704Y-109740457D02*
X117935323Y-109835695D01*
X117935323Y-109835695D02*
X117935323Y-109883314D01*
X117935323Y-109883314D02*
X117887704Y-109978552D01*
X117887704Y-109978552D02*
X117840085Y-110026171D01*
X117840085Y-110026171D02*
X117744847Y-110073790D01*
X117744847Y-110073790D02*
X117554371Y-110073790D01*
X117554371Y-110073790D02*
X117459133Y-110121409D01*
X117459133Y-110121409D02*
X117411514Y-110169028D01*
X117411514Y-110169028D02*
X117363895Y-110264266D01*
X117363895Y-110264266D02*
X117363895Y-110454742D01*
X117363895Y-110454742D02*
X117411514Y-110549980D01*
X117411514Y-110549980D02*
X117459133Y-110597600D01*
X117459133Y-110597600D02*
X117554371Y-110645219D01*
X117554371Y-110645219D02*
X117744847Y-110645219D01*
X117744847Y-110645219D02*
X117840085Y-110597600D01*
X117840085Y-110597600D02*
X117887704Y-110549980D01*
X117887704Y-110549980D02*
X117935323Y-110454742D01*
X117935323Y-110454742D02*
X117935323Y-110264266D01*
X117935323Y-110264266D02*
X117887704Y-110169028D01*
X117887704Y-110169028D02*
X117840085Y-110121409D01*
X117840085Y-110121409D02*
X117744847Y-110073790D01*
X144169580Y-105392857D02*
X144217200Y-105440476D01*
X144217200Y-105440476D02*
X144264819Y-105583333D01*
X144264819Y-105583333D02*
X144264819Y-105678571D01*
X144264819Y-105678571D02*
X144217200Y-105821428D01*
X144217200Y-105821428D02*
X144121961Y-105916666D01*
X144121961Y-105916666D02*
X144026723Y-105964285D01*
X144026723Y-105964285D02*
X143836247Y-106011904D01*
X143836247Y-106011904D02*
X143693390Y-106011904D01*
X143693390Y-106011904D02*
X143502914Y-105964285D01*
X143502914Y-105964285D02*
X143407676Y-105916666D01*
X143407676Y-105916666D02*
X143312438Y-105821428D01*
X143312438Y-105821428D02*
X143264819Y-105678571D01*
X143264819Y-105678571D02*
X143264819Y-105583333D01*
X143264819Y-105583333D02*
X143312438Y-105440476D01*
X143312438Y-105440476D02*
X143360057Y-105392857D01*
X143598152Y-104535714D02*
X144264819Y-104535714D01*
X143217200Y-104773809D02*
X143931485Y-105011904D01*
X143931485Y-105011904D02*
X143931485Y-104392857D01*
X143264819Y-104107142D02*
X143264819Y-103488095D01*
X143264819Y-103488095D02*
X143645771Y-103821428D01*
X143645771Y-103821428D02*
X143645771Y-103678571D01*
X143645771Y-103678571D02*
X143693390Y-103583333D01*
X143693390Y-103583333D02*
X143741009Y-103535714D01*
X143741009Y-103535714D02*
X143836247Y-103488095D01*
X143836247Y-103488095D02*
X144074342Y-103488095D01*
X144074342Y-103488095D02*
X144169580Y-103535714D01*
X144169580Y-103535714D02*
X144217200Y-103583333D01*
X144217200Y-103583333D02*
X144264819Y-103678571D01*
X144264819Y-103678571D02*
X144264819Y-103964285D01*
X144264819Y-103964285D02*
X144217200Y-104059523D01*
X144217200Y-104059523D02*
X144169580Y-104107142D01*
X110924819Y-119403333D02*
X111639104Y-119403333D01*
X111639104Y-119403333D02*
X111781961Y-119450952D01*
X111781961Y-119450952D02*
X111877200Y-119546190D01*
X111877200Y-119546190D02*
X111924819Y-119689047D01*
X111924819Y-119689047D02*
X111924819Y-119784285D01*
X111020057Y-118974761D02*
X110972438Y-118927142D01*
X110972438Y-118927142D02*
X110924819Y-118831904D01*
X110924819Y-118831904D02*
X110924819Y-118593809D01*
X110924819Y-118593809D02*
X110972438Y-118498571D01*
X110972438Y-118498571D02*
X111020057Y-118450952D01*
X111020057Y-118450952D02*
X111115295Y-118403333D01*
X111115295Y-118403333D02*
X111210533Y-118403333D01*
X111210533Y-118403333D02*
X111353390Y-118450952D01*
X111353390Y-118450952D02*
X111924819Y-119022380D01*
X111924819Y-119022380D02*
X111924819Y-118403333D01*
X174274819Y-92652857D02*
X173798628Y-92986190D01*
X174274819Y-93224285D02*
X173274819Y-93224285D01*
X173274819Y-93224285D02*
X173274819Y-92843333D01*
X173274819Y-92843333D02*
X173322438Y-92748095D01*
X173322438Y-92748095D02*
X173370057Y-92700476D01*
X173370057Y-92700476D02*
X173465295Y-92652857D01*
X173465295Y-92652857D02*
X173608152Y-92652857D01*
X173608152Y-92652857D02*
X173703390Y-92700476D01*
X173703390Y-92700476D02*
X173751009Y-92748095D01*
X173751009Y-92748095D02*
X173798628Y-92843333D01*
X173798628Y-92843333D02*
X173798628Y-93224285D01*
X173274819Y-92319523D02*
X173274819Y-91700476D01*
X173274819Y-91700476D02*
X173655771Y-92033809D01*
X173655771Y-92033809D02*
X173655771Y-91890952D01*
X173655771Y-91890952D02*
X173703390Y-91795714D01*
X173703390Y-91795714D02*
X173751009Y-91748095D01*
X173751009Y-91748095D02*
X173846247Y-91700476D01*
X173846247Y-91700476D02*
X174084342Y-91700476D01*
X174084342Y-91700476D02*
X174179580Y-91748095D01*
X174179580Y-91748095D02*
X174227200Y-91795714D01*
X174227200Y-91795714D02*
X174274819Y-91890952D01*
X174274819Y-91890952D02*
X174274819Y-92176666D01*
X174274819Y-92176666D02*
X174227200Y-92271904D01*
X174227200Y-92271904D02*
X174179580Y-92319523D01*
X173274819Y-91367142D02*
X173274819Y-90700476D01*
X173274819Y-90700476D02*
X174274819Y-91129047D01*
X174386667Y-119937200D02*
X174529524Y-119984819D01*
X174529524Y-119984819D02*
X174767619Y-119984819D01*
X174767619Y-119984819D02*
X174862857Y-119937200D01*
X174862857Y-119937200D02*
X174910476Y-119889580D01*
X174910476Y-119889580D02*
X174958095Y-119794342D01*
X174958095Y-119794342D02*
X174958095Y-119699104D01*
X174958095Y-119699104D02*
X174910476Y-119603866D01*
X174910476Y-119603866D02*
X174862857Y-119556247D01*
X174862857Y-119556247D02*
X174767619Y-119508628D01*
X174767619Y-119508628D02*
X174577143Y-119461009D01*
X174577143Y-119461009D02*
X174481905Y-119413390D01*
X174481905Y-119413390D02*
X174434286Y-119365771D01*
X174434286Y-119365771D02*
X174386667Y-119270533D01*
X174386667Y-119270533D02*
X174386667Y-119175295D01*
X174386667Y-119175295D02*
X174434286Y-119080057D01*
X174434286Y-119080057D02*
X174481905Y-119032438D01*
X174481905Y-119032438D02*
X174577143Y-118984819D01*
X174577143Y-118984819D02*
X174815238Y-118984819D01*
X174815238Y-118984819D02*
X174958095Y-119032438D01*
X175291429Y-118984819D02*
X175529524Y-119984819D01*
X175529524Y-119984819D02*
X175720000Y-119270533D01*
X175720000Y-119270533D02*
X175910476Y-119984819D01*
X175910476Y-119984819D02*
X176148572Y-118984819D01*
X177053333Y-119984819D02*
X176481905Y-119984819D01*
X176767619Y-119984819D02*
X176767619Y-118984819D01*
X176767619Y-118984819D02*
X176672381Y-119127676D01*
X176672381Y-119127676D02*
X176577143Y-119222914D01*
X176577143Y-119222914D02*
X176481905Y-119270533D01*
X115081395Y-95631519D02*
X115652823Y-95631519D01*
X115367109Y-96631519D02*
X115367109Y-95631519D01*
X115986157Y-96631519D02*
X115986157Y-95631519D01*
X115986157Y-95631519D02*
X116367109Y-95631519D01*
X116367109Y-95631519D02*
X116462347Y-95679138D01*
X116462347Y-95679138D02*
X116509966Y-95726757D01*
X116509966Y-95726757D02*
X116557585Y-95821995D01*
X116557585Y-95821995D02*
X116557585Y-95964852D01*
X116557585Y-95964852D02*
X116509966Y-96060090D01*
X116509966Y-96060090D02*
X116462347Y-96107709D01*
X116462347Y-96107709D02*
X116367109Y-96155328D01*
X116367109Y-96155328D02*
X115986157Y-96155328D01*
X117509966Y-96631519D02*
X116938538Y-96631519D01*
X117224252Y-96631519D02*
X117224252Y-95631519D01*
X117224252Y-95631519D02*
X117129014Y-95774376D01*
X117129014Y-95774376D02*
X117033776Y-95869614D01*
X117033776Y-95869614D02*
X116938538Y-95917233D01*
X135343333Y-75369104D02*
X135819523Y-75369104D01*
X135248095Y-75654819D02*
X135581428Y-74654819D01*
X135581428Y-74654819D02*
X135914761Y-75654819D01*
X136248095Y-75131009D02*
X136581428Y-75131009D01*
X136724285Y-75654819D02*
X136248095Y-75654819D01*
X136248095Y-75654819D02*
X136248095Y-74654819D01*
X136248095Y-74654819D02*
X136724285Y-74654819D01*
X137676666Y-75654819D02*
X137105238Y-75654819D01*
X137390952Y-75654819D02*
X137390952Y-74654819D01*
X137390952Y-74654819D02*
X137295714Y-74797676D01*
X137295714Y-74797676D02*
X137200476Y-74892914D01*
X137200476Y-74892914D02*
X137105238Y-74940533D01*
X168186667Y-119937200D02*
X168329524Y-119984819D01*
X168329524Y-119984819D02*
X168567619Y-119984819D01*
X168567619Y-119984819D02*
X168662857Y-119937200D01*
X168662857Y-119937200D02*
X168710476Y-119889580D01*
X168710476Y-119889580D02*
X168758095Y-119794342D01*
X168758095Y-119794342D02*
X168758095Y-119699104D01*
X168758095Y-119699104D02*
X168710476Y-119603866D01*
X168710476Y-119603866D02*
X168662857Y-119556247D01*
X168662857Y-119556247D02*
X168567619Y-119508628D01*
X168567619Y-119508628D02*
X168377143Y-119461009D01*
X168377143Y-119461009D02*
X168281905Y-119413390D01*
X168281905Y-119413390D02*
X168234286Y-119365771D01*
X168234286Y-119365771D02*
X168186667Y-119270533D01*
X168186667Y-119270533D02*
X168186667Y-119175295D01*
X168186667Y-119175295D02*
X168234286Y-119080057D01*
X168234286Y-119080057D02*
X168281905Y-119032438D01*
X168281905Y-119032438D02*
X168377143Y-118984819D01*
X168377143Y-118984819D02*
X168615238Y-118984819D01*
X168615238Y-118984819D02*
X168758095Y-119032438D01*
X169091429Y-118984819D02*
X169329524Y-119984819D01*
X169329524Y-119984819D02*
X169520000Y-119270533D01*
X169520000Y-119270533D02*
X169710476Y-119984819D01*
X169710476Y-119984819D02*
X169948572Y-118984819D01*
X170234286Y-118984819D02*
X170853333Y-118984819D01*
X170853333Y-118984819D02*
X170520000Y-119365771D01*
X170520000Y-119365771D02*
X170662857Y-119365771D01*
X170662857Y-119365771D02*
X170758095Y-119413390D01*
X170758095Y-119413390D02*
X170805714Y-119461009D01*
X170805714Y-119461009D02*
X170853333Y-119556247D01*
X170853333Y-119556247D02*
X170853333Y-119794342D01*
X170853333Y-119794342D02*
X170805714Y-119889580D01*
X170805714Y-119889580D02*
X170758095Y-119937200D01*
X170758095Y-119937200D02*
X170662857Y-119984819D01*
X170662857Y-119984819D02*
X170377143Y-119984819D01*
X170377143Y-119984819D02*
X170281905Y-119937200D01*
X170281905Y-119937200D02*
X170234286Y-119889580D01*
X115268119Y-104373366D02*
X115268119Y-104849556D01*
X115268119Y-104849556D02*
X114268119Y-104849556D01*
X114363357Y-104087651D02*
X114315738Y-104040032D01*
X114315738Y-104040032D02*
X114268119Y-103944794D01*
X114268119Y-103944794D02*
X114268119Y-103706699D01*
X114268119Y-103706699D02*
X114315738Y-103611461D01*
X114315738Y-103611461D02*
X114363357Y-103563842D01*
X114363357Y-103563842D02*
X114458595Y-103516223D01*
X114458595Y-103516223D02*
X114553833Y-103516223D01*
X114553833Y-103516223D02*
X114696690Y-103563842D01*
X114696690Y-103563842D02*
X115268119Y-104135270D01*
X115268119Y-104135270D02*
X115268119Y-103516223D01*
X137718809Y-84728628D02*
X137718809Y-85204819D01*
X137385476Y-84204819D02*
X137718809Y-84728628D01*
X137718809Y-84728628D02*
X138052142Y-84204819D01*
X138337857Y-84300057D02*
X138385476Y-84252438D01*
X138385476Y-84252438D02*
X138480714Y-84204819D01*
X138480714Y-84204819D02*
X138718809Y-84204819D01*
X138718809Y-84204819D02*
X138814047Y-84252438D01*
X138814047Y-84252438D02*
X138861666Y-84300057D01*
X138861666Y-84300057D02*
X138909285Y-84395295D01*
X138909285Y-84395295D02*
X138909285Y-84490533D01*
X138909285Y-84490533D02*
X138861666Y-84633390D01*
X138861666Y-84633390D02*
X138290238Y-85204819D01*
X138290238Y-85204819D02*
X138909285Y-85204819D01*
X152233333Y-109604819D02*
X151900000Y-109128628D01*
X151661905Y-109604819D02*
X151661905Y-108604819D01*
X151661905Y-108604819D02*
X152042857Y-108604819D01*
X152042857Y-108604819D02*
X152138095Y-108652438D01*
X152138095Y-108652438D02*
X152185714Y-108700057D01*
X152185714Y-108700057D02*
X152233333Y-108795295D01*
X152233333Y-108795295D02*
X152233333Y-108938152D01*
X152233333Y-108938152D02*
X152185714Y-109033390D01*
X152185714Y-109033390D02*
X152138095Y-109081009D01*
X152138095Y-109081009D02*
X152042857Y-109128628D01*
X152042857Y-109128628D02*
X151661905Y-109128628D01*
X153090476Y-108938152D02*
X153090476Y-109604819D01*
X152852381Y-108557200D02*
X152614286Y-109271485D01*
X152614286Y-109271485D02*
X153233333Y-109271485D01*
X172284819Y-92652857D02*
X171808628Y-92986190D01*
X172284819Y-93224285D02*
X171284819Y-93224285D01*
X171284819Y-93224285D02*
X171284819Y-92843333D01*
X171284819Y-92843333D02*
X171332438Y-92748095D01*
X171332438Y-92748095D02*
X171380057Y-92700476D01*
X171380057Y-92700476D02*
X171475295Y-92652857D01*
X171475295Y-92652857D02*
X171618152Y-92652857D01*
X171618152Y-92652857D02*
X171713390Y-92700476D01*
X171713390Y-92700476D02*
X171761009Y-92748095D01*
X171761009Y-92748095D02*
X171808628Y-92843333D01*
X171808628Y-92843333D02*
X171808628Y-93224285D01*
X172284819Y-91700476D02*
X172284819Y-92271904D01*
X172284819Y-91986190D02*
X171284819Y-91986190D01*
X171284819Y-91986190D02*
X171427676Y-92081428D01*
X171427676Y-92081428D02*
X171522914Y-92176666D01*
X171522914Y-92176666D02*
X171570533Y-92271904D01*
X171284819Y-91367142D02*
X171284819Y-90700476D01*
X171284819Y-90700476D02*
X172284819Y-91129047D01*
X127238095Y-94154819D02*
X127238095Y-94964342D01*
X127238095Y-94964342D02*
X127285714Y-95059580D01*
X127285714Y-95059580D02*
X127333333Y-95107200D01*
X127333333Y-95107200D02*
X127428571Y-95154819D01*
X127428571Y-95154819D02*
X127619047Y-95154819D01*
X127619047Y-95154819D02*
X127714285Y-95107200D01*
X127714285Y-95107200D02*
X127761904Y-95059580D01*
X127761904Y-95059580D02*
X127809523Y-94964342D01*
X127809523Y-94964342D02*
X127809523Y-94154819D01*
X128809523Y-95154819D02*
X128238095Y-95154819D01*
X128523809Y-95154819D02*
X128523809Y-94154819D01*
X128523809Y-94154819D02*
X128428571Y-94297676D01*
X128428571Y-94297676D02*
X128333333Y-94392914D01*
X128333333Y-94392914D02*
X128238095Y-94440533D01*
X133584819Y-109145594D02*
X134394342Y-109145594D01*
X134394342Y-109145594D02*
X134489580Y-109097975D01*
X134489580Y-109097975D02*
X134537200Y-109050356D01*
X134537200Y-109050356D02*
X134584819Y-108955118D01*
X134584819Y-108955118D02*
X134584819Y-108764642D01*
X134584819Y-108764642D02*
X134537200Y-108669404D01*
X134537200Y-108669404D02*
X134489580Y-108621785D01*
X134489580Y-108621785D02*
X134394342Y-108574166D01*
X134394342Y-108574166D02*
X133584819Y-108574166D01*
X134584819Y-107574166D02*
X134584819Y-108145594D01*
X134584819Y-107859880D02*
X133584819Y-107859880D01*
X133584819Y-107859880D02*
X133727676Y-107955118D01*
X133727676Y-107955118D02*
X133822914Y-108050356D01*
X133822914Y-108050356D02*
X133870533Y-108145594D01*
X133918152Y-106717023D02*
X134584819Y-106717023D01*
X133537200Y-106955118D02*
X134251485Y-107193213D01*
X134251485Y-107193213D02*
X134251485Y-106574166D01*
X114758095Y-111212319D02*
X114758095Y-112021842D01*
X114758095Y-112021842D02*
X114805714Y-112117080D01*
X114805714Y-112117080D02*
X114853333Y-112164700D01*
X114853333Y-112164700D02*
X114948571Y-112212319D01*
X114948571Y-112212319D02*
X115139047Y-112212319D01*
X115139047Y-112212319D02*
X115234285Y-112164700D01*
X115234285Y-112164700D02*
X115281904Y-112117080D01*
X115281904Y-112117080D02*
X115329523Y-112021842D01*
X115329523Y-112021842D02*
X115329523Y-111212319D01*
X115710476Y-111212319D02*
X116329523Y-111212319D01*
X116329523Y-111212319D02*
X115996190Y-111593271D01*
X115996190Y-111593271D02*
X116139047Y-111593271D01*
X116139047Y-111593271D02*
X116234285Y-111640890D01*
X116234285Y-111640890D02*
X116281904Y-111688509D01*
X116281904Y-111688509D02*
X116329523Y-111783747D01*
X116329523Y-111783747D02*
X116329523Y-112021842D01*
X116329523Y-112021842D02*
X116281904Y-112117080D01*
X116281904Y-112117080D02*
X116234285Y-112164700D01*
X116234285Y-112164700D02*
X116139047Y-112212319D01*
X116139047Y-112212319D02*
X115853333Y-112212319D01*
X115853333Y-112212319D02*
X115758095Y-112164700D01*
X115758095Y-112164700D02*
X115710476Y-112117080D01*
X148689405Y-98874819D02*
X148689405Y-99684342D01*
X148689405Y-99684342D02*
X148737024Y-99779580D01*
X148737024Y-99779580D02*
X148784643Y-99827200D01*
X148784643Y-99827200D02*
X148879881Y-99874819D01*
X148879881Y-99874819D02*
X149070357Y-99874819D01*
X149070357Y-99874819D02*
X149165595Y-99827200D01*
X149165595Y-99827200D02*
X149213214Y-99779580D01*
X149213214Y-99779580D02*
X149260833Y-99684342D01*
X149260833Y-99684342D02*
X149260833Y-98874819D01*
X150260833Y-99874819D02*
X149689405Y-99874819D01*
X149975119Y-99874819D02*
X149975119Y-98874819D01*
X149975119Y-98874819D02*
X149879881Y-99017676D01*
X149879881Y-99017676D02*
X149784643Y-99112914D01*
X149784643Y-99112914D02*
X149689405Y-99160533D01*
X150594167Y-98874819D02*
X151213214Y-98874819D01*
X151213214Y-98874819D02*
X150879881Y-99255771D01*
X150879881Y-99255771D02*
X151022738Y-99255771D01*
X151022738Y-99255771D02*
X151117976Y-99303390D01*
X151117976Y-99303390D02*
X151165595Y-99351009D01*
X151165595Y-99351009D02*
X151213214Y-99446247D01*
X151213214Y-99446247D02*
X151213214Y-99684342D01*
X151213214Y-99684342D02*
X151165595Y-99779580D01*
X151165595Y-99779580D02*
X151117976Y-99827200D01*
X151117976Y-99827200D02*
X151022738Y-99874819D01*
X151022738Y-99874819D02*
X150737024Y-99874819D01*
X150737024Y-99874819D02*
X150641786Y-99827200D01*
X150641786Y-99827200D02*
X150594167Y-99779580D01*
X116858480Y-102008605D02*
X116048957Y-102008605D01*
X116048957Y-102008605D02*
X115953719Y-102056224D01*
X115953719Y-102056224D02*
X115906100Y-102103843D01*
X115906100Y-102103843D02*
X115858480Y-102199081D01*
X115858480Y-102199081D02*
X115858480Y-102389557D01*
X115858480Y-102389557D02*
X115906100Y-102484795D01*
X115906100Y-102484795D02*
X115953719Y-102532414D01*
X115953719Y-102532414D02*
X116048957Y-102580033D01*
X116048957Y-102580033D02*
X116858480Y-102580033D01*
X115858480Y-103580033D02*
X115858480Y-103008605D01*
X115858480Y-103294319D02*
X116858480Y-103294319D01*
X116858480Y-103294319D02*
X116715623Y-103199081D01*
X116715623Y-103199081D02*
X116620385Y-103103843D01*
X116620385Y-103103843D02*
X116572766Y-103008605D01*
X116858480Y-104199081D02*
X116858480Y-104294319D01*
X116858480Y-104294319D02*
X116810861Y-104389557D01*
X116810861Y-104389557D02*
X116763242Y-104437176D01*
X116763242Y-104437176D02*
X116668004Y-104484795D01*
X116668004Y-104484795D02*
X116477528Y-104532414D01*
X116477528Y-104532414D02*
X116239433Y-104532414D01*
X116239433Y-104532414D02*
X116048957Y-104484795D01*
X116048957Y-104484795D02*
X115953719Y-104437176D01*
X115953719Y-104437176D02*
X115906100Y-104389557D01*
X115906100Y-104389557D02*
X115858480Y-104294319D01*
X115858480Y-104294319D02*
X115858480Y-104199081D01*
X115858480Y-104199081D02*
X115906100Y-104103843D01*
X115906100Y-104103843D02*
X115953719Y-104056224D01*
X115953719Y-104056224D02*
X116048957Y-104008605D01*
X116048957Y-104008605D02*
X116239433Y-103960986D01*
X116239433Y-103960986D02*
X116477528Y-103960986D01*
X116477528Y-103960986D02*
X116668004Y-104008605D01*
X116668004Y-104008605D02*
X116763242Y-104056224D01*
X116763242Y-104056224D02*
X116810861Y-104103843D01*
X116810861Y-104103843D02*
X116858480Y-104199081D01*
X129112319Y-108970833D02*
X129826604Y-108970833D01*
X129826604Y-108970833D02*
X129969461Y-109018452D01*
X129969461Y-109018452D02*
X130064700Y-109113690D01*
X130064700Y-109113690D02*
X130112319Y-109256547D01*
X130112319Y-109256547D02*
X130112319Y-109351785D01*
X130112319Y-108494642D02*
X129112319Y-108494642D01*
X129112319Y-108494642D02*
X129112319Y-108113690D01*
X129112319Y-108113690D02*
X129159938Y-108018452D01*
X129159938Y-108018452D02*
X129207557Y-107970833D01*
X129207557Y-107970833D02*
X129302795Y-107923214D01*
X129302795Y-107923214D02*
X129445652Y-107923214D01*
X129445652Y-107923214D02*
X129540890Y-107970833D01*
X129540890Y-107970833D02*
X129588509Y-108018452D01*
X129588509Y-108018452D02*
X129636128Y-108113690D01*
X129636128Y-108113690D02*
X129636128Y-108494642D01*
X129112319Y-107589880D02*
X129112319Y-106970833D01*
X129112319Y-106970833D02*
X129493271Y-107304166D01*
X129493271Y-107304166D02*
X129493271Y-107161309D01*
X129493271Y-107161309D02*
X129540890Y-107066071D01*
X129540890Y-107066071D02*
X129588509Y-107018452D01*
X129588509Y-107018452D02*
X129683747Y-106970833D01*
X129683747Y-106970833D02*
X129921842Y-106970833D01*
X129921842Y-106970833D02*
X130017080Y-107018452D01*
X130017080Y-107018452D02*
X130064700Y-107066071D01*
X130064700Y-107066071D02*
X130112319Y-107161309D01*
X130112319Y-107161309D02*
X130112319Y-107447023D01*
X130112319Y-107447023D02*
X130064700Y-107542261D01*
X130064700Y-107542261D02*
X130017080Y-107589880D01*
X159866666Y-118674819D02*
X159866666Y-119389104D01*
X159866666Y-119389104D02*
X159819047Y-119531961D01*
X159819047Y-119531961D02*
X159723809Y-119627200D01*
X159723809Y-119627200D02*
X159580952Y-119674819D01*
X159580952Y-119674819D02*
X159485714Y-119674819D01*
X160819047Y-118674819D02*
X160342857Y-118674819D01*
X160342857Y-118674819D02*
X160295238Y-119151009D01*
X160295238Y-119151009D02*
X160342857Y-119103390D01*
X160342857Y-119103390D02*
X160438095Y-119055771D01*
X160438095Y-119055771D02*
X160676190Y-119055771D01*
X160676190Y-119055771D02*
X160771428Y-119103390D01*
X160771428Y-119103390D02*
X160819047Y-119151009D01*
X160819047Y-119151009D02*
X160866666Y-119246247D01*
X160866666Y-119246247D02*
X160866666Y-119484342D01*
X160866666Y-119484342D02*
X160819047Y-119579580D01*
X160819047Y-119579580D02*
X160771428Y-119627200D01*
X160771428Y-119627200D02*
X160676190Y-119674819D01*
X160676190Y-119674819D02*
X160438095Y-119674819D01*
X160438095Y-119674819D02*
X160342857Y-119627200D01*
X160342857Y-119627200D02*
X160295238Y-119579580D01*
X183816667Y-82957200D02*
X183959524Y-83004819D01*
X183959524Y-83004819D02*
X184197619Y-83004819D01*
X184197619Y-83004819D02*
X184292857Y-82957200D01*
X184292857Y-82957200D02*
X184340476Y-82909580D01*
X184340476Y-82909580D02*
X184388095Y-82814342D01*
X184388095Y-82814342D02*
X184388095Y-82719104D01*
X184388095Y-82719104D02*
X184340476Y-82623866D01*
X184340476Y-82623866D02*
X184292857Y-82576247D01*
X184292857Y-82576247D02*
X184197619Y-82528628D01*
X184197619Y-82528628D02*
X184007143Y-82481009D01*
X184007143Y-82481009D02*
X183911905Y-82433390D01*
X183911905Y-82433390D02*
X183864286Y-82385771D01*
X183864286Y-82385771D02*
X183816667Y-82290533D01*
X183816667Y-82290533D02*
X183816667Y-82195295D01*
X183816667Y-82195295D02*
X183864286Y-82100057D01*
X183864286Y-82100057D02*
X183911905Y-82052438D01*
X183911905Y-82052438D02*
X184007143Y-82004819D01*
X184007143Y-82004819D02*
X184245238Y-82004819D01*
X184245238Y-82004819D02*
X184388095Y-82052438D01*
X184721429Y-82004819D02*
X184959524Y-83004819D01*
X184959524Y-83004819D02*
X185150000Y-82290533D01*
X185150000Y-82290533D02*
X185340476Y-83004819D01*
X185340476Y-83004819D02*
X185578572Y-82004819D01*
X185911905Y-82100057D02*
X185959524Y-82052438D01*
X185959524Y-82052438D02*
X186054762Y-82004819D01*
X186054762Y-82004819D02*
X186292857Y-82004819D01*
X186292857Y-82004819D02*
X186388095Y-82052438D01*
X186388095Y-82052438D02*
X186435714Y-82100057D01*
X186435714Y-82100057D02*
X186483333Y-82195295D01*
X186483333Y-82195295D02*
X186483333Y-82290533D01*
X186483333Y-82290533D02*
X186435714Y-82433390D01*
X186435714Y-82433390D02*
X185864286Y-83004819D01*
X185864286Y-83004819D02*
X186483333Y-83004819D01*
X138258095Y-92489819D02*
X138258095Y-93299342D01*
X138258095Y-93299342D02*
X138305714Y-93394580D01*
X138305714Y-93394580D02*
X138353333Y-93442200D01*
X138353333Y-93442200D02*
X138448571Y-93489819D01*
X138448571Y-93489819D02*
X138639047Y-93489819D01*
X138639047Y-93489819D02*
X138734285Y-93442200D01*
X138734285Y-93442200D02*
X138781904Y-93394580D01*
X138781904Y-93394580D02*
X138829523Y-93299342D01*
X138829523Y-93299342D02*
X138829523Y-92489819D01*
X139258095Y-92585057D02*
X139305714Y-92537438D01*
X139305714Y-92537438D02*
X139400952Y-92489819D01*
X139400952Y-92489819D02*
X139639047Y-92489819D01*
X139639047Y-92489819D02*
X139734285Y-92537438D01*
X139734285Y-92537438D02*
X139781904Y-92585057D01*
X139781904Y-92585057D02*
X139829523Y-92680295D01*
X139829523Y-92680295D02*
X139829523Y-92775533D01*
X139829523Y-92775533D02*
X139781904Y-92918390D01*
X139781904Y-92918390D02*
X139210476Y-93489819D01*
X139210476Y-93489819D02*
X139829523Y-93489819D01*
X116428628Y-89386190D02*
X116904819Y-89386190D01*
X115904819Y-89719523D02*
X116428628Y-89386190D01*
X116428628Y-89386190D02*
X115904819Y-89052857D01*
X116904819Y-88195714D02*
X116904819Y-88767142D01*
X116904819Y-88481428D02*
X115904819Y-88481428D01*
X115904819Y-88481428D02*
X116047676Y-88576666D01*
X116047676Y-88576666D02*
X116142914Y-88671904D01*
X116142914Y-88671904D02*
X116190533Y-88767142D01*
X115268119Y-109613366D02*
X114791928Y-109946699D01*
X115268119Y-110184794D02*
X114268119Y-110184794D01*
X114268119Y-110184794D02*
X114268119Y-109803842D01*
X114268119Y-109803842D02*
X114315738Y-109708604D01*
X114315738Y-109708604D02*
X114363357Y-109660985D01*
X114363357Y-109660985D02*
X114458595Y-109613366D01*
X114458595Y-109613366D02*
X114601452Y-109613366D01*
X114601452Y-109613366D02*
X114696690Y-109660985D01*
X114696690Y-109660985D02*
X114744309Y-109708604D01*
X114744309Y-109708604D02*
X114791928Y-109803842D01*
X114791928Y-109803842D02*
X114791928Y-110184794D01*
X114268119Y-109280032D02*
X114268119Y-108660985D01*
X114268119Y-108660985D02*
X114649071Y-108994318D01*
X114649071Y-108994318D02*
X114649071Y-108851461D01*
X114649071Y-108851461D02*
X114696690Y-108756223D01*
X114696690Y-108756223D02*
X114744309Y-108708604D01*
X114744309Y-108708604D02*
X114839547Y-108660985D01*
X114839547Y-108660985D02*
X115077642Y-108660985D01*
X115077642Y-108660985D02*
X115172880Y-108708604D01*
X115172880Y-108708604D02*
X115220500Y-108756223D01*
X115220500Y-108756223D02*
X115268119Y-108851461D01*
X115268119Y-108851461D02*
X115268119Y-109137175D01*
X115268119Y-109137175D02*
X115220500Y-109232413D01*
X115220500Y-109232413D02*
X115172880Y-109280032D01*
D13*
%TO.C,C39*%
X130569190Y-86678307D02*
X130721693Y-86830810D01*
X131078307Y-86169190D02*
X131230810Y-86321693D01*
%TO.C,J4*%
X102770000Y-84070000D02*
X102770000Y-117150000D01*
X102770000Y-84070000D02*
X105430000Y-84070000D01*
X102770000Y-117150000D02*
X105430000Y-117150000D01*
X104100000Y-81470000D02*
X105430000Y-81470000D01*
X105430000Y-81470000D02*
X105430000Y-82800000D01*
X105430000Y-84070000D02*
X105430000Y-117150000D01*
%TO.C,C4*%
X134585000Y-87257836D02*
X134585000Y-87042164D01*
X135305000Y-87257836D02*
X135305000Y-87042164D01*
%TO.C,R28*%
X124572659Y-95660060D02*
X124789940Y-95877341D01*
X125110060Y-95122659D02*
X125327341Y-95339940D01*
%TO.C,C42*%
X119405464Y-109836700D02*
X119621136Y-109836700D01*
X119405464Y-110556700D02*
X119621136Y-110556700D01*
%TO.C,C26*%
X121521693Y-83069190D02*
X121369190Y-83221693D01*
X122030810Y-83578307D02*
X121878307Y-83730810D01*
%TO.C,R36*%
X157570000Y-82906359D02*
X157570000Y-83213641D01*
X158330000Y-82906359D02*
X158330000Y-83213641D01*
%TO.C,J3*%
X133550000Y-117790000D02*
X134880000Y-117790000D01*
X133550000Y-118900000D02*
X133550000Y-117790000D01*
X133550000Y-120360000D02*
X143830000Y-120360000D01*
X133550000Y-128990000D02*
X133550000Y-120360000D01*
X133550000Y-128990000D02*
X143830000Y-128990000D01*
X133670000Y-128990000D02*
X133670000Y-120360000D01*
X133788095Y-128990000D02*
X133788095Y-120360000D01*
X133906190Y-128990000D02*
X133906190Y-120360000D01*
X134024285Y-128990000D02*
X134024285Y-120360000D01*
X134142380Y-128990000D02*
X134142380Y-120360000D01*
X134260475Y-128990000D02*
X134260475Y-120360000D01*
X134378570Y-128990000D02*
X134378570Y-120360000D01*
X134496665Y-128990000D02*
X134496665Y-120360000D01*
X134520000Y-120360000D02*
X134520000Y-120010000D01*
X134614760Y-128990000D02*
X134614760Y-120360000D01*
X134732855Y-128990000D02*
X134732855Y-120360000D01*
X134850950Y-128990000D02*
X134850950Y-120360000D01*
X134969045Y-128990000D02*
X134969045Y-120360000D01*
X135087140Y-128990000D02*
X135087140Y-120360000D01*
X135205235Y-128990000D02*
X135205235Y-120360000D01*
X135240000Y-120360000D02*
X135240000Y-120010000D01*
X135323330Y-128990000D02*
X135323330Y-120360000D01*
X135441425Y-128990000D02*
X135441425Y-120360000D01*
X135559520Y-128990000D02*
X135559520Y-120360000D01*
X135677615Y-128990000D02*
X135677615Y-120360000D01*
X135795710Y-128990000D02*
X135795710Y-120360000D01*
X135913805Y-128990000D02*
X135913805Y-120360000D01*
X136031900Y-128990000D02*
X136031900Y-120360000D01*
X136150000Y-128990000D02*
X136150000Y-120360000D01*
X137060000Y-120360000D02*
X137060000Y-119950000D01*
X137780000Y-120360000D02*
X137780000Y-119950000D01*
X138690000Y-128990000D02*
X138690000Y-120360000D01*
X139600000Y-120360000D02*
X139600000Y-119950000D01*
X140320000Y-120360000D02*
X140320000Y-119950000D01*
X141230000Y-128990000D02*
X141230000Y-120360000D01*
X142140000Y-120360000D02*
X142140000Y-119950000D01*
X142860000Y-120360000D02*
X142860000Y-119950000D01*
X143830000Y-128990000D02*
X143830000Y-120360000D01*
%TO.C,R31*%
X181846359Y-92720000D02*
X182153641Y-92720000D01*
X181846359Y-93480000D02*
X182153641Y-93480000D01*
D11*
%TO.C,U7*%
X147969936Y-91260049D02*
X147969936Y-93060075D01*
X148115885Y-91260049D02*
X147969936Y-91260049D01*
X148115885Y-93060075D02*
X147969936Y-93060075D01*
X149065872Y-93060075D02*
X149024191Y-93060075D01*
X150015809Y-91260049D02*
X149024166Y-91260049D01*
X150015809Y-93060075D02*
X149974153Y-93060075D01*
X151069962Y-91260049D02*
X150924089Y-91260049D01*
X151069962Y-91260049D02*
X151069962Y-93060075D01*
X151069962Y-93060075D02*
X150924115Y-93060075D01*
D14*
X148099883Y-93560024D02*
G75*
G02*
X148039939Y-93560024I-29972J0D01*
G01*
X148039939Y-93560024D02*
G75*
G02*
X148099883Y-93560024I29972J0D01*
G01*
D13*
X148538830Y-92367149D02*
X148572386Y-92376973D01*
X148603357Y-92393200D01*
X148630533Y-92415199D01*
X148652856Y-92442110D01*
X148669453Y-92472884D01*
X148679678Y-92506320D01*
X148683131Y-92541113D01*
X148679678Y-92575907D01*
X148669453Y-92609343D01*
X148652856Y-92640117D01*
X148630533Y-92667028D01*
X148603357Y-92689026D01*
X148572386Y-92705254D01*
X148538830Y-92715078D01*
X148503998Y-92718114D01*
X148469166Y-92715078D01*
X148435610Y-92705254D01*
X148404639Y-92689026D01*
X148377462Y-92667028D01*
X148355140Y-92640117D01*
X148338543Y-92609343D01*
X148328318Y-92575907D01*
X148324865Y-92541113D01*
X148328318Y-92506320D01*
X148338543Y-92472884D01*
X148355140Y-92442110D01*
X148377462Y-92415199D01*
X148404639Y-92393200D01*
X148435610Y-92376973D01*
X148469166Y-92367149D01*
X148503998Y-92364113D01*
X148538830Y-92367149D01*
G36*
X148538830Y-92367149D02*
G01*
X148572386Y-92376973D01*
X148603357Y-92393200D01*
X148630533Y-92415199D01*
X148652856Y-92442110D01*
X148669453Y-92472884D01*
X148679678Y-92506320D01*
X148683131Y-92541113D01*
X148679678Y-92575907D01*
X148669453Y-92609343D01*
X148652856Y-92640117D01*
X148630533Y-92667028D01*
X148603357Y-92689026D01*
X148572386Y-92705254D01*
X148538830Y-92715078D01*
X148503998Y-92718114D01*
X148469166Y-92715078D01*
X148435610Y-92705254D01*
X148404639Y-92689026D01*
X148377462Y-92667028D01*
X148355140Y-92640117D01*
X148338543Y-92609343D01*
X148328318Y-92575907D01*
X148324865Y-92541113D01*
X148328318Y-92506320D01*
X148338543Y-92472884D01*
X148355140Y-92442110D01*
X148377462Y-92415199D01*
X148404639Y-92393200D01*
X148435610Y-92376973D01*
X148469166Y-92367149D01*
X148503998Y-92364113D01*
X148538830Y-92367149D01*
G37*
%TO.C,C13*%
X128530000Y-98514664D02*
X128530000Y-98730336D01*
X129250000Y-98514664D02*
X129250000Y-98730336D01*
%TO.C,R21*%
X146856359Y-82610000D02*
X147163641Y-82610000D01*
X146856359Y-83370000D02*
X147163641Y-83370000D01*
%TO.C,C11*%
X131592164Y-91090000D02*
X131807836Y-91090000D01*
X131592164Y-91810000D02*
X131807836Y-91810000D01*
%TO.C,R9*%
X159703641Y-83120000D02*
X159396359Y-83120000D01*
X159703641Y-83880000D02*
X159396359Y-83880000D01*
%TO.C,R10*%
X173676359Y-117330000D02*
X173983641Y-117330000D01*
X173676359Y-118090000D02*
X173983641Y-118090000D01*
%TO.C,R2*%
X123770000Y-111963641D02*
X123770000Y-111656359D01*
X124530000Y-111963641D02*
X124530000Y-111656359D01*
D15*
%TO.C,FLASH1*%
X144560000Y-84650000D02*
X144790000Y-84650000D01*
X144560000Y-88650000D02*
X144560000Y-84650000D01*
X144560000Y-88650000D02*
X144790000Y-88650000D01*
X147230000Y-84650000D02*
X147460000Y-84650000D01*
X147460000Y-84650000D02*
X147460000Y-88650000D01*
X147460000Y-88650000D02*
X147230000Y-88650000D01*
D13*
%TO.C,MK1*%
X147535000Y-123846500D02*
X147535000Y-120446500D01*
X147835000Y-120146500D02*
X150385000Y-120146500D01*
X150385000Y-120146500D02*
X150385000Y-123846500D01*
X150385000Y-123846500D02*
X147535000Y-123846500D01*
X147535000Y-120146500D02*
X147255000Y-120146500D01*
X147535000Y-119866500D01*
X147535000Y-120146500D01*
G36*
X147535000Y-120146500D02*
G01*
X147255000Y-120146500D01*
X147535000Y-119866500D01*
X147535000Y-120146500D01*
G37*
%TO.C,D2*%
X109415000Y-83000000D02*
X109415000Y-85285000D01*
X109415000Y-85285000D02*
X110885000Y-85285000D01*
X110885000Y-85285000D02*
X110885000Y-83000000D01*
%TO.C,R1*%
X143370000Y-104626359D02*
X143370000Y-104933641D01*
X144130000Y-104626359D02*
X144130000Y-104933641D01*
%TO.C,C33*%
X139265000Y-86492164D02*
X139265000Y-86707836D01*
X139985000Y-86492164D02*
X139985000Y-86707836D01*
%TO.C,R18*%
X124870000Y-111973641D02*
X124870000Y-111666359D01*
X125630000Y-111973641D02*
X125630000Y-111666359D01*
%TO.C,DNP1*%
X129030000Y-83027836D02*
X129030000Y-82812164D01*
X129750000Y-83027836D02*
X129750000Y-82812164D01*
%TO.C,C37*%
X112357836Y-91040000D02*
X112142164Y-91040000D01*
X112357836Y-91760000D02*
X112142164Y-91760000D01*
%TO.C,R35*%
X126270000Y-114726359D02*
X126270000Y-115033641D01*
X127030000Y-114726359D02*
X127030000Y-115033641D01*
D12*
%TO.C,U5*%
X160100000Y-99550000D02*
X160100000Y-116050000D01*
X160100000Y-116050000D02*
X160850000Y-116050000D01*
X160850000Y-99550000D02*
X160100000Y-99550000D01*
X176850000Y-99550000D02*
X177600000Y-99550000D01*
X177600000Y-99550000D02*
X177600000Y-116050000D01*
X177600000Y-116050000D02*
X176850000Y-116050000D01*
D13*
X177350000Y-99250000D02*
X176850000Y-99250000D01*
X176850000Y-98750000D01*
X177350000Y-99250000D01*
G36*
X177350000Y-99250000D02*
G01*
X176850000Y-99250000D01*
X176850000Y-98750000D01*
X177350000Y-99250000D01*
G37*
%TO.C,R13*%
X109580000Y-91153641D02*
X109580000Y-90846359D01*
X108820000Y-91153641D02*
X108820000Y-90846359D01*
%TO.C,L1*%
X176206359Y-97330000D02*
X176513641Y-97330000D01*
X176206359Y-98090000D02*
X176513641Y-98090000D01*
%TO.C,C8*%
X118305464Y-98186700D02*
X118521136Y-98186700D01*
X118305464Y-98906700D02*
X118521136Y-98906700D01*
%TO.C,R27*%
X125972659Y-97510060D02*
X126189940Y-97727341D01*
X126510060Y-96972659D02*
X126727341Y-97189940D01*
D16*
%TO.C,J1*%
X164883985Y-74690052D02*
X164883985Y-77600060D01*
X164883985Y-80099577D02*
X164883985Y-87592592D01*
X171250000Y-75400060D02*
X168312992Y-74702981D01*
X179616015Y-74690027D02*
X164883985Y-74690052D01*
X179616015Y-75175396D02*
X179616015Y-75400060D01*
X179616015Y-75400060D02*
X171250000Y-75400060D01*
X179616015Y-77750123D02*
X179616015Y-74690027D01*
X179616015Y-87672247D02*
X179616015Y-80163103D01*
D14*
X164229934Y-89740065D02*
G75*
G02*
X164169990Y-89740065I-29972J0D01*
G01*
X164169990Y-89740065D02*
G75*
G02*
X164229934Y-89740065I29972J0D01*
G01*
D13*
%TO.C,R23*%
X133495000Y-87293641D02*
X133495000Y-86986359D01*
X134255000Y-87293641D02*
X134255000Y-86986359D01*
%TO.C,J6*%
X183770000Y-96870000D02*
X183770000Y-104550000D01*
X183770000Y-96870000D02*
X186430000Y-96870000D01*
X183770000Y-104550000D02*
X186430000Y-104550000D01*
X185100000Y-94270000D02*
X186430000Y-94270000D01*
X186430000Y-94270000D02*
X186430000Y-95600000D01*
X186430000Y-96870000D02*
X186430000Y-104550000D01*
%TO.C,R24*%
X133731359Y-89690000D02*
X134038641Y-89690000D01*
X133731359Y-90450000D02*
X134038641Y-90450000D01*
%TO.C,U9*%
X110830000Y-105860000D02*
X110880000Y-105860000D01*
X110830000Y-107680000D02*
X110830000Y-105860000D01*
X110880000Y-107680000D02*
X110830000Y-107680000D01*
X113900000Y-105860000D02*
X113950000Y-105860000D01*
X113950000Y-105860000D02*
X113950000Y-107680000D01*
X113950000Y-107680000D02*
X113900000Y-107680000D01*
X110880000Y-108220000D02*
X110550000Y-108460000D01*
X110550000Y-107980000D01*
X110880000Y-108220000D01*
G36*
X110880000Y-108220000D02*
G01*
X110550000Y-108460000D01*
X110550000Y-107980000D01*
X110880000Y-108220000D01*
G37*
%TO.C,U6*%
X123710000Y-113730000D02*
X123710000Y-114780000D01*
X125690000Y-113730000D02*
X125690000Y-115030000D01*
X123710000Y-115430000D02*
X123430000Y-115150000D01*
X123710000Y-115150000D01*
X123710000Y-115430000D01*
G36*
X123710000Y-115430000D02*
G01*
X123430000Y-115150000D01*
X123710000Y-115150000D01*
X123710000Y-115430000D01*
G37*
%TO.C,R14*%
X170630000Y-92163641D02*
X170630000Y-91856359D01*
X171390000Y-92163641D02*
X171390000Y-91856359D01*
%TO.C,R11*%
X107880000Y-107566359D02*
X107880000Y-107873641D01*
X108640000Y-107566359D02*
X108640000Y-107873641D01*
D17*
%TO.C,U11*%
X153000013Y-85299987D02*
X153069812Y-85299987D01*
X153000013Y-94999987D02*
X153000013Y-85299987D01*
X153069812Y-94999987D02*
X153000013Y-94999987D01*
X154180099Y-85299987D02*
X154219901Y-85299987D01*
X154219901Y-94999987D02*
X154180099Y-94999987D01*
X155280175Y-85299987D02*
X155319977Y-85299987D01*
X155319977Y-94999987D02*
X155280175Y-94999987D01*
X156380251Y-85299987D02*
X156419799Y-85299987D01*
X156419799Y-94999987D02*
X156380251Y-94999987D01*
X157480074Y-85299987D02*
X157519876Y-85299987D01*
X157519876Y-94999987D02*
X157480074Y-94999987D01*
X158580150Y-85299987D02*
X158619952Y-85299987D01*
X158619952Y-94999987D02*
X158580150Y-94999987D01*
X159680226Y-85299987D02*
X159719774Y-85299987D01*
X159719774Y-94999987D02*
X159680226Y-94999987D01*
X160780048Y-85299987D02*
X160819850Y-85299987D01*
X160819850Y-94999987D02*
X160780048Y-94999987D01*
X161880124Y-85299987D02*
X161919926Y-85299987D01*
X161919926Y-94999987D02*
X161880124Y-94999987D01*
X163030188Y-94999987D02*
X163100013Y-94999987D01*
X163100013Y-85299987D02*
X163030188Y-85299987D01*
X163100013Y-94999987D02*
X163100013Y-85299987D01*
D18*
X152849847Y-95600089D02*
G75*
G02*
X152450051Y-95600089I-199898J0D01*
G01*
X152450051Y-95600089D02*
G75*
G02*
X152849847Y-95600089I199898J0D01*
G01*
D14*
X153029985Y-95000013D02*
G75*
G02*
X152969989Y-95000013I-29998J0D01*
G01*
X152969989Y-95000013D02*
G75*
G02*
X153029985Y-95000013I29998J0D01*
G01*
D13*
%TO.C,U8*%
X117465800Y-106205400D02*
X119285800Y-106205400D01*
X117465800Y-106255400D02*
X117465800Y-106205400D01*
X117465800Y-109325400D02*
X117465800Y-109275400D01*
X119285800Y-106205400D02*
X119285800Y-106255400D01*
X119285800Y-109275400D02*
X119285800Y-109325400D01*
X119285800Y-109325400D02*
X117465800Y-109325400D01*
X120065800Y-109605400D02*
X119585800Y-109605400D01*
X119825800Y-109275400D01*
X120065800Y-109605400D01*
G36*
X120065800Y-109605400D02*
G01*
X119585800Y-109605400D01*
X119825800Y-109275400D01*
X120065800Y-109605400D01*
G37*
%TO.C,C43*%
X144610000Y-104857836D02*
X144610000Y-104642164D01*
X145330000Y-104857836D02*
X145330000Y-104642164D01*
%TO.C,J2*%
X112450000Y-118690000D02*
X112450000Y-121450000D01*
X115100000Y-118690000D02*
X112450000Y-118690000D01*
X115100000Y-118690000D02*
X115100000Y-121450000D01*
X115100000Y-121450000D02*
X112450000Y-121450000D01*
X116370000Y-118690000D02*
X117750000Y-118690000D01*
X117750000Y-118690000D02*
X117750000Y-120070000D01*
%TO.C,C2*%
X116160000Y-115732164D02*
X116160000Y-115947836D01*
X116880000Y-115732164D02*
X116880000Y-115947836D01*
%TO.C,R37*%
X174610000Y-92163641D02*
X174610000Y-91856359D01*
X175370000Y-92163641D02*
X175370000Y-91856359D01*
%TO.C,D3*%
X111215000Y-82365000D02*
X111215000Y-84650000D01*
X112685000Y-82365000D02*
X111215000Y-82365000D01*
X112685000Y-84650000D02*
X112685000Y-82365000D01*
D12*
%TO.C,J8*%
X157780000Y-75140000D02*
X157780000Y-75210000D01*
X157780000Y-77870000D02*
X157780000Y-77940000D01*
X157780000Y-77940000D02*
X158320000Y-77940000D01*
X158320000Y-75140000D02*
X157780000Y-75140000D01*
X158320000Y-75140000D02*
X159780000Y-75140000D01*
X159780000Y-77940000D02*
X160320000Y-77940000D01*
X160320000Y-75140000D02*
X159780000Y-75140000D01*
X160320000Y-75210000D02*
X160320000Y-75140000D01*
X160320000Y-77940000D02*
X160320000Y-77870000D01*
X159620000Y-76540000D02*
G75*
G02*
X158480000Y-76540000I-570000J0D01*
G01*
X158480000Y-76540000D02*
G75*
G02*
X159620000Y-76540000I570000J0D01*
G01*
X160580000Y-78090000D02*
G75*
G02*
X160520000Y-78090000I-30000J0D01*
G01*
X160520000Y-78090000D02*
G75*
G02*
X160580000Y-78090000I30000J0D01*
G01*
D13*
%TO.C,R19*%
X109280000Y-117266359D02*
X109280000Y-117573641D01*
X110040000Y-117266359D02*
X110040000Y-117573641D01*
%TO.C,SW1*%
X173510000Y-120570000D02*
X174610000Y-120570000D01*
X173510000Y-122090000D02*
X173510000Y-122170000D01*
X176830000Y-120570000D02*
X177930000Y-120570000D01*
X177930000Y-122090000D02*
X177930000Y-122170000D01*
%TO.C,TP1*%
X115593300Y-97306700D02*
X116993300Y-97306700D01*
X115593300Y-98706700D02*
X115593300Y-97306700D01*
X116993300Y-97306700D02*
X116993300Y-98706700D01*
X116993300Y-98706700D02*
X115593300Y-98706700D01*
%TO.C,C15*%
X143142164Y-82680000D02*
X143357836Y-82680000D01*
X143142164Y-83400000D02*
X143357836Y-83400000D01*
D12*
%TO.C,L4*%
X157190000Y-80340000D02*
X157190000Y-80660000D01*
X158210000Y-80340000D02*
X158210000Y-80660000D01*
D13*
%TO.C,C40*%
X131358590Y-85917707D02*
X131511093Y-86070210D01*
X131867707Y-85408590D02*
X132020210Y-85561093D01*
%TO.C,SW3*%
X167310000Y-120570000D02*
X168410000Y-120570000D01*
X167310000Y-122090000D02*
X167310000Y-122170000D01*
X170630000Y-120570000D02*
X171730000Y-120570000D01*
X171730000Y-122090000D02*
X171730000Y-122170000D01*
%TO.C,C16*%
X119905464Y-99526700D02*
X120121136Y-99526700D01*
X119905464Y-100246700D02*
X120121136Y-100246700D01*
%TO.C,C19*%
X126719190Y-83221693D02*
X126871693Y-83069190D01*
X127228307Y-83730810D02*
X127380810Y-83578307D01*
%TO.C,C10*%
X114597836Y-87370000D02*
X114382164Y-87370000D01*
X114597836Y-88090000D02*
X114382164Y-88090000D01*
%TO.C,R26*%
X126772659Y-96760060D02*
X126989940Y-96977341D01*
X127310060Y-96222659D02*
X127527341Y-96439940D01*
%TO.C,C1*%
X116660000Y-112777836D02*
X116660000Y-112562164D01*
X117380000Y-112777836D02*
X117380000Y-112562164D01*
%TO.C,L2*%
X110430000Y-98260000D02*
X111130000Y-98260000D01*
X110430000Y-102880000D02*
X110430000Y-98260000D01*
X111130000Y-102880000D02*
X110430000Y-102880000D01*
X114150000Y-98260000D02*
X114850000Y-98260000D01*
X114850000Y-98260000D02*
X114850000Y-102880000D01*
X114850000Y-102880000D02*
X114150000Y-102880000D01*
%TO.C,Y2*%
X135535000Y-85710000D02*
X135535000Y-88630000D01*
X135535000Y-88630000D02*
X138955000Y-88630000D01*
%TO.C,R29*%
X123472659Y-96060060D02*
X123689940Y-96277341D01*
X124010060Y-95522659D02*
X124227341Y-95739940D01*
%TO.C,C32*%
X129630000Y-98514664D02*
X129630000Y-98730336D01*
X130350000Y-98514664D02*
X130350000Y-98730336D01*
%TO.C,D1*%
X117585000Y-114220000D02*
X117585000Y-116505000D01*
X117585000Y-116505000D02*
X119055000Y-116505000D01*
X119055000Y-116505000D02*
X119055000Y-114220000D01*
%TO.C,R4*%
X152553641Y-107600000D02*
X152246359Y-107600000D01*
X152553641Y-108360000D02*
X152246359Y-108360000D01*
%TO.C,R12*%
X110330000Y-116206359D02*
X110330000Y-116513641D01*
X111090000Y-116206359D02*
X111090000Y-116513641D01*
%TO.C,C14*%
X133340000Y-83007836D02*
X133340000Y-82792164D01*
X134060000Y-83007836D02*
X134060000Y-82792164D01*
%TO.C,DNP2*%
X173850000Y-97317836D02*
X173850000Y-97102164D01*
X174570000Y-97317836D02*
X174570000Y-97102164D01*
%TO.C,R17*%
X172620000Y-92163641D02*
X172620000Y-91856359D01*
X173380000Y-92163641D02*
X173380000Y-91856359D01*
%TO.C,R34*%
X122520000Y-114626359D02*
X122520000Y-114933641D01*
X123280000Y-114626359D02*
X123280000Y-114933641D01*
%TO.C,C3*%
X112803300Y-95965336D02*
X112803300Y-95749664D01*
X113523300Y-95965336D02*
X113523300Y-95749664D01*
%TO.C,U1*%
X121400000Y-86020000D02*
X122050000Y-86020000D01*
X121400000Y-86670000D02*
X121400000Y-86020000D01*
X121400000Y-93240000D02*
X121400000Y-92590000D01*
X122050000Y-93240000D02*
X121400000Y-93240000D01*
X127970000Y-86020000D02*
X128620000Y-86020000D01*
X128620000Y-86020000D02*
X128620000Y-86670000D01*
X128620000Y-92590000D02*
X128620000Y-93240000D01*
X128620000Y-93240000D02*
X127970000Y-93240000D01*
X127610000Y-85520000D02*
X127370000Y-85190000D01*
X127850000Y-85190000D01*
X127610000Y-85520000D01*
G36*
X127610000Y-85520000D02*
G01*
X127370000Y-85190000D01*
X127850000Y-85190000D01*
X127610000Y-85520000D01*
G37*
%TO.C,U14*%
X135320000Y-106297500D02*
X135795000Y-106297500D01*
X135320000Y-106772500D02*
X135320000Y-106297500D01*
X135320000Y-109517500D02*
X135320000Y-109042500D01*
X135795000Y-109517500D02*
X135320000Y-109517500D01*
X138065000Y-106297500D02*
X138540000Y-106297500D01*
X138540000Y-106297500D02*
X138540000Y-106772500D01*
X138540000Y-109042500D02*
X138540000Y-109517500D01*
X138540000Y-109517500D02*
X138065000Y-109517500D01*
X136420000Y-110357500D02*
X135940000Y-110357500D01*
X136180000Y-110027500D01*
X136420000Y-110357500D01*
G36*
X136420000Y-110357500D02*
G01*
X135940000Y-110357500D01*
X136180000Y-110027500D01*
X136420000Y-110357500D01*
G37*
D16*
%TO.C,U4*%
X120274966Y-120903035D02*
X120274966Y-119112052D01*
X124148372Y-118634125D02*
X124148372Y-119142126D01*
X124148372Y-119142126D02*
X125291374Y-119142126D01*
X125291374Y-118634125D02*
X124148372Y-118634125D01*
X125291374Y-119142126D02*
X125291374Y-118634125D01*
X129164983Y-120903035D02*
X129164983Y-119112052D01*
D13*
%TO.C,U3*%
X112510000Y-113747500D02*
X112560000Y-113747500D01*
X112510000Y-115567500D02*
X112510000Y-113747500D01*
X112560000Y-115567500D02*
X112510000Y-115567500D01*
X113680000Y-113747500D02*
X114460000Y-113747500D01*
X115580000Y-113747500D02*
X115630000Y-113747500D01*
X115630000Y-113747500D02*
X115630000Y-115567500D01*
X115630000Y-115567500D02*
X115580000Y-115567500D01*
X112560000Y-116107500D02*
X112230000Y-116347500D01*
X112230000Y-115867500D01*
X112560000Y-116107500D01*
G36*
X112560000Y-116107500D02*
G01*
X112230000Y-116347500D01*
X112230000Y-115867500D01*
X112560000Y-116107500D01*
G37*
%TO.C,U13*%
X146817500Y-100610000D02*
X147567500Y-100610000D01*
X146817500Y-101360000D02*
X146817500Y-100610000D01*
X146817500Y-106830000D02*
X146817500Y-106080000D01*
X147567500Y-106830000D02*
X146817500Y-106830000D01*
X152287500Y-100610000D02*
X153037500Y-100610000D01*
X153037500Y-100610000D02*
X153037500Y-101360000D01*
X153037500Y-106080000D02*
X153037500Y-106830000D01*
X153037500Y-106830000D02*
X152287500Y-106830000D01*
X146317500Y-101770000D02*
X145987500Y-102010000D01*
X145987500Y-101530000D01*
X146317500Y-101770000D01*
G36*
X146317500Y-101770000D02*
G01*
X145987500Y-102010000D01*
X145987500Y-101530000D01*
X146317500Y-101770000D01*
G37*
%TO.C,C6*%
X121407836Y-113870000D02*
X121192164Y-113870000D01*
X121407836Y-114590000D02*
X121192164Y-114590000D01*
%TO.C,R16*%
X108320000Y-84538641D02*
X108320000Y-84231359D01*
X109080000Y-84538641D02*
X109080000Y-84231359D01*
%TO.C,DNP4*%
X178200000Y-98102164D02*
X178200000Y-98317836D01*
X178920000Y-98102164D02*
X178920000Y-98317836D01*
%TO.C,C25*%
X120121693Y-83069190D02*
X119969190Y-83221693D01*
X120630810Y-83578307D02*
X120478307Y-83730810D01*
%TO.C,U10*%
X116453300Y-99836700D02*
X116453300Y-100886700D01*
X118773300Y-99836700D02*
X118773300Y-101136700D01*
X116453300Y-101526700D02*
X116173300Y-101246700D01*
X116453300Y-101246700D01*
X116453300Y-101526700D01*
G36*
X116453300Y-101526700D02*
G01*
X116173300Y-101246700D01*
X116453300Y-101246700D01*
X116453300Y-101526700D01*
G37*
%TO.C,C38*%
X112180000Y-89062164D02*
X112180000Y-89277836D01*
X112900000Y-89062164D02*
X112900000Y-89277836D01*
%TO.C,R15*%
X118016359Y-117040000D02*
X118323641Y-117040000D01*
X118016359Y-117800000D02*
X118323641Y-117800000D01*
D15*
%TO.C,RESET1*%
X140800000Y-84640000D02*
X141030000Y-84640000D01*
X140800000Y-88640000D02*
X140800000Y-84640000D01*
X140800000Y-88640000D02*
X141030000Y-88640000D01*
X143470000Y-84640000D02*
X143700000Y-84640000D01*
X143700000Y-84640000D02*
X143700000Y-88640000D01*
X143700000Y-88640000D02*
X143470000Y-88640000D01*
D13*
%TO.C,R22*%
X141373641Y-82660000D02*
X141066359Y-82660000D01*
X141373641Y-83420000D02*
X141066359Y-83420000D01*
%TO.C,C31*%
X131200000Y-82762164D02*
X131200000Y-82977836D01*
X131920000Y-82762164D02*
X131920000Y-82977836D01*
%TO.C,R25*%
X112970000Y-83246359D02*
X112970000Y-83553641D01*
X113730000Y-83246359D02*
X113730000Y-83553641D01*
%TO.C,JP3*%
X130457500Y-109537500D02*
X130457500Y-106737500D01*
X131157500Y-106087500D02*
X131757500Y-106087500D01*
X131757500Y-110187500D02*
X131157500Y-110187500D01*
X132457500Y-106737500D02*
X132457500Y-109537500D01*
X132657500Y-109337500D02*
X132957500Y-109037500D01*
X132657500Y-109337500D02*
X132957500Y-109637500D01*
X132957500Y-109637500D02*
X132957500Y-109037500D01*
X130457500Y-106787500D02*
G75*
G02*
X131157500Y-106087500I700000J0D01*
G01*
X131157500Y-110187500D02*
G75*
G02*
X130457500Y-109487500I-1J699999D01*
G01*
X131757500Y-106087500D02*
G75*
G02*
X132457500Y-106787500I0J-700000D01*
G01*
X132457500Y-109487500D02*
G75*
G02*
X131757500Y-110187500I-699999J-1D01*
G01*
%TO.C,J5*%
X155270000Y-123330000D02*
X155270000Y-121950000D01*
X156650000Y-123330000D02*
X155270000Y-123330000D01*
X157920000Y-120570000D02*
X160570000Y-120570000D01*
X157920000Y-123330000D02*
X157920000Y-120570000D01*
X157920000Y-123330000D02*
X160570000Y-123330000D01*
X160570000Y-123330000D02*
X160570000Y-120570000D01*
%TO.C,DNP6*%
X161542164Y-82590000D02*
X161757836Y-82590000D01*
X161542164Y-83310000D02*
X161757836Y-83310000D01*
%TO.C,R30*%
X122272659Y-96410060D02*
X122489940Y-96627341D01*
X122810060Y-95872659D02*
X123027341Y-96089940D01*
%TO.C,C18*%
X122921693Y-83069190D02*
X122769190Y-83221693D01*
X123430810Y-83578307D02*
X123278307Y-83730810D01*
%TO.C,C22*%
X121407836Y-114920000D02*
X121192164Y-114920000D01*
X121407836Y-115640000D02*
X121192164Y-115640000D01*
%TO.C,SW2*%
X183770000Y-83730000D02*
X185150000Y-83730000D01*
X183770000Y-85110000D02*
X183770000Y-83730000D01*
X183770000Y-86380000D02*
X183770000Y-89030000D01*
X183770000Y-86380000D02*
X186530000Y-86380000D01*
X183770000Y-89030000D02*
X186530000Y-89030000D01*
X186530000Y-86380000D02*
X186530000Y-89030000D01*
%TO.C,U2*%
X132640000Y-94040000D02*
X138160000Y-94040000D01*
X132640000Y-94310000D02*
X132640000Y-94040000D01*
X132640000Y-99560000D02*
X132640000Y-99290000D01*
X138160000Y-94040000D02*
X138160000Y-94310000D01*
X138160000Y-99290000D02*
X138160000Y-99560000D01*
X138160000Y-99560000D02*
X132640000Y-99560000D01*
X139330000Y-99770000D02*
X138650000Y-99770000D01*
X138990000Y-99300000D01*
X139330000Y-99770000D01*
G36*
X139330000Y-99770000D02*
G01*
X138650000Y-99770000D01*
X138990000Y-99300000D01*
X139330000Y-99770000D01*
G37*
%TO.C,C17*%
X111723300Y-95957836D02*
X111723300Y-95742164D01*
X112443300Y-95957836D02*
X112443300Y-95742164D01*
%TO.C,DNP7*%
X161542164Y-81190000D02*
X161757836Y-81190000D01*
X161542164Y-81910000D02*
X161757836Y-81910000D01*
%TO.C,Y1*%
X113575000Y-89575000D02*
X113575000Y-90925000D01*
X115325000Y-89575000D02*
X115325000Y-90925000D01*
%TO.C,R3*%
X114433300Y-107293059D02*
X114433300Y-107600341D01*
X115193300Y-107293059D02*
X115193300Y-107600341D01*
%TD*%
%LPC*%
%TO.C,JP3*%
G36*
X130707500Y-108887500D02*
G01*
X132207500Y-108887500D01*
X132207500Y-107387500D01*
X130707500Y-107387500D01*
X130707500Y-108887500D01*
G37*
%TD*%
D19*
%TO.C,C39*%
X130560589Y-86160589D03*
X131239411Y-86839411D03*
%TD*%
D20*
%TO.C,J4*%
X104100000Y-82800000D03*
D21*
X104100000Y-85340000D03*
X104100000Y-87880000D03*
X104100000Y-90420000D03*
X104100000Y-92960000D03*
X104100000Y-95500000D03*
X104100000Y-98040000D03*
X104100000Y-100580000D03*
X104100000Y-103120000D03*
X104100000Y-105660000D03*
X104100000Y-108200000D03*
X104100000Y-110740000D03*
X104100000Y-113280000D03*
X104100000Y-115820000D03*
%TD*%
D22*
%TO.C,C4*%
X134945000Y-87630000D03*
X134945000Y-86670000D03*
%TD*%
D23*
%TO.C,R28*%
X124589376Y-95139376D03*
X125310624Y-95860624D03*
%TD*%
D24*
%TO.C,C42*%
X119033300Y-110196700D03*
X119993300Y-110196700D03*
%TD*%
D25*
%TO.C,C26*%
X122039411Y-83060589D03*
X121360589Y-83739411D03*
%TD*%
D26*
%TO.C,R36*%
X157950000Y-82550000D03*
X157950000Y-83570000D03*
%TD*%
D20*
%TO.C,J3*%
X134880000Y-118900000D03*
D21*
X137420000Y-118900000D03*
X139960000Y-118900000D03*
X142500000Y-118900000D03*
%TD*%
D27*
%TO.C,R31*%
X181490000Y-93100000D03*
X182510000Y-93100000D03*
%TD*%
D28*
%TO.C,U7*%
X148570038Y-93460202D03*
X149520000Y-93460202D03*
X150469962Y-93460202D03*
X150469962Y-90859998D03*
X148570038Y-90859998D03*
%TD*%
D29*
%TO.C,C13*%
X128890000Y-98142500D03*
X128890000Y-99102500D03*
%TD*%
D27*
%TO.C,R21*%
X146500000Y-82990000D03*
X147520000Y-82990000D03*
%TD*%
D30*
%TO.C,R20*%
X112970000Y-111770000D03*
X113970000Y-111770000D03*
%TD*%
D24*
%TO.C,C11*%
X131220000Y-91450000D03*
X132180000Y-91450000D03*
%TD*%
D30*
%TO.C,C34*%
X148570000Y-89610100D03*
X149570000Y-89610100D03*
%TD*%
D31*
%TO.C,R32*%
X120513300Y-100936700D03*
X119513300Y-100936700D03*
%TD*%
D32*
%TO.C,R9*%
X160060000Y-83500000D03*
X159040000Y-83500000D03*
%TD*%
D27*
%TO.C,R10*%
X173320000Y-117710000D03*
X174340000Y-117710000D03*
%TD*%
D33*
%TO.C,R2*%
X124150000Y-112320000D03*
X124150000Y-111300000D03*
%TD*%
D34*
%TO.C,FLASH1*%
X146010000Y-84575000D03*
X146010000Y-88725000D03*
%TD*%
D35*
%TO.C,MK1*%
X148960000Y-122706500D03*
D36*
X148060000Y-120632500D03*
X148060000Y-121454500D03*
D37*
X149622000Y-122706500D03*
D36*
X149860000Y-121454500D03*
X149860000Y-120632500D03*
X148960000Y-120632500D03*
%TD*%
D31*
%TO.C,C29*%
X156900000Y-83550000D03*
X155900000Y-83550000D03*
%TD*%
D38*
%TO.C,D2*%
X110150000Y-84587500D03*
X110150000Y-83012500D03*
%TD*%
D39*
%TO.C,C12*%
X109563300Y-101716700D03*
X109563300Y-103276700D03*
%TD*%
D40*
%TO.C,U12*%
X185500002Y-114549884D03*
X185500002Y-109450062D03*
X185500002Y-111999973D03*
%TD*%
D31*
%TO.C,C20*%
X151320000Y-88360100D03*
X150320000Y-88360100D03*
%TD*%
D26*
%TO.C,R1*%
X143750000Y-104270000D03*
X143750000Y-105290000D03*
%TD*%
D29*
%TO.C,C33*%
X139625000Y-86120000D03*
X139625000Y-87080000D03*
%TD*%
D33*
%TO.C,R18*%
X125250000Y-112330000D03*
X125250000Y-111310000D03*
%TD*%
D41*
%TO.C,C7*%
X170713553Y-97263553D03*
X170006447Y-96556447D03*
%TD*%
D22*
%TO.C,DNP1*%
X129390000Y-83400000D03*
X129390000Y-82440000D03*
%TD*%
D42*
%TO.C,C37*%
X112730000Y-91400000D03*
X111770000Y-91400000D03*
%TD*%
D26*
%TO.C,R35*%
X126650000Y-114370000D03*
X126650000Y-115390000D03*
%TD*%
D43*
%TO.C,U5*%
X175850000Y-99800000D03*
X173850000Y-99800000D03*
X171850000Y-99800000D03*
X169850000Y-99800000D03*
X167850000Y-99800000D03*
X165850000Y-99800000D03*
X163850000Y-99800000D03*
X161850000Y-99800000D03*
X161850000Y-115800000D03*
X163850000Y-115800000D03*
X165850000Y-115800000D03*
X167850000Y-115800000D03*
X169850000Y-115800000D03*
X171850000Y-115800000D03*
X173850000Y-115800000D03*
X175850000Y-115800000D03*
%TD*%
D33*
%TO.C,R13*%
X109200000Y-91510000D03*
X109200000Y-90490000D03*
%TD*%
D27*
%TO.C,L1*%
X175850000Y-97710000D03*
X176870000Y-97710000D03*
%TD*%
D24*
%TO.C,C8*%
X117933300Y-98546700D03*
X118893300Y-98546700D03*
%TD*%
D44*
%TO.C,R39*%
X127690000Y-102770000D03*
X127690000Y-103770000D03*
%TD*%
D23*
%TO.C,R27*%
X125989376Y-96989376D03*
X126710624Y-97710624D03*
%TD*%
D44*
%TO.C,R42*%
X134890000Y-115500000D03*
X134890000Y-116500000D03*
%TD*%
D45*
%TO.C,R38*%
X137970000Y-111547500D03*
X137970000Y-110547500D03*
%TD*%
D30*
%TO.C,R8*%
X153750000Y-83500000D03*
X154750000Y-83500000D03*
%TD*%
D46*
%TO.C,J1*%
X177199962Y-78700009D03*
X169199962Y-78700009D03*
D47*
X170009995Y-89542199D03*
X171110046Y-89542199D03*
X172210097Y-89542199D03*
X173310147Y-89542199D03*
X174409970Y-89542199D03*
X175510020Y-89542199D03*
X176610071Y-89542199D03*
X177709893Y-89542199D03*
X178809995Y-89541792D03*
D48*
X180009995Y-88691805D03*
D49*
X180009995Y-78990001D03*
X164490030Y-78990001D03*
D48*
X165329985Y-88691805D03*
%TD*%
D33*
%TO.C,R23*%
X133875000Y-87650000D03*
X133875000Y-86630000D03*
%TD*%
D20*
%TO.C,J6*%
X185100000Y-95600000D03*
D21*
X185100000Y-98140000D03*
X185100000Y-100680000D03*
X185100000Y-103220000D03*
%TD*%
D27*
%TO.C,R24*%
X133375000Y-90070000D03*
X134395000Y-90070000D03*
%TD*%
D50*
%TO.C,U9*%
X111440000Y-107907500D03*
X112390000Y-107907500D03*
X113340000Y-107907500D03*
X113340000Y-105632500D03*
X112390000Y-105632500D03*
X111440000Y-105632500D03*
%TD*%
D44*
%TO.C,R41*%
X137420000Y-115480000D03*
X137420000Y-116480000D03*
%TD*%
D51*
%TO.C,U6*%
X124162500Y-115230000D03*
D52*
X124700000Y-115305000D03*
D51*
X125237500Y-115230000D03*
X125237500Y-113530000D03*
D52*
X124700000Y-113455000D03*
D51*
X124162500Y-113530000D03*
%TD*%
D33*
%TO.C,R14*%
X171010000Y-92520000D03*
X171010000Y-91500000D03*
%TD*%
D26*
%TO.C,R11*%
X108260000Y-107210000D03*
X108260000Y-108230000D03*
%TD*%
D53*
%TO.C,U11*%
X153649949Y-94850025D03*
X154750025Y-94850025D03*
X155850102Y-94850025D03*
X156949924Y-94850025D03*
X158050000Y-94850025D03*
X159150076Y-94850025D03*
X160249898Y-94850025D03*
X161349975Y-94850025D03*
X162450051Y-94850025D03*
X162450051Y-85449975D03*
X161349975Y-85449975D03*
X160249898Y-85449975D03*
X159150076Y-85449975D03*
X158050000Y-85449975D03*
X156949924Y-85449975D03*
X155850102Y-85449975D03*
X154750025Y-85449975D03*
X153649949Y-85449975D03*
%TD*%
D54*
%TO.C,U8*%
X119513300Y-108715400D03*
X119513300Y-107765400D03*
X119513300Y-106815400D03*
X117238300Y-106815400D03*
X117238300Y-107765400D03*
X117238300Y-108715400D03*
%TD*%
D22*
%TO.C,C43*%
X144970000Y-105230000D03*
X144970000Y-104270000D03*
%TD*%
D31*
%TO.C,C35*%
X117713300Y-105496700D03*
X116713300Y-105496700D03*
%TD*%
D20*
%TO.C,J2*%
X116370000Y-120070000D03*
D21*
X113830000Y-120070000D03*
%TD*%
D29*
%TO.C,C2*%
X116520000Y-115360000D03*
X116520000Y-116320000D03*
%TD*%
D33*
%TO.C,R37*%
X174990000Y-92520000D03*
X174990000Y-91500000D03*
%TD*%
D55*
%TO.C,D3*%
X111950000Y-83062500D03*
X111950000Y-84637500D03*
%TD*%
D56*
%TO.C,C21*%
X109563300Y-100276700D03*
X109563300Y-98716700D03*
%TD*%
D57*
%TO.C,J8*%
X159050000Y-78050000D03*
D58*
X160550000Y-76550000D03*
X157550000Y-76550000D03*
%TD*%
D45*
%TO.C,C44*%
X145080000Y-119200000D03*
X145080000Y-118200000D03*
%TD*%
D26*
%TO.C,R19*%
X109660000Y-116910000D03*
X109660000Y-117930000D03*
%TD*%
D45*
%TO.C,R43*%
X148960000Y-119360000D03*
X148960000Y-118360000D03*
%TD*%
D59*
%TO.C,SW1*%
X174745000Y-122880000D03*
X176695000Y-122880000D03*
D60*
X173670000Y-121330000D03*
X177770000Y-121330000D03*
X173670000Y-122930000D03*
X177770000Y-122930000D03*
D61*
X175720000Y-120705000D03*
%TD*%
D62*
%TO.C,TP1*%
X116293300Y-98006700D03*
%TD*%
D31*
%TO.C,C24*%
X151320000Y-86360100D03*
X150320000Y-86360100D03*
%TD*%
D24*
%TO.C,C15*%
X142770000Y-83040000D03*
X143730000Y-83040000D03*
%TD*%
D63*
%TO.C,L4*%
X157700000Y-79710000D03*
X157700000Y-81290000D03*
%TD*%
D19*
%TO.C,C40*%
X131349989Y-85399989D03*
X132028811Y-86078811D03*
%TD*%
D59*
%TO.C,SW3*%
X168545000Y-122880000D03*
X170495000Y-122880000D03*
D60*
X167470000Y-121330000D03*
X171570000Y-121330000D03*
X167470000Y-122930000D03*
X171570000Y-122930000D03*
D61*
X169520000Y-120705000D03*
%TD*%
D24*
%TO.C,C16*%
X119533300Y-99886700D03*
X120493300Y-99886700D03*
%TD*%
D64*
%TO.C,C19*%
X126710589Y-83739411D03*
X127389411Y-83060589D03*
%TD*%
D42*
%TO.C,C10*%
X114970000Y-87730000D03*
X114010000Y-87730000D03*
%TD*%
D23*
%TO.C,R26*%
X126789376Y-96239376D03*
X127510624Y-96960624D03*
%TD*%
D22*
%TO.C,C1*%
X117020000Y-113150000D03*
X117020000Y-112190000D03*
%TD*%
D65*
%TO.C,L2*%
X112640000Y-102420000D03*
X112640000Y-98720000D03*
%TD*%
D66*
%TO.C,L6*%
X130470000Y-83375000D03*
X130470000Y-82405000D03*
%TD*%
D31*
%TO.C,C23*%
X151320000Y-87360100D03*
X150320000Y-87360100D03*
%TD*%
D67*
%TO.C,Y2*%
X136370000Y-87870000D03*
X138120000Y-87870000D03*
X138120000Y-86470000D03*
X136370000Y-86470000D03*
%TD*%
D23*
%TO.C,R29*%
X123489376Y-95539376D03*
X124210624Y-96260624D03*
%TD*%
D29*
%TO.C,C32*%
X129990000Y-98142500D03*
X129990000Y-99102500D03*
%TD*%
D38*
%TO.C,D1*%
X118320000Y-115807500D03*
X118320000Y-114232500D03*
%TD*%
D32*
%TO.C,R4*%
X152910000Y-107980000D03*
X151890000Y-107980000D03*
%TD*%
D26*
%TO.C,R12*%
X110710000Y-115850000D03*
X110710000Y-116870000D03*
%TD*%
D22*
%TO.C,C14*%
X133700000Y-83380000D03*
X133700000Y-82420000D03*
%TD*%
D30*
%TO.C,C9*%
X111440000Y-104057500D03*
X112440000Y-104057500D03*
%TD*%
%TO.C,C47*%
X140500000Y-108000000D03*
X141500000Y-108000000D03*
%TD*%
D22*
%TO.C,DNP2*%
X174210000Y-97690000D03*
X174210000Y-96730000D03*
%TD*%
D33*
%TO.C,R17*%
X173000000Y-92520000D03*
X173000000Y-91500000D03*
%TD*%
D31*
%TO.C,R7*%
X120013300Y-105496700D03*
X119013300Y-105496700D03*
%TD*%
D44*
%TO.C,R40*%
X128870000Y-102730000D03*
X128870000Y-103730000D03*
%TD*%
D26*
%TO.C,R34*%
X122900000Y-114270000D03*
X122900000Y-115290000D03*
%TD*%
D66*
%TO.C,L5*%
X132640000Y-83385000D03*
X132640000Y-82415000D03*
%TD*%
D22*
%TO.C,C3*%
X113163300Y-96337500D03*
X113163300Y-95377500D03*
%TD*%
D41*
%TO.C,C36*%
X171363553Y-96613553D03*
X170656447Y-95906447D03*
%TD*%
D68*
%TO.C,U1*%
X127610000Y-86180000D03*
X127210000Y-86180000D03*
X126810000Y-86180000D03*
X126410000Y-86180000D03*
X126010000Y-86180000D03*
X125610000Y-86180000D03*
X125210000Y-86180000D03*
X124810000Y-86180000D03*
X124410000Y-86180000D03*
X124010000Y-86180000D03*
X123610000Y-86180000D03*
X123210000Y-86180000D03*
X122810000Y-86180000D03*
X122410000Y-86180000D03*
D69*
X121560000Y-87030000D03*
X121560000Y-87430000D03*
X121560000Y-87830000D03*
X121560000Y-88230000D03*
X121560000Y-88630000D03*
X121560000Y-89030000D03*
X121560000Y-89430000D03*
X121560000Y-89830000D03*
X121560000Y-90230000D03*
X121560000Y-90630000D03*
X121560000Y-91030000D03*
X121560000Y-91430000D03*
X121560000Y-91830000D03*
X121560000Y-92230000D03*
D68*
X122410000Y-93080000D03*
X122810000Y-93080000D03*
X123210000Y-93080000D03*
X123610000Y-93080000D03*
X124010000Y-93080000D03*
X124410000Y-93080000D03*
X124810000Y-93080000D03*
X125210000Y-93080000D03*
X125610000Y-93080000D03*
X126010000Y-93080000D03*
X126410000Y-93080000D03*
X126810000Y-93080000D03*
X127210000Y-93080000D03*
X127610000Y-93080000D03*
D69*
X128460000Y-92230000D03*
X128460000Y-91830000D03*
X128460000Y-91430000D03*
X128460000Y-91030000D03*
X128460000Y-90630000D03*
X128460000Y-90230000D03*
X128460000Y-89830000D03*
X128460000Y-89430000D03*
X128460000Y-89030000D03*
X128460000Y-88630000D03*
X128460000Y-88230000D03*
X128460000Y-87830000D03*
X128460000Y-87430000D03*
X128460000Y-87030000D03*
D70*
X125010000Y-89630000D03*
%TD*%
D71*
%TO.C,U14*%
X136180000Y-109345000D03*
X136680000Y-109345000D03*
X137180000Y-109345000D03*
X137680000Y-109345000D03*
D72*
X138367500Y-108657500D03*
X138367500Y-108157500D03*
X138367500Y-107657500D03*
X138367500Y-107157500D03*
D71*
X137680000Y-106470000D03*
X137180000Y-106470000D03*
X136680000Y-106470000D03*
X136180000Y-106470000D03*
D72*
X135492500Y-107157500D03*
X135492500Y-107657500D03*
X135492500Y-108157500D03*
X135492500Y-108657500D03*
D73*
X136930000Y-107907500D03*
%TD*%
D30*
%TO.C,R5*%
X135030000Y-110617500D03*
X136030000Y-110617500D03*
%TD*%
%TO.C,C46*%
X140497500Y-107012500D03*
X141497500Y-107012500D03*
%TD*%
D74*
%TO.C,U4*%
X121829855Y-118402477D03*
X127609891Y-118402477D03*
D75*
X120400086Y-117842659D03*
D76*
X120400086Y-122022492D03*
D75*
X129039914Y-117842659D03*
D76*
X129039914Y-122022492D03*
D77*
X121519975Y-117277508D03*
X122320076Y-117277508D03*
D78*
X123469936Y-117277508D03*
X124469936Y-117277508D03*
X124970064Y-117277508D03*
X125970064Y-117277508D03*
D77*
X127920025Y-117277508D03*
X127119924Y-117277508D03*
D78*
X126469936Y-117277508D03*
X125469936Y-117277508D03*
X123970064Y-117277508D03*
X122970064Y-117277508D03*
%TD*%
D31*
%TO.C,C28*%
X156900000Y-82550000D03*
X155900000Y-82550000D03*
%TD*%
D30*
%TO.C,C49*%
X129500000Y-100500000D03*
X130500000Y-100500000D03*
%TD*%
D50*
%TO.C,U3*%
X113120000Y-115795000D03*
X114070000Y-115795000D03*
X115020000Y-115795000D03*
X115020000Y-113520000D03*
X113120000Y-113520000D03*
%TD*%
D45*
%TO.C,C45*%
X146100000Y-119200000D03*
X146100000Y-118200000D03*
%TD*%
D79*
%TO.C,U13*%
X147090000Y-101770000D03*
X147090000Y-102420000D03*
X147090000Y-103070000D03*
X147090000Y-103720000D03*
X147090000Y-104370000D03*
X147090000Y-105020000D03*
X147090000Y-105670000D03*
D80*
X147977500Y-106557500D03*
X148627500Y-106557500D03*
X149277500Y-106557500D03*
X149927500Y-106557500D03*
X150577500Y-106557500D03*
X151227500Y-106557500D03*
X151877500Y-106557500D03*
D79*
X152765000Y-105670000D03*
X152765000Y-105020000D03*
X152765000Y-104370000D03*
X152765000Y-103720000D03*
X152765000Y-103070000D03*
X152765000Y-102420000D03*
X152765000Y-101770000D03*
D80*
X151877500Y-100882500D03*
X151227500Y-100882500D03*
X150577500Y-100882500D03*
X149927500Y-100882500D03*
X149277500Y-100882500D03*
X148627500Y-100882500D03*
X147977500Y-100882500D03*
D81*
X149927500Y-103720000D03*
%TD*%
D42*
%TO.C,C6*%
X121780000Y-114230000D03*
X120820000Y-114230000D03*
%TD*%
D33*
%TO.C,R16*%
X108700000Y-84895000D03*
X108700000Y-83875000D03*
%TD*%
D29*
%TO.C,DNP4*%
X178560000Y-97730000D03*
X178560000Y-98690000D03*
%TD*%
D25*
%TO.C,C25*%
X120639411Y-83060589D03*
X119960589Y-83739411D03*
%TD*%
D82*
%TO.C,U10*%
X116863300Y-101226700D03*
X117363300Y-101226700D03*
X117863300Y-101226700D03*
X118363300Y-101226700D03*
X118363300Y-99746700D03*
X117863300Y-99746700D03*
X117363300Y-99746700D03*
X116863300Y-99746700D03*
%TD*%
D29*
%TO.C,C38*%
X112540000Y-88690000D03*
X112540000Y-89650000D03*
%TD*%
D27*
%TO.C,R15*%
X117660000Y-117420000D03*
X118680000Y-117420000D03*
%TD*%
D34*
%TO.C,RESET1*%
X142250000Y-84565000D03*
X142250000Y-88715000D03*
%TD*%
D30*
%TO.C,R6*%
X121013300Y-103346700D03*
X122013300Y-103346700D03*
%TD*%
D45*
%TO.C,C27*%
X159050000Y-82400000D03*
X159050000Y-81400000D03*
%TD*%
D32*
%TO.C,R22*%
X141730000Y-83040000D03*
X140710000Y-83040000D03*
%TD*%
D29*
%TO.C,C31*%
X131560000Y-82390000D03*
X131560000Y-83350000D03*
%TD*%
D26*
%TO.C,R25*%
X113350000Y-82890000D03*
X113350000Y-83910000D03*
%TD*%
D83*
%TO.C,L3*%
X125442947Y-83057053D03*
X124757053Y-83742947D03*
%TD*%
D30*
%TO.C,C30*%
X177000000Y-91500000D03*
X178000000Y-91500000D03*
%TD*%
D84*
%TO.C,JP3*%
X131457500Y-109437500D03*
D85*
X131457500Y-108137500D03*
D86*
X131457500Y-106837500D03*
%TD*%
D30*
%TO.C,C48*%
X140497500Y-108972500D03*
X141497500Y-108972500D03*
%TD*%
D20*
%TO.C,J5*%
X156650000Y-121950000D03*
D21*
X159190000Y-121950000D03*
%TD*%
D24*
%TO.C,DNP6*%
X161170000Y-82950000D03*
X162130000Y-82950000D03*
%TD*%
D23*
%TO.C,R30*%
X122289376Y-95889376D03*
X123010624Y-96610624D03*
%TD*%
D31*
%TO.C,C5*%
X113440000Y-109470000D03*
X112440000Y-109470000D03*
%TD*%
D25*
%TO.C,C18*%
X123439411Y-83060589D03*
X122760589Y-83739411D03*
%TD*%
D42*
%TO.C,C22*%
X121780000Y-115280000D03*
X120820000Y-115280000D03*
%TD*%
D20*
%TO.C,SW2*%
X185150000Y-85110000D03*
D21*
X185150000Y-87650000D03*
%TD*%
D30*
%TO.C,R33*%
X120213300Y-102096700D03*
X121213300Y-102096700D03*
%TD*%
D87*
%TO.C,U2*%
X138987500Y-98705000D03*
X138987500Y-97435000D03*
X138987500Y-96165000D03*
X138987500Y-94895000D03*
X131812500Y-94895000D03*
X131812500Y-96165000D03*
X131812500Y-97435000D03*
X131812500Y-98705000D03*
%TD*%
D22*
%TO.C,C17*%
X112083300Y-96330000D03*
X112083300Y-95370000D03*
%TD*%
D30*
%TO.C,C41*%
X148570000Y-94910100D03*
X149570000Y-94910100D03*
%TD*%
D24*
%TO.C,DNP7*%
X161170000Y-81550000D03*
X162130000Y-81550000D03*
%TD*%
D88*
%TO.C,Y1*%
X114450000Y-91500000D03*
X114450000Y-89000000D03*
%TD*%
D26*
%TO.C,R3*%
X114813300Y-106936700D03*
X114813300Y-107956700D03*
%TD*%
%LPD*%
M02*
