%TF.GenerationSoftware,KiCad,Pcbnew,9.0.7*%
%TF.CreationDate,2026-04-14T00:44:38+02:00*%
%TF.ProjectId,LoRa-device,4c6f5261-2d64-4657-9669-63652e6b6963,rev?*%
%TF.SameCoordinates,Original*%
%TF.FileFunction,Soldermask,Bot*%
%TF.FilePolarity,Negative*%
%FSLAX46Y46*%
G04 Gerber Fmt 4.6, Leading zero omitted, Abs format (unit mm)*
G04 Created by KiCad (PCBNEW 9.0.7) date 2026-04-14 00:44:38*
%MOMM*%
%LPD*%
G01*
G04 APERTURE LIST*
%ADD10R,1.700000X1.700000*%
%ADD11C,1.700000*%
%ADD12C,1.000000*%
%ADD13C,0.500000*%
%ADD14R,4.800000X1.200000*%
%ADD15C,0.600000*%
%ADD16C,0.900025*%
%ADD17O,1.400000X1.100000*%
%ADD18O,1.200000X2.000000*%
%ADD19C,0.649987*%
%ADD20O,0.900000X2.100000*%
%ADD21O,0.900000X1.800000*%
G04 APERTURE END LIST*
D10*
%TO.C,J4*%
X103975000Y-82800000D03*
D11*
X103975000Y-85340000D03*
X103975000Y-87880000D03*
X103975000Y-90420000D03*
X103975000Y-92960000D03*
X103975000Y-95500000D03*
X103975000Y-98040000D03*
X103975000Y-100580000D03*
X103975000Y-103120000D03*
X103975000Y-105660000D03*
X103975000Y-108200000D03*
X103975000Y-110740000D03*
X103975000Y-113280000D03*
X103975000Y-115820000D03*
%TD*%
D10*
%TO.C,J3*%
X156580000Y-122090000D03*
D11*
X159120000Y-122090000D03*
X161660000Y-122090000D03*
X164200000Y-122090000D03*
%TD*%
D12*
%TO.C,P1*%
X114350318Y-120950000D03*
X115600000Y-120950000D03*
%TD*%
D13*
%TO.C,MK1*%
X186152000Y-115400000D03*
%TD*%
D14*
%TO.C,U15*%
X185350102Y-83099962D03*
X185350102Y-88200038D03*
%TD*%
D15*
%TO.C,U19*%
X130660000Y-106240000D03*
X130660000Y-106840000D03*
X131260000Y-106240000D03*
X131260000Y-106840000D03*
%TD*%
D10*
%TO.C,J6*%
X184975000Y-95475000D03*
D11*
X184975000Y-98015000D03*
X184975000Y-100555000D03*
X184975000Y-103095000D03*
%TD*%
D15*
%TO.C,U7*%
X115650000Y-113600000D03*
X116450000Y-113600000D03*
%TD*%
D12*
%TO.C,P2*%
X132800318Y-120900000D03*
X134050000Y-120900000D03*
%TD*%
D15*
%TO.C,U14*%
X148170000Y-94220000D03*
X148170000Y-95720000D03*
X148170000Y-97220000D03*
X149670000Y-94220000D03*
X149670000Y-95720000D03*
X149670000Y-97220000D03*
X151170000Y-94220000D03*
X151170000Y-95720000D03*
X151170000Y-97220000D03*
%TD*%
D16*
%TO.C,SW1*%
X177649873Y-77540178D03*
X177649873Y-74740076D03*
%TD*%
D17*
%TO.C,U5*%
X172649746Y-121950000D03*
X174650000Y-121950000D03*
X176649746Y-121950000D03*
D18*
X178749568Y-121950000D03*
X170549669Y-121950000D03*
%TD*%
D15*
%TO.C,U1*%
X125100000Y-90050000D03*
X123770000Y-90050000D03*
X122440000Y-90050000D03*
X125100000Y-91380000D03*
X123770000Y-91380000D03*
X122440000Y-91380000D03*
X125100000Y-92710000D03*
X123770000Y-92710000D03*
X122440000Y-92710000D03*
%TD*%
D19*
%TO.C,U11*%
X121809855Y-117042477D03*
X127589891Y-117042477D03*
D20*
X120380086Y-116482659D03*
D21*
X120380086Y-120662492D03*
D20*
X129019914Y-116482659D03*
D21*
X129019914Y-120662492D03*
%TD*%
D12*
%TO.C,J1*%
X140150038Y-120316091D03*
X148150038Y-120316091D03*
%TD*%
D15*
%TO.C,U17*%
X173900000Y-95434925D03*
X173000000Y-95434925D03*
X173900000Y-96134925D03*
X173000000Y-96134925D03*
%TD*%
D16*
%TO.C,SW2*%
X167950000Y-77536013D03*
X167950000Y-74735911D03*
%TD*%
M02*
